<?xml version="1.0" encoding="utf-8"?>
<!-- Generator: Adobe Illustrator 18.0.0, SVG Export Plug-In . SVG Version: 6.00 Build 0)  -->
<!DOCTYPE svg PUBLIC "-//W3C//DTD SVG 1.1//EN" "http://www.w3.org/Graphics/SVG/1.1/DTD/svg11.dtd">
<svg version="1.1" id="Capa_1" xmlns="http://www.w3.org/2000/svg" xmlns:xlink="http://www.w3.org/1999/xlink" x="0px" y="0px"
	 viewBox="-50 4 100 100" enable-background="new -50 4 100 100" xml:space="preserve">
<g>
	<path id="rect2990" fill="#DCDCDC" d="M-44.8,19.1v3.7v62.4v3.7h3.6h82.4h3.6v-3.7V22.8v-3.7
		h-3.6h-82.4C-41.2,19.1-44.8,19.1-44.8,19.1z M-37.6,26.5h75.2v55h-75.2V26.5z"/>
	<path id="rect3760" fill="#DCDCDC" d="M-32.7,30.9v0.6v45v0.6h0.5h64.6H33v-0.6v-45v-0.6h-0.6
		h-64.6H-32.7z M-31.6,32.1h63.4v43.8h-63.4V32.1z"/>
	<g id="g3835" transform="matrix(0.03023187,0,0,0.03023187,55.958323,36.734958)">
		<path id="path3825" fill="#DCDCDC" d="M-1083.3,567.9c8.5-15.1,17.5-30,26.6-44.7
			c8.9,15.1,17.5,30.5,27.1,45.2c12.5-12.4,26.1-23.4,39.1-35.1c3.5,17.2,7.5,34.4,11.5,51.6c15.9-6.9,31.9-13.7,47.9-20.4
			c-0.8,17.4-3,34.7-4.2,52.1c17.2-1.9,34.5-3.4,51.7-4.8c-6.6,16.2-13.7,32.2-20.5,48.4c17,3.5,33.9,7.4,50.7,11.1
			c-10.7,13.7-23,26.1-33.5,40.1c14.6,8.9,29.5,17.5,44.4,26.2c-14.7,9.5-30,18.2-45,27.2c11.6,12.9,22.9,26,34.2,39.1
			c-16.7,4.5-33.9,8-50.7,11.9c6.6,16.2,14.1,32.1,20.4,48.5c-17.2-1.7-34.5-3.1-51.6-5c1,17.5,2.8,34.9,4.1,52.4
			c-16-6.9-31.9-14-48-20.2c-1.8,8-4.9,16.5-1.5,24.5c27.9,83.7,56,167.4,84.4,251c-22.7-13.1-44.6-27.5-67.2-40.6
			c-11.7,22.4-22.7,45.1-35.1,67.1c-1.6-5-2.9-10.1-4.1-15.2c-17.2-75.6-35.5-151.1-52.6-226.7c-1.1,0-2.2,0-3.2,0
			c-13.6,59.4-27.7,118.6-41.5,177.9c-5.1,21-9.1,42.2-15.2,62.9c-12.4-22-23.1-44.7-35-67c-22.6,13.2-44.5,27.5-67.1,40.6
			c28.7-83.1,55.5-166.9,84-250c2.6-8,0.6-16.5-1.4-24.4c-16.2,6.2-32.1,13.5-48.1,20.2c1.1-17.5,3.2-34.9,4.2-52.5
			c-17.2,1.8-34.4,3.2-51.6,5.1c6.6-16.2,13.9-32.2,20.4-48.5c-16.7-3.9-33.7-7.4-50.5-11.6c11-13.5,22.9-26.4,34.1-39.6
			c-15.2-8.6-30.2-17.5-45.1-27c15.1-8.7,29.7-17.9,45-26.2c-11.1-13.6-23.5-26.1-34.1-40.1c16.9-3.6,33.7-7.6,50.6-11.1
			c-6.6-16.1-13.6-32.2-20.4-48.4c17.4,0.9,34.6,2.9,51.7,4.8c-0.9-17.4-2.9-34.7-4.1-52.1c16,6.5,31.7,14,48,19.9
			c3.8-17,8-33.9,11.2-51C-1110.1,544.9-1097.4,557.3-1083.3,567.9 M-1063.2,596.4c-41.5,1.4-81.7,23-105.5,57
			c-26.6,36.2-32.5,86.1-17.1,128.2c10.5,30.2,33,55.9,60.6,71.9c38.9,22.4,88.9,23.4,129.2,3.9c22.1-10.5,40.6-27.9,54.4-48.1
			c30.5-46.2,29.2-111.2-3.5-156C-971.1,615.6-1017.7,593.6-1063.2,596.4z"/>
		<path id="path3827" fill="#DCDCDC" d="M-1065.7,606.4c49.2-4.2,99.4,24.1,121.6,68.2
			c11.2,20.5,15.1,44.2,14,67.4c-2.2,56.7-47.9,108.1-103.9,117.2c-49.4,9.6-103.4-13.1-130-56c-29.2-43.4-26.9-104.9,5.1-146.2
			C-1137.3,627.5-1102.2,608.8-1065.7,606.4z"/>
	</g>
	<path id="path3858" fill="#DCDCDC" d="M0.9,40.5l0,2c8.1,0.1,14,1.2,17.8,2.4c4,1.2,5.8,2.4,5.8,2.4l1.1-1.6c0,0-2.1-1.3-6.2-2.6
		C15.2,41.8,9.2,40.6,0.9,40.5z M-3.2,40.5c-3.8,0.1-7.1,0.5-9.9,1l0.4,2c2.7-0.5,5.9-0.8,9.7-1l0-2C-3.1,40.5-3.2,40.5-3.2,40.5z
		 M-17,42.4c-0.9,0.2-1.7,0.4-2.4,0.7c-4.2,1.3-6.2,2.6-6.2,2.6l1.1,1.6c0,0,1.7-1.2,5.7-2.4c0.7-0.2,1.4-0.4,2.2-0.6L-17,42.4z"/>
	<path id="path3860" fill="#DCDCDC" d="M-27.6,66v1h15v-1H-27.6z"/>
	<path id="path3862" fill="#DCDCDC" d="M-27.6,71v1h15v-1H-27.6z"/>
</g>
</svg>
