<?xml version="1.0" encoding="utf-8"?>
<!-- Generator: Adobe Illustrator 18.0.0, SVG Export Plug-In . SVG Version: 6.00 Build 0)  -->
<!DOCTYPE svg PUBLIC "-//W3C//DTD SVG 1.1//EN" "http://www.w3.org/Graphics/SVG/1.1/DTD/svg11.dtd">
<svg version="1.1" id="Layer_1" xmlns="http://www.w3.org/2000/svg" xmlns:xlink="http://www.w3.org/1999/xlink" x="0px" y="0px"
	 viewBox="0 0 178.4 117" enable-background="new 0 0 178.4 117" xml:space="preserve">
<g>
	<g>
		<g>
			<path fill="#CFCECE" d="M27,2.4c27.8,10.3,49.5,33.9,57.6,62.4c0.3,1.1,3.2,0.3,2.9-0.8C79.2,34.9,57,11.2,28.7,0.7
				C27.7,0.3,25.3,1.8,27,2.4L27,2.4z"/>
		</g>
	</g>
	<g>
		<g>
			<path fill="#CFCECE" d="M34.1,11.8c-2-3.5-4-6.9-5.9-10.4c-0.1,0.4-0.2,0.9-0.4,1.3c1.9-1.4,6-0.6,8.2-0.6c3.3,0,6.5,0,9.8,0
				C47.4,2.2,48,0,46,0c-4.2,0-8.4,0-12.6,0c-2.7,0-5.3-0.3-7.6,1.4c-0.4,0.3-0.6,0.8-0.4,1.3c2,3.5,4,6.9,5.9,10.4
				C32.1,14.2,34.9,13.2,34.1,11.8L34.1,11.8z"/>
		</g>
	</g>
	<g>
		<path fill="#C0C0C0" d="M8.8,83.8l-0.4,0.4l0,0.1c0,0.3-0.2,0.5-0.4,0.7c-0.4,0.7-0.9,1.2-1.5,1.5L6,86.8l-0.3,0l-0.4,0.3l-0.3,0
			l-0.6,0.4l-0.4,0l-0.4,0.2l-0.3-0.1l-0.2,0.1l-0.4-0.1l-0.4,0.1l-0.2-0.1l-0.5-0.1L1.1,87l-0.4-0.5c-0.2-0.3-0.3-0.5-0.3-0.7v-0.1
			l-0.2-0.3v-0.3c0-0.2-0.1-0.4-0.1-0.5v-0.2L0,84l0.1-0.3L0,83.6l0.3-0.4l-0.1-0.4l0.2-0.6L0.5,82l0.1-0.6l0-0.1l0.3-0.3l0-0.2
			l0.2-0.5l0.3-0.6l0.4-0.4l0.1-0.2L2,78.9l0-0.2l0.4-0.4c0.1,0,0.2-0.1,0.3-0.1c0.1-0.3,0.4-0.5,1.1-0.5c0.6,0.1,1,0.3,1.1,0.5
			c0.2,0,0.3,0.1,0.4,0.2l0.5,0l0.3,0.4c0.1,0.2,0.1,0.3,0.2,0.5l0.2,0.2l-0.1,0.3c0,0.1,0,0.3,0,0.5l0.1,0.1v0.3l0.1,0.7
			c-0.3,0.3-0.7,0.5-1.1,0.6c-0.2-0.4-0.5-0.7-0.8-0.9v-0.8L4.6,80l0-0.2l-0.2-0.3l-0.1-0.1l-0.2,0.1H3.8c-0.2,0-0.4,0.2-0.6,0.4
			c-0.2,0.2-0.4,0.5-0.6,0.8l0,0.2l-0.1,0.1v0.4l-0.3,0.3l-0.4,1l0,0.3l-0.2,0.4L1.7,84l-0.1,0.1l0,0.6l0,0.1l0.3,0.3L2,85.6
			l0.3,0.1l0,0.2L2.7,86L3,86C3.1,86,3.3,86,3.4,86h0.2c0.2-0.1,0.4-0.1,0.5-0.1c0.1,0,0.2-0.1,0.4-0.1c0.2-0.2,0.4-0.4,0.8-0.4h0.1
			c0.1,0,0.1,0,0.2-0.1C5.7,85,6,84.8,6.4,84.7C6.8,84.3,7,84,7.1,83.8c0.2-0.1,0.4-0.3,0.4-0.6l0.1-0.1l0.1-0.5
			c0.7,0.1,1.1,0.5,1.1,1.1V83.8z"/>
		<path fill="#C0C0C0" d="M16.5,84.9c0,0.2-0.1,0.3-0.2,0.4c-0.1,0.2-0.3,0.4-0.6,0.6l-0.2,0.2l-0.2,0.3l-0.2,0.1l-0.3,0.2l-0.2,0
			l-0.1,0.1c-0.3,0.1-0.5,0.2-0.7,0.5c-0.1,0.1-0.2,0.1-0.3,0.1c-0.1,0-0.1,0-0.2,0c-0.3,0.2-0.6,0.2-1,0.2c-0.4,0-0.6,0-0.7-0.1
			l-0.4-0.2L11.1,87v-0.1c0-0.2-0.1-0.4-0.3-0.5L10.7,86l-0.2-0.2l-0.1-0.9v-0.5V84l0.1-0.1c0-0.1-0.1-0.2-0.1-0.3
			c0.1-0.6,0.1-1.1,0.1-1.2L10.3,82l0.2-0.3l0.1-0.6l0-0.4l0.1-0.3l-0.1-0.5l0.2-0.3l0-0.2v-0.8v-0.2v-1l0.1-1l-0.1-0.2v-0.7v-0.6
			v-0.2l0.1-1.4c0.6-0.2,0.9-0.2,0.8-0.2c0.2,0,0.4,0.1,0.6,0.4l0,0.2l0.3,0.3l-0.1,0.5v0.1c0,0.3-0.1,0.5-0.2,0.6l0.1,0.5l0.1,0.4
			l-0.2,0.5c0,0.3,0,0.5-0.1,0.7c0,0.1,0,0.2,0,0.4l0,0.1l0.2,0.3l-0.1,0.3c0,0.1,0.1,0.2,0.1,0.3c0,0.1,0,0.2-0.1,0.4l0,0.2
			l-0.1,0.7v0.5l-0.2,0.5l0.1,0.4l-0.1,1l0.1,0.1l-0.1,0.5l0,0.6c0,0.1,0,0.1,0,0.2c0,0.3,0,0.5,0,0.6l0.1,0.3V85l0.1,0.3l0,0.1
			c0.1,0.1,0.2,0.2,0.3,0.4h0.2l0.3,0.1l0.1-0.2l0.2,0c0.1,0,0.2,0,0.2,0h0.1c0.2,0,0.3-0.1,0.4-0.2l0.1-0.1
			c0.1-0.2,0.3-0.3,0.5-0.3c0.1-0.1,0.2-0.2,0.4-0.4c0-0.2,0.1-0.4,0.4-0.5c0.2,0,0.4,0,0.5-0.1c0.3,0,0.5,0.1,0.6,0.2
			C16.5,84.4,16.5,84.6,16.5,84.9z"/>
		<path fill="#C0C0C0" d="M24,84.1c0,0.4-0.1,0.6-0.2,0.7l-0.1,0.1l-0.1,0.3l-0.4,0.1c-0.1,0.2-0.3,0.4-0.5,0.6l-0.2,0.1l-0.3,0.3
			l-0.3,0.1c-0.1,0.3-0.3,0.4-0.7,0.4c0,0-0.1,0.1-0.2,0.3c-0.2,0.2-0.5,0.2-0.7,0.3l-0.1,0l-0.2,0.2h-0.5l-0.4,0.3l-0.9-0.7
			l-0.4-0.9l0-1.1l-0.1-0.3l0.3-2l0.1-0.1c0-0.2-0.1-0.5-0.1-0.7c0-0.1,0-0.4,0.1-0.9l0.1-0.5c0-0.1-0.1-0.2-0.2-0.3l0.1-0.4l0-0.5
			l0-0.1c-0.1-0.1-0.1-0.3-0.1-0.5c0,0,0-0.1,0-0.1c0-0.1,0-0.1,0-0.1c0-0.1-0.1-0.3-0.1-0.4c0-0.4,0.2-0.5,0.6-0.5h0.3
			c0.2-0.1,0.3-0.1,0.3-0.1c0.3,0,0.5,0.2,0.6,0.5v0.1c0.1,0.2,0.1,0.4,0.1,0.5c0,0.1,0,0.2,0,0.3L20,80.2l0.2,0.3
			c0,0.3-0.1,0.5-0.3,0.7l0.1,0.3l-0.3,0.9c0,0.4-0.1,0.7-0.1,0.9v0.6l-0.1,0.3l0,0.2l0,0.5l0,0.4l0.3,0.3l0.3,0l0-0.1l0.2,0
			l0.3-0.1l0.3-0.3l0.1-0.1l0.2,0l0-0.1l0.1-0.1l0.1,0.1l0.2-0.2l0.1,0l0-0.2l0,0l0.1-0.2l0.2-0.1l0.4-0.2c0.4-0.2,0.7-0.4,1-0.4
			h0.1C23.8,83.8,23.9,83.9,24,84.1z M21.6,71.9c0,0.2-0.1,0.4-0.4,0.5v0C21,72.8,20.7,73,20.5,73l-0.3,0.4l-0.2,0.3l-0.5,0.1
			l-0.2,0.3l-0.4,0.2l-0.6,0.5l-0.4-0.3l0.1-0.6l0.3-0.4c0-0.2,0.1-0.4,0.4-0.6v-0.1l0.1-0.1l0-0.3l0.4-0.1v-0.2l0.3,0
			c0.1-0.3,0.2-0.5,0.4-0.7l0.1,0l0.1-0.1l0.2-0.6C21.1,71,21.6,71.4,21.6,71.9z"/>
		<path fill="#C0C0C0" d="M33.8,83.8l-0.4,0.4l0,0.1c0,0.3-0.2,0.5-0.4,0.7c-0.4,0.7-0.9,1.2-1.5,1.5L31,86.8l-0.3,0l-0.4,0.3
			l-0.3,0l-0.6,0.4l-0.4,0l-0.4,0.2l-0.3-0.1l-0.2,0.1l-0.4-0.1l-0.4,0.1l-0.2-0.1l-0.5-0.1L26.1,87l-0.4-0.5
			c-0.2-0.3-0.3-0.5-0.3-0.7v-0.1l-0.2-0.3v-0.3c0-0.2-0.1-0.4-0.1-0.5v-0.2L25,84l0.1-0.3L25,83.6l0.3-0.4l-0.1-0.4l0.2-0.6
			l0.1-0.1l0.1-0.6l0-0.1l0.3-0.3l0-0.2l0.2-0.5l0.3-0.6l0.4-0.4l0.1-0.2l0.1-0.3l0-0.2l0.4-0.4c0.1,0,0.2-0.1,0.3-0.1
			c0.1-0.3,0.4-0.5,1.1-0.5c0.6,0.1,1,0.3,1.1,0.5c0.2,0,0.3,0.1,0.4,0.2l0.5,0l0.3,0.4c0.1,0.2,0.1,0.3,0.2,0.5l0.2,0.2l-0.1,0.3
			c0,0.1,0,0.3,0,0.5l0.1,0.1v0.3l0.1,0.7c-0.3,0.3-0.7,0.5-1.1,0.6c-0.2-0.4-0.5-0.7-0.8-0.9v-0.8L29.6,80l0-0.2l-0.2-0.3l-0.1-0.1
			l-0.2,0.1h-0.3c-0.2,0-0.4,0.2-0.6,0.4c-0.2,0.2-0.4,0.5-0.6,0.8l0,0.2l-0.1,0.1v0.4l-0.3,0.3l-0.4,1l0,0.3l-0.2,0.4l0.1,0.5
			l-0.1,0.1l0,0.6l0,0.1l0.3,0.3l0.1,0.5l0.3,0.1l0,0.2l0.4,0.1L28,86c0.1-0.1,0.2-0.1,0.4-0.1h0.2c0.2-0.1,0.4-0.1,0.5-0.1
			c0.1,0,0.2-0.1,0.4-0.1c0.2-0.2,0.4-0.4,0.8-0.4h0.1c0.1,0,0.1,0,0.2-0.1c0.2-0.3,0.4-0.4,0.8-0.5c0.4-0.4,0.7-0.7,0.7-0.9
			c0.2-0.1,0.4-0.3,0.4-0.6l0.1-0.1l0.1-0.5c0.7,0.1,1.1,0.5,1.1,1.1V83.8z"/>
		<path fill="#C0C0C0" d="M48.7,85.7L48.5,86c0,0.4-0.2,0.8-0.5,1c0,0.2-0.1,0.3-0.2,0.4l-0.1,0.3l-0.3,0.2l-0.1,0.3l-0.9,0.5
			L46,88.7l-0.7,0L45,88.6h-0.3l-0.3-0.2l-0.2,0l-0.9-0.5l-0.8-0.7c-0.2-0.2-0.6-0.5-1.1-0.9l-0.5-0.7l-0.4-0.3l-0.1-0.2l-0.2-0.3
			c-0.2-0.2-0.4-0.5-0.7-0.8L39,83.9L38.5,83l0.1-0.3c0.1-0.5,0.3-0.8,0.7-0.8l0.4,0.1l0.4,0.4l0.4,0.3h0.4l0.1,0.1
			c0.1,0,0.2,0,0.3,0c0.2-0.1,0.4-0.2,0.8-0.3l0.2,0l0.1-0.3H43c0.2-0.1,0.3-0.2,0.5-0.2h0c0-0.1,0.1-0.2,0.2-0.4l0.4-0.2l0.2-0.2
			l0.3-0.6h0.2c0.1-0.2,0.1-0.4,0.2-0.6l0.2-0.1l-0.2-0.1l0.1-0.4c0-0.1-0.1-0.1-0.3-0.2l-0.3,0.1L44.6,79l-0.2-0.1l-0.1-0.1
			c-0.2,0-0.6-0.1-1-0.1v0h-0.1c-0.1,0-0.2,0-0.3,0c-0.2,0-0.5,0.1-0.9,0.3h-0.3c-0.6,0.2-0.9,0.3-1,0.4l-0.5,0.2l-0.7,0.6l-0.7,0.7
			l0,0.1l-0.4,0.8l-0.1,0.4l-0.1,0v0.1c0,0.1-0.1,0.2-0.1,0.3l-0.1,0.1l0,0.1l-0.1,0.1c0,0,0,0.1,0,0.1c0,0.1,0,0.1,0.1,0.2
			c0,0.3-0.1,0.5-0.2,0.6c0,0.1,0,0.1,0,0.2c0,0,0,0.1,0,0.1c0,0.3-0.1,0.5-0.2,0.6c-0.1,0.1-0.1,0.1-0.1,0.2v0.3v0.5V86
			c-0.1,0.3-0.2,0.5-0.2,0.7c0,0.2,0,0.2,0,0.3c0,0.2-0.1,0.3-0.3,0.5c-0.2,0.2-0.4,0.3-0.5,0.3c-0.2,0-0.4-0.1-0.6-0.4l-0.2-0.7
			v-0.4v-0.9v-0.2v-0.7l0.1-0.3v-0.3c0-0.3,0-0.6,0-0.9c0-0.3,0-0.5,0-0.5V82l0-0.2v-0.6l0.1-0.2l-0.1-0.3l0.1-0.8v-0.8l-0.1-0.5
			l0.1-0.2l0-0.1l-0.1-1.2l-0.2-0.8v-0.2l0.2-0.8l-0.1-0.3l0-0.6c0-0.4,0-0.5,0-0.5c0-0.5,0.4-0.8,1.2-0.9l0.5-0.3L37.2,74l0.1,0.6
			l-0.1,0.7l0,0.7l0.1,0.4l-0.1,0.4l0.1,0.6l-0.1,0.5l0.1,0.5v0.1l0.1,0.2l-0.2,0.6v0.1l0.2,0.4c-0.1,0-0.1,0.1-0.1,0.3l-0.1,0.5
			l0,0.2l0.3-0.5l0.1-0.5l0.3-0.5c0-0.2,0.1-0.3,0.2-0.4h0.3l0.2-0.4l0.5-0.3c0.2-0.2,0.5-0.4,0.7-0.5l0.1-0.1l0.4-0.2l0.3-0.1
			c0.3-0.3,1-0.5,2.1-0.6l1.8,0.1l0.4,0.2l0.2,0l0.4,0.4l0-0.1c0.2,0.1,0.3,0.2,0.4,0.4c0.1,0,0.1,0,0.1,0c0.1,0,0.1,0,0.2,0.1
			l0.5,1l0,0.1c0.1,0.2,0.1,0.3,0.1,0.4c0,0.2-0.1,0.4-0.3,0.6v0.1l-0.3,0.9L45.7,82l-0.1,0l-0.3,0.4c-0.2,0-0.3,0-0.4-0.1v0.4
			l-0.2,0.1L44.6,83l-0.4,0.1c-0.1,0-0.1,0.1-0.2,0.2c-1.1,0.4-1.6,0.6-1.8,0.6c0,0-0.1,0-0.3,0c-0.1,0-0.2,0-0.3,0
			c-0.1,0-0.1,0-0.1,0c0,0,0.1,0.2,0.3,0.5l0.3,0.2l0.4,0.7l0.6,0.4l0,0.1l0.2,0.1l0.3,0.3l0.5,0.5l0.7,0.3l0.4,0.1l0.3,0l0.2-0.1
			c0.3,0,0.6-0.2,0.9-0.4l0.4-0.7l0.2-0.3l0.1-0.4c0.2-0.1,0.4-0.1,0.6-0.1C48.3,85.1,48.6,85.3,48.7,85.7z"/>
		<path fill="#C0C0C0" d="M65.2,87.2c0,0.6-0.3,0.9-1,0.9c-0.3,0-0.6-0.1-0.7-0.4c-0.2-0.2-0.3-0.6-0.4-1.2v-0.3
			c0.1-0.1,0.1-0.2,0.1-0.2c0,0,0-0.1,0-0.1l-0.3-0.5l0.3-0.4L63,84.4l0.1-0.3v-0.3v-0.3L63,83.2l0.1-0.2v-0.8v-1L63,80.5l0.1-0.3
			l-0.2-0.6l-0.2,0.2L62.2,80l-0.7,0.9l-0.3,0l-0.4,0.7l-0.1,0.3l-0.3,0.1l-0.3,0.4l-0.1,0.3L60,83.3l-0.5,0.5l-0.1,0.3l-0.3,0.2
			L59,84.9l-0.5,0.4l-0.1,0.8h-0.2l-0.1,0.1L57.8,87l-0.4,0.4L57,87.9l-0.4-0.1h-0.3l-0.3-0.4l-0.3-0.8v-1.2L55.8,85l0.1-0.5v-1.1
			l0.2,0l0.1-1.6l0-0.3l0-0.5l0.1-0.1l0.1-0.7l0.1-0.3l-0.1-0.3l0.1-0.1l0-0.1l0.1-0.6l-0.2-0.2l0.2-0.3l0-0.7L56.1,77l0.2-0.2
			l-0.2-0.6v-0.4l-0.1-0.2L56,74.9l-0.1-0.3l-0.3-0.7l0.3-0.3l0.2-0.4h0.2c0.3,0,0.6,0.1,0.8,0.4l0.3,0.3l0.1,0.4l0.4,0.3l-0.1,0.3
			l0.2,0.5v0v0v0.8l0,1l0.2,0.6l-0.1,0.3l0,0.4l-0.1,0.3l0.1,0.6l-0.1,0.5v0.1v1.4v0.3l-0.1,0.2l-0.1,0.8l-0.1,0.3l0.1,0.6l-0.1,0.2
			v0.5c0.2,0,0.3-0.1,0.3-0.3l0.2-0.2l0.2-0.3l0-0.4l0.3-0.4l0.1-0.5l0.3-0.4l0.1-0.4l0.2,0v-0.2l0-0.3l0.3-0.2v-0.2l0.2,0l0-0.4
			l0-0.2l0.4-0.2l0.1-0.1l0-0.2l0.2-0.1l0.2-0.4h0.3l0.3-0.2c0-0.1,0-0.2,0-0.2l0.3-0.1c0.3-0.2,0.5-0.4,0.8-0.4v0
			c0.4-0.2,0.7-0.3,0.8-0.3c0.2,0,0.4,0.1,0.6,0.3c0.2,0.1,0.3,0.2,0.3,0.3l0.2,0.1l0.1,0.3l0.3,0.5v1.8V82l0.1,0.2v1.7l-0.1,0.3
			v0.5l0.1,0.5l-0.1,0.4c0.1,0.2,0.1,0.4,0.1,0.6l0.3,0.3v0.2l0.1,0.1C65.1,86.9,65.2,87.1,65.2,87.2z"/>
		<path fill="#C0C0C0" d="M74.9,85.5c0,0.2-0.1,0.4-0.4,0.7c-0.1,0.2-0.2,0.4-0.3,0.6l-0.1,0l-0.3,0.4l-0.4,0.1l-0.4,0.3L72.7,88
			h-0.3c-0.2,0.1-0.3,0.1-0.4,0.1l-0.1,0.2c0,0-0.1,0-0.2,0c-0.2,0-0.4,0.1-0.6,0.4l-0.3-0.3c-0.1,0-0.2,0-0.3,0
			c-0.2,0-0.4,0-0.5-0.1h-0.4l-0.2-0.1c-0.6-0.1-1-0.3-1.1-0.7v-0.1L68,87.4L67.9,87l-0.3-0.2v-0.3l-0.3-1v-0.8l0.1-0.4v-0.5
			l0.1-0.4l0-0.2l0.2-0.3l0,0c0-0.1,0-0.3,0.1-0.4v-0.1l-0.1-0.6c0-0.3,0.1-0.5,0.3-0.7c0,0,0-0.1,0-0.1c0-0.1,0-0.2-0.1-0.4
			c-0.1-0.2-0.1-0.3-0.1-0.4c0-0.2,0-0.4,0.1-0.6c0.1,0.2,0.3,0.3,0.5,0.3h0.1c0-0.1,0.1-0.1,0.2-0.2c0.1-0.4,0.3-0.7,0.5-1l0.1-0.1
			c0-0.1,0-0.2,0.1-0.5h0.2l0-0.1l0.2,0c0.1-0.1,0.1-0.2,0.1-0.2c0,0,0.2-0.1,0.5-0.3c0.1-0.1,0.2-0.2,0.3-0.3
			c0.1,0,0.1-0.1,0.2-0.1l0.1-0.1c0.4-0.1,0.7-0.2,0.8-0.2c0.1,0,0.2,0,0.3,0.1l0.1,0l0.2,0.1c0.2,0.1,0.4,0.3,0.6,0.3l0.4,0.3v0.1
			c0.4,0.3,0.5,0.7,0.5,1.2l-0.1,0.2l0.1,0.8L73.9,80l-0.2,0.6l-0.4,0.5l0,0.4c-0.5,0.4-0.9,0.6-1.4,0.9c-0.1,0.2-0.4,0.3-0.6,0.3
			h-0.1l-0.4,0.3h-0.4l-0.6,0.2l-0.4-0.2h0c0,0.1-0.1,0.3-0.1,0.6l-0.2,0.1l0,0.3l-0.1,0.4c0,0.4,0,0.6,0,0.7l-0.1,0.1
			c0,0.2,0,0.3,0,0.4c0,0,0,0,0,0.1c0,0,0,0.1,0,0.1c0,0.1,0.1,0.2,0.2,0.3c0,0.2,0.1,0.3,0.2,0.3l0.2,0.1l0.5,0.1v0.1l0.2,0h0.8
			l0.5-0.1l0.2-0.2l0.1,0l0.2-0.3l0.1,0l0.6-0.2c0.1-0.1,0.2-0.2,0.3-0.3l0.1-0.1c0.3-0.1,0.5-0.2,0.5-0.5c0.2-0.2,0.5-0.3,0.8-0.3
			h0.1C74.8,85,74.9,85.3,74.9,85.5z M72.6,78.9c0,0,0-0.1-0.1-0.3l-0.1,0l0,0c0,0,0,0-0.1,0c0,0-0.1,0-0.1,0c0,0,0,0-0.1,0
			c0,0-0.1,0-0.1,0l-0.2,0.2l-0.2,0l-0.1,0l-0.4,0.5l-0.3,0.2l-0.4,0.6l-0.2,0.1c0,0.3-0.2,0.5-0.3,0.7l-0.1,0.2
			c0.2-0.1,0.4-0.2,0.6-0.2l0.2-0.1l0.1-0.2l0.3,0l0.2-0.3h0.1l0.3,0.1l0.1-0.3h0.2V80l0.3-0.1l0.1-0.1l0-0.2l0.3-0.4
			C72.6,79.1,72.6,79,72.6,78.9z"/>
		<path fill="#C0C0C0" d="M85.1,78.9l-0.2,0.8L84,79.7L83.6,80l-0.3-0.1L83,80.1l-0.3,0.1l-0.2,0.2l0,0.1l-0.5,0.2l-0.3,0.4h-0.2
			c-0.2,0.3-0.4,0.4-0.5,0.5l-0.3,0.5l-0.1,0c0,0.1-0.1,0.3-0.2,0.6L80,82.8l-0.1,0.3l-0.2,0.2l0,0.3l-0.2,0.1v0.3l-0.1,0.1
			c0,0.1,0.1,0.2,0.2,0.3l-0.3,0.1l0,0.3l-0.2,0.4l0.1,0.3L78.7,86c0,0.2,0,0.3,0,0.3c0,0,0,0,0,0.1c0,0,0,0.1,0,0.1l0,0.2l0.4,0.4
			l-0.3,0.5l-0.3,0.2L78,88.2l-0.9-0.3v-0.5L77,87.1l0.1-0.3c0-0.2,0-0.4,0-0.6c0,0,0-0.1,0-0.2c0-0.1,0-0.1,0-0.2l0-0.2
			c-0.1-0.1-0.2-0.2-0.2-0.4c0-0.1,0.1-0.3,0.2-0.4c0-0.1,0-0.3,0-0.7l0.1-0.1L77,83.8l0-0.3l0-0.2l0.1-0.5l-0.1-0.2l0.1-0.3
			L76.9,82c0-0.1,0-0.2,0-0.4c0-0.2,0-0.4-0.1-0.5l0.1-0.1l-0.1-0.4l-0.2-0.3l0.1-0.4l-0.1-0.1l-0.1-0.6v-0.2
			c-0.1-0.1-0.1-0.2-0.1-0.3c0-0.3,0.3-0.6,1-0.8l0.6,0.1l0.1,0.4l0.2,0.3l-0.1,0.6c0,0.3,0.1,0.6,0.2,1l0.1,0.4c0,0,0,0.1,0,0.3
			c0,0.1,0,0.2-0.1,0.3l0.1,0.5l0,0.5l-0.1,0.2l0.1,0.1l0,0.2c0.1-0.1,0.1-0.2,0.2-0.3l0.1-0.3c0-0.1,0.1-0.2,0.2-0.2l0.1-0.3
			l0.3-0.2l0-0.3l0.3-0.3l0.2-0.3c0.2-0.2,0.4-0.4,0.6-0.4l0-0.1l0.2-0.3l0.2,0l0.1-0.1l0.1-0.1l0.3-0.1l0.1-0.2l0.1,0l0.2-0.1
			l0.1-0.1l0.3-0.1l0.4-0.3l0.6-0.2c0.2,0,0.3,0,0.3,0v0c0,0,0,0,0,0h0c0.1,0,0.2,0,0.3-0.1c0.1-0.1,0.2-0.1,0.3-0.1
			c0.1,0,0.2,0,0.3,0C84.8,78.3,85,78.5,85.1,78.9z"/>
		<path fill="#C0C0C0" d="M92.6,85.5c0,0.2-0.1,0.4-0.4,0.7c-0.1,0.2-0.2,0.4-0.3,0.6l-0.1,0l-0.3,0.4L91,87.4l-0.4,0.3L90.3,88
			h-0.3c-0.2,0.1-0.3,0.1-0.4,0.1l-0.1,0.2c0,0-0.1,0-0.2,0c-0.2,0-0.4,0.1-0.6,0.4l-0.3-0.3c-0.1,0-0.2,0-0.3,0
			c-0.2,0-0.4,0-0.5-0.1h-0.4l-0.2-0.1c-0.6-0.1-1-0.3-1.1-0.7v-0.1l-0.3-0.1L85.6,87l-0.3-0.2v-0.3l-0.3-1v-0.8l0.1-0.4v-0.5
			l0.1-0.4l0-0.2l0.2-0.3l0,0c0-0.1,0-0.3,0.1-0.4v-0.1l-0.1-0.6c0-0.3,0.1-0.5,0.3-0.7c0,0,0-0.1,0-0.1c0-0.1,0-0.2-0.1-0.4
			c-0.1-0.2-0.1-0.3-0.1-0.4c0-0.2,0-0.4,0.1-0.6c0.1,0.2,0.3,0.3,0.5,0.3h0.1c0-0.1,0.1-0.1,0.2-0.2c0.1-0.4,0.3-0.7,0.5-1l0.1-0.1
			c0-0.1,0-0.2,0.1-0.5h0.2l0-0.1l0.2,0c0.1-0.1,0.1-0.2,0.1-0.2c0,0,0.2-0.1,0.5-0.3c0.1-0.1,0.2-0.2,0.3-0.3
			c0.1,0,0.1-0.1,0.2-0.1l0.1-0.1c0.4-0.1,0.7-0.2,0.8-0.2c0.1,0,0.2,0,0.3,0.1l0.1,0l0.2,0.1c0.2,0.1,0.4,0.3,0.6,0.3l0.4,0.3v0.1
			c0.4,0.3,0.5,0.7,0.5,1.2l-0.1,0.2l0.1,0.8L91.6,80l-0.2,0.6l-0.4,0.5l0,0.4c-0.5,0.4-0.9,0.6-1.4,0.9c-0.1,0.2-0.4,0.3-0.6,0.3
			h-0.1l-0.4,0.3H88l-0.6,0.2l-0.4-0.2h0c0,0.1-0.1,0.3-0.1,0.6l-0.2,0.1l0,0.3l-0.1,0.4c0,0.4,0,0.6,0,0.7l-0.1,0.1
			c0,0.2,0,0.3,0,0.4c0,0,0,0,0,0.1c0,0,0,0.1,0,0.1c0,0.1,0.1,0.2,0.2,0.3c0,0.2,0.1,0.3,0.2,0.3l0.2,0.1l0.5,0.1v0.1l0.2,0h0.8
			l0.5-0.1l0.2-0.2l0.1,0l0.2-0.3l0.1,0l0.6-0.2c0.1-0.1,0.2-0.2,0.3-0.3l0.1-0.1c0.3-0.1,0.5-0.2,0.5-0.5c0.2-0.2,0.5-0.3,0.8-0.3
			h0.1C92.4,85,92.6,85.3,92.6,85.5z M90.3,78.9c0,0,0-0.1-0.1-0.3l-0.1,0l0,0c0,0,0,0-0.1,0c0,0-0.1,0-0.1,0c0,0,0,0-0.1,0
			c0,0-0.1,0-0.1,0l-0.2,0.2l-0.2,0l-0.1,0l-0.4,0.5l-0.3,0.2l-0.4,0.6L88,80.3c0,0.3-0.2,0.5-0.3,0.7l-0.1,0.2
			c0.2-0.1,0.4-0.2,0.6-0.2l0.2-0.1l0.1-0.2l0.3,0l0.2-0.3H89l0.3,0.1l0.1-0.3h0.2V80l0.3-0.1l0.1-0.1l0-0.2l0.3-0.4
			C90.3,79.1,90.3,79,90.3,78.9z"/>
		<path fill="#C0C0C0" d="M107,79.2c0,0.1-0.1,0.3-0.4,0.4c-0.1,0.1-0.2,0.1-0.3,0.2c-0.2,0.1-0.4,0.2-0.5,0.2l-0.5-0.2
			c-0.2,0.2-0.6,0.3-0.9,0.3l-0.3-0.1l-0.2,0.2h-0.6l-0.4,0.3c-0.2-0.1-0.3-0.1-0.5-0.1c0,0-0.2,0.1-0.3,0.1c-0.1,0-0.2,0-0.3-0.1
			l-0.1,0.9v0.6v0.8l0,0.9l0.1,0.4l0,0.3l0.3,0.7c0,0-0.1,0.1-0.1,0.2c0,0.1,0.2,0.2,0.5,0.3l0,0.3l0.2,0.1L103,86l0.2,0.1
			c0.2,0,0.3,0,0.3,0c0.1,0,0.3,0,0.4,0.1c0.1,0,0.2-0.1,0.4-0.3c0.1-0.1,0.3-0.2,0.4-0.2c0,0,0,0,0.1,0c0,0,0.1,0,0.1,0
			c0.1-0.3,0.4-0.5,0.7-0.6c0.3,0,0.6,0.1,0.8,0.3v0.2c0,0.5-0.2,0.9-0.6,1c-0.1,0.3-0.4,0.5-0.9,0.6l-0.3,0.3h-0.3l-0.5,0.1
			c-0.1,0-0.3,0-0.5,0c-0.1,0-0.3,0-0.4-0.1h-0.3l-0.8-0.4l-0.2-0.1l-0.5-0.6l-0.3-0.3l-0.5-1.1l-0.2-1.1l0.1-0.3l-0.2-0.3l0.1-0.3
			l-0.1-0.5l0.2-0.2l0-0.3l-0.1-0.3l0.1-0.4l-0.1-0.4l0.1-0.1v-0.4l-0.2-0.1l-0.4,0.1l-0.4-0.3h-0.1c-0.5,0-0.7-0.2-0.7-0.7v-0.1
			l-0.3-0.4l0.4-0.4l0.6,0.1l0.3,0l0.4,0.1h0.5v-0.5l-0.3-0.6l0.3-0.2l-0.1-0.3l0-0.7l-0.2-0.3c-0.1-0.2-0.2-0.3-0.2-0.5
			c0-0.2,0-0.3,0.1-0.4l0.1-0.3l0.2-0.2c0.4-0.1,0.7-0.1,0.8-0.1c0.5,0,0.8,0.2,0.8,0.7l-0.1,0.1c0.1,0.1,0.1,0.3,0.1,0.4
			c0,0,0,0.1,0,0.1l0,0.1l0,0.2l0.1,0.3l0,0.1l0,0.3l-0.2,0.3l0.1,0.5l-0.1,0.6l0.2,0.2l-0.2,0.4l0.7-0.1l1.3,0.1l1-0.2l0.3,0l0.1,0
			h0.9C106.8,78.7,107,78.8,107,79.2z"/>
		<path fill="#C0C0C0" d="M116.1,82l-0.1,0.4c0,0.4,0,0.7-0.1,0.9l-0.1,0.2v0.3l-0.1,0.2l-0.1,0.3l-0.3,0.3l-0.2,0.6l-0.2,0.1
			l-0.1,0.3l-0.3,0.2l-0.2,0.4l-0.3,0.1l0,0.3l-0.4,0.2c-0.2,0.3-0.4,0.5-0.7,0.5l-0.1,0c-0.2,0.3-0.5,0.5-0.9,0.5
			c-0.2,0.1-0.3,0.1-0.5,0.1l-0.2,0.2L111,88l-0.3,0.2h-0.3l-0.3,0.1l-0.4-0.2l-1-0.1l-0.3-0.5l-0.5-0.5l0.1-0.4l-0.3-0.8l0.1-0.3
			l-0.1-0.6l0.1-0.3c0-0.2,0-0.4,0-0.5c0-0.3,0.1-0.5,0.2-0.6c0-0.2,0.1-0.4,0.3-0.8h0.1l-0.1-0.2l0.1-0.3V82
			c0.1-0.1,0.2-0.2,0.2-0.3l-0.1-0.3v-0.1c0.1-0.2,0.2-0.4,0.2-0.7l0.5-0.7c0.1-0.1,0.1-0.1,0.2-0.1l0-0.1h0.1l0.3-0.4l0-0.5
			l0.6-0.2c0.2-0.1,0.4-0.4,0.4-0.7h0.3c0.2-0.1,0.3-0.1,0.5-0.1c0.1,0,0.3,0,0.4,0.1l0.3,0l0.6-0.2l0.3,0.3l0.3,0.2h0.2l0.3,0.2
			h0.2c0.2,0.2,0.4,0.4,0.7,0.8l0,0.1l0.2,0.1l0.5,0.6l0.4,1.1v0.2L116.1,82z M114.6,82.6l0-0.1c-0.1-0.1-0.2-0.2-0.2-0.3l0.1-0.1
			l-0.2-0.4l0-0.4l-0.1-0.1c-0.2-0.2-0.3-0.3-0.3-0.4c-0.1-0.1-0.2-0.2-0.2-0.5l-0.1,0l-0.3-0.5l-0.2-0.2l-0.5-0.2l-0.2,0
			c-0.1,0-0.2,0-0.2-0.1l-0.5,0.5l-0.3,0.6l-0.5,0.3l-0.1,0.3l-0.2,0.1l-0.1,0.6l-0.3,0.1c-0.1,0.2-0.1,0.4-0.1,0.6l-0.4,0.3
			l0.1,0.1c0,0.2-0.1,0.3-0.2,0.5c-0.1,0.1-0.1,0.3-0.2,0.5v0.2v0.1v0.3l-0.3,0.6l0,0.1v0.6l-0.1,0.3l0,0.3l0.2,0.3l0.3,0.1l0.1,0
			h0.2h0.6l0.1-0.2h0.1c0.1,0,0.1,0,0.2,0.1l0.2-0.1l0.2,0.1l0.3-0.2l0-0.1l0.2,0c0.1-0.2,0.4-0.3,0.8-0.5l0-0.1l0.5-0.3l0.3-0.4
			l0.4-0.2l0-0.1l0.1-0.3V84l0.3-0.2l0.1-0.2l0.1-0.1c-0.1-0.2-0.1-0.3-0.1-0.4C114.3,83,114.4,82.8,114.6,82.6L114.6,82.6z"/>
		<path fill="#C0C0C0" d="M132.2,83.8l-0.4,0.4l0,0.1c0,0.3-0.2,0.5-0.4,0.7c-0.4,0.7-0.9,1.2-1.5,1.5l-0.3,0.3l-0.3,0l-0.4,0.3
			l-0.3,0l-0.6,0.4l-0.4,0l-0.4,0.2l-0.3-0.1l-0.2,0.1l-0.4-0.1l-0.4,0.1l-0.2-0.1l-0.5-0.1l-0.7-0.5l-0.4-0.5
			c-0.2-0.3-0.3-0.5-0.3-0.7v-0.1l-0.2-0.3v-0.3c0-0.2-0.1-0.4-0.1-0.5v-0.2l-0.1-0.4l0.1-0.3l-0.1-0.2l0.3-0.4l-0.1-0.4l0.2-0.6
			l0.1-0.1l0.1-0.6l0-0.1l0.3-0.3l0-0.2l0.2-0.5l0.3-0.6l0.4-0.4l0.1-0.2l0.1-0.3l0-0.2l0.4-0.4c0.1,0,0.2-0.1,0.3-0.1
			c0.1-0.3,0.4-0.5,1.1-0.5c0.6,0.1,1,0.3,1.1,0.5c0.2,0,0.3,0.1,0.4,0.2l0.5,0l0.3,0.4c0.1,0.2,0.1,0.3,0.2,0.5l0.2,0.2l-0.1,0.3
			c0,0.1,0,0.3,0,0.5l0.1,0.1v0.3l0.1,0.7c-0.3,0.3-0.7,0.5-1.1,0.6c-0.2-0.4-0.5-0.7-0.8-0.9v-0.8L128,80l0-0.2l-0.2-0.3l-0.1-0.1
			l-0.2,0.1h-0.3c-0.2,0-0.4,0.2-0.6,0.4c-0.2,0.2-0.4,0.5-0.6,0.8l0,0.2l-0.1,0.1v0.4l-0.3,0.3l-0.4,1l0,0.3l-0.2,0.4l0.1,0.5
			l-0.1,0.1l0,0.6l0,0.1l0.3,0.3l0.1,0.5l0.3,0.1l0,0.2l0.4,0.1l0.3,0.1c0.1-0.1,0.2-0.1,0.4-0.1h0.2c0.2-0.1,0.4-0.1,0.5-0.1
			c0.1,0,0.2-0.1,0.4-0.1c0.2-0.2,0.4-0.4,0.8-0.4h0.1c0.1,0,0.1,0,0.2-0.1c0.2-0.3,0.4-0.4,0.8-0.5c0.4-0.4,0.7-0.7,0.7-0.9
			c0.2-0.1,0.4-0.3,0.4-0.6l0.1-0.1l0.1-0.5c0.7,0.1,1.1,0.5,1.1,1.1V83.8z"/>
		<path fill="#C0C0C0" d="M142.3,78.9l-0.2,0.8l-0.9,0.1l-0.5,0.3l-0.3-0.1l-0.3,0.2l-0.3,0.1l-0.2,0.2l0,0.1l-0.5,0.2l-0.3,0.4
			h-0.2c-0.2,0.3-0.4,0.4-0.5,0.5l-0.3,0.5l-0.1,0c0,0.1-0.1,0.3-0.2,0.6l-0.3,0.1l-0.1,0.3l-0.2,0.2l0,0.3l-0.2,0.1v0.3l-0.1,0.1
			c0,0.1,0.1,0.2,0.2,0.3l-0.3,0.1l0,0.3l-0.2,0.4l0.1,0.3L136,86c0,0.2,0,0.3,0,0.3c0,0,0,0,0,0.1c0,0,0,0.1,0,0.1l0,0.2l0.4,0.4
			l-0.3,0.5l-0.3,0.2l-0.6,0.3l-0.9-0.3v-0.5l-0.1-0.2l0.1-0.3c0-0.2,0-0.4,0-0.6c0,0,0-0.1,0-0.2c0-0.1,0-0.1,0-0.2l0-0.2
			c-0.1-0.1-0.2-0.2-0.2-0.4c0-0.1,0.1-0.3,0.2-0.4c0-0.1,0-0.3,0-0.7l0.1-0.1l-0.1-0.3l0-0.3l0-0.2l0.1-0.5l-0.1-0.2l0.1-0.3
			l-0.1-0.3c0-0.1,0-0.2,0-0.4c0-0.2,0-0.4-0.1-0.5l0.1-0.1l-0.1-0.4l-0.2-0.3L134,80l-0.1-0.1l-0.1-0.6v-0.2
			c-0.1-0.1-0.1-0.2-0.1-0.3c0-0.3,0.3-0.6,1-0.8l0.6,0.1l0.1,0.4l0.2,0.3l-0.1,0.6c0,0.3,0.1,0.6,0.2,1l0.1,0.4c0,0,0,0.1,0,0.3
			c0,0.1,0,0.2-0.1,0.3l0.1,0.5l0,0.5l-0.1,0.2l0.1,0.1l0,0.2c0.1-0.1,0.1-0.2,0.2-0.3l0.1-0.3c0-0.1,0.1-0.2,0.2-0.2l0.1-0.3
			l0.3-0.2l0-0.3l0.3-0.3l0.2-0.3c0.2-0.2,0.4-0.4,0.6-0.4l0-0.1l0.2-0.3l0.2,0l0.1-0.1l0.1-0.1l0.3-0.1l0.1-0.2l0.1,0l0.2-0.1
			l0.1-0.1l0.3-0.1l0.4-0.3l0.6-0.2c0.2,0,0.3,0,0.3,0v0c0,0,0,0,0,0h0c0.1,0,0.2,0,0.3-0.1c0.1-0.1,0.2-0.1,0.3-0.1
			c0.1,0,0.2,0,0.3,0C142,78.3,142.3,78.5,142.3,78.9z"/>
		<path fill="#C0C0C0" d="M149.8,85.5c0,0.2-0.1,0.4-0.4,0.7c-0.1,0.2-0.2,0.4-0.3,0.6l-0.1,0l-0.3,0.4l-0.4,0.1l-0.4,0.3l-0.2,0.4
			h-0.3c-0.2,0.1-0.3,0.1-0.4,0.1l-0.1,0.2c0,0-0.1,0-0.2,0c-0.2,0-0.4,0.1-0.6,0.4l-0.3-0.3c-0.1,0-0.2,0-0.3,0
			c-0.2,0-0.4,0-0.5-0.1h-0.4l-0.2-0.1c-0.6-0.1-1-0.3-1.1-0.7v-0.1l-0.3-0.1l-0.1-0.4l-0.3-0.2v-0.3l-0.3-1v-0.8l0.1-0.4v-0.5
			l0.1-0.4l0-0.2l0.2-0.3l0,0c0-0.1,0-0.3,0.1-0.4v-0.1l-0.1-0.6c0-0.3,0.1-0.5,0.3-0.7c0,0,0-0.1,0-0.1c0-0.1,0-0.2-0.1-0.4
			c-0.1-0.2-0.1-0.3-0.1-0.4c0-0.2,0-0.4,0.1-0.6c0.1,0.2,0.3,0.3,0.5,0.3h0.1c0-0.1,0.1-0.1,0.2-0.2c0.1-0.4,0.3-0.7,0.5-1l0.1-0.1
			c0-0.1,0-0.2,0.1-0.5h0.2l0-0.1l0.2,0c0.1-0.1,0.1-0.2,0.1-0.2c0,0,0.2-0.1,0.5-0.3c0.1-0.1,0.2-0.2,0.3-0.3
			c0.1,0,0.1-0.1,0.2-0.1l0.1-0.1c0.4-0.1,0.7-0.2,0.8-0.2c0.1,0,0.2,0,0.3,0.1l0.1,0l0.2,0.1c0.2,0.1,0.4,0.3,0.6,0.3l0.4,0.3v0.1
			c0.4,0.3,0.5,0.7,0.5,1.2l-0.1,0.2l0.1,0.8l-0.2,0.1l-0.2,0.6l-0.4,0.5l0,0.4c-0.5,0.4-0.9,0.6-1.4,0.9c-0.1,0.2-0.4,0.3-0.6,0.3
			h-0.1l-0.4,0.3h-0.4l-0.6,0.2l-0.4-0.2h0c0,0.1-0.1,0.3-0.1,0.6l-0.2,0.1l0,0.3l-0.1,0.4c0,0.4,0,0.6,0,0.7l-0.1,0.1
			c0,0.2,0,0.3,0,0.4c0,0,0,0,0,0.1c0,0,0,0.1,0,0.1c0,0.1,0.1,0.2,0.2,0.3c0,0.2,0.1,0.3,0.2,0.3l0.2,0.1l0.5,0.1v0.1l0.2,0h0.8
			l0.5-0.1l0.2-0.2l0.1,0l0.2-0.3l0.1,0l0.6-0.2c0.1-0.1,0.2-0.2,0.3-0.3l0.1-0.1c0.3-0.1,0.5-0.2,0.5-0.5c0.2-0.2,0.5-0.3,0.8-0.3
			h0.1C149.7,85,149.8,85.3,149.8,85.5z M147.5,78.9c0,0,0-0.1-0.1-0.3l-0.1,0l0,0c0,0,0,0-0.1,0c0,0-0.1,0-0.1,0c0,0,0,0-0.1,0
			c0,0-0.1,0-0.1,0l-0.2,0.2l-0.2,0l-0.1,0l-0.4,0.5l-0.3,0.2l-0.4,0.6l-0.2,0.1c0,0.3-0.2,0.5-0.3,0.7l-0.1,0.2
			c0.2-0.1,0.4-0.2,0.6-0.2l0.2-0.1l0.1-0.2l0.3,0l0.2-0.3h0.1l0.3,0.1l0.1-0.3h0.2V80l0.3-0.1l0.1-0.1l0-0.2l0.3-0.4
			C147.5,79.1,147.5,79,147.5,78.9z"/>
		<path fill="#C0C0C0" d="M160.4,78.1l-0.2,0.3l0.2,0.6l-0.3,0.3l-0.1,0.5l-0.1,0.1l0,0.1c0,0.2-0.1,0.4-0.2,0.5l0,0.1v0.1
			c0,0.1,0.1,0.2,0.1,0.3c0,0.1,0,0.1,0,0.2l0,0.1l-0.1,0.3l0.1,0.3l-0.2,0.2l0.1,0.3l0.1,0.2l-0.2,0.2V83l-0.2,0.4l0.1,0.4
			l-0.1,0.2l0.2,0.2l-0.3,0.5l0,0.1l0.2,0l-0.2,0.5v0.1c0,0.1,0,0.2,0,0.3l0,0.1l0.4,0l0.3,0.5l-0.2,0.3l0.3,0
			c0.1,0.2,0.1,0.3,0.2,0.5l-0.3,0.3c-0.1,0.1-0.3,0.2-0.5,0.3l-0.4,0.2l-0.1-0.1l-0.2,0.1L158,87v-0.4c-0.1-0.3-0.1-0.6-0.1-0.8
			v-0.1l-0.1-1.4l0.2-1l-0.1-0.5l-0.4,0.6l-0.2,0.6l-0.2,0.1l-0.3,0.5l-0.6,0.5l-0.2,0.3l-0.5,0.4l-0.1,0.3l-0.7,0.5l-0.8,0.9
			l-0.4,0.1l-0.3,0.2c-0.4,0-0.7-0.2-0.9-0.4c-0.7-0.3-1.1-0.8-1.1-1.5l0.1-0.1l0-0.1l0-0.3l-0.1-0.3l0.1-0.3l0-0.5l0.2-0.8
			c0,0,0,0,0-0.1c0,0,0-0.1,0-0.1c0-0.1,0-0.1,0-0.2c0,0,0-0.1,0-0.2c0-0.1,0-0.3,0.1-0.5l0.2-0.1c-0.1-0.1-0.1-0.2-0.1-0.3
			c0-0.1,0-0.1,0-0.1c0,0,0-0.1,0-0.2c0-0.2,0.1-0.3,0.3-0.4c0-0.2,0.1-0.3,0.3-0.5l-0.1-0.2l0.3-0.3v-0.1c0-0.3,0.1-0.6,0.3-0.8
			l0-0.4l0.1-0.1c0,0,0,0,0-0.1c0,0,0-0.1,0-0.1c0-0.1,0-0.2,0.1-0.2v-0.1c0.1-0.2,0.2-0.4,0.5-0.7s0.5-0.6,0.6-0.8l0.1,0.1l0.3-0.1
			l0.1,0l0.8-0.3l1.8,0.1v0.2l0.6,0.1c0.4,0,0.6,0.1,0.7,0.3c0,0,0-0.1,0-0.2c0,0,0-0.1,0-0.1l0.5,0.4l0.4,0.1l0.8-0.2l0.3,0.6
			L160.4,78.1z M158.2,79.3l-0.1-0.2l-0.2,0l-0.7-0.6l-0.5-0.1h-0.4l0-0.1l-0.2,0.1l-0.2-0.1h-0.6l0.1,0.1l-0.5,0.2l-0.1,0.1l-0.1,0
			c-0.3,0.2-0.5,0.4-0.6,0.6l-0.2,0.6l-0.1,0.2l0.2,0.3l-0.4,0.3l0,0.1c-0.2,0.3-0.3,0.6-0.3,0.9l-0.2,0.2l0,0.4l-0.2,0.2l0,0.2
			l-0.1,0v0.3l-0.1,0.1c0,0.2,0,0.3,0,0.4l0,0.1l-0.2,0.4l0.1,0.1l-0.2,0.2l0.2,0.4l-0.3,0.3l0,0.4v0.1l0.1,0l0.1,0
			c0.1-0.1,0.2-0.1,0.2-0.2l0-0.2l0.3,0l0.1-0.2l1.4-1.1l0.1,0l0.2-0.4c0.1,0,0.2-0.1,0.4-0.2l0.1-0.4l0.2,0l-0.1-0.4l0.3,0
			c0-0.1,0.1-0.1,0.1-0.2c0.1-0.1,0.1-0.2,0.2-0.3l1.2-1.6l0.2-0.3l0-0.1l0.2-0.3l0-0.3l0.2-0.2L158.2,79.3z"/>
		<path fill="#C0C0C0" d="M170.2,79.2c0,0.1-0.1,0.3-0.4,0.4c-0.1,0.1-0.2,0.1-0.3,0.2c-0.2,0.1-0.4,0.2-0.5,0.2l-0.5-0.2
			c-0.2,0.2-0.6,0.3-0.9,0.3l-0.3-0.1l-0.2,0.2h-0.6l-0.4,0.3c-0.2-0.1-0.3-0.1-0.5-0.1c0,0-0.2,0.1-0.3,0.1c-0.1,0-0.2,0-0.3-0.1
			l-0.1,0.9v0.6v0.8l0,0.9L165,84l0,0.3l0.3,0.7c0,0-0.1,0.1-0.1,0.2c0,0.1,0.2,0.2,0.5,0.3l0,0.3l0.2,0.1l0.3,0.2l0.2,0.1
			c0.2,0,0.3,0,0.3,0c0.1,0,0.3,0,0.4,0.1c0.1,0,0.2-0.1,0.4-0.3c0.1-0.1,0.3-0.2,0.4-0.2c0,0,0,0,0.1,0c0,0,0.1,0,0.1,0
			c0.1-0.3,0.4-0.5,0.7-0.6c0.3,0,0.6,0.1,0.8,0.3v0.2c0,0.5-0.2,0.9-0.6,1c-0.1,0.3-0.4,0.5-0.9,0.6l-0.3,0.3h-0.3l-0.5,0.1
			c-0.1,0-0.3,0-0.5,0c-0.1,0-0.3,0-0.4-0.1h-0.3l-0.8-0.4l-0.2-0.1l-0.5-0.6l-0.3-0.3l-0.5-1.1l-0.2-1.1l0.1-0.3l-0.2-0.3l0.1-0.3
			l-0.1-0.5l0.2-0.2l0-0.3l-0.1-0.3l0.1-0.4l-0.1-0.4l0.1-0.1v-0.4l-0.2-0.1l-0.4,0.1l-0.4-0.3h-0.1c-0.5,0-0.7-0.2-0.7-0.7v-0.1
			l-0.3-0.4l0.4-0.4l0.6,0.1l0.3,0l0.4,0.1h0.5v-0.5l-0.3-0.6l0.3-0.2l-0.1-0.3l0-0.7l-0.2-0.3c-0.1-0.2-0.2-0.3-0.2-0.5
			c0-0.2,0-0.3,0.1-0.4l0.1-0.3l0.2-0.2c0.4-0.1,0.7-0.1,0.8-0.1c0.5,0,0.8,0.2,0.8,0.7l-0.1,0.1c0.1,0.1,0.1,0.3,0.1,0.4
			c0,0,0,0.1,0,0.1l0,0.1l0,0.2l0.1,0.3l0,0.1l0,0.3l-0.2,0.3l0.1,0.5l-0.1,0.6l0.2,0.2l-0.2,0.4l0.7-0.1l1.3,0.1l1-0.2l0.3,0l0.1,0
			h0.9C170,78.7,170.2,78.8,170.2,79.2z"/>
		<path fill="#C0C0C0" d="M178.4,85.5c0,0.2-0.1,0.4-0.4,0.7c-0.1,0.2-0.2,0.4-0.3,0.6l-0.1,0l-0.3,0.4l-0.4,0.1l-0.4,0.3l-0.2,0.4
			h-0.3c-0.2,0.1-0.3,0.1-0.4,0.1l-0.1,0.2c0,0-0.1,0-0.2,0c-0.2,0-0.4,0.1-0.6,0.4l-0.3-0.3c-0.1,0-0.2,0-0.3,0
			c-0.2,0-0.4,0-0.5-0.1h-0.4l-0.2-0.1c-0.6-0.1-1-0.3-1.1-0.7v-0.1l-0.3-0.1l-0.1-0.4l-0.3-0.2v-0.3l-0.3-1v-0.8l0.1-0.4v-0.5
			l0.1-0.4l0-0.2l0.2-0.3l0,0c0-0.1,0-0.3,0.1-0.4v-0.1l-0.1-0.6c0-0.3,0.1-0.5,0.3-0.7c0,0,0-0.1,0-0.1c0-0.1,0-0.2-0.1-0.4
			c-0.1-0.2-0.1-0.3-0.1-0.4c0-0.2,0-0.4,0.1-0.6c0.1,0.2,0.3,0.3,0.5,0.3h0.1c0-0.1,0.1-0.1,0.2-0.2c0.1-0.4,0.3-0.7,0.5-1l0.1-0.1
			c0-0.1,0-0.2,0.1-0.5h0.2l0-0.1l0.2,0c0.1-0.1,0.1-0.2,0.1-0.2c0,0,0.2-0.1,0.5-0.3c0.1-0.1,0.2-0.2,0.3-0.3
			c0.1,0,0.1-0.1,0.2-0.1l0.1-0.1c0.4-0.1,0.7-0.2,0.8-0.2c0.1,0,0.2,0,0.3,0.1l0.1,0l0.2,0.1c0.2,0.1,0.4,0.3,0.6,0.3l0.4,0.3v0.1
			c0.4,0.3,0.5,0.7,0.5,1.2l-0.1,0.2l0.1,0.8l-0.2,0.1l-0.2,0.6l-0.4,0.5l0,0.4c-0.5,0.4-0.9,0.6-1.4,0.9c-0.1,0.2-0.4,0.3-0.6,0.3
			h-0.1l-0.4,0.3h-0.4l-0.6,0.2l-0.4-0.2h0c0,0.1-0.1,0.3-0.1,0.6l-0.2,0.1l0,0.3l-0.1,0.4c0,0.4,0,0.6,0,0.7l-0.1,0.1
			c0,0.2,0,0.3,0,0.4c0,0,0,0,0,0.1c0,0,0,0.1,0,0.1c0,0.1,0.1,0.2,0.2,0.3c0,0.2,0.1,0.3,0.2,0.3l0.2,0.1l0.5,0.1v0.1l0.2,0h0.8
			l0.5-0.1l0.2-0.2l0.1,0l0.2-0.3l0.1,0l0.6-0.2c0.1-0.1,0.2-0.2,0.3-0.3l0.1-0.1c0.3-0.1,0.5-0.2,0.5-0.5c0.2-0.2,0.5-0.3,0.8-0.3
			h0.1C178.3,85,178.4,85.3,178.4,85.5z M176.1,78.9c0,0,0-0.1-0.1-0.3l-0.1,0l0,0c0,0,0,0-0.1,0c0,0-0.1,0-0.1,0c0,0,0,0-0.1,0
			c0,0-0.1,0-0.1,0l-0.2,0.2l-0.2,0l-0.1,0l-0.4,0.5l-0.3,0.2l-0.4,0.6l-0.2,0.1c0,0.3-0.2,0.5-0.3,0.7l-0.1,0.2
			c0.2-0.1,0.4-0.2,0.6-0.2l0.2-0.1l0.1-0.2l0.3,0l0.2-0.3h0.1l0.3,0.1l0.1-0.3h0.2V80l0.3-0.1l0.1-0.1l0-0.2l0.3-0.4
			C176.1,79.1,176.1,79,176.1,78.9z"/>
		<path fill="#C0C0C0" d="M46,101.1l-0.2,0.3L46,102l-0.3,0.3l-0.1,0.5l-0.1,0.1l0,0.1c0,0.2-0.1,0.4-0.2,0.5l0,0.1v0.1
			c0,0.1,0.1,0.2,0.1,0.3c0,0.1,0,0.1,0,0.2l0,0.1l-0.1,0.3l0.1,0.3l-0.2,0.2l0.1,0.3l0.1,0.2l-0.2,0.2v0.4l-0.2,0.4l0.1,0.4
			l-0.1,0.2l0.2,0.2l-0.3,0.5l0,0.1l0.2,0l-0.2,0.5v0.1c0,0.1,0,0.2,0,0.3l0,0.1l0.4,0l0.3,0.5l-0.2,0.3l0.3,0
			c0.1,0.2,0.1,0.3,0.2,0.5l-0.3,0.3c-0.1,0.1-0.3,0.2-0.5,0.3l-0.4,0.2l-0.1-0.1l-0.2,0.1l-0.7-0.8v-0.4c-0.1-0.3-0.1-0.6-0.1-0.8
			v-0.1l-0.1-1.4l0.2-1l-0.1-0.5l-0.4,0.6l-0.2,0.6l-0.2,0.1l-0.3,0.5l-0.6,0.5l-0.2,0.3l-0.5,0.4l-0.1,0.3l-0.7,0.5l-0.8,0.9
			l-0.4,0.1l-0.3,0.2c-0.4,0-0.7-0.2-0.9-0.4c-0.7-0.3-1.1-0.8-1.1-1.5l0.1-0.1l0-0.1l0-0.3l-0.1-0.3l0.1-0.3l0-0.5l0.2-0.8
			c0,0,0,0,0-0.1c0,0,0-0.1,0-0.1c0-0.1,0-0.1,0-0.2c0,0,0-0.1,0-0.2c0-0.1,0-0.3,0.1-0.5l0.2-0.1c-0.1-0.1-0.1-0.2-0.1-0.3
			c0-0.1,0-0.1,0-0.1c0,0,0-0.1,0-0.2c0-0.2,0.1-0.3,0.3-0.4c0-0.2,0.1-0.3,0.3-0.5l-0.1-0.2l0.3-0.3v-0.1c0-0.3,0.1-0.6,0.3-0.8
			l0-0.4l0.1-0.1c0,0,0,0,0-0.1c0,0,0-0.1,0-0.1c0-0.1,0-0.2,0.1-0.2v-0.1c0.1-0.2,0.2-0.4,0.5-0.7s0.5-0.6,0.6-0.8l0.1,0.1l0.3-0.1
			l0.1,0l0.8-0.3l1.8,0.1v0.2l0.6,0.1c0.4,0,0.6,0.1,0.7,0.3c0,0,0-0.1,0-0.2c0,0,0-0.1,0-0.1l0.5,0.4l0.4,0.1l0.8-0.2l0.3,0.6
			L46,101.1z M43.8,102.3l-0.1-0.2l-0.2,0l-0.7-0.6l-0.5-0.1H42l0-0.1l-0.2,0.1l-0.2-0.1H41l0.1,0.1l-0.5,0.2l-0.1,0.1l-0.1,0
			c-0.3,0.2-0.5,0.4-0.6,0.6l-0.2,0.6l-0.1,0.2l0.2,0.3l-0.4,0.3l0,0.1c-0.2,0.3-0.3,0.6-0.3,0.9l-0.2,0.2l0,0.4l-0.2,0.2l0,0.2
			l-0.1,0v0.3l-0.1,0.1c0,0.2,0,0.3,0,0.4l0,0.1l-0.2,0.4l0.1,0.1l-0.2,0.2l0.2,0.4l-0.3,0.3l0,0.4v0.1l0.1,0l0.1,0
			c0.1-0.1,0.2-0.1,0.2-0.2l0-0.2l0.3,0l0.1-0.2l1.4-1.1l0.1,0l0.2-0.4c0.1,0,0.2-0.1,0.4-0.2l0.1-0.4l0.2,0l-0.1-0.4l0.3,0
			c0-0.1,0.1-0.1,0.1-0.2c0.1-0.1,0.1-0.2,0.2-0.3l1.2-1.6l0.2-0.3l0-0.1l0.2-0.3l0-0.3l0.2-0.2L43.8,102.3z"/>
		<path fill="#C0C0C0" d="M69.2,106.7c0,0.1-0.1,0.3-0.3,0.5l-0.3,0.4l-0.1,0.5l-0.2,0.1l0,0.1c-0.2,0.1-0.4,0.3-0.5,0.6
			c-0.2,0.2-0.4,0.4-0.6,0.5c-0.1,0.1-0.1,0.1-0.2,0.2l-0.1,0.2l-0.2,0l-0.6,0.3l-0.8,0.1l-0.2,0l-0.3,0.1l-0.1-0.2
			c-0.2-0.1-0.4-0.2-0.5-0.3c-0.2,0-0.3-0.2-0.4-0.4c-0.3-0.3-0.4-0.6-0.4-0.7v-0.1l-0.2-0.3l0,0l-0.1-0.4l-0.2-0.4l0-0.5l-0.2-0.3
			l-0.3-2c0-0.3-0.1-0.5-0.1-0.7l0-0.1l-0.1-0.2l-0.2,0.3l-0.8,0.9l-0.3,0.5l-0.1,0.3l-0.2,0.4l-0.2,0.2l0,0.1l-0.3,0.7l-0.2,0.2
			l-0.2,0l-0.2,0.2c0,0.3-0.1,0.5-0.4,0.6l0,0c-0.1,0.3-0.3,0.5-0.5,0.6l-0.2,0.3c-0.3,0.3-0.6,0.5-0.7,0.6c0,0.2-0.1,0.3-0.3,0.4
			c0,0-0.1,0.1-0.2,0.2c0,0.3-0.3,0.4-0.6,0.6l-0.3,0.1c-0.3,0-0.6-0.2-0.8-0.5l-0.3-0.6l0.1-0.6l-0.1-0.3l0,0l0-0.3l-0.3-0.6
			l0.2-0.3l-0.1-0.3l0.2-0.3l0.1-0.5l-0.1-0.1l0.1-0.3l-0.1-0.2l0-0.4l0.1-0.7c0-0.2-0.1-0.3-0.1-0.3c0,0,0-0.1,0-0.1
			c0,0,0-0.1,0-0.1l-0.1-0.2l0.1-0.7v-0.3v-0.4v-0.6l0.4-0.7c0.5,0.1,0.8,0.2,1,0.3c0.2,0.1,0.3,0.4,0.3,0.7v0.2l0.2,0.3l-0.1,0.5
			l0.1,0.9l-0.2,0.4l0.1,0.5v0.4l-0.2,0.3l0.2,0.4l-0.2,0.3l0,0.3l0.1,0.3l-0.2,0.5l-0.1,0.2v0.2l0.1,0.2l0.4-0.4
			c0-0.2,0.1-0.4,0.2-0.5c0-0.2,0.1-0.3,0.2-0.3l-0.1-0.1l0.3-0.3l0.1-0.1v-0.2l0.4-0.3l0.1-0.2l0.2-0.1l0.9-1
			c-0.1,0.1-0.3,0.4-0.8,0.9v0l0-0.2l0.3-0.3l0.2-0.4v-0.2l0.3-0.1l0-0.3l0.1-0.1l0-0.1v-0.2l0.3-0.3c0,0,0-0.1,0-0.1
			c0,0,0-0.1,0-0.1c0-0.3,0.2-0.4,0.5-0.5c0.1-0.3,0.3-0.4,0.6-0.5l0.1-0.2l0,0c0.1-0.2,0.3-0.3,0.6-0.4l0.2-0.3h0.6l0.3,0.3
			l0.3,0.1l0,0.1l0.2,0l0,0.5l0.4,0.2l-0.2,0.5l0.3,0.6v0.6l0.2,0.9l0,0.8l0.2,0.5l0.1,0.6c0.1,0.1,0.2,0.2,0.2,0.4l0.4,0.1v0.5
			l0.2,0.3v0.1l0.1,0l0.1,0.1l0.1-0.1c0,0,0,0,0.1,0c0.2,0,0.3-0.2,0.5-0.5l0.3-0.1l0.1-0.1c0-0.1,0.1-0.2,0.3-0.3l0.2,0l0.1-0.1
			l0-0.1l0.1-0.1c0.2-0.1,0.3-0.3,0.3-0.5l0.3-0.3l0-0.2l0.2-0.4l0.4-0.2l0.6,0.2l0.2,0.7C69.2,106.6,69.2,106.6,69.2,106.7
			C69.2,106.7,69.2,106.7,69.2,106.7z"/>
		<path fill="#C0C0C0" d="M77.2,108.5c0,0.2-0.1,0.4-0.4,0.7c-0.1,0.2-0.2,0.4-0.3,0.6l-0.1,0l-0.3,0.4l-0.4,0.1l-0.4,0.3L75,111
			h-0.3c-0.2,0.1-0.3,0.1-0.4,0.1l-0.1,0.2c0,0-0.1,0-0.2,0c-0.2,0-0.4,0.1-0.6,0.4l-0.3-0.3c-0.1,0-0.2,0-0.3,0
			c-0.2,0-0.4,0-0.5-0.1h-0.4l-0.2-0.1c-0.6-0.1-1-0.3-1.1-0.7v-0.1l-0.3-0.1l-0.1-0.4l-0.3-0.2v-0.3l-0.3-1v-0.8l0.1-0.4v-0.5
			l0.1-0.4l0-0.2L70,106l0,0c0-0.1,0-0.3,0.1-0.4v-0.1l-0.1-0.6c0-0.3,0.1-0.5,0.3-0.7c0,0,0-0.1,0-0.1c0-0.1,0-0.2-0.1-0.4
			c-0.1-0.2-0.1-0.3-0.1-0.4c0-0.2,0-0.4,0.1-0.6c0.1,0.2,0.3,0.3,0.5,0.3H71c0-0.1,0.1-0.1,0.2-0.2c0.1-0.4,0.3-0.7,0.5-1l0.1-0.1
			c0-0.1,0-0.2,0.1-0.5h0.2l0-0.1l0.2,0c0.1-0.1,0.1-0.2,0.1-0.2c0,0,0.2-0.1,0.5-0.3c0.1-0.1,0.2-0.2,0.3-0.3
			c0.1,0,0.1-0.1,0.2-0.1l0.1-0.1c0.4-0.1,0.7-0.2,0.8-0.2c0.1,0,0.2,0,0.3,0.1l0.1,0L75,100c0.2,0.1,0.4,0.3,0.6,0.3l0.4,0.3v0.1
			c0.4,0.3,0.5,0.7,0.5,1.2l-0.1,0.2l0.1,0.8l-0.2,0.1l-0.2,0.6l-0.4,0.5l0,0.4c-0.5,0.4-0.9,0.6-1.4,0.9c-0.1,0.2-0.4,0.3-0.6,0.3
			h-0.1l-0.4,0.3h-0.4l-0.6,0.2l-0.4-0.2h0c0,0.1-0.1,0.3-0.1,0.6l-0.2,0.1l0,0.3l-0.1,0.4c0,0.4,0,0.6,0,0.7l-0.1,0.1
			c0,0.2,0,0.3,0,0.4c0,0,0,0,0,0.1c0,0,0,0.1,0,0.1c0,0.1,0.1,0.2,0.2,0.3c0,0.2,0.1,0.3,0.2,0.3l0.2,0.1l0.5,0.1v0.1l0.2,0h0.8
			l0.5-0.1l0.2-0.2l0.1,0l0.2-0.3l0.1,0l0.6-0.2c0.1-0.1,0.2-0.2,0.3-0.3l0.1-0.1c0.3-0.1,0.5-0.2,0.5-0.5c0.2-0.2,0.5-0.3,0.8-0.3
			h0.1C77.1,108,77.2,108.3,77.2,108.5z M74.9,101.9c0,0,0-0.1-0.1-0.3l-0.1,0l0,0c0,0,0,0-0.1,0c0,0-0.1,0-0.1,0c0,0,0,0-0.1,0
			c0,0-0.1,0-0.1,0l-0.2,0.2l-0.2,0l-0.1,0l-0.4,0.5l-0.3,0.2l-0.4,0.6l-0.2,0.1c0,0.3-0.2,0.5-0.3,0.7l-0.1,0.2
			c0.2-0.1,0.4-0.2,0.6-0.2l0.2-0.1l0.1-0.2l0.3,0l0.2-0.3h0.1l0.3,0.1l0.1-0.3h0.2V103l0.3-0.1l0.1-0.1l0-0.2l0.3-0.4
			C74.9,102.1,74.9,102,74.9,101.9z"/>
		<path fill="#C0C0C0" d="M93.2,101.1l-0.1,0.4l0,0.2l-0.3,0.9l0,0.3l-0.3,0.3l-0.1,0.4l-0.3,0.4l-0.4,0.8l-0.4,0.7l-0.7,1l-0.1,0.3
			l-0.3,0.6l-0.4,0.8l-0.7,1.2l-0.1,0.6l-0.4,0.5l-0.7-0.2l-0.4-0.2l-0.4-1.1l-0.5-0.8l0-0.2l-0.3-0.6l-0.1-0.1l-1-2l-0.3-0.5
			l-0.3,0.4l-0.4,0.3l-0.5,0.7l-0.4,0.4l-0.2,0.6l-0.5,0.6l0,0.2l-0.3,0.7v0.3l-0.2,0.3l0,0.3l-0.2,0.1l-0.5,0.5l0.1,0
			c-0.2,0.1-0.4,0.2-0.6,0.2l-0.2-0.2l-0.3-0.1V110l-0.1-0.2l-0.1-0.6l-0.2-0.4v-0.3l0-0.1l-0.3-1l-0.1-0.6l-0.2-0.3l0-0.3l-0.2-0.6
			v-0.2l-0.2-0.5l-0.3-0.4l0-0.5l0-0.2l-0.3-0.6l0-0.4l-0.1-0.2c-0.1-0.2-0.2-0.3-0.2-0.5l-0.4-1l0.3-0.4c0.1-0.2,0.3-0.3,0.6-0.3
			l0.5-0.1l0.2,0.2l0.3,0.1l0.2,0.4l0.2,0.2l-0.1,0.4l0.1,0.2l-0.1,0.2l0.2,0.4l0,0.3l0.3,1l0,0.3l0.1,0.6l0.3,0.7l0.1,0.9l0.2,0.3
			l0,0.6l0.2,0.5l0,0.2l0.3-0.2l0.5-0.9l0.2-0.4l0.2-0.3c0-0.2,0-0.3,0.1-0.3h0.1l0.1-0.4l0.3,0c0-0.1,0.1-0.2,0.2-0.3v0
			c0-0.1,0-0.2,0.1-0.3l0-0.2l0.1,0l0-0.1c0.1-0.2,0.3-0.4,0.5-0.6v-0.5l0.3-0.2l0.1-0.1l0,0c-0.1-0.2-0.1-0.3-0.1-0.5
			c0-0.3,0.1-0.5,0.4-0.8c0.1-0.1,0.3-0.1,0.5-0.1c0.1,0,0.2,0,0.3,0l0.4,0.4l0.2,0.3l0.1,0.6l0.2,0.4l0,0.3l0.2,0.5v0.2l0.4,0.7
			v0.1l0.1,0.1l0.5,1.1l0,0.3l0.2,0.3l0.5,1.2l0.1-0.2l0.4-0.9l0.3-0.2l0.2-0.5l0.2-0.1v-0.3c0.1-0.1,0.2-0.2,0.4-0.2
			c0.1,0,0.1-0.1,0.1-0.1l0-0.5l0.3-0.3l0.1-0.1l0.3-0.6l0-0.1c0-0.2,0.1-0.4,0.3-0.6l0-0.3l0.4-0.5l0.2-0.5
			c-0.2-0.5-0.3-0.8-0.3-1.2c0-0.5,0.2-0.7,0.7-0.8l0.6,0.2l0.1-0.2l0.2,0.2l0.2,0.2l-0.1,0.3L93.2,101.1z"/>
		<path fill="#C0C0C0" d="M110.4,96.7c0,0.3-0.2,0.6-0.6,0.9l-0.2-0.1l-0.4,0.2l-0.5-0.9c0-0.2-0.1-0.4-0.2-0.6l-0.1,0.1l-0.4-0.2
			l-0.1,0l-0.3,0.2l-0.5-0.1l-0.2,0.1c-0.1,0.2-0.3,0.2-0.4,0.2c-0.1,0-0.1,0-0.2,0l0,0.2c-0.2,0.2-0.3,0.5-0.6,0.9
			c0,0.2-0.1,0.4-0.2,0.9l-0.2,0.1l-0.1,0.3l-0.1,0.2l0.1,0.5l-0.3,0.4l-0.1,0.3l-0.1,0.2v0.3l-0.3,0.8l0,0.4c0,0.1-0.1,0.3-0.3,0.6
			l0,0.1c0.2-0.1,0.3-0.1,0.4-0.1h0.1c0,0,0.1,0,0.2,0h0.1h0.8l0.1,0c0.2,0,0.3,0,0.3,0c0.2,0,0.3,0,0.5,0.1c0.2,0,0.3,0,0.5,0
			c0.1,0,0.2,0,0.3,0h0.2l0.3,0.1c0.5,0,0.8,0.2,0.8,0.7c0,0.1,0,0.3-0.1,0.4l-1,0.3l-0.6-0.1c-0.2,0.1-0.5,0.1-0.9,0.2l-0.1-0.2
			c-0.1,0.1-0.3,0.2-0.4,0.2h-0.3l-0.6,0.3l-0.3-0.2h-0.1c-0.1,0.2-0.3,0.3-0.5,0.3l0,0.1l-0.1,0.3l0.1,0.4L104,106l0.1,0.9
			l-0.1,0.3l0.1,0.3l-0.3,0.5l0.1,0.3c0,0,0,0.1,0,0.1c0,0,0,0.2-0.1,0.5c-0.1,0.3-0.1,0.6-0.1,0.9v0.2c0,0,0.1,0.1,0.3,0.3
			l-0.2,0.4l0.2,0.5l-0.1,0.4l0.2,1.1l0.1,1.2l0.3,0.5l-0.2,0.5c0.2,0.3,0.3,0.6,0.3,0.8v0.1c0,0,0,0.1,0,0.1c0,0.1,0,0.1,0,0.1
			c0,0.6-0.3,0.9-1,0.9l-0.2-0.4l-0.3-0.2l0-0.4l-0.5-1.3v-0.3c-0.1-0.3-0.1-0.4-0.1-0.5c0-0.1,0-0.1,0-0.2l-0.1-0.4l0.1-0.4
			l-0.1-0.3v-0.5l-0.2-1.4v0v-0.3v-0.3l-0.1-0.3l0.1-0.3v-1.2l0.1-0.1v-0.8l0.1-0.2l-0.1-0.7l0.1-0.3c0-0.3,0.1-0.8,0.3-1.7h-0.1
			l-0.3-0.1H102l-0.6,0.1l-0.4-0.1l-0.7,0.1l-0.2,0c-0.1,0-0.2,0-0.3,0c-0.7-0.3-1-0.5-1.1-0.7l-0.1-0.4c0.2-0.6,0.5-0.9,0.8-0.9
			c0,0,0.3,0.1,0.8,0.2l1.3,0l0.6-0.1h0.6l0.2,0l0.1-0.3l0-0.7l0.1-0.3l-0.1-0.5c0-0.2,0.1-0.3,0.2-0.4v-0.3l0.2-0.3l0.1-0.7
			l0.1-0.1l-0.1-0.3c0.2-0.2,0.3-0.4,0.3-0.5l0-0.1c0,0.1,0.1-0.2,0.3-1.1l0.2-0.1v-0.5l0.1,0.1v-0.1c0-0.3,0.1-0.5,0.3-0.6l0.1-0.2
			l0.3-0.7h0c0.2,0,0.3-0.1,0.3-0.3v-0.1l0.6-0.2h0.2c0.2-0.1,0.4-0.1,0.6-0.1h0.2l0.1,0l0.5-0.1l0.6,0.1c0,0,0.1,0,0.2,0.1
			c0.2-0.1,0.3-0.1,0.3-0.1c0.2,0,0.4,0.2,0.6,0.5l0.3,0.2l0.2,0.5l0.3,0.3L110.4,96.7L110.4,96.7z"/>
		<path fill="#C0C0C0" d="M117.7,105l-0.1,0.4c0,0.4,0,0.7-0.1,0.9l-0.1,0.2v0.3l-0.1,0.2l-0.1,0.3l-0.3,0.3l-0.2,0.6l-0.2,0.1
			l-0.1,0.3l-0.3,0.2l-0.2,0.4l-0.3,0.1l0,0.3l-0.4,0.2c-0.2,0.3-0.4,0.5-0.7,0.5l-0.1,0c-0.2,0.3-0.5,0.5-0.9,0.5
			c-0.2,0.1-0.3,0.1-0.5,0.1l-0.2,0.2l-0.2,0.1l-0.3,0.2H112l-0.3,0.1l-0.4-0.2l-1-0.1l-0.3-0.5l-0.5-0.5l0.1-0.4l-0.3-0.8l0.1-0.3
			l-0.1-0.6l0.1-0.3c0-0.2,0-0.4,0-0.5c0-0.3,0.1-0.5,0.2-0.6c0-0.2,0.1-0.4,0.3-0.8h0.1l-0.1-0.2l0.1-0.3V105
			c0.1-0.1,0.2-0.2,0.2-0.3l-0.1-0.3v-0.1c0.1-0.2,0.2-0.4,0.2-0.7l0.5-0.7c0.1-0.1,0.1-0.1,0.2-0.1l0-0.1h0.1l0.3-0.4l0-0.5
			l0.6-0.2c0.2-0.1,0.4-0.4,0.4-0.7h0.3c0.2-0.1,0.3-0.1,0.5-0.1c0.1,0,0.3,0,0.4,0.1l0.3,0l0.6-0.2l0.3,0.3l0.3,0.2h0.2l0.3,0.2
			h0.2c0.2,0.2,0.4,0.4,0.7,0.8l0,0.1l0.2,0.1l0.5,0.6l0.4,1.1v0.2L117.7,105z M116.2,105.6l0-0.1c-0.1-0.1-0.2-0.2-0.2-0.3l0.1-0.1
			l-0.2-0.4l0-0.4l-0.1-0.1c-0.2-0.2-0.3-0.3-0.3-0.4c-0.1-0.1-0.2-0.2-0.2-0.5l-0.1,0l-0.3-0.5l-0.2-0.2l-0.5-0.2l-0.2,0
			c-0.1,0-0.2,0-0.2-0.1l-0.5,0.5l-0.3,0.6l-0.5,0.3l-0.1,0.3l-0.2,0.1l-0.1,0.6l-0.3,0.1c-0.1,0.2-0.1,0.4-0.1,0.6l-0.4,0.3
			l0.1,0.1c0,0.2-0.1,0.3-0.2,0.5c-0.1,0.1-0.1,0.3-0.2,0.5v0.2v0.1v0.3l-0.3,0.6l0,0.1v0.6l-0.1,0.3l0,0.3l0.2,0.3l0.3,0.1l0.1,0
			h0.2h0.6l0.1-0.2h0.1c0.1,0,0.1,0,0.2,0.1l0.2-0.1l0.2,0.1l0.3-0.2l0-0.1l0.2,0c0.1-0.2,0.4-0.3,0.8-0.5l0-0.1l0.5-0.3l0.3-0.4
			l0.4-0.2l0-0.1l0.1-0.3V107l0.3-0.2l0.1-0.2l0.1-0.1c-0.1-0.2-0.1-0.3-0.1-0.4C115.9,106,116,105.8,116.2,105.6L116.2,105.6z"/>
		<path fill="#C0C0C0" d="M128.1,101.9l-0.2,0.8l-0.9,0.1l-0.5,0.3l-0.3-0.1l-0.3,0.2l-0.3,0.1l-0.2,0.2l0,0.1l-0.5,0.2l-0.3,0.4
			h-0.2c-0.2,0.3-0.4,0.4-0.5,0.5l-0.3,0.5l-0.1,0c0,0.1-0.1,0.3-0.2,0.6l-0.3,0.1l-0.1,0.3l-0.2,0.2l0,0.3l-0.2,0.1v0.3l-0.1,0.1
			c0,0.1,0.1,0.2,0.2,0.3l-0.3,0.1l0,0.3l-0.2,0.4l0.1,0.3l-0.3,0.4c0,0.2,0,0.3,0,0.3c0,0,0,0,0,0.1c0,0,0,0.1,0,0.1l0,0.2l0.4,0.4
			l-0.3,0.5l-0.3,0.2l-0.6,0.3l-0.9-0.3v-0.5l-0.1-0.2l0.1-0.3c0-0.2,0-0.4,0-0.6c0,0,0-0.1,0-0.2c0-0.1,0-0.1,0-0.2l0-0.2
			c-0.1-0.1-0.2-0.2-0.2-0.4c0-0.1,0.1-0.3,0.2-0.4c0-0.1,0-0.3,0-0.7l0.1-0.1l-0.1-0.3l0-0.3l0-0.2l0.1-0.5l-0.1-0.2l0.1-0.3
			L120,105c0-0.1,0-0.2,0-0.4c0-0.2,0-0.4-0.1-0.5l0.1-0.1l-0.1-0.4l-0.2-0.3l0.1-0.4l-0.1-0.1l-0.1-0.6v-0.2
			c-0.1-0.1-0.1-0.2-0.1-0.3c0-0.3,0.3-0.6,1-0.8l0.6,0.1l0.1,0.4l0.2,0.3l-0.1,0.6c0,0.3,0.1,0.6,0.2,1l0.1,0.4c0,0,0,0.1,0,0.3
			c0,0.1,0,0.2-0.1,0.3l0.1,0.5l0,0.5l-0.1,0.2l0.1,0.1l0,0.2c0.1-0.1,0.1-0.2,0.2-0.3l0.1-0.3c0-0.1,0.1-0.2,0.2-0.2l0.1-0.3
			l0.3-0.2l0-0.3l0.3-0.3l0.2-0.3c0.2-0.2,0.4-0.4,0.6-0.4l0-0.1l0.2-0.3l0.2,0l0.1-0.1l0.1-0.1l0.3-0.1l0.1-0.2l0.1,0l0.2-0.1
			l0.1-0.1l0.3-0.1l0.4-0.3l0.6-0.2c0.2,0,0.3,0,0.3,0v0c0,0,0,0,0,0h0c0.1,0,0.2,0,0.3-0.1c0.1-0.1,0.2-0.1,0.3-0.1
			c0.1,0,0.2,0,0.3,0C127.9,101.3,128.1,101.5,128.1,101.9z"/>
		<path fill="#C0C0C0" d="M147.8,107.7c-0.1,0.2-0.2,0.4-0.3,0.5c0,0.2-0.1,0.3-0.2,0.4c-0.1,0.2-0.2,0.3-0.3,0.3l-0.1,0.1
			c-0.1,0.1-0.1,0.1-0.3,0.1l-0.1,0.2h-0.2l-0.1,0.2l-0.2,0.1l-0.1,0.2l-0.1,0.1c-0.2,0-0.4,0.1-0.6,0.2c-0.2,0.1-0.4,0.1-0.6,0.1
			s-0.4-0.1-0.6-0.2c-0.2,0-0.4-0.1-0.4-0.1l-0.3,0l-0.1-0.1l-0.1-0.3l-0.3-0.2c-0.2-0.2-0.3-0.4-0.3-0.6c-0.1-0.2-0.2-0.4-0.3-0.9
			l-0.2-0.4v-0.2l-0.2-0.7l0-0.3l-0.1-0.7l0.1-0.6l-0.1-0.2l-0.2,0.6c-0.3,0.3-0.5,0.5-0.5,0.6s-0.1,0.1-0.2,0.1c0,0,0,0-0.1,0
			l-0.1,0.3c0,0,0,0,0,0.1c0,0.1,0.1,0.1,0.2,0.2c0,0-0.1,0.1-0.2,0.3c-0.1,0.1-0.1,0.2-0.2,0.3l-0.1-0.1l0,0.3
			c-0.2,0.2-0.3,0.4-0.4,0.7c-0.2,0.2-0.4,0.5-0.7,0.9l-0.3,0.3c-0.1,0-0.1,0-0.1,0v0c-0.1,0.2-0.3,0.4-0.5,0.5l-0.3,0.3h-0.2
			l-0.6,0.2c-0.5,0-0.7-0.2-0.9-0.6l0-0.3l-0.1-0.3v-0.3l-0.2-0.7v-0.2l-0.1-0.2l0.1-0.7c0-0.1,0-0.2,0-0.3c0-0.1,0-0.2,0-0.3v-0.1
			v-0.1l-0.1-0.3l0.2-0.4c0-0.1-0.1-0.3-0.1-0.6l0.1-0.2l0.1-0.7l-0.2-0.5l0-0.4l-0.1-0.2c0,0-0.1-0.2-0.2-0.4l-0.2,0.1l-0.3,0.4
			l-0.3,0.3l-0.6,0.7l0,0.3l-0.4,0.4l-0.2,0.3l-0.2,0.2c0,0.3-0.2,0.6-0.5,0.7l0,0.3c-0.1,0.1-0.2,0.2-0.3,0.4
			c-0.1,0.2-0.2,0.2-0.2,0.3c0,0-0.1,0.1-0.2,0.1l-0.3,0.4c0,0.3-0.1,0.4-0.3,0.6v0.1c-0.1,0.1-0.2,0.2-0.4,0.4l0,0l-0.1,0.3
			c-0.1,0-0.2,0.1-0.4,0.4l-0.1,0.1c0,0.2-0.1,0.4-0.4,0.6l-0.3,0.3c-0.2,0.1-0.4,0.2-0.5,0.2c-0.4,0-0.7-0.3-0.8-1l-0.1-0.5
			c0,0,0-0.1,0-0.1c0-0.1,0-0.2,0.1-0.3l-0.1-0.4v-0.4v-0.4c0-0.3,0.1-0.5,0.2-0.6c0-0.3-0.1-0.5-0.1-0.6v-0.4
			c0.1-0.1,0.1-0.2,0.2-0.4l-0.2-0.1c0-0.1-0.1-0.2-0.1-0.2c0-0.1,0.1-0.3,0.3-0.6L129,104l0.1-0.3l-0.1-0.7l0-0.3l-0.2-0.5l0.1-0.3
			l-0.2-0.4c0.3-0.6,0.6-0.9,1-0.9c0.2,0,0.4,0.1,0.5,0.2l0,0.2c0.3,0.1,0.4,0.3,0.4,0.6c0,0,0,0.1-0.1,0.5l-0.1,0l0.2,0.4l-0.2,0.2
			l0,0.1l0.2,1.1l0,0.9l-0.1,0.2l0.1,0.4c0,0.1,0.1,0.1,0.1,0.2c0,0.1-0.1,0.2-0.2,0.4c0,0.2,0,0.4-0.1,0.5l0.1,0.7v0.3l0,0l0.1-0.2
			l0.3-0.6h0.1c0.1,0,0.2-0.1,0.3-0.4l0.2-0.4c0-0.1,0.1-0.2,0.3-0.4l0.1-0.4l0.3-0.4l0.1-0.3c0.1,0,0.2-0.1,0.2-0.2l0-0.1
			c0-0.1,0.2-0.2,0.5-0.5l0.1-0.1l0-0.2l0.1-0.1c0.1-0.3,0.3-0.5,0.6-0.6l-0.1-0.1l0.1,0c0,0,0,0,0-0.1s0-0.1,0-0.1l0.4-0.2l0.1-0.4
			h0.3c0,0,0-0.1,0-0.2l0.5-0.4c0.2-0.1,0.4-0.1,0.4-0.1c0.2,0,0.4,0.1,0.8,0.2l0.2,0.3l0.1,0l0.1,0.3l0.3,0.4v0.3l0.2,0.2v0.3
			c0.2,0.4,0.3,0.7,0.3,0.9l-0.1,0.3l0.1,0.4l-0.3,0.3l0.1,0.5l0,0.1l0,0.1c0,0.2,0,0.3,0,0.3c0,0.1,0,0.2,0.1,0.5l-0.1,0.3l0.1,0.3
			l-0.1,0.1c0,0.2,0.1,0.6,0.1,1.1l0,0.1l0.7-0.8l0.2-0.4c0.1-0.1,0.2-0.2,0.3-0.4v0c0.1-0.2,0.2-0.4,0.3-0.5c0-0.1,0.1-0.2,0.2-0.3
			l0.2-0.1c0.1-0.3,0.2-0.5,0.5-0.6l0.1-0.3l0.2-0.3l0.2-0.2c0.1-0.1,0.2-0.3,0.3-0.5l0.2-0.3l0.1-0.3l0.3-0.1l0.3-0.3l0.3-0.6
			c-0.1,0-0.1,0-0.1,0l0-0.1l0.2-0.1l0.2-0.4c0.3-0.1,0.4-0.1,0.4-0.1l0.1,0l0.4,0l0.4,0.2l0.3,0.4l0.1,0.3l0,0.3l-0.1,0.1l-0.3,0.5
			l-0.1,0.5c0.1,0.1,0.1,0.2,0.1,0.4c0,0.1-0.1,0.2-0.1,0.3l-0.1,0.2c0,0.1,0,0.2,0,0.4c0,0.1,0,0.2,0,0.3l-0.1,0.1l0.1,0.2
			l-0.2,0.2c0.1,0,0.1,0.1,0.1,0.3c0,0.1,0,0.2,0,0.2c0,0,0,0.1,0,0.2c0,0.2,0,0.3,0,0.4v0c0,0,0.1,0.3,0.3,0.9l0,0.2l0.3,0.3
			l0.1,0.3l0.1,0.1l0.1,0.1l0.1,0l0.2,0l0.1,0h0.1c0.2,0,0.3-0.1,0.6-0.2c0.1-0.2,0.2-0.3,0.5-0.5c0-0.1,0.1-0.2,0.3-0.4l0.4-0.3
			l0.1-0.3c0.1-0.1,0.3-0.1,0.4-0.1c0.2,0,0.4,0,0.6,0.1C147.8,107.2,147.8,107.4,147.8,107.7z"/>
	</g>
</g>
</svg>
