<?xml version="1.0" encoding="utf-8"?>
<!-- Generator: Adobe Illustrator 18.0.0, SVG Export Plug-In . SVG Version: 6.00 Build 0)  -->
<!DOCTYPE svg PUBLIC "-//W3C//DTD SVG 1.1//EN" "http://www.w3.org/Graphics/SVG/1.1/DTD/svg11.dtd">
<svg version="1.1" id="Capa_1" xmlns="http://www.w3.org/2000/svg" xmlns:xlink="http://www.w3.org/1999/xlink" x="0px" y="0px"
	 viewBox="14.7 19 67.8 57.4" enable-background="new 14.7 19 67.8 57.4" xml:space="preserve">
<g>
	<path fill="#C0C0C0" d="M80.3,19H23.8c-1.2,0-2.1,1-2.1,2.1v4.1h2.1v-4.1H38v53.1H23.8v-4.1h-2.1v4.1c0,1.2,1,2.1,2.1,2.1h56.5
		c1.2,0,2.1-1,2.1-2.1V21.1C82.5,20,81.5,19,80.3,19z M80.3,74.3H40.2V21.1h40.1C80.3,21.1,80.3,74.3,80.3,74.3z"/>
	<polygon fill="#C0C0C0" points="21.7,58.5 23.8,58.5 23.8,37 21.7,37 21.7,58.5 	"/>
	<path fill="#C0C0C0" d="M32.9,64.3c0-2.3-1.8-4.1-4.1-4.1h-10c-2.3,0-4.1,1.8-4.1,4.1c0,2.3,1.8,4.1,4.1,4.1h10
		C31.1,68.4,32.9,66.6,32.9,64.3z M16.9,64.3c0-1,0.8-1.9,1.9-1.9h10c1,0,1.9,0.8,1.9,1.9s-0.8,1.9-1.9,1.9h-10
		C17.8,66.2,16.9,65.4,16.9,64.3z"/>
	<path fill="#C0C0C0" d="M18.8,35.2h10c2.3,0,4.1-1.8,4.1-4.1c0-2.3-1.8-4.1-4.1-4.1h-10c-2.3,0-4.1,1.8-4.1,4.1
		S16.5,35.2,18.8,35.2z M18.8,29.2h10c1,0,1.9,0.8,1.9,1.9S29.8,33,28.8,33h-10c-1,0-1.9-0.8-1.9-1.9S17.8,29.2,18.8,29.2z"/>
	<rect x="51.4" y="46.6" fill="#C0C0C0" width="23.2" height="1.8"/>
	<rect x="51.4" y="53.3" fill="#C0C0C0" width="23.2" height="1.8"/>
	<rect x="51.4" y="60.1" fill="#C0C0C0" width="23.2" height="1.8"/>
	<path fill="#C0C0C0" d="M74.6,30.4H51.4v8.5h23.2V30.4z M73.1,37.4H52.9v-5.6h20.2V37.4z"/>
</g>
</svg>
