<?xml version="1.0" encoding="utf-8"?>
<!-- Generator: Adobe Illustrator 18.0.0, SVG Export Plug-In . SVG Version: 6.00 Build 0)  -->
<!DOCTYPE svg PUBLIC "-//W3C//DTD SVG 1.1//EN" "http://www.w3.org/Graphics/SVG/1.1/DTD/svg11.dtd">
<svg version="1.1" id="Layer_1" xmlns:sketch="http://www.bohemiancoding.com/sketch/ns"
	 xmlns="http://www.w3.org/2000/svg" xmlns:xlink="http://www.w3.org/1999/xlink" x="0px" y="0px" viewBox="-135 0 845 274"
	 enable-background="new -135 0 845 274" xml:space="preserve">
<title>certificate-empty</title>
<description>Created with Sketch.</description>
<g id="noun_16991_cc" transform="translate(395.000000, 39.000000)" sketch:type="MSShapeGroup">
	<g id="Capa_8">
		<g>
			<path id="Shape" fill="#DDDDDD" d="M92.2,18.4c3.3-3.6,3-9.1-0.6-12.4C88,2.7,82.5,3,79.2,6.6c-3.3,3.6-3,9.1,0.6,12.4
				C83.4,22.2,89,22,92.2,18.4L92.2,18.4z M98.6,71.6l0-17.5h0c0-0.1,0-0.1,0-0.2l-0.9-23.6C97.5,26.2,94,23,90,23.1
				c-2.2,0.1-4.1,1.1-5.4,2.6l0,0v0L74.1,38.6l-13.7,0.6l-0.1,5.7L75.7,46h0.1c1.1,0,2.2-0.5,2.9-1.4l4.4-5.4l0.6,15.1l-2.9,16.1
				l-0.1,0.9L82,95.8l7.3-0.1l0.7-24l2.2-12L92,61.5l-0.7,10.3l1.3,23.9L100,95L98.6,71.6L98.6,71.6z"/>
			<g id="Group">
				<path id="Shape_1_" fill="#DDDDDD" d="M56.8,4.1c0.1-2.1-1.5-3.9-3.6-4c-2-0.1-3.7,1.3-4,3.2C49.1,1.9,49,1,49,1H31.3
					c0,0-0.1,0.9-0.2,2.3c-0.2-2-2-3.4-4-3.3c-2.1,0.1-3.7,1.9-3.6,4.1C23.8,8.9,33,14.3,34,16.4l-1.2,1.2c-0.3-0.1-0.6-0.5-0.6-0.8
					c0-0.2-0.2-0.4-0.4-0.4c-0.2,0-0.4,0.2-0.4,0.4c0,0.6,0.4,1.1,0.8,1.4L23,27.4l-9.5-3.1c-1-0.6-2.2-1-3.5-1.1
					c-4.1-0.2-7.5,3.1-7.7,7.2L1.5,53.9c0,0.4,0,0.7,0.1,1.1l0.6,17.7L0,94.8l7.3,1l4-22.2l0-0.8l-0.2-7.4l2.2,6.5l-0.9,23.5
					l7.7,0.6l2.6-24.4c0-0.6,0-1.2-0.2-1.8l-5.9-17.6l-0.1,0l0.5-13l4.4,5.4c0.7,0.9,1.8,1.3,2.9,1.3h0.1l15.5-1.1l-0.1-5.8L48,39
					v-1h-1v-6h-1v-1v-0.4l-3-0.9V29h-0.5c0,0-0.5-0.4-0.5-2.8V22h0l1-1.2v0c0-0.3-0.2-0.6-0.3-0.8c0.2-1,1.5-1.8,3.2-4.3
					c-0.2,0.4-0.3,0.7-0.4,1c-0.1,1,0.7,1.8,1.7,1.9c1,0.1,1.8-0.7,1.9-1.7c0-0.2-0.2-0.4-0.4-0.4c-0.2,0-0.4,0.2-0.4,0.4
					c0,0.5-0.5,0.9-1,0.9c-0.5,0-0.9-0.5-0.9-1C46.4,14.9,56.5,9.2,56.8,4.1L56.8,4.1z M25.2,4c-0.1-1.2,0.9-2.2,2.1-2.3
					c1.2-0.1,2.2,0.9,2.3,2.1c0,0.5,0.4,0.8,0.9,0.8c0.3,0,0.6-0.2,0.7-0.5c0,2.2,0.3,5.5,1.7,8.5c0.4,0.9,0.8,1.7,1.2,2.4
					C31.8,11.7,25.4,7.5,25.2,4L25.2,4z M34,31v1h-1v6v0.9l-6.9-0.3l-2.9-3.4c0.3,0.1,0.6,0.2,1,0.2c1,0,2-0.4,2.8-1.2l10.8-13.5
					c0,0,0,0,0,0.1l0-0.1l0.6,1.4H38v4.2c0,2.4-0.2,2.8-0.2,2.8H37v0.7l-3,0.9V31L34,31z M44.6,33v4h-9.3v-4H44.6L44.6,33z
					 M47.5,12.5c1.3-3,1.7-6.3,1.7-8.5c0.1,0.3,0.4,0.5,0.7,0.5c0.5,0,0.8-0.3,0.9-0.8c0.1-1.2,1.1-2.1,2.3-2.1
					c1.2,0.1,2.1,1.1,2.1,2.3c-0.2,3.5-6.5,7.7-8.8,10.8C46.7,14.1,47.1,13.4,47.5,12.5L47.5,12.5z"/>
				<path id="Shape_2_" fill="#DDDDDD" d="M16.2,17.5c3.6-3.3,3.9-8.8,0.6-12.4C13.6,1.5,8,1.2,4.4,4.4c-3.6,3.3-3.9,8.8-0.6,12.4
					C7.1,20.5,12.6,20.7,16.2,17.5L16.2,17.5z"/>
			</g>
		</g>
	</g>
</g>
<path id="Line" sketch:type="MSShapeGroup" fill="none" stroke="#DDDDDD" stroke-linecap="square" d="M0.5,135.5h574"/>
<g id="noun_21342_cc" transform="translate(86.000000, 80.000000)" sketch:type="MSShapeGroup">
	<path id="Shape_3_" fill="#DDDDDD" d="M53.5,1.1c-0.3-0.3-0.7-0.5-1.1-0.5h-5.8c-0.5,0-1,0.2-1.3,0.6l-2.5,4.3H42
		c0.2-2,0.2-3.4,0.2-3.4s-14.7-5-29.3,0c0,0,0,1.3,0.2,3.4h-1L9.6,1.2C9.4,0.8,8.9,0.6,8.3,0.6H2.5c-0.4,0-0.8,0.2-1.1,0.5
		c-2.6,3-1.5,13.3,1.8,16.8c0.3,0.4,8.6,8.8,18.7,11.2l0.1,0c1.6,2.6,2.6,5.3,2.6,8.3c0,2-0.4,3.9-1.2,5.7c-1.9,0.8-3.6,2-4.8,3.6
		h-1.7c-0.3,0-0.6,0.2-0.6,0.5v6V55h0.1h21.9h0.1v-1.6v-6c0-0.3-0.2-0.5-0.6-0.5h-1.7c-1.2-1.6-2.8-2.8-4.6-3.6
		c-0.8-1.8-1.2-3.7-1.2-5.8c0-3.1,1-5.7,2.6-8.3l0,0c10.2-2.4,18.3-10.8,18.7-11.2C55.1,14.4,56.2,4.1,53.5,1.1L53.5,1.1z M5.4,15.8
		C3.1,13.2,2.5,5.3,3.4,3h4l2.4,4.4c0.2,0.5,0.7,0.6,1.2,0.6h2c0.6,5,1.9,12,4.8,16.9C10.9,21.8,5.4,15.9,5.4,15.8L5.4,15.8z
		 M49.6,15.8c-0.1,0.1-5.5,6-12.6,9.2c3-4.9,4.3-11.9,4.9-16.9h2c0.5,0,1-0.2,1.2-0.6L47.5,3h4C52.5,5.3,51.9,13.2,49.6,15.8
		L49.6,15.8z"/>
</g>
<g enable-background="new    ">
	<path fill="#A3A0A0" d="M219.1,208.2c0,0-0.2,0.1-0.6,0.3c-0.5,0.3-1,0.5-1.6,0.6c-0.6,0.2-1.1,0.3-1.4,0.3c-1.1,0-1.9-0.4-2.4-1.3
		c-0.4-0.7-0.7-1.7-0.7-2.8c0-1.5,0.4-3.1,1.2-4.8c0.9-2,2.1-2.9,3.4-2.9c0.6,0,1.2,0.3,1.8,1c0.3,0.4,0.4,0.6,0.4,0.8
		c0,0.4-0.2,0.5-0.6,0.5c-0.1,0-0.3-0.1-0.5-0.4c-0.3-0.3-0.4-0.5-0.5-0.6c-0.2-0.2-0.5-0.3-0.8-0.3c-0.9,0-1.7,0.8-2.4,2.4
		c-0.6,1.4-0.9,2.8-0.9,4.3c0,2,0.7,2.9,2,2.9c0.8,0,1.6-0.3,2.5-0.8c0.4-0.3,0.7-0.4,0.8-0.4c0.1,0,0.3,0.1,0.4,0.2
		c0.1,0.1,0.2,0.3,0.2,0.4C219.4,207.9,219.3,208.1,219.1,208.2z"/>
	<path fill="#A3A0A0" d="M223.4,198.7l-0.1,0.1c-0.2,0.7-0.3,1.6-0.5,2.7c-0.2,1.2-0.2,2.2-0.2,3c0,2,0.1,3.6,0.2,4.9
		c0,0.2-0.1,0.2-0.2,0.2c-0.2,0-0.4-0.2-0.7-0.5c-0.2-0.3-0.3-0.6-0.3-0.9c0-0.1,0-0.2,0-0.6c0-0.3,0-0.5,0-0.5c0-0.2,0-0.4,0.1-0.6
		c-0.1-0.6-0.1-1.5-0.1-2.5c0-2,0.3-4.2,1-6.6c0.1-0.2,0.1-0.3,0.3-0.3c0.2,0,0.4,0.1,0.6,0.3c0.2,0.2,0.4,0.4,0.4,0.6
		C223.9,198.3,223.7,198.5,223.4,198.7z"/>
	<path fill="#A3A0A0" d="M226.9,204.8c-0.4,1.5-0.5,2.7-0.5,3.5c0.2,0.2,0.3,0.5,0.3,0.7c0,0.2-0.1,0.3-0.3,0.3
		c-0.3,0-0.5-0.2-0.7-0.6c-0.2-0.3-0.2-0.7-0.2-1.2c0-0.4,0.2-1.7,0.7-3.9c0-0.2,0-0.3,0-0.4c0-0.1,0.1-0.3,0.2-0.4
		c0.6,0,0.9,0.3,0.9,0.8C227.1,204.1,227,204.4,226.9,204.8z M227.5,198.7c-0.6-0.1-0.9-0.4-0.9-1c0-0.1,0-0.2,0-0.3
		c0-0.4,0.3-0.6,0.7-0.7c0.5,0.1,0.8,0.4,0.8,1.1C228,198.3,227.8,198.6,227.5,198.7z"/>
	<path fill="#A3A0A0" d="M233.2,208.6c-0.6,0.5-1.2,0.7-1.7,0.7c-0.6,0-1.2-0.2-1.6-0.7c-0.4-0.4-0.6-1-0.6-1.7
		c0-0.8,0.2-1.6,0.6-2.3c0.4-0.7,0.9-1.3,1.6-1.7c0.4-0.2,0.8-0.3,1.2-0.3c0.5,0,0.8,0.3,0.8,0.7c-0.1,0.4-0.4,0.7-0.8,0.7
		c-0.4,0-0.7-0.1-0.9-0.2c-1.1,0.8-1.7,1.8-1.7,3c0,0.4,0.1,0.8,0.3,1c0.2,0.3,0.4,0.4,0.8,0.4c0.4,0,0.8-0.1,1.1-0.3
		c0.1-0.1,0.3-0.3,0.5-0.5c0.2-0.2,0.4-0.3,0.5-0.3c0.1,0,0.2,0.1,0.3,0.2c0.1,0.1,0.1,0.2,0.1,0.4
		C233.9,207.9,233.7,208.2,233.2,208.6z"/>
	<path fill="#A3A0A0" d="M240.2,203.3c-0.7,0.4-1.8,0.7-3.2,1.1c0.6,0.7,1.6,1.7,2.9,3c0.2,0.2,0.6,0.6,1,1c0.1,0.1,0.1,0.2,0.1,0.3
		c0,0.4-0.2,0.5-0.5,0.5c-0.2,0-0.4-0.2-0.8-0.6c-0.9-0.9-2-2-3.2-3.3c0,0.1,0,0.7,0,1.6c0,0.8,0,1.3,0,1.4c0,0.4-0.2,0.7-0.5,0.7
		c-0.2,0-0.4-0.1-0.5-0.5c-0.1-0.3-0.1-0.5-0.1-0.8c0-0.2,0-0.3,0.1-0.4c0,0,0-0.1,0-0.2c0-0.1,0-0.1,0-0.2c0,0,0-0.1,0-0.2
		c0-0.1,0-0.2,0-0.3c0-1.1,0.1-2.6,0.3-4.3c0.2-1.7,0.4-3.2,0.6-4.6c0.1-0.3,0.2-0.5,0.5-0.5c0.3,0,0.5,0.2,0.5,0.4
		c0,0,0,0.3-0.1,0.8c-0.3,1.6-0.5,3.3-0.7,5.2c1.9-0.5,3.2-1,4.1-1.7c0.2-0.1,0.3-0.2,0.4-0.2c0.4,0,0.6,0.2,0.6,0.5
		C241.6,202.4,241.1,202.9,240.2,203.3z"/>
	<path fill="#A3A0A0" d="M252.9,207c0,0.1-0.1,0.3-0.2,0.6c-0.2,0.4-0.4,0.8-0.9,1.2c-0.4,0.4-0.9,0.5-1.3,0.5
		c-0.7,0-1.2-0.3-1.6-0.9c-0.4-0.5-0.6-1.2-0.6-1.9c0-0.7,0.2-1.3,0.5-2c0.3-0.7,0.8-1.2,1.3-1.5c0.3-0.1,0.5-0.3,0.6-0.4
		c0.1,0,0.1,0,0.2,0c0,0,0.2,0,0.4,0.1c0.5,0.2,1,0.6,1.3,1.1c0.3,0.5,0.5,1.1,0.5,1.7C253.2,206.1,253.1,206.6,252.9,207z
		 M251.6,204.2c-0.3,0-0.5-0.1-0.6-0.2c-0.6,0-1,0.3-1.3,0.9c-0.3,0.5-0.4,1-0.4,1.7c0,0.5,0.1,0.9,0.4,1.2c0.2,0.4,0.5,0.5,0.9,0.5
		c0.4,0,0.8-0.3,1.2-0.9c0.4-0.6,0.5-1.1,0.5-1.6C252.2,205,252,204.4,251.6,204.2z"/>
	<path fill="#A3A0A0" d="M260.3,207c-0.1,0.6-0.1,1.3-0.2,2.1c0,0.2-0.1,0.3-0.2,0.3c-0.2,0-0.3-0.1-0.5-0.2
		c-0.1-0.2-0.2-0.3-0.2-0.5c0-0.2,0-0.6,0.1-1l0.3-2.7c-1.5,1.1-2.6,2.2-3.2,3.4c-0.1,0.2-0.2,0.4-0.3,0.6c-0.1,0.2-0.2,0.4-0.3,0.4
		c-0.3,0-0.5-0.2-0.7-0.6c-0.2-0.6-0.3-1.3-0.3-2.2c0-1,0.2-2.3,0.5-3.9c0-0.2,0.1-0.3,0.2-0.3c0.2,0,0.3,0.1,0.5,0.3
		c0.1,0.2,0.2,0.4,0.2,0.6c0,0.2-0.1,0.3-0.1,0.6c-0.3,1.1-0.4,2.3-0.4,3.6c1.3-1.6,2.5-2.9,3.9-3.6c0.2,0,0.4,0.1,0.5,0.2
		c0.1,0.2,0.2,0.3,0.2,0.5C260.5,205,260.4,205.9,260.3,207z"/>
	<path fill="#A3A0A0" d="M273,207.2c-0.5,0.6-1.2,1.2-2,1.6c-0.4,0.2-0.9,0.4-1.4,0.6c-0.5,0.2-0.9,0.3-1.2,0.3
		c-0.4,0-0.6-0.2-0.7-0.5c0-0.2,0.2-0.4,0.4-0.5c-0.1-0.7-0.1-1.4-0.1-2.2c0-2.7,0.3-5.4,0.8-8.1c0.2-0.8,0.4-1.2,0.7-1.2
		c0.4,0,0.5,0.2,0.5,0.7c0,0.2,0,0.5-0.1,0.9c-0.1,0.5-0.2,0.8-0.2,1c-0.1,0.2-0.2,0.3-0.3,0.4c-0.2,1.3-0.4,3.2-0.5,5.7
		c1.2-1.6,2.3-2.3,3.2-2.3c0.5,0,0.9,0.2,1.2,0.5c0.3,0.4,0.4,0.8,0.4,1.3C273.8,205.9,273.6,206.6,273,207.2z M272.1,204.5
		c-0.3,0-0.7,0.2-1.1,0.6c-0.7,0.6-1.3,1.2-1.7,2c-0.1,0.3-0.2,0.5-0.2,0.7c0,0.2,0,0.5,0,0.8c0.8-0.2,1.6-0.6,2.4-1.2
		c0.9-0.7,1.4-1.4,1.4-2.1C272.9,204.7,272.7,204.5,272.1,204.5z"/>
	<path fill="#A3A0A0" d="M279.9,209.5c-1.2,0-2.1-0.6-2.7-1.8c-0.1,0-0.3,0-0.4,0c-0.6,0-1-0.1-1.3-0.3c-0.4-0.2-0.6-0.5-0.6-0.7
		c0-0.4,0.2-0.5,0.5-0.5c0,0,0.2,0.1,0.5,0.3c0.3,0.2,0.5,0.3,0.8,0.3c0.1,0,0.2,0,0.3,0c0-0.3-0.1-0.5-0.1-0.7
		c0-0.8,0.2-1.5,0.6-2.2c0.4-0.8,1-1.2,1.6-1.2c0.4,0,0.8,0.2,1.2,0.6c0.3,0.3,0.4,0.7,0.4,1.1c0,0.6-0.3,1.2-0.8,1.9
		c-0.5,0.6-1.1,1-1.8,1.3c0.3,0.7,0.8,1,1.5,1c0.1,0,0.4,0,0.7-0.1c0.3,0,0.5,0,0.5,0c0.1,0,0.2,0.1,0.3,0.2
		c0.1,0.1,0.1,0.2,0.1,0.4C281.4,209.3,280.9,209.5,279.9,209.5z M279.6,203.8c-0.2-0.1-0.4-0.2-0.5-0.2c-0.3,0-0.6,0.3-0.8,0.7
		c-0.2,0.5-0.3,1-0.3,1.5c0,0.2,0,0.4,0,0.6c0.5-0.2,1-0.5,1.3-0.9c0.4-0.4,0.6-0.8,0.6-1.2C279.8,204.2,279.7,204,279.6,203.8z"/>
	<path fill="#A3A0A0" d="M284.9,198.7l-0.1,0.1c-0.2,0.7-0.3,1.6-0.5,2.7c-0.2,1.2-0.2,2.2-0.2,3c0,2,0.1,3.6,0.2,4.9
		c0,0.2-0.1,0.2-0.2,0.2c-0.2,0-0.4-0.2-0.7-0.5c-0.2-0.3-0.3-0.6-0.3-0.9c0-0.1,0-0.2,0-0.6c0-0.3,0-0.5,0-0.5c0-0.2,0-0.4,0.1-0.6
		c-0.1-0.6-0.1-1.5-0.1-2.5c0-2,0.3-4.2,1-6.6c0.1-0.2,0.1-0.3,0.3-0.3c0.2,0,0.4,0.1,0.6,0.3c0.2,0.2,0.4,0.4,0.4,0.6
		C285.4,198.3,285.2,198.5,284.9,198.7z"/>
	<path fill="#A3A0A0" d="M291.2,207c0,0.1-0.1,0.3-0.2,0.6c-0.2,0.4-0.4,0.8-0.9,1.2c-0.4,0.4-0.9,0.5-1.3,0.5
		c-0.7,0-1.2-0.3-1.6-0.9c-0.4-0.5-0.6-1.2-0.6-1.9c0-0.7,0.2-1.3,0.5-2c0.3-0.7,0.8-1.2,1.3-1.5c0.3-0.1,0.5-0.3,0.6-0.4
		c0.1,0,0.1,0,0.2,0c0,0,0.2,0,0.4,0.1c0.5,0.2,1,0.6,1.3,1.1c0.3,0.5,0.5,1.1,0.5,1.7C291.4,206.1,291.3,206.6,291.2,207z
		 M289.9,204.2c-0.3,0-0.5-0.1-0.6-0.2c-0.6,0-1,0.3-1.3,0.9c-0.3,0.5-0.4,1-0.4,1.7c0,0.5,0.1,0.9,0.4,1.2c0.2,0.4,0.5,0.5,0.9,0.5
		c0.4,0,0.8-0.3,1.2-0.9c0.4-0.6,0.5-1.1,0.5-1.6C290.5,205,290.3,204.4,289.9,204.2z"/>
	<path fill="#A3A0A0" d="M302.9,205c-0.2,1.1-0.5,2-0.9,2.9c-0.6,1.1-1.3,1.7-2.1,1.7c-0.9,0-1.6-1-2.2-3c-0.3,0.6-0.8,1.4-1.6,2.1
		c-0.8,0.8-1.3,1.2-1.7,1.2c-0.2,0-0.4-0.2-0.6-0.5c-0.2-0.3-0.3-0.5-0.4-0.8c-0.4-1.5-0.6-2.8-0.6-3.9c0-0.7,0.1-1.5,0.2-2.1
		c0.1-0.3,0.2-0.5,0.5-0.5c0.4,0,0.6,0.3,0.6,1c0,0.1-0.1,0.4-0.2,0.7c-0.1,0.4-0.2,0.7-0.2,0.9c0,1.8,0.2,3.1,0.7,4
		c0.5-0.3,1-0.7,1.6-1.5c0.5-0.7,0.9-1.5,1.1-2.3c0.2-0.6,0.4-0.9,0.6-0.9c0.2,0,0.4,0.2,0.4,0.7c0.4,2.5,0.9,3.7,1.5,3.7
		c0.3,0,0.7-0.2,1.1-0.7c0.4-0.4,0.6-1.1,0.8-2c0.2-0.8,0.3-1.5,0.3-2.3c0-0.1,0-0.2,0-0.3c0-0.1,0-0.3,0-0.3c0-0.4,0.2-0.6,0.5-0.6
		c0.2,0,0.4,0.2,0.5,0.5c0.1,0.4,0.2,0.7,0.2,1C303.1,204.5,303.1,204.9,302.9,205z"/>
	<path fill="#A3A0A0" d="M315.4,207.2c-0.5,0.6-1.2,1.2-2,1.6c-0.4,0.2-0.9,0.4-1.4,0.6c-0.5,0.2-0.9,0.3-1.2,0.3
		c-0.4,0-0.6-0.2-0.7-0.5c0-0.2,0.2-0.4,0.4-0.5c-0.1-0.7-0.1-1.4-0.1-2.2c0-2.7,0.3-5.4,0.8-8.1c0.2-0.8,0.4-1.2,0.7-1.2
		c0.4,0,0.5,0.2,0.5,0.7c0,0.2,0,0.5-0.1,0.9c-0.1,0.5-0.2,0.8-0.2,1c-0.1,0.2-0.2,0.3-0.3,0.4c-0.2,1.3-0.4,3.2-0.5,5.7
		c1.2-1.6,2.3-2.3,3.2-2.3c0.5,0,0.9,0.2,1.2,0.5c0.3,0.4,0.4,0.8,0.4,1.3C316.2,205.9,315.9,206.6,315.4,207.2z M314.4,204.5
		c-0.3,0-0.7,0.2-1.1,0.6c-0.7,0.6-1.3,1.2-1.7,2c-0.1,0.3-0.2,0.5-0.2,0.7c0,0.2,0,0.5,0,0.8c0.8-0.2,1.6-0.6,2.4-1.2
		c0.9-0.7,1.4-1.4,1.4-2.1C315.2,204.7,315,204.5,314.4,204.5z"/>
	<path fill="#A3A0A0" d="M324,204c-0.2,0.5-0.4,1.6-0.6,3.2c0,0.4-0.1,0.6-0.1,0.7c0,0.1,0,0.3,0,0.5c0,0.3,0.1,0.4,0.1,0.4
		c0,0.4-0.2,0.6-0.6,0.6c-0.1,0-0.3,0-0.4-0.1c-0.1-0.1-0.2-0.2-0.2-0.3c0-0.1,0-0.2,0.1-0.3c0-0.9,0.1-1.8,0.3-2.6
		c-1.8,2.1-3,3.1-3.8,3.1c-0.4,0-0.6-0.1-0.8-0.3c-0.2-0.2-0.3-0.4-0.3-0.8c0-0.3,0.1-1,0.3-2c0.2-1.1,0.3-1.9,0.3-2.3
		c0,0,0-0.1,0-0.2c0-0.1,0-0.1,0-0.2c0-0.1,0-0.2,0.1-0.4c0.1-0.1,0.2-0.2,0.3-0.2c0.3,0,0.4,0.3,0.4,0.9c0,0.4-0.2,1.4-0.5,3.1
		c-0.1,0.4-0.1,0.7-0.1,0.8c0,0.2,0.1,0.3,0.2,0.3c0.6,0,1.4-0.6,2.4-1.7c0.7-0.8,1.4-1.8,2.1-3c0.1-0.2,0.2-0.3,0.4-0.3
		c0.3,0,0.4,0.2,0.4,0.4C324.1,203.7,324,203.8,324,204z"/>
	<path fill="#A3A0A0" d="M330.2,204H330c-0.1,0-0.3-0.1-0.4-0.2c-0.2,0-0.5,0-1,0c-0.5,0-0.8,0-0.9,0c-0.4,1.6-0.6,2.5-0.6,2.5
		c-0.2,1-0.3,1.8-0.3,2.6c0.1,0.1,0.2,0.3,0.2,0.5c0,0.1-0.1,0.2-0.2,0.3c-0.1,0.1-0.2,0.2-0.4,0.2c-0.4,0-0.6-0.4-0.6-1.2
		c0-0.5,0.1-1.3,0.3-2.3l0.5-2.6c-0.5,0-0.8-0.2-0.8-0.6c0-0.3,0.3-0.5,1-0.5c0.2-0.9,0.6-2.3,1.1-4.2c0.1-0.3,0.2-0.4,0.4-0.4
		c0.4,0,0.5,0.2,0.5,0.6c0,0.1,0,0.2-0.1,0.3c-0.1,0.2-0.2,0.6-0.3,1.2c-0.3,1-0.5,1.8-0.6,2.5c0,0,0.3,0,0.7,0c0.4,0,0.6,0,0.8,0
		c0.8,0,1.2,0.2,1.2,0.7C330.5,203.6,330.4,203.8,330.2,204z"/>
	<path fill="#A3A0A0" d="M336.1,204h-0.2c-0.1,0-0.3-0.1-0.4-0.2c-0.2,0-0.5,0-1,0c-0.5,0-0.8,0-0.9,0c-0.4,1.6-0.6,2.5-0.6,2.5
		c-0.2,1-0.3,1.8-0.3,2.6c0.1,0.1,0.2,0.3,0.2,0.5c0,0.1-0.1,0.2-0.2,0.3c-0.1,0.1-0.2,0.2-0.4,0.2c-0.4,0-0.6-0.4-0.6-1.2
		c0-0.5,0.1-1.3,0.3-2.3l0.5-2.6c-0.5,0-0.8-0.2-0.8-0.6c0-0.3,0.3-0.5,1-0.5c0.2-0.9,0.6-2.3,1.1-4.2c0.1-0.3,0.2-0.4,0.4-0.4
		c0.4,0,0.5,0.2,0.5,0.6c0,0.1,0,0.2-0.1,0.3c-0.1,0.2-0.2,0.6-0.3,1.2c-0.3,1-0.5,1.8-0.6,2.5c0,0,0.3,0,0.7,0c0.4,0,0.6,0,0.8,0
		c0.8,0,1.2,0.2,1.2,0.7C336.5,203.6,336.4,203.8,336.1,204z"/>
	<path fill="#A3A0A0" d="M341.9,207c0,0.1-0.1,0.3-0.2,0.6c-0.2,0.4-0.4,0.8-0.9,1.2c-0.4,0.4-0.9,0.5-1.3,0.5
		c-0.7,0-1.2-0.3-1.6-0.9c-0.4-0.5-0.6-1.2-0.6-1.9c0-0.7,0.2-1.3,0.5-2c0.3-0.7,0.8-1.2,1.3-1.5c0.3-0.1,0.5-0.3,0.6-0.4
		c0.1,0,0.1,0,0.2,0c0,0,0.2,0,0.4,0.1c0.5,0.2,1,0.6,1.3,1.1c0.3,0.5,0.5,1.1,0.5,1.7C342.2,206.1,342.1,206.6,341.9,207z
		 M340.6,204.2c-0.3,0-0.5-0.1-0.6-0.2c-0.6,0-1,0.3-1.3,0.9c-0.3,0.5-0.4,1-0.4,1.7c0,0.5,0.1,0.9,0.4,1.2c0.2,0.4,0.5,0.5,0.9,0.5
		c0.4,0,0.8-0.3,1.2-0.9c0.4-0.6,0.5-1.1,0.5-1.6C341.2,205,341,204.4,340.6,204.2z"/>
	<path fill="#A3A0A0" d="M349.3,207c-0.1,0.6-0.1,1.3-0.2,2.1c0,0.2-0.1,0.3-0.2,0.3c-0.2,0-0.3-0.1-0.5-0.2
		c-0.1-0.2-0.2-0.3-0.2-0.5c0-0.2,0-0.6,0.1-1l0.3-2.7c-1.5,1.1-2.6,2.2-3.2,3.4c-0.1,0.2-0.2,0.4-0.3,0.6c-0.1,0.2-0.2,0.4-0.3,0.4
		c-0.3,0-0.5-0.2-0.7-0.6c-0.2-0.6-0.3-1.3-0.3-2.2c0-1,0.2-2.3,0.5-3.9c0-0.2,0.1-0.3,0.2-0.3c0.2,0,0.3,0.1,0.5,0.3
		c0.1,0.2,0.2,0.4,0.2,0.6c0,0.2-0.1,0.3-0.1,0.6c-0.3,1.1-0.4,2.3-0.4,3.6c1.3-1.6,2.5-2.9,3.9-3.6c0.2,0,0.4,0.1,0.5,0.2
		c0.1,0.2,0.2,0.3,0.2,0.5C349.5,205,349.4,205.9,349.3,207z"/>
</g>
<g enable-background="new    ">
	<path fill="#A3A0A0" d="M199,226h-0.2c-0.1,0-0.3-0.1-0.4-0.2c-0.2,0-0.5,0-1,0c-0.5,0-0.8,0-0.9,0c-0.4,1.6-0.6,2.5-0.6,2.5
		c-0.2,1-0.3,1.8-0.3,2.6c0.1,0.1,0.2,0.3,0.2,0.5c0,0.1-0.1,0.2-0.2,0.3c-0.1,0.1-0.2,0.2-0.4,0.2c-0.4,0-0.6-0.4-0.6-1.2
		c0-0.5,0.1-1.3,0.3-2.3l0.5-2.6c-0.5,0-0.8-0.2-0.8-0.6c0-0.3,0.3-0.5,1-0.5c0.2-0.9,0.6-2.3,1.1-4.2c0.1-0.3,0.2-0.4,0.4-0.4
		c0.4,0,0.5,0.2,0.5,0.6c0,0.1,0,0.2-0.1,0.3c-0.1,0.2-0.2,0.6-0.3,1.2c-0.3,1-0.5,1.8-0.6,2.5c0,0,0.3,0,0.7,0c0.4,0,0.6,0,0.8,0
		c0.8,0,1.2,0.2,1.2,0.7C199.4,225.6,199.3,225.8,199,226z"/>
	<path fill="#A3A0A0" d="M204.8,229c0,0.1-0.1,0.3-0.2,0.6c-0.2,0.4-0.4,0.8-0.9,1.2c-0.4,0.4-0.9,0.5-1.3,0.5
		c-0.7,0-1.2-0.3-1.6-0.9c-0.4-0.5-0.6-1.2-0.6-1.9c0-0.7,0.2-1.3,0.5-2c0.3-0.7,0.8-1.2,1.3-1.5c0.3-0.1,0.5-0.3,0.6-0.4
		c0.1,0,0.1,0,0.2,0c0,0,0.2,0,0.4,0.1c0.5,0.2,1,0.6,1.3,1.1c0.3,0.5,0.5,1.1,0.5,1.7C205.1,228.1,205,228.6,204.8,229z
		 M203.5,226.2c-0.3,0-0.5-0.1-0.6-0.2c-0.6,0-1,0.3-1.3,0.9c-0.3,0.5-0.4,1-0.4,1.7c0,0.5,0.1,0.9,0.4,1.2c0.2,0.4,0.5,0.5,0.9,0.5
		c0.4,0,0.8-0.3,1.2-0.9c0.4-0.6,0.5-1.1,0.5-1.6C204.1,227,203.9,226.4,203.5,226.2z"/>
	<path fill="#A3A0A0" d="M216.1,230.6c-0.6,0.5-1.2,0.7-1.7,0.7c-0.6,0-1.2-0.2-1.6-0.7c-0.4-0.4-0.6-1-0.6-1.7
		c0-0.8,0.2-1.6,0.6-2.3c0.4-0.7,0.9-1.3,1.6-1.7c0.4-0.2,0.8-0.3,1.2-0.3c0.5,0,0.8,0.3,0.8,0.7c-0.1,0.4-0.4,0.7-0.8,0.7
		c-0.4,0-0.7-0.1-0.9-0.2c-1.1,0.8-1.7,1.8-1.7,3c0,0.4,0.1,0.8,0.3,1c0.2,0.3,0.4,0.4,0.8,0.4c0.4,0,0.8-0.1,1.1-0.3
		c0.1-0.1,0.3-0.3,0.5-0.5c0.2-0.2,0.4-0.3,0.5-0.3c0.1,0,0.2,0.1,0.3,0.2c0.1,0.1,0.1,0.2,0.1,0.4
		C216.8,229.9,216.5,230.2,216.1,230.6z"/>
	<path fill="#A3A0A0" d="M223.3,225.8c-0.3,0.1-0.5,0.2-0.7,0.2c0,0-0.1,0-0.3-0.1c-1.4,0.6-2.2,2-2.5,4c-0.1,1.1-0.3,1.6-0.5,1.6
		c-0.2,0-0.3-0.1-0.4-0.3c-0.1-0.2-0.2-0.4-0.2-0.6c0-0.2,0.1-0.4,0.2-0.8c0.1-0.5,0.1-0.9,0.1-1.3c0-0.5-0.1-0.9-0.2-1.4
		c-0.2-0.2-0.3-0.4-0.3-0.6c-0.1-0.4-0.1-0.8-0.1-1c0-0.1,0-0.2,0.1-0.3c0.1-0.1,0.1-0.2,0.2-0.2c0.4,0,0.6,0.3,0.7,0.9
		c0.1,0.6,0.2,1.1,0.3,1.4c0.4-0.7,0.9-1.3,1.5-1.8c0.6-0.5,1.2-0.7,1.9-0.7c0.2,0,0.3,0.1,0.5,0.2c0.1,0.2,0.2,0.3,0.2,0.5
		C223.9,225.5,223.7,225.7,223.3,225.8z"/>
	<path fill="#A3A0A0" d="M229.1,231.5c-1.2,0-2.1-0.6-2.7-1.8c-0.1,0-0.3,0-0.4,0c-0.6,0-1-0.1-1.3-0.3c-0.4-0.2-0.6-0.5-0.6-0.7
		c0-0.4,0.2-0.5,0.5-0.5c0,0,0.2,0.1,0.5,0.3c0.3,0.2,0.5,0.3,0.8,0.3c0.1,0,0.2,0,0.3,0c0-0.3-0.1-0.5-0.1-0.7
		c0-0.8,0.2-1.5,0.6-2.2c0.4-0.8,1-1.2,1.6-1.2c0.4,0,0.8,0.2,1.2,0.6c0.3,0.3,0.4,0.7,0.4,1.1c0,0.6-0.3,1.2-0.8,1.9
		c-0.5,0.6-1.1,1-1.8,1.3c0.3,0.7,0.8,1,1.5,1c0.1,0,0.4,0,0.7-0.1c0.3,0,0.5,0,0.5,0c0.1,0,0.2,0.1,0.3,0.2
		c0.1,0.1,0.1,0.2,0.1,0.4C230.5,231.3,230,231.5,229.1,231.5z M228.7,225.8c-0.2-0.1-0.4-0.2-0.5-0.2c-0.3,0-0.6,0.3-0.8,0.7
		c-0.2,0.5-0.3,1-0.3,1.5c0,0.2,0,0.4,0,0.6c0.5-0.2,1-0.5,1.3-0.9c0.4-0.4,0.6-0.8,0.6-1.2C229,226.2,228.9,226,228.7,225.8z"/>
	<path fill="#A3A0A0" d="M237.2,227.5c-0.2,0.7-0.4,1.4-0.4,2.1c0,0.3,0,0.5,0.1,0.8c0.1,0.5,0.2,0.7,0.2,0.8c0,0.3-0.2,0.5-0.5,0.5
		c-0.3,0-0.5-0.3-0.5-0.8c0-0.3-0.1-0.7-0.1-1.3c-0.9,1.1-1.7,1.6-2.5,1.6c-0.4,0-0.8-0.2-1.1-0.6c-0.3-0.4-0.4-0.8-0.4-1.2
		c0-0.7,0.3-1.5,1-2.3c0.1-0.2,0.4-0.4,0.7-0.7c1.1-1,1.9-1.4,2.7-1.4c0.2,0,0.3,0.1,0.5,0.2c0.2,0.1,0.3,0.3,0.3,0.5
		c0,0,0,0.1,0,0.2c0.1,0.3,0.2,0.7,0.2,1.1c0.1,0.2,0.2,0.3,0.2,0.4C237.2,227.3,237.2,227.4,237.2,227.5z M235.7,225.9
		c-0.2,0-0.5,0.2-1,0.5c-0.4,0.3-0.8,0.6-1,0.9c-0.7,0.8-1,1.4-1,1.9c0,0.6,0.2,0.8,0.7,0.8c0.6,0,1.2-0.4,1.8-1.1s0.9-1.5,0.9-2.2
		C236.1,226.2,236,225.9,235.7,225.9z"/>
	<path fill="#A3A0A0" d="M243.6,226h-0.2c-0.1,0-0.3-0.1-0.4-0.2c-0.2,0-0.5,0-1,0c-0.5,0-0.8,0-0.9,0c-0.4,1.6-0.6,2.5-0.6,2.5
		c-0.2,1-0.3,1.8-0.3,2.6c0.1,0.1,0.2,0.3,0.2,0.5c0,0.1-0.1,0.2-0.2,0.3c-0.1,0.1-0.2,0.2-0.4,0.2c-0.4,0-0.6-0.4-0.6-1.2
		c0-0.5,0.1-1.3,0.3-2.3l0.5-2.6c-0.5,0-0.8-0.2-0.8-0.6c0-0.3,0.3-0.5,1-0.5c0.2-0.9,0.6-2.3,1.1-4.2c0.1-0.3,0.2-0.4,0.4-0.4
		c0.4,0,0.5,0.2,0.5,0.6c0,0.1,0,0.2-0.1,0.3c-0.1,0.2-0.2,0.6-0.3,1.2c-0.3,1-0.5,1.8-0.6,2.5c0,0,0.3,0,0.7,0c0.4,0,0.6,0,0.8,0
		c0.8,0,1.2,0.2,1.2,0.7C244,225.6,243.9,225.8,243.6,226z"/>
	<path fill="#A3A0A0" d="M249.4,231.5c-1.2,0-2.1-0.6-2.7-1.8c-0.1,0-0.3,0-0.4,0c-0.6,0-1-0.1-1.3-0.3c-0.4-0.2-0.6-0.5-0.6-0.7
		c0-0.4,0.2-0.5,0.5-0.5c0,0,0.2,0.1,0.5,0.3c0.3,0.2,0.5,0.3,0.8,0.3c0.1,0,0.2,0,0.3,0c0-0.3-0.1-0.5-0.1-0.7
		c0-0.8,0.2-1.5,0.6-2.2c0.4-0.8,1-1.2,1.6-1.2c0.4,0,0.8,0.2,1.2,0.6c0.3,0.3,0.4,0.7,0.4,1.1c0,0.6-0.3,1.2-0.8,1.9
		c-0.5,0.6-1.1,1-1.8,1.3c0.3,0.7,0.8,1,1.5,1c0.1,0,0.4,0,0.7-0.1c0.3,0,0.5,0,0.5,0c0.1,0,0.2,0.1,0.3,0.2
		c0.1,0.1,0.1,0.2,0.1,0.4C250.9,231.3,250.4,231.5,249.4,231.5z M249,225.8c-0.2-0.1-0.4-0.2-0.5-0.2c-0.3,0-0.6,0.3-0.8,0.7
		c-0.2,0.5-0.3,1-0.3,1.5c0,0.2,0,0.4,0,0.6c0.5-0.2,1-0.5,1.3-0.9c0.4-0.4,0.6-0.8,0.6-1.2C249.3,226.2,249.2,226,249,225.8z"/>
	<path fill="#A3A0A0" d="M262.9,227.5c-0.2,0.7-0.4,1.4-0.4,2.1c0,0.3,0,0.5,0.1,0.8c0.1,0.5,0.2,0.7,0.2,0.8c0,0.3-0.2,0.5-0.5,0.5
		c-0.3,0-0.5-0.3-0.5-0.8c0-0.3-0.1-0.7-0.1-1.3c-0.9,1.1-1.7,1.6-2.5,1.6c-0.4,0-0.8-0.2-1.1-0.6c-0.3-0.4-0.4-0.8-0.4-1.2
		c0-0.7,0.3-1.5,1-2.3c0.1-0.2,0.4-0.4,0.7-0.7c1.1-1,1.9-1.4,2.7-1.4c0.2,0,0.3,0.1,0.5,0.2c0.2,0.1,0.3,0.3,0.3,0.5
		c0,0,0,0.1,0,0.2c0.1,0.3,0.2,0.7,0.2,1.1c0.1,0.2,0.2,0.3,0.2,0.4C263,227.3,263,227.4,262.9,227.5z M261.5,225.9
		c-0.2,0-0.5,0.2-1,0.5c-0.4,0.3-0.8,0.6-1,0.9c-0.7,0.8-1,1.4-1,1.9c0,0.6,0.2,0.8,0.7,0.8c0.6,0,1.2-0.4,1.8-1.1s0.9-1.5,0.9-2.2
		C261.9,226.2,261.7,225.9,261.5,225.9z"/>
	<path fill="#A3A0A0" d="M275.6,229c-0.1,0.6-0.1,1.3-0.2,2.1c0,0.2-0.1,0.3-0.2,0.3c-0.2,0-0.3-0.1-0.5-0.2
		c-0.1-0.2-0.2-0.3-0.2-0.5c0-0.2,0-0.6,0.1-1l0.3-2.7c-1.5,1.1-2.6,2.2-3.2,3.4c-0.1,0.2-0.2,0.4-0.3,0.6c-0.1,0.2-0.2,0.4-0.3,0.4
		c-0.3,0-0.5-0.2-0.7-0.6c-0.2-0.6-0.3-1.3-0.3-2.2c0-1,0.2-2.3,0.5-3.9c0-0.2,0.1-0.3,0.2-0.3c0.2,0,0.3,0.1,0.5,0.3
		c0.1,0.2,0.2,0.4,0.2,0.6c0,0.2-0.1,0.3-0.1,0.6c-0.3,1.1-0.4,2.3-0.4,3.6c1.3-1.6,2.5-2.9,3.9-3.6c0.2,0,0.4,0.1,0.5,0.2
		c0.1,0.2,0.2,0.3,0.2,0.5C275.8,227,275.7,227.9,275.6,229z"/>
	<path fill="#A3A0A0" d="M282,231.5c-1.2,0-2.1-0.6-2.7-1.8c-0.1,0-0.3,0-0.4,0c-0.6,0-1-0.1-1.3-0.3c-0.4-0.2-0.6-0.5-0.6-0.7
		c0-0.4,0.2-0.5,0.5-0.5c0,0,0.2,0.1,0.5,0.3c0.3,0.2,0.5,0.3,0.8,0.3c0.1,0,0.2,0,0.3,0c0-0.3-0.1-0.5-0.1-0.7
		c0-0.8,0.2-1.5,0.6-2.2c0.4-0.8,1-1.2,1.6-1.2c0.4,0,0.8,0.2,1.2,0.6c0.3,0.3,0.4,0.7,0.4,1.1c0,0.6-0.3,1.2-0.8,1.9
		c-0.5,0.6-1.1,1-1.8,1.3c0.3,0.7,0.8,1,1.5,1c0.1,0,0.4,0,0.7-0.1c0.3,0,0.5,0,0.5,0c0.1,0,0.2,0.1,0.3,0.2
		c0.1,0.1,0.1,0.2,0.1,0.4C283.5,231.3,283,231.5,282,231.5z M281.6,225.8c-0.2-0.1-0.4-0.2-0.5-0.2c-0.3,0-0.6,0.3-0.8,0.7
		c-0.2,0.5-0.3,1-0.3,1.5c0,0.2,0,0.4,0,0.6c0.5-0.2,1-0.5,1.3-0.9c0.4-0.4,0.6-0.8,0.6-1.2C281.9,226.2,281.8,226,281.6,225.8z"/>
	<path fill="#A3A0A0" d="M294.5,227c-0.2,1.1-0.5,2-0.9,2.9c-0.6,1.1-1.3,1.7-2.1,1.7c-0.9,0-1.6-1-2.2-3c-0.3,0.6-0.8,1.4-1.6,2.1
		c-0.8,0.8-1.3,1.2-1.7,1.2c-0.2,0-0.4-0.2-0.6-0.5c-0.2-0.3-0.3-0.5-0.4-0.8c-0.4-1.5-0.6-2.8-0.6-3.9c0-0.7,0.1-1.5,0.2-2.1
		c0.1-0.3,0.2-0.5,0.5-0.5c0.4,0,0.6,0.3,0.6,1c0,0.1-0.1,0.4-0.2,0.7c-0.1,0.4-0.2,0.7-0.2,0.9c0,1.8,0.2,3.1,0.7,4
		c0.5-0.3,1-0.7,1.6-1.5c0.5-0.7,0.9-1.5,1.1-2.3c0.2-0.6,0.4-0.9,0.6-0.9c0.2,0,0.4,0.2,0.4,0.7c0.4,2.5,0.9,3.7,1.5,3.7
		c0.3,0,0.7-0.2,1.1-0.7c0.4-0.4,0.6-1.1,0.8-2c0.2-0.8,0.3-1.5,0.3-2.3c0-0.1,0-0.2,0-0.3c0-0.1,0-0.3,0-0.3c0-0.4,0.2-0.6,0.5-0.6
		c0.2,0,0.4,0.2,0.5,0.5c0.1,0.4,0.2,0.7,0.2,1C294.7,226.5,294.7,226.9,294.5,227z"/>
	<path fill="#A3A0A0" d="M305.4,230.6c-0.6,0.5-1.2,0.7-1.7,0.7c-0.6,0-1.2-0.2-1.6-0.7c-0.4-0.4-0.6-1-0.6-1.7
		c0-0.8,0.2-1.6,0.6-2.3c0.4-0.7,0.9-1.3,1.6-1.7c0.4-0.2,0.8-0.3,1.2-0.3c0.5,0,0.8,0.3,0.8,0.7c-0.1,0.4-0.4,0.7-0.8,0.7
		c-0.4,0-0.7-0.1-0.9-0.2c-1.1,0.8-1.7,1.8-1.7,3c0,0.4,0.1,0.8,0.3,1s0.4,0.4,0.8,0.4c0.4,0,0.8-0.1,1.1-0.3
		c0.1-0.1,0.3-0.3,0.5-0.5c0.2-0.2,0.4-0.3,0.5-0.3c0.1,0,0.2,0.1,0.3,0.2c0.1,0.1,0.1,0.2,0.1,0.4
		C306.1,229.9,305.9,230.2,305.4,230.6z"/>
	<path fill="#A3A0A0" d="M312.2,231.5c-1.2,0-2.1-0.6-2.7-1.8c-0.1,0-0.3,0-0.4,0c-0.6,0-1-0.1-1.3-0.3c-0.4-0.2-0.6-0.5-0.6-0.7
		c0-0.4,0.2-0.5,0.5-0.5c0,0,0.2,0.1,0.5,0.3c0.3,0.2,0.5,0.3,0.8,0.3c0.1,0,0.2,0,0.3,0c0-0.3-0.1-0.5-0.1-0.7
		c0-0.8,0.2-1.5,0.6-2.2c0.4-0.8,1-1.2,1.6-1.2c0.4,0,0.8,0.2,1.2,0.6c0.3,0.3,0.4,0.7,0.4,1.1c0,0.6-0.3,1.2-0.8,1.9
		c-0.5,0.6-1.1,1-1.8,1.3c0.3,0.7,0.8,1,1.5,1c0.1,0,0.4,0,0.7-0.1c0.3,0,0.5,0,0.5,0c0.1,0,0.2,0.1,0.3,0.2
		c0.1,0.1,0.1,0.2,0.1,0.4C313.6,231.3,313.2,231.5,312.2,231.5z M311.8,225.8c-0.2-0.1-0.4-0.2-0.5-0.2c-0.3,0-0.6,0.3-0.8,0.7
		c-0.2,0.5-0.3,1-0.3,1.5c0,0.2,0,0.4,0,0.6c0.5-0.2,1-0.5,1.3-0.9c0.4-0.4,0.6-0.8,0.6-1.2C312.1,226.2,312,226,311.8,225.8z"/>
	<path fill="#A3A0A0" d="M320,225.8c-0.3,0.1-0.5,0.2-0.7,0.2c0,0-0.1,0-0.3-0.1c-1.4,0.6-2.2,2-2.5,4c-0.1,1.1-0.3,1.6-0.5,1.6
		c-0.2,0-0.3-0.1-0.4-0.3c-0.1-0.2-0.2-0.4-0.2-0.6c0-0.2,0.1-0.4,0.2-0.8c0.1-0.5,0.1-0.9,0.1-1.3c0-0.5-0.1-0.9-0.2-1.4
		c-0.2-0.2-0.3-0.4-0.3-0.6c-0.1-0.4-0.1-0.8-0.1-1c0-0.1,0-0.2,0.1-0.3c0.1-0.1,0.1-0.2,0.2-0.2c0.4,0,0.6,0.3,0.7,0.9
		c0.1,0.6,0.2,1.1,0.3,1.4c0.4-0.7,0.9-1.3,1.5-1.8c0.6-0.5,1.2-0.7,1.9-0.7c0.2,0,0.3,0.1,0.5,0.2c0.1,0.2,0.2,0.3,0.2,0.5
		C320.5,225.5,320.3,225.7,320,225.8z"/>
	<path fill="#A3A0A0" d="M325.9,226h-0.2c-0.1,0-0.3-0.1-0.4-0.2c-0.2,0-0.5,0-1,0c-0.5,0-0.8,0-0.9,0c-0.4,1.6-0.6,2.5-0.6,2.5
		c-0.2,1-0.3,1.8-0.3,2.6c0.1,0.1,0.2,0.3,0.2,0.5c0,0.1-0.1,0.2-0.2,0.3c-0.1,0.1-0.2,0.2-0.4,0.2c-0.4,0-0.6-0.4-0.6-1.2
		c0-0.5,0.1-1.3,0.3-2.3l0.5-2.6c-0.5,0-0.8-0.2-0.8-0.6c0-0.3,0.3-0.5,1-0.5c0.2-0.9,0.6-2.3,1.1-4.2c0.1-0.3,0.2-0.4,0.4-0.4
		c0.4,0,0.5,0.2,0.5,0.6c0,0.1,0,0.2-0.1,0.3c-0.1,0.2-0.2,0.6-0.3,1.2c-0.3,1-0.5,1.8-0.6,2.5c0,0,0.3,0,0.7,0c0.4,0,0.6,0,0.8,0
		c0.8,0,1.2,0.2,1.2,0.7C326.3,225.6,326.1,225.8,325.9,226z"/>
	<path fill="#A3A0A0" d="M328.9,226.8c-0.4,1.5-0.5,2.7-0.5,3.5c0.2,0.2,0.3,0.5,0.3,0.7c0,0.2-0.1,0.3-0.3,0.3
		c-0.3,0-0.5-0.2-0.7-0.6c-0.2-0.3-0.2-0.7-0.2-1.2c0-0.4,0.2-1.7,0.7-3.9c0-0.2,0-0.3,0-0.4c0-0.1,0.1-0.3,0.2-0.4
		c0.6,0,0.9,0.3,0.9,0.8C329.1,226.1,329,226.4,328.9,226.8z M329.5,220.7c-0.6-0.1-0.9-0.4-0.9-1c0-0.1,0-0.2,0-0.3
		c0-0.4,0.3-0.6,0.7-0.7c0.5,0.1,0.8,0.4,0.8,1.1C330,220.3,329.8,220.6,329.5,220.7z"/>
	<path fill="#A3A0A0" d="M338,220.1c-1.1,0.1-2,0.6-2.6,1.6c-0.8,1.3-1.3,3-1.6,5.1c0.6-0.1,1.5-0.4,2.8-0.7c0.3-0.1,0.6-0.1,1-0.1
		c0.3,0,0.5,0.2,0.5,0.5c0,0.2-0.1,0.4-0.3,0.5c-0.2,0.1-0.4,0.2-0.6,0.2c-0.1,0-0.2,0-0.3,0c-0.6,0.1-1.7,0.4-3.3,0.7
		c-0.4,3.1-0.8,5.2-1.4,6.3c-0.2,0.4-0.4,0.6-0.6,0.6s-0.3-0.1-0.4-0.2c-0.1-0.2-0.2-0.3-0.2-0.5s0-0.3,0.1-0.3
		c0.1-0.1,0.1-0.2,0.2-0.2c0.5-0.4,0.9-2.3,1.3-5.4c-0.6,0.1-1,0.2-1.1,0.2c-0.1,0-0.2,0-0.3-0.1c-0.1-0.1-0.1-0.2-0.1-0.4
		c0-0.4,0.1-0.5,0.5-0.5c0.1,0,0.4,0,0.7-0.1c0.1,0,0.3-0.1,0.6-0.1c0.4-3.3,1.3-5.6,2.7-6.9c0.2-0.2,0.5-0.4,1-0.6
		c0.4-0.2,0.8-0.3,1-0.3c0.4,0,0.6,0.1,0.6,0.4C338.3,219.7,338.2,219.9,338,220.1z"/>
	<path fill="#A3A0A0" d="M340.5,226.8c-0.4,1.5-0.5,2.7-0.5,3.5c0.2,0.2,0.3,0.5,0.3,0.7c0,0.2-0.1,0.3-0.3,0.3
		c-0.3,0-0.5-0.2-0.7-0.6c-0.2-0.3-0.2-0.7-0.2-1.2c0-0.4,0.2-1.7,0.7-3.9c0-0.2,0-0.3,0-0.4c0-0.1,0.1-0.3,0.2-0.4
		c0.6,0,0.9,0.3,0.9,0.8C340.7,226.1,340.6,226.4,340.5,226.8z M341.2,220.7c-0.6-0.1-0.9-0.4-0.9-1c0-0.1,0-0.2,0-0.3
		c0-0.4,0.3-0.6,0.7-0.7c0.5,0.1,0.8,0.4,0.8,1.1C341.7,220.3,341.5,220.6,341.2,220.7z"/>
	<path fill="#A3A0A0" d="M346.9,230.6c-0.6,0.5-1.2,0.7-1.7,0.7c-0.6,0-1.2-0.2-1.6-0.7c-0.4-0.4-0.6-1-0.6-1.7
		c0-0.8,0.2-1.6,0.6-2.3c0.4-0.7,0.9-1.3,1.6-1.7c0.4-0.2,0.8-0.3,1.2-0.3c0.5,0,0.8,0.3,0.8,0.7c-0.1,0.4-0.4,0.7-0.8,0.7
		c-0.4,0-0.7-0.1-0.9-0.2c-1.1,0.8-1.7,1.8-1.7,3c0,0.4,0.1,0.8,0.3,1c0.2,0.3,0.4,0.4,0.8,0.4c0.4,0,0.8-0.1,1.1-0.3
		c0.1-0.1,0.3-0.3,0.5-0.5c0.2-0.2,0.4-0.3,0.5-0.3c0.1,0,0.2,0.1,0.3,0.2c0.1,0.1,0.1,0.2,0.1,0.4
		C347.6,229.9,347.3,230.2,346.9,230.6z"/>
	<path fill="#A3A0A0" d="M354.5,227.5c-0.2,0.7-0.4,1.4-0.4,2.1c0,0.3,0,0.5,0.1,0.8c0.1,0.5,0.2,0.7,0.2,0.8c0,0.3-0.2,0.5-0.5,0.5
		c-0.3,0-0.5-0.3-0.5-0.8c0-0.3-0.1-0.7-0.1-1.3c-0.9,1.1-1.7,1.6-2.5,1.6c-0.4,0-0.8-0.2-1.1-0.6c-0.3-0.4-0.4-0.8-0.4-1.2
		c0-0.7,0.3-1.5,1-2.3c0.1-0.2,0.4-0.4,0.7-0.7c1.1-1,1.9-1.4,2.7-1.4c0.2,0,0.3,0.1,0.5,0.2c0.2,0.1,0.3,0.3,0.3,0.5
		c0,0,0,0.1,0,0.2c0.1,0.3,0.2,0.7,0.2,1.1c0.1,0.2,0.2,0.3,0.2,0.4C354.5,227.3,354.5,227.4,354.5,227.5z M353,225.9
		c-0.2,0-0.5,0.2-1,0.5c-0.4,0.3-0.8,0.6-1,0.9c-0.7,0.8-1,1.4-1,1.9c0,0.6,0.2,0.8,0.7,0.8c0.6,0,1.2-0.4,1.8-1.1s0.9-1.5,0.9-2.2
		C353.4,226.2,353.3,225.9,353,225.9z"/>
	<path fill="#A3A0A0" d="M361,226h-0.2c-0.1,0-0.3-0.1-0.4-0.2c-0.2,0-0.5,0-1,0c-0.5,0-0.8,0-0.9,0c-0.4,1.6-0.6,2.5-0.6,2.5
		c-0.2,1-0.3,1.8-0.3,2.6c0.1,0.1,0.2,0.3,0.2,0.5c0,0.1-0.1,0.2-0.2,0.3c-0.1,0.1-0.2,0.2-0.4,0.2c-0.4,0-0.6-0.4-0.6-1.2
		c0-0.5,0.1-1.3,0.3-2.3l0.5-2.6c-0.5,0-0.8-0.2-0.8-0.6c0-0.3,0.3-0.5,1-0.5c0.2-0.9,0.6-2.3,1.1-4.2c0.1-0.3,0.2-0.4,0.4-0.4
		c0.4,0,0.5,0.2,0.5,0.6c0,0.1,0,0.2-0.1,0.3c-0.1,0.2-0.2,0.6-0.3,1.2c-0.3,1-0.5,1.8-0.6,2.5c0,0,0.3,0,0.7,0c0.4,0,0.6,0,0.8,0
		c0.8,0,1.2,0.2,1.2,0.7C361.3,225.6,361.2,225.8,361,226z"/>
	<path fill="#A3A0A0" d="M366.7,231.5c-1.2,0-2.1-0.6-2.7-1.8c-0.1,0-0.3,0-0.4,0c-0.6,0-1-0.1-1.3-0.3c-0.4-0.2-0.6-0.5-0.6-0.7
		c0-0.4,0.2-0.5,0.5-0.5c0,0,0.2,0.1,0.5,0.3c0.3,0.2,0.5,0.3,0.8,0.3c0.1,0,0.2,0,0.3,0c0-0.3-0.1-0.5-0.1-0.7
		c0-0.8,0.2-1.5,0.6-2.2c0.4-0.8,1-1.2,1.6-1.2c0.4,0,0.8,0.2,1.2,0.6c0.3,0.3,0.4,0.7,0.4,1.1c0,0.6-0.3,1.2-0.8,1.9
		c-0.5,0.6-1.1,1-1.8,1.3c0.3,0.7,0.8,1,1.5,1c0.1,0,0.4,0,0.7-0.1c0.3,0,0.5,0,0.5,0c0.1,0,0.2,0.1,0.3,0.2
		c0.1,0.1,0.1,0.2,0.1,0.4C368.2,231.3,367.7,231.5,366.7,231.5z M366.4,225.8c-0.2-0.1-0.4-0.2-0.5-0.2c-0.3,0-0.6,0.3-0.8,0.7
		c-0.2,0.5-0.3,1-0.3,1.5c0,0.2,0,0.4,0,0.6c0.5-0.2,1-0.5,1.3-0.9c0.4-0.4,0.6-0.8,0.6-1.2C366.6,226.2,366.5,226,366.4,225.8z"/>
</g>
<g enable-background="new    ">
	<path fill="#DDDDDD" d="M93.5,168.7c0.8,0.8,1.8,1.3,2.9,1.3c1.4,0,2.2-0.7,2.2-1.7c0-1.1-0.8-1.4-1.7-1.9l-1.5-0.7
		c-1-0.4-2.1-1.2-2.1-2.7c0-1.6,1.4-2.8,3.3-2.8c1.2,0,2.4,0.5,3.1,1.3l-0.7,0.9c-0.6-0.6-1.4-1-2.4-1c-1.2,0-2,0.6-2,1.5
		c0,1,0.9,1.4,1.7,1.7l1.5,0.6c1.2,0.5,2.2,1.2,2.2,2.8c0,1.7-1.4,3-3.6,3c-1.5,0-2.8-0.6-3.7-1.6L93.5,168.7z"/>
	<path fill="#DDDDDD" d="M104.8,163c2,0,3.1,1.4,3.1,3.7c0,0.3,0,0.5,0,0.7h-5.2c0.1,1.7,1.1,2.7,2.6,2.7c0.7,0,1.4-0.2,1.9-0.6
		l0.5,0.9c-0.7,0.4-1.5,0.8-2.6,0.8c-2.1,0-3.7-1.5-3.7-4.1C101.3,164.6,103,163,104.8,163z M106.7,166.5c0-1.6-0.7-2.5-1.9-2.5
		c-1.1,0-2.1,0.9-2.2,2.5H106.7z"/>
	<path fill="#DDDDDD" d="M109.8,164.3h-1.2v-1l1.2-0.1l0.2-2.2h1.1v2.2h2.1v1.1h-2.1v4.3c0,1,0.3,1.5,1.2,1.5c0.3,0,0.6-0.1,0.9-0.2
		l0.3,1c-0.4,0.1-1,0.3-1.4,0.3c-1.7,0-2.2-1.1-2.2-2.6V164.3z"/>
	<path fill="#DDDDDD" d="M116.3,171.7v2.6H115v-11.1h1.1l0.1,0.9h0c0.7-0.6,1.6-1.1,2.5-1.1c2,0,3.1,1.6,3.1,4
		c0,2.6-1.6,4.2-3.4,4.2c-0.7,0-1.4-0.3-2.2-0.9L116.3,171.7z M118.2,170.1c1.3,0,2.2-1.2,2.2-3.1c0-1.7-0.6-2.9-2-2.9
		c-0.7,0-1.3,0.4-2.1,1.1v4.1C117,169.9,117.7,170.1,118.2,170.1z"/>
	<path fill="#DDDDDD" d="M127,169.9h2.3v-7.5h-1.9v-0.8c0.9-0.2,1.6-0.4,2.2-0.8h1v9.1h2.1v1.1H127V169.9z"/>
</g>
<g enable-background="new    ">
	<path fill="#DDDDDD" d="M425.5,168.7c0.8,0.8,1.8,1.3,2.9,1.3c1.4,0,2.2-0.7,2.2-1.7c0-1.1-0.8-1.4-1.7-1.9l-1.5-0.7
		c-1-0.4-2.1-1.2-2.1-2.7c0-1.6,1.4-2.8,3.3-2.8c1.2,0,2.4,0.5,3.1,1.3l-0.7,0.9c-0.6-0.6-1.4-1-2.4-1c-1.2,0-2,0.6-2,1.5
		c0,1,0.9,1.4,1.7,1.7l1.5,0.6c1.2,0.5,2.2,1.2,2.2,2.8c0,1.7-1.4,3-3.6,3c-1.5,0-2.8-0.6-3.7-1.6L425.5,168.7z"/>
	<path fill="#DDDDDD" d="M436.8,163c2,0,3.1,1.4,3.1,3.7c0,0.3,0,0.5,0,0.7h-5.2c0.1,1.7,1.1,2.7,2.6,2.7c0.7,0,1.4-0.2,1.9-0.6
		l0.5,0.9c-0.7,0.4-1.5,0.8-2.6,0.8c-2.1,0-3.7-1.5-3.7-4.1C433.3,164.6,435,163,436.8,163z M438.7,166.5c0-1.6-0.7-2.5-1.9-2.5
		c-1.1,0-2.1,0.9-2.2,2.5H438.7z"/>
	<path fill="#DDDDDD" d="M441.8,164.3h-1.2v-1l1.2-0.1l0.2-2.2h1.1v2.2h2.1v1.1h-2.1v4.3c0,1,0.3,1.5,1.2,1.5c0.3,0,0.6-0.1,0.9-0.2
		l0.3,1c-0.4,0.1-1,0.3-1.4,0.3c-1.7,0-2.2-1.1-2.2-2.6V164.3z"/>
	<path fill="#DDDDDD" d="M448.3,171.7v2.6H447v-11.1h1.1l0.1,0.9h0c0.7-0.6,1.6-1.1,2.5-1.1c2,0,3.1,1.6,3.1,4
		c0,2.6-1.6,4.2-3.4,4.2c-0.7,0-1.4-0.3-2.2-0.9L448.3,171.7z M450.2,170.1c1.3,0,2.2-1.2,2.2-3.1c0-1.7-0.6-2.9-2-2.9
		c-0.7,0-1.3,0.4-2.1,1.1v4.1C449,169.9,449.7,170.1,450.2,170.1z"/>
	<path fill="#DDDDDD" d="M458.4,170.2c3.1-3.1,4.8-4.9,4.8-6.5c0-1.2-0.6-2-1.9-2c-0.8,0-1.6,0.5-2.2,1.2l-0.8-0.8
		c0.8-0.9,1.8-1.6,3.1-1.6c1.9,0,3.1,1.2,3.1,3c0,1.9-1.7,3.8-4.2,6.4c0.6,0,1.2-0.1,1.7-0.1h3v1.1h-6.6V170.2z"/>
</g>
<g enable-background="new    ">
	<path fill="#A3A0A0" d="M190.2,6.9c-0.1,0.1-0.3,0.4-0.5,0.8c-1.6,2.9-2.8,5.7-3.6,8.5c-0.1,0.4-0.1,0.5-0.1,0.6
		c0,0.2,0,0.4,0.1,0.6c0,0.4-0.2,0.6-0.6,0.6c-0.4,0-0.6-0.3-0.6-0.8c0-0.8,0.4-2.1,1.2-4c-0.3-0.6-0.6-1.2-0.9-1.9
		c-0.4-1-0.7-1.7-1-2.1c-0.4-0.8-0.8-1.5-1.3-2.1c-0.3-0.3-0.4-0.5-0.4-0.7c0-0.1,0-0.2,0.2-0.3c0.1-0.1,0.2-0.2,0.3-0.2
		c0.2,0,0.4,0.2,0.7,0.6c1,1.4,1.9,3.2,2.8,5.6c0.9-2.2,1.8-3.9,2.5-5.1c0.5-0.8,0.8-1.2,1.1-1.2c0.3,0,0.5,0.2,0.5,0.5
		C190.7,6.4,190.5,6.6,190.2,6.9z"/>
	<path fill="#A3A0A0" d="M196.6,15c0,0.1-0.1,0.3-0.2,0.6c-0.2,0.4-0.4,0.8-0.9,1.2c-0.4,0.4-0.9,0.5-1.3,0.5
		c-0.7,0-1.2-0.3-1.6-0.9c-0.4-0.5-0.6-1.2-0.6-1.9c0-0.7,0.2-1.3,0.5-2c0.3-0.7,0.8-1.2,1.3-1.5c0.3-0.1,0.5-0.3,0.6-0.4
		c0.1,0,0.1,0,0.2,0c0,0,0.2,0,0.4,0.1c0.5,0.2,1,0.6,1.3,1.1c0.3,0.5,0.5,1.1,0.5,1.7C196.8,14.1,196.7,14.6,196.6,15z M195.2,12.2
		c-0.3,0-0.5-0.1-0.6-0.2c-0.6,0-1,0.3-1.3,0.9c-0.3,0.5-0.4,1-0.4,1.7c0,0.5,0.1,0.9,0.4,1.2c0.2,0.4,0.5,0.5,0.9,0.5
		c0.4,0,0.8-0.3,1.2-0.9c0.4-0.6,0.5-1.1,0.5-1.6C195.9,13,195.7,12.4,195.2,12.2z"/>
	<path fill="#A3A0A0" d="M204.8,12c-0.2,0.5-0.4,1.6-0.6,3.2c0,0.4-0.1,0.6-0.1,0.7c0,0.1,0,0.3,0,0.5c0,0.3,0.1,0.4,0.1,0.4
		c0,0.4-0.2,0.6-0.6,0.6c-0.1,0-0.3,0-0.4-0.1c-0.1-0.1-0.2-0.2-0.2-0.3c0-0.1,0-0.2,0.1-0.3c0-0.9,0.1-1.8,0.3-2.6
		c-1.8,2.1-3,3.1-3.8,3.1c-0.4,0-0.6-0.1-0.8-0.3c-0.2-0.2-0.3-0.4-0.3-0.8c0-0.3,0.1-1,0.3-2c0.2-1.1,0.3-1.9,0.3-2.3
		c0,0,0-0.1,0-0.2c0-0.1,0-0.1,0-0.2c0-0.1,0-0.2,0.1-0.4c0.1-0.1,0.2-0.2,0.3-0.2c0.3,0,0.4,0.3,0.4,0.9c0,0.4-0.2,1.4-0.5,3.1
		c-0.1,0.4-0.1,0.7-0.1,0.8c0,0.2,0.1,0.3,0.2,0.3c0.6,0,1.4-0.6,2.4-1.7c0.7-0.8,1.4-1.8,2.1-3c0.1-0.2,0.2-0.3,0.4-0.3
		c0.3,0,0.4,0.2,0.4,0.4C204.9,11.7,204.8,11.8,204.8,12z"/>
	<path fill="#A3A0A0" d="M217.1,13.5c-0.2,0.7-0.4,1.4-0.4,2.1c0,0.3,0,0.5,0.1,0.8c0.1,0.5,0.2,0.7,0.2,0.8c0,0.3-0.2,0.5-0.5,0.5
		c-0.3,0-0.5-0.3-0.5-0.8c0-0.3-0.1-0.7-0.1-1.3c-0.9,1.1-1.7,1.6-2.5,1.6c-0.4,0-0.8-0.2-1.1-0.6c-0.3-0.4-0.4-0.8-0.4-1.2
		c0-0.7,0.3-1.5,1-2.3c0.1-0.2,0.4-0.4,0.7-0.7c1.1-1,1.9-1.4,2.7-1.4c0.2,0,0.3,0.1,0.5,0.2c0.2,0.1,0.3,0.3,0.3,0.5
		c0,0,0,0.1,0,0.2c0.1,0.3,0.2,0.7,0.2,1.1c0.1,0.2,0.2,0.3,0.2,0.4C217.1,13.3,217.1,13.4,217.1,13.5z M215.6,11.9
		c-0.2,0-0.5,0.2-1,0.5c-0.4,0.3-0.8,0.6-1,0.9c-0.7,0.8-1,1.4-1,1.9c0,0.6,0.2,0.8,0.7,0.8c0.6,0,1.2-0.4,1.8-1.1s0.9-1.5,0.9-2.2
		C216,12.2,215.9,11.9,215.6,11.9z"/>
	<path fill="#A3A0A0" d="M223.9,11.8c-0.3,0.1-0.5,0.2-0.7,0.2c0,0-0.1,0-0.3-0.1c-1.4,0.6-2.2,2-2.5,4c-0.1,1.1-0.3,1.6-0.5,1.6
		c-0.2,0-0.3-0.1-0.4-0.3c-0.1-0.2-0.2-0.4-0.2-0.6c0-0.2,0.1-0.4,0.2-0.8c0.1-0.5,0.1-0.9,0.1-1.3c0-0.5-0.1-0.9-0.2-1.4
		c-0.2-0.2-0.3-0.4-0.3-0.6c-0.1-0.4-0.1-0.8-0.1-1c0-0.1,0-0.2,0.1-0.3c0.1-0.1,0.1-0.2,0.2-0.2c0.4,0,0.6,0.3,0.7,0.9
		c0.1,0.6,0.2,1.1,0.3,1.4c0.4-0.7,0.9-1.3,1.5-1.8c0.6-0.5,1.2-0.7,1.9-0.7c0.2,0,0.3,0.1,0.5,0.2c0.1,0.2,0.2,0.3,0.2,0.5
		C224.4,11.5,224.2,11.7,223.9,11.8z"/>
	<path fill="#A3A0A0" d="M229.6,17.5c-1.2,0-2.1-0.6-2.7-1.8c-0.1,0-0.3,0-0.4,0c-0.6,0-1-0.1-1.3-0.3c-0.4-0.2-0.6-0.5-0.6-0.7
		c0-0.4,0.2-0.5,0.5-0.5c0,0,0.2,0.1,0.5,0.3c0.3,0.2,0.5,0.3,0.8,0.3c0.1,0,0.2,0,0.3,0c0-0.3-0.1-0.5-0.1-0.7
		c0-0.8,0.2-1.5,0.6-2.2c0.4-0.8,1-1.2,1.6-1.2c0.4,0,0.8,0.2,1.2,0.6c0.3,0.3,0.4,0.7,0.4,1.1c0,0.6-0.3,1.2-0.8,1.9
		c-0.5,0.6-1.1,1-1.8,1.3c0.3,0.7,0.8,1,1.5,1c0.1,0,0.4,0,0.7-0.1c0.3,0,0.5,0,0.5,0c0.1,0,0.2,0.1,0.3,0.2
		c0.1,0.1,0.1,0.2,0.1,0.4C231.1,17.3,230.6,17.5,229.6,17.5z M229.2,11.8c-0.2-0.1-0.4-0.2-0.5-0.2c-0.3,0-0.6,0.3-0.8,0.7
		c-0.2,0.5-0.3,1-0.3,1.5c0,0.2,0,0.4,0,0.6c0.5-0.2,1-0.5,1.3-0.9c0.4-0.4,0.6-0.8,0.6-1.2C229.5,12.2,229.4,12,229.2,11.8z"/>
	<path fill="#A3A0A0" d="M243.1,17.6c-0.5,0-0.8-0.6-0.8-1.7l-0.1-2.8c-1.5,1-2.5,2-3,3c-0.1,0.3-0.2,0.5-0.3,0.7
		c-0.2,0.4-0.3,0.6-0.4,0.6c-0.2,0-0.4-0.1-0.5-0.2c-0.1-0.2-0.2-0.3-0.2-0.5c0,0,0-0.1,0-0.3c0-0.2,0-0.3,0-0.3c0,0,0-0.2,0-0.4
		c0-0.2,0-0.3,0-0.4c0-1.1,0.1-2.4,0.4-3.9c0-0.1,0.2-1.3,0.6-3.6l0.3-1.8c0.1-0.4,0.1-0.6,0.1-0.6c0-0.1,0.1-0.2,0.2-0.2
		c0.2,0,0.3,0.1,0.4,0.3c0.1,0.2,0.2,0.4,0.2,0.6c0,0-0.1,0.5-0.2,1.2c-0.6,3.2-1,5.7-1.2,7.7c0.5-0.6,1.2-1.3,2-2
		c0.9-0.8,1.6-1.2,1.9-1.2c0.2,0,0.4,0.1,0.5,0.3c0.1,0.2,0.2,0.4,0.2,0.6c0,0.1,0,0.3,0,0.7c0,0.4,0,0.6,0,0.8c0,0.5,0,1.2,0.1,2.2
		c0,0.3,0.1,0.6,0.1,1C243.4,17.5,243.3,17.6,243.1,17.6z"/>
	<path fill="#A3A0A0" d="M249.6,17.5c-1.2,0-2.1-0.6-2.7-1.8c-0.1,0-0.3,0-0.4,0c-0.6,0-1-0.1-1.3-0.3c-0.4-0.2-0.6-0.5-0.6-0.7
		c0-0.4,0.2-0.5,0.5-0.5c0,0,0.2,0.1,0.5,0.3c0.3,0.2,0.5,0.3,0.8,0.3c0.1,0,0.2,0,0.3,0c0-0.3-0.1-0.5-0.1-0.7
		c0-0.8,0.2-1.5,0.6-2.2c0.4-0.8,1-1.2,1.6-1.2c0.4,0,0.8,0.2,1.2,0.6c0.3,0.3,0.4,0.7,0.4,1.1c0,0.6-0.3,1.2-0.8,1.9
		c-0.5,0.6-1.1,1-1.8,1.3c0.3,0.7,0.8,1,1.5,1c0.1,0,0.4,0,0.7-0.1c0.3,0,0.5,0,0.5,0c0.1,0,0.2,0.1,0.3,0.2
		c0.1,0.1,0.1,0.2,0.1,0.4C251.1,17.3,250.6,17.5,249.6,17.5z M249.3,11.8c-0.2-0.1-0.4-0.2-0.5-0.2c-0.3,0-0.6,0.3-0.8,0.7
		c-0.2,0.5-0.3,1-0.3,1.5c0,0.2,0,0.4,0,0.6c0.5-0.2,1-0.5,1.3-0.9c0.4-0.4,0.6-0.8,0.6-1.2C249.5,12.2,249.4,12,249.3,11.8z"/>
	<path fill="#A3A0A0" d="M257.4,11.8c-0.3,0.1-0.5,0.2-0.7,0.2c0,0-0.1,0-0.3-0.1c-1.4,0.6-2.2,2-2.5,4c-0.1,1.1-0.3,1.6-0.5,1.6
		c-0.2,0-0.3-0.1-0.4-0.3c-0.1-0.2-0.2-0.4-0.2-0.6c0-0.2,0.1-0.4,0.2-0.8c0.1-0.5,0.1-0.9,0.1-1.3c0-0.5-0.1-0.9-0.2-1.4
		c-0.2-0.2-0.3-0.4-0.3-0.6c-0.1-0.4-0.1-0.8-0.1-1c0-0.1,0-0.2,0.1-0.3c0.1-0.1,0.1-0.2,0.2-0.2c0.4,0,0.6,0.3,0.7,0.9
		c0.1,0.6,0.2,1.1,0.3,1.4c0.4-0.7,0.9-1.3,1.5-1.8c0.6-0.5,1.2-0.7,1.9-0.7c0.2,0,0.3,0.1,0.5,0.2c0.1,0.2,0.2,0.3,0.2,0.5
		C257.9,11.5,257.7,11.7,257.4,11.8z"/>
	<path fill="#A3A0A0" d="M263.1,17.5c-1.2,0-2.1-0.6-2.7-1.8c-0.1,0-0.3,0-0.4,0c-0.6,0-1-0.1-1.3-0.3c-0.4-0.2-0.6-0.5-0.6-0.7
		c0-0.4,0.2-0.5,0.5-0.5c0,0,0.2,0.1,0.5,0.3c0.3,0.2,0.5,0.3,0.8,0.3c0.1,0,0.2,0,0.3,0c0-0.3-0.1-0.5-0.1-0.7
		c0-0.8,0.2-1.5,0.6-2.2c0.4-0.8,1-1.2,1.6-1.2c0.4,0,0.8,0.2,1.2,0.6c0.3,0.3,0.4,0.7,0.4,1.1c0,0.6-0.3,1.2-0.8,1.9
		c-0.5,0.6-1.1,1-1.8,1.3c0.3,0.7,0.8,1,1.5,1c0.1,0,0.4,0,0.7-0.1c0.3,0,0.5,0,0.5,0c0.1,0,0.2,0.1,0.3,0.2
		c0.1,0.1,0.1,0.2,0.1,0.4C264.6,17.3,264.1,17.5,263.1,17.5z M262.8,11.8c-0.2-0.1-0.4-0.2-0.5-0.2c-0.3,0-0.6,0.3-0.8,0.7
		c-0.2,0.5-0.3,1-0.3,1.5c0,0.2,0,0.4,0,0.6c0.5-0.2,1-0.5,1.3-0.9c0.4-0.4,0.6-0.8,0.6-1.2C263,12.2,262.9,12,262.8,11.8z"/>
</g>
<path id="Path-2" sketch:type="MSShapeGroup" fill="none" stroke="#DDDDDD" d="M121.4,58.8c2.7-26.4,35.3-38.3,57.1-42"/>
<path id="Path-3" sketch:type="MSShapeGroup" fill="none" stroke="#DDDDDD" d="M116,51c4,15.1,5.2,8.2,12.8,0"/>
<g id="Arrow" transform="translate(281.000000, 243.000000)" sketch:type="MSShapeGroup">
	<path id="Path-5" fill="none" stroke="#979797" d="M-0.4,0c9.8,7.6,9.3,17.7,9.3,28.7"/>
	<path id="Path-4" fill="none" stroke="#979797" d="M1.5,19.5C17,36.2,5.4,33.8,17.1,16.3"/>
</g>
</svg>
