<?xml version="1.0" encoding="utf-8"?>
<!-- Generator: Adobe Illustrator 18.0.0, SVG Export Plug-In . SVG Version: 6.00 Build 0)  -->
<!DOCTYPE svg PUBLIC "-//W3C//DTD SVG 1.1//EN" "http://www.w3.org/Graphics/SVG/1.1/DTD/svg11.dtd">
<svg version="1.1" id="Layer_1" xmlns="http://www.w3.org/2000/svg" xmlns:xlink="http://www.w3.org/1999/xlink" x="0px" y="0px"
	 viewBox="0 0 16 56" enable-background="new 0 0 16 56" xml:space="preserve">
<path fill="none" stroke="#CCCCCC" stroke-miterlimit="10" d="M13.9,15.5H2c-0.8,0-1.5-0.7-1.5-1.5V2c0-0.8,0.7-1.5,1.5-1.5h11.9
	c0.8,0,1.5,0.7,1.5,1.5v12C15.4,14.8,14.7,15.5,13.9,15.5z"/>
<path fill="none" stroke="#CACACA" stroke-miterlimit="10" d="M14,34.9H2c-0.8,0-1.5-0.7-1.5-1.5v-12c0-0.8,0.7-1.5,1.5-1.5H14
	c0.8,0,1.5,0.7,1.5,1.5v12C15.5,34.3,14.8,34.9,14,34.9z"/>
<g>
	<path fill="#5187C6" stroke="#4F86C5" stroke-miterlimit="10" d="M14,54.4H2c-0.8,0-1.5-0.7-1.5-1.5v-12c0-0.8,0.7-1.5,1.5-1.5H14
		c0.8,0,1.5,0.7,1.5,1.5v12C15.5,53.8,14.8,54.4,14,54.4z"/>
	<path fill="#FFFFFF" d="M12.9,44.8l-5.5,5.5c-0.5,0.5-1,0.5-1.5,0l-2.8-2.8c-0.5-0.5-0.5-1,0-1.5s1-0.5,1.5,0l2.1,2.1l4.7-4.7
		c0.5-0.5,1-0.5,1.5,0C13.3,43.7,13.3,44.4,12.9,44.8z"/>
</g>
</svg>
