<?xml version="1.0" encoding="utf-8"?>
<!-- Generator: Adobe Illustrator 18.0.0, SVG Export Plug-In . SVG Version: 6.00 Build 0)  -->
<!DOCTYPE svg PUBLIC "-//W3C//DTD SVG 1.1//EN" "http://www.w3.org/Graphics/SVG/1.1/DTD/svg11.dtd">
<svg version="1.1" id="Layer_1" xmlns:sketch="http://www.bohemiancoding.com/sketch/ns"
	 xmlns="http://www.w3.org/2000/svg" xmlns:xlink="http://www.w3.org/1999/xlink" x="0px" y="0px" viewBox="0 0 864 347"
	 enable-background="new 0 0 864 347" xml:space="preserve">
<g id="Seeds" transform="translate(61.000000, 132.000000)" sketch:type="MSShapeGroup">
	<path id="Shape" fill="#DDDDDD" d="M37.4,10.5c-2-0.8-4.3-0.3-5.9,1.3c-2.1,2.1-2.1,5.6,0,7.7l0.2,0.2c3.5,3.5,9.7,3,13.8-1.1
		c4.1-4.1,4.5-10.3,1-13.8c-0.1-0.1-0.2-0.2-0.2-0.2c-2.1-2.1-5.6-2.1-7.7,0C37.1,6.2,36.7,8.5,37.4,10.5L37.4,10.5L37.4,10.5z
		 M45.1,9c-0.5,0-0.9-0.4-0.9-0.9c0-0.8-0.6-1.4-1.4-1.4c-0.5,0-0.9-0.4-0.9-0.9S42.4,5,42.9,5C44.6,5,46,6.4,46,8.1
		C46,8.6,45.6,9,45.1,9L45.1,9L45.1,9z"/>
	<path id="Shape-2" fill="#DDDDDD" d="M18.4,29.5c-2-0.8-4.3-0.3-5.9,1.3c-2.1,2.1-2.1,5.6,0,7.7l0.2,0.2c3.5,3.5,9.7,3,13.8-1.1
		c4.1-4.1,4.5-10.3,1-13.8c-0.1-0.1-0.2-0.2-0.2-0.2c-2.1-2.1-5.6-2.1-7.7,0C18.1,25.2,17.7,27.5,18.4,29.5L18.4,29.5L18.4,29.5z
		 M26.1,28c-0.5,0-0.9-0.4-0.9-0.9c0-0.8-0.6-1.4-1.4-1.4c-0.5,0-0.9-0.4-0.9-0.9c0-0.5,0.4-0.9,0.9-0.9c1.7,0,3.1,1.4,3.1,3.1
		C27,27.6,26.6,28,26.1,28L26.1,28L26.1,28z"/>
	<path id="Shape-3" fill="#DDDDDD" d="M8.4,8.5c-2-0.8-4.3-0.3-5.9,1.3c-2.1,2.1-2.1,5.6,0,7.7l0.2,0.2c3.5,3.5,9.7,3,13.8-1.1
		c4.1-4.1,4.5-10.3,1-13.8c-0.1-0.1-0.2-0.2-0.2-0.2c-2.1-2.1-5.6-2.1-7.7,0C8.1,4.2,7.7,6.5,8.4,8.5L8.4,8.5L8.4,8.5z M16.1,7
		c-0.5,0-0.9-0.4-0.9-0.9c0-0.8-0.6-1.4-1.4-1.4c-0.5,0-0.9-0.4-0.9-0.9S13.4,3,13.9,3C15.6,3,17,4.4,17,6.1C17,6.6,16.6,7,16.1,7
		L16.1,7L16.1,7z"/>
</g>
<path id="Line" sketch:type="MSShapeGroup" fill="none" stroke="#E8E8E8" stroke-width="2" stroke-linecap="square" d="M1.5,181H863
	"/>
<g enable-background="new    ">
	<path fill="#DDDDDD" d="M66.5,222.7c0.8,0.8,1.8,1.3,2.9,1.3c1.4,0,2.2-0.7,2.2-1.7c0-1.1-0.8-1.4-1.7-1.9l-1.5-0.7
		c-1-0.4-2.1-1.2-2.1-2.7c0-1.6,1.4-2.8,3.3-2.8c1.2,0,2.4,0.5,3.1,1.3l-0.7,0.9c-0.6-0.6-1.4-1-2.4-1c-1.2,0-2,0.6-2,1.5
		c0,1,0.9,1.4,1.7,1.7l1.5,0.6c1.2,0.5,2.2,1.2,2.2,2.8c0,1.7-1.4,3-3.6,3c-1.5,0-2.8-0.6-3.7-1.6L66.5,222.7z"/>
	<path fill="#DDDDDD" d="M75.1,218.3h-1.2v-1l1.2-0.1l0.2-2.2h1.1v2.2h2.1v1.1h-2.1v4.3c0,1,0.3,1.5,1.2,1.5c0.3,0,0.6-0.1,0.9-0.2
		l0.3,1c-0.4,0.1-1,0.3-1.4,0.3c-1.7,0-2.2-1.1-2.2-2.6V218.3z"/>
	<path fill="#DDDDDD" d="M83,217c2,0,3.1,1.4,3.1,3.7c0,0.3,0,0.5,0,0.7h-5.2c0.1,1.7,1.1,2.7,2.6,2.7c0.7,0,1.4-0.2,1.9-0.6
		l0.5,0.9c-0.7,0.4-1.5,0.8-2.6,0.8c-2.1,0-3.7-1.5-3.7-4.1C79.5,218.6,81.2,217,83,217z M85,220.5c0-1.6-0.7-2.5-1.9-2.5
		c-1.1,0-2.1,0.9-2.2,2.5H85z"/>
	<path fill="#DDDDDD" d="M89.4,225.7v2.6H88v-11.1h1.1l0.1,0.9h0c0.7-0.6,1.6-1.1,2.5-1.1c2,0,3.1,1.6,3.1,4c0,2.6-1.6,4.2-3.4,4.2
		c-0.7,0-1.4-0.3-2.2-0.9L89.4,225.7z M91.3,224.1c1.3,0,2.2-1.2,2.2-3.1c0-1.7-0.6-2.9-2-2.9c-0.7,0-1.3,0.4-2.1,1.1v4.1
		C90.1,223.9,90.7,224.1,91.3,224.1z"/>
	<path fill="#DDDDDD" d="M100.1,223.9h2.3v-7.5h-1.9v-0.8c0.9-0.2,1.6-0.4,2.2-0.8h1v9.1h2.1v1.1h-5.8V223.9z"/>
</g>
<g enable-background="new    ">
	<path fill="#DDDDDD" d="M259.5,222.7c0.8,0.8,1.8,1.3,2.9,1.3c1.4,0,2.2-0.7,2.2-1.7c0-1.1-0.8-1.4-1.7-1.9l-1.5-0.7
		c-1-0.4-2.1-1.2-2.1-2.7c0-1.6,1.4-2.8,3.3-2.8c1.2,0,2.4,0.5,3.1,1.3l-0.7,0.9c-0.6-0.6-1.4-1-2.4-1c-1.2,0-2,0.6-2,1.5
		c0,1,0.9,1.4,1.7,1.7l1.5,0.6c1.2,0.5,2.2,1.2,2.2,2.8c0,1.7-1.4,3-3.6,3c-1.5,0-2.8-0.6-3.7-1.6L259.5,222.7z"/>
	<path fill="#DDDDDD" d="M268.1,218.3h-1.2v-1l1.2-0.1l0.2-2.2h1.1v2.2h2.1v1.1h-2.1v4.3c0,1,0.3,1.5,1.2,1.5c0.3,0,0.6-0.1,0.9-0.2
		l0.3,1c-0.4,0.1-1,0.3-1.4,0.3c-1.7,0-2.2-1.1-2.2-2.6V218.3z"/>
	<path fill="#DDDDDD" d="M276,217c2,0,3.1,1.4,3.1,3.7c0,0.3,0,0.5,0,0.7h-5.2c0.1,1.7,1.1,2.7,2.6,2.7c0.7,0,1.4-0.2,1.9-0.6
		l0.5,0.9c-0.7,0.4-1.5,0.8-2.6,0.8c-2.1,0-3.7-1.5-3.7-4.1C272.5,218.6,274.2,217,276,217z M278,220.5c0-1.6-0.7-2.5-1.9-2.5
		c-1.1,0-2.1,0.9-2.2,2.5H278z"/>
	<path fill="#DDDDDD" d="M282.4,225.7v2.6H281v-11.1h1.1l0.1,0.9h0c0.7-0.6,1.6-1.1,2.5-1.1c2,0,3.1,1.6,3.1,4
		c0,2.6-1.6,4.2-3.4,4.2c-0.7,0-1.4-0.3-2.2-0.9L282.4,225.7z M284.3,224.1c1.3,0,2.2-1.2,2.2-3.1c0-1.7-0.6-2.9-2-2.9
		c-0.7,0-1.3,0.4-2.1,1.1v4.1C283.1,223.9,283.7,224.1,284.3,224.1z"/>
	<path fill="#DDDDDD" d="M292.5,224.2c3.1-3.1,4.8-4.9,4.8-6.5c0-1.2-0.6-2-1.9-2c-0.8,0-1.6,0.5-2.2,1.2l-0.8-0.8
		c0.8-0.9,1.8-1.6,3.1-1.6c1.9,0,3.1,1.2,3.1,3c0,1.9-1.7,3.8-4.2,6.4c0.6,0,1.2-0.1,1.7-0.1h3v1.1h-6.6V224.2z"/>
</g>
<g enable-background="new    ">
	<path fill="#DDDDDD" d="M467.5,222.7c0.8,0.8,1.8,1.3,2.9,1.3c1.4,0,2.2-0.7,2.2-1.7c0-1.1-0.8-1.4-1.7-1.9l-1.5-0.7
		c-1-0.4-2.1-1.2-2.1-2.7c0-1.6,1.4-2.8,3.3-2.8c1.2,0,2.4,0.5,3.1,1.3l-0.7,0.9c-0.6-0.6-1.4-1-2.4-1c-1.2,0-2,0.6-2,1.5
		c0,1,0.9,1.4,1.7,1.7l1.5,0.6c1.2,0.5,2.2,1.2,2.2,2.8c0,1.7-1.4,3-3.6,3c-1.5,0-2.8-0.6-3.7-1.6L467.5,222.7z"/>
	<path fill="#DDDDDD" d="M476.1,218.3h-1.2v-1l1.2-0.1l0.2-2.2h1.1v2.2h2.1v1.1h-2.1v4.3c0,1,0.3,1.5,1.2,1.5c0.3,0,0.6-0.1,0.9-0.2
		l0.3,1c-0.4,0.1-1,0.3-1.4,0.3c-1.7,0-2.2-1.1-2.2-2.6V218.3z"/>
	<path fill="#DDDDDD" d="M484,217c2,0,3.1,1.4,3.1,3.7c0,0.3,0,0.5,0,0.7h-5.2c0.1,1.7,1.1,2.7,2.6,2.7c0.7,0,1.4-0.2,1.9-0.6
		l0.5,0.9c-0.7,0.4-1.5,0.8-2.6,0.8c-2.1,0-3.7-1.5-3.7-4.1C480.5,218.6,482.2,217,484,217z M486,220.5c0-1.6-0.7-2.5-1.9-2.5
		c-1.1,0-2.1,0.9-2.2,2.5H486z"/>
	<path fill="#DDDDDD" d="M490.4,225.7v2.6H489v-11.1h1.1l0.1,0.9h0c0.7-0.6,1.6-1.1,2.5-1.1c2,0,3.1,1.6,3.1,4
		c0,2.6-1.6,4.2-3.4,4.2c-0.7,0-1.4-0.3-2.2-0.9L490.4,225.7z M492.3,224.1c1.3,0,2.2-1.2,2.2-3.1c0-1.7-0.6-2.9-2-2.9
		c-0.7,0-1.3,0.4-2.1,1.1v4.1C491.1,223.9,491.7,224.1,492.3,224.1z"/>
	<path fill="#DDDDDD" d="M500.9,222.9c0.6,0.6,1.4,1.2,2.6,1.2c1.2,0,2.1-0.7,2.1-1.9c0-1.2-0.8-2-3.3-2v-1c2.2,0,2.9-0.8,2.9-1.9
		c0-1-0.7-1.6-1.8-1.6c-0.8,0-1.6,0.4-2.2,1l-0.7-0.8c0.8-0.7,1.7-1.3,2.9-1.3c1.8,0,3.1,0.9,3.1,2.6c0,1.2-0.8,2-1.9,2.4v0.1
		c1.2,0.3,2.2,1.2,2.2,2.6c0,1.8-1.5,2.9-3.4,2.9c-1.6,0-2.7-0.7-3.4-1.4L500.9,222.9z"/>
</g>
<g enable-background="new    ">
	<path fill="#DDDDDD" d="M707.5,222.7c0.8,0.8,1.8,1.3,2.9,1.3c1.4,0,2.2-0.7,2.2-1.7c0-1.1-0.8-1.4-1.7-1.9l-1.5-0.7
		c-1-0.4-2.1-1.2-2.1-2.7c0-1.6,1.4-2.8,3.3-2.8c1.2,0,2.4,0.5,3.1,1.3l-0.7,0.9c-0.6-0.6-1.4-1-2.4-1c-1.2,0-2,0.6-2,1.5
		c0,1,0.9,1.4,1.7,1.7l1.5,0.6c1.2,0.5,2.2,1.2,2.2,2.8c0,1.7-1.4,3-3.6,3c-1.5,0-2.8-0.6-3.7-1.6L707.5,222.7z"/>
	<path fill="#DDDDDD" d="M716.1,218.3h-1.2v-1l1.2-0.1l0.2-2.2h1.1v2.2h2.1v1.1h-2.1v4.3c0,1,0.3,1.5,1.2,1.5c0.3,0,0.6-0.1,0.9-0.2
		l0.3,1c-0.4,0.1-1,0.3-1.4,0.3c-1.7,0-2.2-1.1-2.2-2.6V218.3z"/>
	<path fill="#DDDDDD" d="M724,217c2,0,3.1,1.4,3.1,3.7c0,0.3,0,0.5,0,0.7h-5.2c0.1,1.7,1.1,2.7,2.6,2.7c0.7,0,1.4-0.2,1.9-0.6
		l0.5,0.9c-0.7,0.4-1.5,0.8-2.6,0.8c-2.1,0-3.7-1.5-3.7-4.1C720.5,218.6,722.2,217,724,217z M726,220.5c0-1.6-0.7-2.5-1.9-2.5
		c-1.1,0-2.1,0.9-2.2,2.5H726z"/>
	<path fill="#DDDDDD" d="M730.4,225.7v2.6H729v-11.1h1.1l0.1,0.9h0c0.7-0.6,1.6-1.1,2.5-1.1c2,0,3.1,1.6,3.1,4
		c0,2.6-1.6,4.2-3.4,4.2c-0.7,0-1.4-0.3-2.2-0.9L730.4,225.7z M732.3,224.1c1.3,0,2.2-1.2,2.2-3.1c0-1.7-0.6-2.9-2-2.9
		c-0.7,0-1.3,0.4-2.1,1.1v4.1C731.1,223.9,731.7,224.1,732.3,224.1z"/>
	<path fill="#DDDDDD" d="M747.3,222.2H746v2.8h-1.2v-2.8h-4.6v-0.9l4.4-6.5h1.5v6.3h1.4V222.2z M744.7,221.1v-3c0-0.5,0-1.4,0.1-2
		h-0.1c-0.3,0.5-0.5,0.9-0.8,1.4l-2.4,3.5H744.7z"/>
</g>
<g id="noun_12396_cc" transform="translate(257.000000, 149.000000)" sketch:type="MSShapeGroup">
	<g id="Your_Icon">
		<path id="Shape_1_" fill="#DDDDDD" d="M41.4,27.7c-2.9-8.1-16-10.7-24-7.8c-5.2,1.9-8.8,6.3-9.9,11.4c-2.6,0.1-1-12,4.5-16.5
			c7.1,3.3,11-2.5,11-2.5c-2.4-3.1-5.9-3.1-8.7-2.2C17.6,4.5,13.7,1,13.7,1C8.5,2.8,8.9,8.8,9.6,12.3c-5.8,4.9-9.4,12.1-8.4,20.8
			c0.4,3.6,2.1,6.8,7.1,7c3,7.8,11.6,11.8,19.5,9C35.8,46.2,44.3,35.8,41.4,27.7L41.4,27.7z"/>
	</g>
</g>
<g id="noun_35554_cc" transform="translate(272.000000, 83.000000)" sketch:type="MSShapeGroup">
	<path id="Shape_2_" fill="#DDDDDD" d="M38.2,21.7c-1-3.6-1.8-7.2-2.9-10.6c-0.8-2.5,0.1-3.3,2.4-3.9c4.4-1.1,8.4,0.2,11.8,2.8
		c2,1.5,3.7,2,5.9,1.1c0.5-0.2,1-0.4,1.4-0.4c2,0,4.2-2.5,5.9-0.1c2,2.8,2.6,6.1,2.2,9.6c-0.1,0.6-0.5,0.8-0.9,1
		c-0.5,0.2-0.9,0.4-1.4,0.4c-4.7,0.7-8.5,2.4-10.3,7.5c-1,2.8-4.2,4.2-6.8,5.6c-2.2,1.3-3.6,0.4-4.3-2.1
		C40.2,29,39.2,25.3,38.2,21.7L38.2,21.7z"/>
	
		<g id="Group" transform="translate(18.500000, 39.500000) rotate(-6.000000) translate(-18.500000, -39.500000) translate(2.000000, 15.000000)">
		
			<ellipse id="Oval" transform="matrix(0.3889 0.9213 -0.9213 0.3889 21.2467 -24.6178)" fill="#DDDDDD" cx="29.2" cy="3.7" rx="1.5" ry="4.2"/>
		
			<ellipse id="Oval_1_" transform="matrix(0.3889 0.9213 -0.9213 0.3889 28.8615 -20.6219)" fill="#DDDDDD" cx="30" cy="11.4" rx="1.5" ry="4.2"/>
		
			<ellipse id="Oval_2_" transform="matrix(0.6576 0.7533 -0.7533 0.6576 26.6258 -15.5167)" fill="#DDDDDD" cx="30.4" cy="21.5" rx="1.5" ry="4.2"/>
		
			<ellipse id="Oval_3_" transform="matrix(0.9261 0.3772 -0.3772 0.9261 12.9479 -7.1012)" fill="#DDDDDD" cx="24.6" cy="29.5" rx="1.5" ry="4.2"/>
		
			<ellipse id="Oval_4_" transform="matrix(0.9919 0.1268 -0.1268 0.9919 5.2773 -2.5472)" fill="#DDDDDD" cx="22.6" cy="40.2" rx="1.3" ry="3.8"/>
		
			<ellipse id="Oval_5_" transform="matrix(0.7205 0.6935 -0.6935 0.7205 18.2855 -9.5968)" fill="#DDDDDD" cx="21" cy="17.9" rx="1.5" ry="4.2"/>
		
			<ellipse id="Oval_6_" transform="matrix(0.9424 0.3346 -0.3346 0.9424 9.9677 -3.7279)" fill="#DDDDDD" cx="15.8" cy="27.1" rx="1.5" ry="4.2"/>
		
			<ellipse id="Oval_7_" transform="matrix(0.9929 0.1191 -0.1191 0.9929 4.494 -1.3674)" fill="#DDDDDD" cx="13.7" cy="36.9" rx="1.3" ry="3.6"/>
		
			<ellipse id="Oval_8_" transform="matrix(0.9963 8.639359e-02 -8.639359e-02 0.9963 4.0881 -0.9341)" fill="#DDDDDD" cx="12.8" cy="46.8" rx="1.2" ry="3.5"/>
		
			<ellipse id="Oval_9_" transform="matrix(0.5573 0.8303 -0.8303 0.5573 16.2359 -13.0019)" fill="#DDDDDD" cx="20.3" cy="8.7" rx="1.5" ry="4.2"/>
		
			<ellipse id="Oval_10_" transform="matrix(0.6889 0.7249 -0.7249 0.6889 14.6004 -4.1758)" fill="#DDDDDD" cx="12.2" cy="14.9" rx="1.5" ry="4.2"/>
		
			<ellipse id="Oval_11_" transform="matrix(0.8799 0.4752 -0.4752 0.8799 12.1301 -0.2122)" fill="#DDDDDD" cx="6.5" cy="23.9" rx="1.5" ry="4.2"/>
		
			<ellipse id="Oval_12_" transform="matrix(0.9753 0.2208 -0.2208 0.9753 7.5119 7.486616e-02)" fill="#DDDDDD" cx="3.4" cy="33.6" rx="1.5" ry="4.2"/>
	</g>
</g>
<g id="noun_51898_cc" transform="translate(446.000000, 91.000000)" sketch:type="MSShapeGroup">
	<path id="Shape_3_" fill="#DDDDDD" d="M44.3,57.9c7-11.8,21.5-13.3,21.5-13.3c-12.4,6.5-17.8,14.8-18.6,19.9
		c31.9,5.2,33.4-28,33.4-28C50.3,31.1,45.5,50.6,44.3,57.9L44.3,57.9z M30.7,35.6c0,0,0.2-10.7-7.5-17.3c0,0,8.5,3.6,12,12.5
		c0.4-5.4-0.4-19.5-22.7-20.7C12.5,10.1,10.3,32.7,30.7,35.6L30.7,35.6z M44.7,83.1C42.3,75,34.3,41.1,56.5,0.6
		c0,0-31.4,32.9-22.7,82.5c-18.4,0.5-32.4,3-32.4,6.1c0,3.4,17.4,6.2,39,6.2s39-2.8,39-6.2C79.3,86,64.2,83.4,44.7,83.1L44.7,83.1z"
		/>
</g>
<path id="Shape_4_" sketch:type="MSShapeGroup" fill="#DDDDDD" d="M819.7,43.9c-0.7-1.5-1.6-2.7-3-3.7c-0.2-0.2-0.5-0.3-0.8-0.5
	c0.2-0.2,0.4-0.4,0.5-0.6c0.3-0.3-0.1-0.7-0.2-1.1c1.9-0.1,1.9-2.5-0.1-2.5c0,0-0.8,0.6-0.8,1.2c-0.2-0.2-0.2-0.3-0.6-0.4
	c-0.8-0.2-1.5-0.1-2.2,0.3c-0.9,0.5-0.8,1.5-0.2,2c-1.8-0.2-3.6,0.1-5.2,0.8c-1.1,0.5-1.9,1.2-2.8,1.8c-0.1,0.1-0.3,0.1-0.4,0.1
	c-0.1,0-0.1,0-0.2,0c-1-1.8-0.4-3.7-1.2-5.5c-0.1-0.1-0.1-0.3-0.2-0.4c0.4-0.2,0.6-0.6,0.6-1.1c0-0.4-0.2-0.8-0.6-1
	c-0.3-0.3-0.7-0.5-1.1-0.5c-0.4,0-0.8,0.2-1,0.4c-1.3-0.7-2.8-1-4.4-0.5c-0.1,0-0.1,0.1-0.2,0.1c0-0.1,0-0.2,0.1-0.3
	c0.2-1.2-0.1-2.3-0.7-3.4c0-0.1,0.1-0.3,0.1-0.4c0.1,0,0.2,0.1,0.3,0.1c1.8,0.6,4,0.2,5.1-1.3c0.2-0.2,0.3-0.4,0.4-0.6
	c0.3,0.1,0.5,0.1,0.8,0.1c-0.1,0.4,0.1,0.8,0.4,1.1c0.4,0.4,1,0.7,1.6,0.5c0.7-0.2,1.1-0.8,1.1-1.4c0-0.7-0.7-1.3-1.4-1.3
	c0,0-0.1,0-0.1,0c0,0,0,0,0,0c0.6-0.5,0.5-1.3,0-1.8c-0.6-0.5-1.5-0.5-2,0c0,0,0,0,0,0c0,0,0,0-0.1,0c-0.2-0.9-0.7-1.7-1.5-2.2
	c-1.5-1.1-3.9-1.5-5.8-0.8c-0.3,0.1-0.5,0.3-0.7,0.5c-2.2-2.1-5.7-3.2-8.9-3.3c-0.1,0-0.2,0-0.3,0c-0.9-1.1-2-2.2-3.3-3.1
	c-0.5-0.8-1-1.5-1.4-2c-0.6-0.8-1.5-1.6-2.6-2.2c0.2-0.7-0.1-1.5-0.6-2.1c0-0.2,0-0.5,0-0.7c-0.1-3.3-2.7-4.9-5.4-5
	c-0.6-0.6-1.7-0.6-2.3,0.1c-0.1,0.1-0.2,0.2-0.3,0.4c-1.8,0.6-3.2,2-3.5,4.2c-0.6-0.1-1.3-0.1-1.9-0.1c-0.5,0-1.1,0-1.8,0.1
	c0,0-0.1,0-0.1,0c-2-0.6-4.3-0.5-6.6-0.5c-0.3-2.1-1.4-4.1-3.6-5.2c-3.6-1.8-7.5-1.2-10.5,1.3c-0.8,0.7-1.6,1.4-2.4,2.1
	c-1.3-1.2-2.9-2.1-4.8-2.1c-4.4,0-7.6,3.5-7,7c-1.6-1.6-3.8-2.7-6.1-2.7c0.4-0.4,0.5-1.1,0.2-1.5c-0.3-0.5-0.8-0.9-1.5-0.8
	c-0.3,0-0.6,0.1-0.8,0.2c0,0,0,0,0,0c-0.3,0.1-0.6,0.2-0.8,0.4c-0.5,0.3-0.7,0.9-0.6,1.4c0.1,0.4,0.4,0.7,0.8,0.8
	c-1.3,0.7-2.3,1.9-3.8,1.7c-0.3,0-0.6-0.1-0.9-0.1c0.1-0.2,0.2-0.4,0.2-0.6c0-0.7-0.7-1.3-1.4-1.3c-0.6,0-1.2,0.1-1.7,0.5
	c-0.2,0.1-0.3,0.3-0.4,0.5c-0.3-0.1-0.7-0.2-1-0.2c0,0,0.1,0,0.1-0.1c0.6-0.5,0.5-1.3,0-1.8c-0.9-0.7-2.1-1-3.2-0.5
	c-0.6,0.2-1,0.8-1,1.4c0,0.4,0.2,0.8,0.4,1.1c-3.1,0.6-6.1,2.5-7.5,5.1c-0.2-0.2-0.4-0.3-0.7-0.4c0,0,0,0,0,0
	c-0.1-0.1-0.3-0.1-0.4-0.2c-0.4-0.2-0.9-0.3-1.4-0.2c-0.7,0.2-1,0.6-1.3,1.2c-0.4,0.6-0.2,1.4,0.5,1.8c0.3,0.2,0.6,0.2,1,0.1
	c0,0.6,0.5,1.2,1.4,1.2c0,0,0,0,0.1,0c-0.1,0.8-0.1,1.6-0.2,2.5c-0.2,0.3-0.4,0.5-0.5,0.9c-0.1,0.3-0.2,0.7-0.1,1
	c-0.1,0-1,0.4-1.4,0.5c-1,0.3-2.1,0.7-3.1,0.7c-0.7-1.2-1.1-2.7-1.7-3.9c-0.1-0.2-0.2-0.7-0.3-0.7h0.2c1.3,0,1.9-1.4,1-2.2
	c-0.4-0.3-0.7-0.6-1.2-0.8c-0.4-0.1-0.8-0.1-1.2-0.1c-0.3,0-0.5,0.1-0.7,0.2c-1.1-1.3-2.4-2.4-3.9-3c0.1,0,0.1-0.1,0.2-0.2
	c0.1-0.1,0.2-0.2,0.2-0.3c0.1-0.1,0.2-0.1,0.3-0.2c0.2-0.2,0.4-0.5,0.5-0.8c0-0.1,0-0.2,0-0.3c0.2-0.5,0.2-1-0.3-1.4
	c-0.4-0.4-1.2-0.5-1.7-0.2c-0.2,0.1-0.5,0.3-0.7,0.5c0,0,0,0,0,0c0,0-0.1,0-0.1,0.1c-0.1,0-0.1,0-0.2,0.1c-0.6,0.2-1.1,0.7-1.1,1.2
	c0,0.4,0.1,0.8,0.5,1.1c-0.4,0-0.8,0-1.2,0c-2.4,0.3-4.9,1.4-6,3.4c-0.9,1.7-0.7,3.4-0.6,5.2c0.1,1,0.6,2.7-1,2.5
	c-1.6-0.2-2.9-2.1-4.2-2.8c-8.1-4.6-16.9,7-11.4,12.8c-0.2,0.3-0.3,0.6-0.5,0.9c-0.1,0-0.8,0-0.9,0c-0.3,0-1.4,0-1.4,0.1v0
	c0-0.2,0.6-0.5,0.6-0.7c0.2-0.5,0.5-1.1,0.1-1.4c-0.5-0.5-1.1-0.5-1.7-0.1c-0.5,0-0.9,0.2-1.1,0.6c-0.3,0.5-0.2,1.2,0.3,1.6
	c0,0.1,0.1,0.2,0.2,0.3c0.2,0.2,0.4,0.5,0.6,0.7c0,0,0,0,0,0c0,0,0,0.1-0.1,0.1c-0.2-0.1-0.3-0.1-0.5-0.1c-0.1,0-0.2,0-0.3,0
	c-0.1,0-0.1,0-0.2,0c-0.3,0-0.6,0.1-0.8,0.3c0.1-0.3,0.1-0.5,0-0.8c0-0.1,0.1,0,0.1-0.1c0-0.7-0.7-1-1.4-1h-0.5
	c-0.8,0-0.7,0-0.7,0.7v0.2c0,0.4-0.2,0.7,0.1,1c0.2,0.1,0.1,0.3,0.3,0.4c0.5,0.4,1.2,0.5,1.8,0.1c-0.1,0.1-0.1,0.3-0.1,0.4
	c0,0.1,0,0.2,0,0.3c0,0-0.1,0-0.1,0.1c0,0.1,0,0.2,0,0.3v0c0,0.1,0.2,0.2,0.2,0.3c0.1,0.2,0.3,0.4,0.5,0.5c0.6,0.5,1.5,0.5,2.1,0
	c0.2-0.2,0.3-0.4,0.4-0.6c0,0,0.1-0.1,0.1-0.2c0.2,0.1,0.4,0.1,0.7,0.2c0.1,0,0.2,0,0.2,0c-0.8,1.1-1.7,2-2.8,2.8
	c-1.2,0.8-2.4,1.6-3.4,2.6c0,0,0-0.1-0.1-0.1c-0.3-0.4-0.8-0.7-1.4-0.7c-0.3,0-0.6,0.1-0.9,0.1c-0.7,0.2-1.2,0.9-1,1.5
	c-0.1,0.4,0,0.8,0.2,1.1c0,0-0.1,0-0.1,0c-0.3,0-0.7,0.1-0.9,0.3c0,0-0.1,0-0.1,0.1c-0.6,0.2-1,0.6-1,1.2c0,0.5,0.4,1,0.9,1.2
	c0.1,0.2,0.2,0.4,0.3,0.6c0.1,0.2,0.2,0.3,0.3,0.4c-0.1,0.3-0.1,0.6,0.1,0.8c-0.2,0.1-0.9,0.2-1.1,0.3c-0.4,0.4-0.9,0.8-1.1,1.3
	c-0.1-0.3-0.3-0.5-0.6-0.5h-0.3c-0.8,0-1.4,0.2-1.4,0.9c0,0.7,0.7,0.9,1.4,0.9h0.3c0.6,0,1.1,0.3,1.3-0.1c0,0.1,0,0.5,0,0.6
	c0.1,0.5,0.4,1.2,0.9,1.4c0,0.4,0.2,0.9,0.4,1.3c0.1,0.4,0.2,0.7,0.5,1c-0.7,0.2-1.6,0.4-2.3,0.6c-3.3,0.7-7.3,1.7-8.4,5
	c-1,2.9,0.5,5.5,2.2,7.8c1.1,1.4,0.9,2.7,0.9,4.4v0c0,0.2-0.7,0.5-1.2,0.9c-2.5,1.8-2.7,5.6-0.9,8c0.5,0.7,1.3,1.4,2.1,2
	c-0.2,0-0.3,0.1-0.5,0.1c-0.8,0.2-1.2,0.9-1,1.6c-0.1,0-0.2,0-0.2,0c-0.5,0.1-0.8,0.4-1,0.7c-0.4,0.2-0.7,0.6-0.7,1.1
	c0,0.7,0.7,1.3,1.4,1.3c0.2,0,0.4,0,0.6-0.1c0.5,0.2,1.1,0.1,1.5-0.3c0.3-0.3,0.5-0.8,0.4-1.2c0-0.2,0-0.3,0-0.5
	c0,0,0.1,0.1,0.1,0.1c0.5,0.7,1.5,0.8,2.3,0.3c-0.2,0.2,0,0,0.1,0c0.1-0.1,0.3-0.2,0.4-0.3c0.1-0.1,0.2,0.5,0.3,0.4
	c0.5-0.2,1-0.4,1.2-0.4h0.1c1.4,0,2.6-1.3,3.4-2.1c0.3,0.1,0.6-0.1,0.9-0.1c1.9,0.6,3.8,0.8,5.4,1.8c0.5,0.3,1,0.5,1.4,0.9
	c-0.1,0.1-0.1,0.1-0.2,0.1c0,0,0,0,0,0c0,0-0.1,0-0.1,0.1c-0.2,0.1-0.4,0.3-0.6,0.4c-0.5,0.3-0.9,0.5-1.4,0.8
	c-2.2,1.3-4.4,2.6-5.4,4.8c-0.4-0.3-0.9-0.6-1.4-0.7c-0.8-0.1-1.5,0.2-1.8,0.9c-0.1,0.3,0,0.6,0.1,0.9c-0.1,0.1-0.2,0.2-0.2,0.3
	c-0.4,0.6-0.2,1.5,0.5,1.7c0.6,0.3,1.4,0.5,2.1,0.2c0.1,0,0.3-0.1,0.4-0.2c0.5,2,2,4,3.6,5.2c0.1,0.1,0.2,0.1,0.3,0.2
	c-0.2,0.5-0.4,1-0.5,1.5c-0.2-0.1-0.4-0.1-0.6-0.1c-0.7,0-1.4,0.3-1.9,0.7c-0.4,0.3-0.7,0.9-0.7,1.4c0,0.3,0.1,0.6,0.3,0.9
	c0.2,0.3,0.4,0.4,0.7,0.6c0.4,0.3,1.1,0.4,1.6,0.2c0.2,0,0.3-0.1,0.5-0.2c0.2,0,0.3-0.1,0.5-0.2c0.2,0.6,0.5,1.1,0.8,1.6
	c0.2,0.2,0.3,0.4,0.5,0.6c-0.2,0.4-0.4,0.8-0.4,1.3c0,0.4,0,0.8,0.1,1.1c-0.4,1.3-0.5,2.7-0.2,3.9c0,0.1,0,0.1,0.1,0.2
	c-0.5,0.1-0.8,0.3-1.1,0.6c-0.1,0.1-0.2,0.2-0.2,0.3c-0.4,0.6-0.2,1.4,0.5,1.8c0.1,0.1,0.3,0.1,0.4,0.1c0.3,0.2,0.6,0.3,0.9,0.3
	c0.4,0,0.9-0.2,1.2-0.6c1.8,1.5,4.7,1.9,7.1,1.2c1.7-0.6,3.2-1.6,4.2-2.9c0,0.2,0,0.4,0.1,0.6c0.6,1.6,1.9,2.9,3.9,3.1
	c0.5,0,1,0,1.5-0.1c0,0,0.1,0.1,0.1,0.1c0,0,0,0,0.1,0c-0.5,0.2-1,0.7-0.9,1.2c0,0.7,0.5,1.3,1.2,1.6c0.9,0.4,1.9,0,2.1-0.8
	c0-0.1,0.1-0.2,0.1-0.3c0,0,0,0,0,0c0.2-0.4,0.2-0.8,0.1-1.2c1.3,0.7,2.7,1.3,4.1,1.5c3.4,0.6,7.2-0.7,10.1,1.1
	c2.7,1.6,6.4,1.4,9.5,1.8c3.6,0.4,7.2,0.8,10.8,0.8c0.1,0,0.2,0,0.3,0c0.2,0.1,0.5,0.2,0.7,0.3c4.4,1.8,7.4,3.2,11.3,5.8
	c0.6,0.4,1.9,1.7,2.6,2.2c0,0.4,0,0.8,0,1.2c0,4.3,0.4,13.1,0.4,18.3c0,2.5-0.2,4.9-0.4,7.4c0,0.2-0.1,0.5-0.2,0.7
	c-0.3,1.3-0.7,2.7-1.2,4c-0.1,0-0.3,0-0.4,0.1c-3.9,1.4-8,1.8-12,2.9c-1.6,0.5-3.6,0.9-4.9,2c-1.7,1.4-3,3.2-5.1,4.2
	c0,0-0.1,0-0.1,0.1c-1.2,0.1-2.3,0.2-3.5,0.4c-0.3,0-0.4,0.2-0.5,0.3c-0.8,0.1-1.7,0.1-2.5,0.1c-0.7,0-1,0.6-0.9,1.2
	c-5.7,0.2-11.4,1.4-17.1,2.2c-0.4,0.1-0.6-0.2-0.7,1.6h101.6c-0.1-1.9-0.3-1.6-0.9-1.8c-3-0.6-5.9-2.2-9-2.4
	c-1.1-0.1-2.2-0.4-3.3-0.5c-0.1-0.2-0.3-0.4-0.6-0.5c-2.2-0.7-4.6-1.1-6.8-1.7c-0.6-0.1-1-0.3-1.5-0.4c-2.1-1.8-4-3.9-6.3-5.4
	c-2.2-1.5-4.8-2.2-7.5-2.5c-0.1,0-0.1,0-0.2,0c-0.4-1.7-0.5-3.4-0.7-5.2c-0.3-4.4-1.1-8.8-1.5-13.1c-0.1-3.8-0.3-7.6-0.2-11.4
	c0-3,0.3-5.9,0.7-8.8c0.2-1.2,0.3-2.5,0.4-3.8c0.4-0.2,0.9-0.4,1.3-0.6c1.4-0.6,3.3-0.7,4.9-0.9c0.1,0,0.5,0,0.5,0c0,0,0,0,0,0
	c0,0.6-0.3,1.4,0.4,1.8c0.5,0.3,1.6,0.2,2-0.1c0.5-0.1,1.3-0.5,1.4-0.9c0,0-0.4-0.1-0.4-0.1c0,0-0.2-0.1-0.2-0.1c0,0,0-0.1,0-0.1
	c0.2,0.1,0.4,0.2,0.6,0.3c0,0,0,0,0,0v0c0.2,0,0.3,0.1,0.5,0.1c0,0.1,0.1,0.1,0.1,0.2c0.1,0.3,0.1,0.5,0,0.8c-0.2,1,1,2.2,2.1,1.5
	c0.7-0.4,1.5-0.9,2.1-1.4c0.4-0.1,0.7-0.2,1-0.4c0,0.1,0,0.2,0,0.3c0,0.4,0.1,0.8,0.5,1.1c0.3,0.3,0.8,0.4,1.2,0.4
	c0.8,0,1.4-0.6,1.4-1.3c0-0.4-0.2-0.8-0.6-1c-0.3-0.3-0.7-0.5-1.1-0.5c0,0-0.1,0-0.1,0c0.2-0.3,0.5-0.6,0.7-1c0.4,0,0.8-0.1,1.2-0.1
	c0.1,0.2,0.1,0.3,0.2,0.5c0.8,1.2,2.4,2.2,4,2.2c0.9,0,1.8-0.3,2.3-1c0,0,0,0,0,0c1.4,0.2,2.9-0.1,4.2-0.7c0.9-0.4,1.7-1.1,2.3-1.8
	c0.2,0,0.5,0.1,0.7,0.1c0.8,2.8,3.6,5.1,6.6,5.5c-0.1,0.2-0.2,0.5-0.2,0.8c0,0.7,0.7,1.3,1.4,1.3c0.3,0,0.6-0.1,0.9-0.3
	c0.6-0.1,1.1-0.6,1.1-1.2c0-0.3-0.1-0.5-0.3-0.7c0.1,0,0.1,0,0.2-0.1c0.5,0.5,1.3,0.8,2,0.8c0.3,0,0.6,0,0.9-0.1
	c0.3,0,0.5-0.1,0.7-0.2c0.7-0.3,1.3-1.1,1.2-1.8c-0.1-0.8-0.6-1.5-1.2-2.1c0.3-0.7,0.4-1.4,0.5-2.1c0.1-0.1,0.2-0.1,0.3-0.2
	c0.8,0.7,2.2,1,3.2,0.6c1,0,2-0.2,2.7-0.6c1.1-0.7,1.7-1.6,1.8-2.9c0.1-0.7-0.3-1.7-0.7-2.3c-0.6-0.7-1.4-1.4-2.4-1.7
	c-0.1,0-0.2-0.1-0.3-0.1c-0.1-0.1-0.3-0.2-0.4-0.3c0-0.4-0.1-0.9-0.2-1.3c0.1,0,0.2,0,0.3,0.1c0.8,0.3,1.6,0.5,2.4,0.8
	c1.4,0.4,3.1,0.5,4.7,0.3c1.7-0.3,3.3-1,4.2-1.9c0.6,0.4,1.4,0.4,1.9-0.1c0,0,0.1-0.1,0.1-0.1c0.3-0.2,0.6-0.6,0.6-1
	c0-0.5-0.3-0.9-0.7-1.1c0.6-0.6,1-1.3,1.1-2.2c0.1-0.2,0.2-0.3,0.2-0.5c0.3-1.1-0.2-2.5-1.4-3.1c-0.3-0.1-0.5-0.2-0.8-0.3
	c0.7-0.7,1-1.5,0.3-2.3c-0.5-0.7-1.5-1.2-2.6-1.6c-0.1-0.5-0.3-0.9-0.4-1.4c-0.1-0.6-0.3-1.2-0.1-1.5c0-0.1,0.2-0.3,0.2-0.5
	c0.1,0,0.3,0.1,0.4,0.1c0.7,0.3,1.4,0.7,2,1.1c1.3,0.8,2.7,1.5,4,2c-0.3,0.2-0.6,0.5-0.7,0.8c-0.4,0.6-0.2,1.4,0.5,1.8
	c0.7,0.3,1.6,0.2,2-0.5c0,0,0,0,0,0c0.4-0.2,0.7-0.6,0.7-1.1c0-0.1,0-0.2-0.1-0.4c1.3,0.2,2.6,0.1,4.1-0.4c2.3-0.8,4.6-1.8,6.2-3.6
	c1.3-1.4,2.4-3.7,1.5-5.6c-0.4-1-0.9-1.8-1.7-2.5c-0.2-0.1-0.5-0.4-0.7-0.6c0-0.2,0-0.4,0.1-0.6c0,0,0,0,0,0
	c0.4-0.2,0.7-0.5,1.1-0.7c3.6-3,0.5-7-0.2-10.6c0.5-1,0.4-2.1-0.6-3c0-0.8,0-1.6-0.1-2.4c0-0.2,0-0.3,0-0.5c0.5-0.4,1-0.8,1.5-1.2
	c1.8-1.5,2.1-3.6,0.7-5.5c-0.9-1.1-1.9-2.2-2.7-3.4c-0.2-0.3-0.4-0.6-0.5-0.9c0-0.1,0-0.1,0-0.2c0.4-0.3,0.7-0.6,1.1-1
	c1.1-1.1,1.6-2.5,1.5-4c-0.1-0.8-0.4-1.5-0.5-2.1c0.2,0,0.4,0,0.5,0c1.8,0,2.9-1.3,3-2.8C819.7,47,820.4,45.6,819.7,43.9L819.7,43.9
	z M685.3,121.6c-2.8-1.6-5.7-0.6-8.8-0.8c-1.2-0.1-2.3-0.4-3.4-0.8c0,0,0,0,0-0.1c0,0,0.1-0.1,0.1-0.1c0.3-0.2,0.4-0.5,0.4-0.8
	c0.1-0.3,0.2-0.6,0.2-0.8c0.1,0,0.2-0.1,0.3-0.1c1-0.4,2.1-1,3.2-1.4c-0.2-0.2-0.4-0.4-0.6-0.7c-0.7-0.9-0.6-2.2,0.3-3
	c0.2,0.1,0.4,0.2,0.6,0.3c1.5,0.7,3,1.1,4.6,1.4c0.5,0.5,1.1,0.9,1.8,1.1c0.2,0.1,0.3,0.2,0.5,0.3c0.7,0,1.4,0.1,2,0.2
	c1.7,0.3,3,1.3,4.4,2.2c-0.7,0.6-1.1,1.5-1,2.5c0.1,0.8,0.5,1.5,1,2C689,122.8,687,122.6,685.3,121.6L685.3,121.6z M714.2,172.9
	c-4.8,1.1-9.6,2.2-14.4,3c-0.3,0-0.5,0-0.8,0.1c1.8-1.5,3.4-3.2,5.8-4c3.9-1.4,8.2-1.7,12.2-3C716.3,170.4,715.3,171.8,714.2,172.9
	L714.2,172.9z M743,170.6c1,0.7,2,1.6,3,2.4c-2.1-0.7-4.4-1.1-6.4-1.9c-1.1-0.4-2-1-3-1.6c-0.2-0.5-0.4-1-0.6-1.5
	C738.6,168.4,740.9,169.1,743,170.6L743,170.6z M720.5,85.9c0.2-0.3,0.4-0.6,0.6-0.9c0.2,0.3,0.5,0.6,0.7,0.8
	c0.6,0.5,1.4,0.9,2.2,1.1c0,0.1,0.1,0.3,0.2,0.4c1,1.4,2.7,2.1,4.4,1c0.2-0.1,0.3-0.2,0.4-0.4c-1.1,2-2.3,3.9-3.4,5.8
	c-0.7,1.3-1.8,2.8-2.4,4.3c-1-1.8-1.7-3.7-2.7-5.5c-0.5-0.9-1-1.8-1.5-2.7C719.5,88.7,719.9,87.1,720.5,85.9L720.5,85.9z M696,124.4
	c1.1-0.6,1.6-1.7,1.8-2.9c0.1-0.4,0.1-0.9,0.1-1.3c0.2,0,0.5,0,0.8,0c0.3,0,0.6-0.1,0.9-0.2c0.8,1,1.6,2,2.3,3.1
	c0.4,0.6,0.7,1.3,1.1,1.9C700.7,124.9,698.3,124.7,696,124.4L696,124.4z M718.9,127.8c0,0.4,0,0.8,0,1.2c0,0-0.1,0-0.1-0.1
	c-3.4-1.9-7.5-2.8-11.2-4.2c-0.7-0.3-1.2-0.7-1.7-1.2c-1-1.2-1.7-2.5-2.7-3.8c-0.4-0.5-0.8-1-1.3-1.5c0.2-0.2,0.4-0.5,0.6-0.7
	c0.5,0.3,1,0.5,1.7,0.6c0.8,0.2,1.8,0.1,2.6-0.2c0,0.1,0,0.2,0,0.2c0,0.2,0,1.9,0.1,2.1c-0.2-0.1-0.4,1.4-0.6,1.4h0.9
	c-1.7,0-1.8,1-0.4,1.3c0.9-0.2,1.3-1,1-1.7c0.2,0.1,0.4,0.4,0.7,0.4h0.5c0.9,0,1.6-1.7,1.6-2.5c0-0.8-0.7-2-1.6-2
	c0.9-0.9,1.3-2.4,0.6-3.6c-0.1-0.1-0.4-0.6-0.7-1c0-0.2,0.1-0.5,0.2-0.7c0.3,0.3,0.7,0.6,1.1,0.8c1.2,0.7,2.4,0.8,3.4,0.4
	c2.1,1.1,4.2,2.3,5.5,3.3c0,0,0,0,0,0C718.4,120.3,718.4,124,718.9,127.8L718.9,127.8z M723.4,113c-1.8-0.2-3.7-1.1-5.7-2.2
	c0.5-0.2,0.9-0.7,1.1-1.3c0,0,0-0.1,0-0.1c0.1-0.2,0.1-0.4,0.1-0.7c0-0.4-0.2-0.7-0.5-1c0,0,0,0,0,0c0.1,0,0.2,0,0.3-0.1
	c0.6-0.2,1-0.6,1.3-1.1c0.4-0.7,0.2-1.6-0.6-2c-0.5-0.3-1.3-0.2-1.8,0.1c-0.6,0.2-1.1,0.7-1.1,1.4c0,0.2,0,0.3,0.1,0.5
	c-0.4-0.1-0.8,0-1.1,0.1c-0.3-0.5-0.7-1-1.2-1.4c0.9-0.5,1.6-1.4,1.9-2.3c0.6,0.2,1.2,0.1,1.7-0.3c0.6-0.6,0.6-1.5,0-2.1
	c0,0-0.1-0.1-0.1-0.1c-0.1-0.2-0.2-0.4-0.4-0.5c-0.3-0.3-0.7-0.4-1.1-0.4c-0.3,0-0.6,0.1-0.9,0.3c-0.4-0.3-0.9-0.6-1.5-0.8
	c-0.2-0.1-0.5-0.1-0.7-0.2c-0.5-0.6-1.4-1.1-2.3-1.1c-1.2-0.1-2.4,0.2-3.5,0.8c0.1-1.7-0.9-3.5-2.3-4.5c-1.3-0.9-3.1-1.3-4.7-1
	c-0.1,0-0.3,0.1-0.5,0.1c1.5-1,2.4-2.6,1.7-4.3c-0.2-0.5-0.5-0.9-0.8-1.2c0.5,0.4,1,0.8,1.3,0.9c2.4,0.8,5.1,0.3,6.8-1.5
	c0.8-0.8,1-1.9,1.3-3c0,0,0,0,0,0c0.2,0.2,0.4,0.3,0.6,0.5c-0.2,0.8-0.4,1.7-0.4,2.5c0.1,1.7,1.9,3.3,3.6,3.6c0.5,0.1,0.9,0.1,1.4,0
	c1.3,2.9,3,7.1,3.9,8.7c1.4,2.3,3,4.6,4.3,6.9c0.7,1.2,1.2,3,1.1,4.4c0,0.2,0,0.3,0,0.4C724.4,111.7,723.8,112.3,723.4,113
	L723.4,113z M730,108c-0.4-0.6-1.8-2.1-2.2-2.7c-1-1.4-1.9-2.9-2.9-4.3c0.2-0.3,0.4-0.6,0.3-1.1c-0.3-1.1,1.1-2.8,1.7-3.7
	c0.7-1.2,1.2-2.3,1.9-3.5c0.8-1.4,1.6-2.7,2.4-4.1c0,0,0,0,0,0.1c1.7,2.4,5,2.5,7.4,0.9c1.3-0.9,2.4-2.7,3.8-3.5
	c0.2,0.2,0.3,0.4,0.5,0.7c-0.4,0.8-0.6,1.7-0.7,2.6c-0.5,0.4,0.4,0.1-0.5,1.7c-0.4,0.8-3,4.5-3.4,5.2c-0.3,0.2-2.9,3.6-3.2,3.9
	C732.8,103.1,732,104.8,730,108L730,108z M743.1,118.2c-0.5,0.4-0.5,1.2-0.1,1.7c-1.8,0-3.5,0.1-5.3,0.4c-1,0.2-1.9,0.4-2.8,0.8
	c0-0.2,0.1-0.4,0.1-0.6c0.6-2.3,1.7-4,3.6-5.5c1-0.8,2.1-1.4,2.8-2.4c0.6-0.2,1.2-0.3,1.8-0.3h0c0,0,0.3-0.3,0.6-0.1
	c0,0.5-0.1,0.8-0.1,1.3c0,0.2-0.1,0.2-0.1,0.3c0,0,0,0.2,0,0.2c0,0,0,0.2,0,0.2h0c-0.2,0-0.3-0.2-0.4-0.2c-0.4,0.1-0.7,0.1-0.9,0.4
	c-0.7,0.6-0.4,1.9,0.6,1.8c0.3-0.1,0.7-0.2,1-0.3c-0.1,0.6,0,1.2,0.1,1.8c0,0.1,0,0.2,0.1,0.3C743.7,117.8,743.4,117.9,743.1,118.2
	L743.1,118.2z M749.9,107.2c-1.8-0.1-3.6-0.1-5.4,0.1c-2.7,0.3-4.9-0.2-7.4,0.7c0.6-1.5,1.3-3.1,2.2-4.6c1.2-2.2,2.4-4.5,3.6-6.7
	c0.8-1.3,1.6-2.7,2.7-3.8c0.3,0.1,0.6,0.2,1,0.3c0.3,0.1,0.5,0.1,0.8,0.1c-0.2,0.8-0.1,1.6,0.4,2.3c-0.3,0.3-0.7,0.6-1.3,0.9
	c-1.4,0.7-2.8,1.3-3.7,2.2c-1.7,1.9,1.7,3.3,4.2,4.3c1.3,0.5,3.2,1,3.2,2C750,105.8,749.8,106.5,749.9,107.2L749.9,107.2z"/>
<g enable-background="new    ">
	<path fill="#DDDDDD" d="M165.2,67.9c-0.1,0.1-0.3,0.4-0.5,0.8c-1.6,2.9-2.8,5.7-3.6,8.5c-0.1,0.4-0.1,0.5-0.1,0.6
		c0,0.2,0,0.4,0.1,0.6c0,0.4-0.2,0.6-0.6,0.6c-0.4,0-0.6-0.3-0.6-0.8c0-0.8,0.4-2.1,1.2-4c-0.3-0.6-0.6-1.2-0.9-1.9
		c-0.4-1-0.7-1.7-1-2.1c-0.4-0.8-0.8-1.5-1.3-2.1c-0.3-0.3-0.4-0.5-0.4-0.7c0-0.1,0-0.2,0.2-0.3c0.1-0.1,0.2-0.2,0.3-0.2
		c0.2,0,0.4,0.2,0.7,0.6c1,1.4,1.9,3.2,2.8,5.6c0.9-2.2,1.8-3.9,2.5-5.1c0.5-0.8,0.8-1.2,1.1-1.2c0.3,0,0.5,0.2,0.5,0.5
		C165.7,67.4,165.5,67.6,165.2,67.9z"/>
	<path fill="#DDDDDD" d="M171.6,76c0,0.1-0.1,0.3-0.2,0.6c-0.2,0.4-0.4,0.8-0.9,1.2c-0.4,0.4-0.9,0.5-1.3,0.5
		c-0.7,0-1.2-0.3-1.6-0.9c-0.4-0.5-0.6-1.2-0.6-1.9c0-0.7,0.2-1.3,0.5-2c0.3-0.7,0.8-1.2,1.3-1.5c0.3-0.1,0.5-0.3,0.6-0.4
		c0.1,0,0.1,0,0.2,0c0,0,0.2,0,0.4,0.1c0.5,0.2,1,0.6,1.3,1.1c0.3,0.5,0.5,1.1,0.5,1.7C171.8,75.1,171.7,75.6,171.6,76z M170.2,73.2
		c-0.3,0-0.5-0.1-0.6-0.2c-0.6,0-1,0.3-1.3,0.9c-0.3,0.5-0.4,1-0.4,1.7c0,0.5,0.1,0.9,0.4,1.2c0.2,0.4,0.5,0.5,0.9,0.5
		c0.4,0,0.8-0.3,1.2-0.9c0.4-0.6,0.5-1.1,0.5-1.6C170.9,74,170.7,73.4,170.2,73.2z"/>
	<path fill="#DDDDDD" d="M179.8,73c-0.2,0.5-0.4,1.6-0.6,3.2c0,0.4-0.1,0.6-0.1,0.7c0,0.1,0,0.3,0,0.5c0,0.3,0.1,0.4,0.1,0.4
		c0,0.4-0.2,0.6-0.6,0.6c-0.1,0-0.3,0-0.4-0.1c-0.1-0.1-0.2-0.2-0.2-0.3c0-0.1,0-0.2,0.1-0.3c0-0.9,0.1-1.8,0.3-2.6
		c-1.8,2.1-3,3.1-3.8,3.1c-0.4,0-0.6-0.1-0.8-0.3c-0.2-0.2-0.3-0.4-0.3-0.8c0-0.3,0.1-1,0.3-2c0.2-1.1,0.3-1.9,0.3-2.3
		c0,0,0-0.1,0-0.2c0-0.1,0-0.1,0-0.2c0-0.1,0-0.2,0.1-0.4c0.1-0.1,0.2-0.2,0.3-0.2c0.3,0,0.4,0.3,0.4,0.9c0,0.4-0.2,1.4-0.5,3.1
		c-0.1,0.4-0.1,0.7-0.1,0.8c0,0.2,0.1,0.3,0.2,0.3c0.6,0,1.4-0.6,2.4-1.7c0.7-0.8,1.4-1.8,2.1-3c0.1-0.2,0.2-0.3,0.4-0.3
		c0.3,0,0.4,0.2,0.4,0.4C179.9,72.7,179.8,72.8,179.8,73z"/>
	<path fill="#DDDDDD" d="M192.1,74.5c-0.2,0.7-0.4,1.4-0.4,2.1c0,0.3,0,0.5,0.1,0.8c0.1,0.5,0.2,0.7,0.2,0.8c0,0.3-0.2,0.5-0.5,0.5
		c-0.3,0-0.5-0.3-0.5-0.8c0-0.3-0.1-0.7-0.1-1.3c-0.9,1.1-1.7,1.6-2.5,1.6c-0.4,0-0.8-0.2-1.1-0.6c-0.3-0.4-0.4-0.8-0.4-1.2
		c0-0.7,0.3-1.5,1-2.3c0.1-0.2,0.4-0.4,0.7-0.7c1.1-1,1.9-1.4,2.7-1.4c0.2,0,0.3,0.1,0.5,0.2c0.2,0.1,0.3,0.3,0.3,0.5
		c0,0,0,0.1,0,0.2c0.1,0.3,0.2,0.7,0.2,1.1c0.1,0.2,0.2,0.3,0.2,0.4C192.1,74.3,192.1,74.4,192.1,74.5z M190.6,72.9
		c-0.2,0-0.5,0.2-1,0.5c-0.4,0.3-0.8,0.6-1,0.9c-0.7,0.8-1,1.4-1,1.9c0,0.6,0.2,0.8,0.7,0.8c0.6,0,1.2-0.4,1.8-1.1s0.9-1.5,0.9-2.2
		C191,73.2,190.9,72.9,190.6,72.9z"/>
	<path fill="#DDDDDD" d="M198.9,72.8c-0.3,0.1-0.5,0.2-0.7,0.2c0,0-0.1,0-0.3-0.1c-1.4,0.6-2.2,2-2.5,4c-0.1,1.1-0.3,1.6-0.5,1.6
		c-0.2,0-0.3-0.1-0.4-0.3c-0.1-0.2-0.2-0.4-0.2-0.6c0-0.2,0.1-0.4,0.2-0.8c0.1-0.5,0.1-0.9,0.1-1.3c0-0.5-0.1-0.9-0.2-1.4
		c-0.2-0.2-0.3-0.4-0.3-0.6c-0.1-0.4-0.1-0.8-0.1-1c0-0.1,0-0.2,0.1-0.3c0.1-0.1,0.1-0.2,0.2-0.2c0.4,0,0.6,0.3,0.7,0.9
		c0.1,0.6,0.2,1.1,0.3,1.4c0.4-0.7,0.9-1.3,1.5-1.8c0.6-0.5,1.2-0.7,1.9-0.7c0.2,0,0.3,0.1,0.5,0.2c0.1,0.2,0.2,0.3,0.2,0.5
		C199.4,72.5,199.2,72.7,198.9,72.8z"/>
	<path fill="#DDDDDD" d="M204.6,78.5c-1.2,0-2.1-0.6-2.7-1.8c-0.1,0-0.3,0-0.4,0c-0.6,0-1-0.1-1.3-0.3c-0.4-0.2-0.6-0.5-0.6-0.7
		c0-0.4,0.2-0.5,0.5-0.5c0,0,0.2,0.1,0.5,0.3c0.3,0.2,0.5,0.3,0.8,0.3c0.1,0,0.2,0,0.3,0c0-0.3-0.1-0.5-0.1-0.7
		c0-0.8,0.2-1.5,0.6-2.2c0.4-0.8,1-1.2,1.6-1.2c0.4,0,0.8,0.2,1.2,0.6c0.3,0.3,0.4,0.7,0.4,1.1c0,0.6-0.3,1.2-0.8,1.9
		c-0.5,0.6-1.1,1-1.8,1.3c0.3,0.7,0.8,1,1.5,1c0.1,0,0.4,0,0.7-0.1c0.3,0,0.5,0,0.5,0c0.1,0,0.2,0.1,0.3,0.2
		c0.1,0.1,0.1,0.2,0.1,0.4C206.1,78.3,205.6,78.5,204.6,78.5z M204.2,72.8c-0.2-0.1-0.4-0.2-0.5-0.2c-0.3,0-0.6,0.3-0.8,0.7
		c-0.2,0.5-0.3,1-0.3,1.5c0,0.2,0,0.4,0,0.6c0.5-0.2,1-0.5,1.3-0.9c0.4-0.4,0.6-0.8,0.6-1.2C204.5,73.2,204.4,73,204.2,72.8z"/>
	<path fill="#DDDDDD" d="M218.1,78.6c-0.5,0-0.8-0.6-0.8-1.7l-0.1-2.8c-1.5,1-2.5,2-3,3c-0.1,0.3-0.2,0.5-0.3,0.7
		c-0.2,0.4-0.3,0.6-0.4,0.6c-0.2,0-0.4-0.1-0.5-0.2c-0.1-0.2-0.2-0.3-0.2-0.5c0,0,0-0.1,0-0.3c0-0.2,0-0.3,0-0.3c0,0,0-0.2,0-0.4
		c0-0.2,0-0.3,0-0.4c0-1.1,0.1-2.4,0.4-3.9c0-0.1,0.2-1.3,0.6-3.6l0.3-1.8c0.1-0.4,0.1-0.6,0.1-0.6c0-0.1,0.1-0.2,0.2-0.2
		c0.2,0,0.3,0.1,0.4,0.3c0.1,0.2,0.2,0.4,0.2,0.6c0,0-0.1,0.5-0.2,1.2c-0.6,3.2-1,5.7-1.2,7.7c0.5-0.6,1.2-1.3,2-2
		c0.9-0.8,1.6-1.2,1.9-1.2c0.2,0,0.4,0.1,0.5,0.3c0.1,0.2,0.2,0.4,0.2,0.6c0,0.1,0,0.3,0,0.7c0,0.4,0,0.6,0,0.8c0,0.5,0,1.2,0.1,2.2
		c0,0.3,0.1,0.6,0.1,1C218.4,78.5,218.3,78.6,218.1,78.6z"/>
	<path fill="#DDDDDD" d="M224.6,78.5c-1.2,0-2.1-0.6-2.7-1.8c-0.1,0-0.3,0-0.4,0c-0.6,0-1-0.1-1.3-0.3c-0.4-0.2-0.6-0.5-0.6-0.7
		c0-0.4,0.2-0.5,0.5-0.5c0,0,0.2,0.1,0.5,0.3c0.3,0.2,0.5,0.3,0.8,0.3c0.1,0,0.2,0,0.3,0c0-0.3-0.1-0.5-0.1-0.7
		c0-0.8,0.2-1.5,0.6-2.2c0.4-0.8,1-1.2,1.6-1.2c0.4,0,0.8,0.2,1.2,0.6c0.3,0.3,0.4,0.7,0.4,1.1c0,0.6-0.3,1.2-0.8,1.9
		c-0.5,0.6-1.1,1-1.8,1.3c0.3,0.7,0.8,1,1.5,1c0.1,0,0.4,0,0.7-0.1c0.3,0,0.5,0,0.5,0c0.1,0,0.2,0.1,0.3,0.2
		c0.1,0.1,0.1,0.2,0.1,0.4C226.1,78.3,225.6,78.5,224.6,78.5z M224.3,72.8c-0.2-0.1-0.4-0.2-0.5-0.2c-0.3,0-0.6,0.3-0.8,0.7
		c-0.2,0.5-0.3,1-0.3,1.5c0,0.2,0,0.4,0,0.6c0.5-0.2,1-0.5,1.3-0.9c0.4-0.4,0.6-0.8,0.6-1.2C224.5,73.2,224.4,73,224.3,72.8z"/>
	<path fill="#DDDDDD" d="M232.4,72.8c-0.3,0.1-0.5,0.2-0.7,0.2c0,0-0.1,0-0.3-0.1c-1.4,0.6-2.2,2-2.5,4c-0.1,1.1-0.3,1.6-0.5,1.6
		c-0.2,0-0.3-0.1-0.4-0.3c-0.1-0.2-0.2-0.4-0.2-0.6c0-0.2,0.1-0.4,0.2-0.8c0.1-0.5,0.1-0.9,0.1-1.3c0-0.5-0.1-0.9-0.2-1.4
		c-0.2-0.2-0.3-0.4-0.3-0.6c-0.1-0.4-0.1-0.8-0.1-1c0-0.1,0-0.2,0.1-0.3c0.1-0.1,0.1-0.2,0.2-0.2c0.4,0,0.6,0.3,0.7,0.9
		c0.1,0.6,0.2,1.1,0.3,1.4c0.4-0.7,0.9-1.3,1.5-1.8c0.6-0.5,1.2-0.7,1.9-0.7c0.2,0,0.3,0.1,0.5,0.2c0.1,0.2,0.2,0.3,0.2,0.5
		C232.9,72.5,232.7,72.7,232.4,72.8z"/>
	<path fill="#DDDDDD" d="M238.1,78.5c-1.2,0-2.1-0.6-2.7-1.8c-0.1,0-0.3,0-0.4,0c-0.6,0-1-0.1-1.3-0.3c-0.4-0.2-0.6-0.5-0.6-0.7
		c0-0.4,0.2-0.5,0.5-0.5c0,0,0.2,0.1,0.5,0.3c0.3,0.2,0.5,0.3,0.8,0.3c0.1,0,0.2,0,0.3,0c0-0.3-0.1-0.5-0.1-0.7
		c0-0.8,0.2-1.5,0.6-2.2c0.4-0.8,1-1.2,1.6-1.2c0.4,0,0.8,0.2,1.2,0.6c0.3,0.3,0.4,0.7,0.4,1.1c0,0.6-0.3,1.2-0.8,1.9
		c-0.5,0.6-1.1,1-1.8,1.3c0.3,0.7,0.8,1,1.5,1c0.1,0,0.4,0,0.7-0.1c0.3,0,0.5,0,0.5,0c0.1,0,0.2,0.1,0.3,0.2
		c0.1,0.1,0.1,0.2,0.1,0.4C239.6,78.3,239.1,78.5,238.1,78.5z M237.8,72.8c-0.2-0.1-0.4-0.2-0.5-0.2c-0.3,0-0.6,0.3-0.8,0.7
		c-0.2,0.5-0.3,1-0.3,1.5c0,0.2,0,0.4,0,0.6c0.5-0.2,1-0.5,1.3-0.9c0.4-0.4,0.6-0.8,0.6-1.2C238,73.2,237.9,73,237.8,72.8z"/>
</g>
<g enable-background="new    ">
	<path fill="#A3A0A0" d="M320.1,293.2c0,0-0.2,0.1-0.6,0.3c-0.5,0.3-1,0.5-1.6,0.6c-0.6,0.2-1.1,0.3-1.4,0.3c-1.1,0-1.9-0.4-2.4-1.3
		c-0.4-0.7-0.7-1.7-0.7-2.8c0-1.5,0.4-3.1,1.2-4.8c0.9-2,2.1-2.9,3.4-2.9c0.6,0,1.2,0.3,1.8,1c0.3,0.4,0.4,0.6,0.4,0.8
		c0,0.4-0.2,0.5-0.6,0.5c-0.1,0-0.3-0.1-0.5-0.4c-0.3-0.3-0.4-0.5-0.5-0.6c-0.2-0.2-0.5-0.3-0.8-0.3c-0.9,0-1.7,0.8-2.4,2.4
		c-0.6,1.4-0.9,2.8-0.9,4.3c0,2,0.7,2.9,2,2.9c0.8,0,1.6-0.3,2.5-0.8c0.4-0.3,0.7-0.4,0.8-0.4c0.1,0,0.3,0.1,0.4,0.2
		c0.1,0.1,0.2,0.3,0.2,0.4C320.4,292.9,320.3,293.1,320.1,293.2z"/>
	<path fill="#A3A0A0" d="M324.4,283.7l-0.1,0.1c-0.2,0.7-0.3,1.6-0.5,2.7c-0.2,1.2-0.2,2.2-0.2,3c0,2,0.1,3.6,0.2,4.9
		c0,0.2-0.1,0.2-0.2,0.2c-0.2,0-0.4-0.2-0.7-0.5c-0.2-0.3-0.3-0.6-0.3-0.9c0-0.1,0-0.2,0-0.6c0-0.3,0-0.5,0-0.5c0-0.2,0-0.4,0.1-0.6
		c-0.1-0.6-0.1-1.5-0.1-2.5c0-2,0.3-4.2,1-6.6c0.1-0.2,0.1-0.3,0.3-0.3c0.2,0,0.4,0.1,0.6,0.3c0.2,0.2,0.4,0.4,0.4,0.6
		C324.9,283.3,324.7,283.5,324.4,283.7z"/>
	<path fill="#A3A0A0" d="M327.9,289.8c-0.4,1.5-0.5,2.7-0.5,3.5c0.2,0.2,0.3,0.5,0.3,0.7c0,0.2-0.1,0.3-0.3,0.3
		c-0.3,0-0.5-0.2-0.7-0.6c-0.2-0.3-0.2-0.7-0.2-1.2c0-0.4,0.2-1.7,0.7-3.9c0-0.2,0-0.3,0-0.4c0-0.1,0.1-0.3,0.2-0.4
		c0.6,0,0.9,0.3,0.9,0.8C328.1,289.1,328,289.4,327.9,289.8z M328.5,283.7c-0.6-0.1-0.9-0.4-0.9-1c0-0.1,0-0.2,0-0.3
		c0-0.4,0.3-0.6,0.7-0.7c0.5,0.1,0.8,0.4,0.8,1.1C329,283.3,328.8,283.6,328.5,283.7z"/>
	<path fill="#A3A0A0" d="M334.2,293.6c-0.6,0.5-1.2,0.7-1.7,0.7c-0.6,0-1.2-0.2-1.6-0.7c-0.4-0.4-0.6-1-0.6-1.7
		c0-0.8,0.2-1.6,0.6-2.3c0.4-0.7,0.9-1.3,1.6-1.7c0.4-0.2,0.8-0.3,1.2-0.3c0.5,0,0.8,0.3,0.8,0.7c-0.1,0.4-0.4,0.7-0.8,0.7
		c-0.4,0-0.7-0.1-0.9-0.2c-1.1,0.8-1.7,1.8-1.7,3c0,0.4,0.1,0.8,0.3,1c0.2,0.3,0.4,0.4,0.8,0.4c0.4,0,0.8-0.1,1.1-0.3
		c0.1-0.1,0.3-0.3,0.5-0.5c0.2-0.2,0.4-0.3,0.5-0.3c0.1,0,0.2,0.1,0.3,0.2c0.1,0.1,0.1,0.2,0.1,0.4
		C334.9,292.9,334.7,293.2,334.2,293.6z"/>
	<path fill="#A3A0A0" d="M341.2,288.3c-0.7,0.4-1.8,0.7-3.2,1.1c0.6,0.7,1.6,1.7,2.9,3c0.2,0.2,0.6,0.6,1,1c0.1,0.1,0.1,0.2,0.1,0.3
		c0,0.4-0.2,0.5-0.5,0.5c-0.2,0-0.4-0.2-0.8-0.6c-0.9-0.9-2-2-3.2-3.3c0,0.1,0,0.7,0,1.6c0,0.8,0,1.3,0,1.4c0,0.4-0.2,0.7-0.5,0.7
		c-0.2,0-0.4-0.1-0.5-0.5c-0.1-0.3-0.1-0.5-0.1-0.8c0-0.2,0-0.3,0.1-0.4c0,0,0-0.1,0-0.2c0-0.1,0-0.1,0-0.2c0,0,0-0.1,0-0.2
		c0-0.1,0-0.2,0-0.3c0-1.1,0.1-2.6,0.3-4.3c0.2-1.7,0.4-3.2,0.6-4.6c0.1-0.3,0.2-0.5,0.5-0.5c0.3,0,0.5,0.2,0.5,0.4
		c0,0,0,0.3-0.1,0.8c-0.3,1.6-0.5,3.3-0.7,5.2c1.9-0.5,3.2-1,4.1-1.7c0.2-0.1,0.3-0.2,0.4-0.2c0.4,0,0.6,0.2,0.6,0.5
		C342.6,287.4,342.1,287.9,341.2,288.3z"/>
	<path fill="#A3A0A0" d="M353.9,292c0,0.1-0.1,0.3-0.2,0.6c-0.2,0.4-0.4,0.8-0.9,1.2c-0.4,0.4-0.9,0.5-1.3,0.5
		c-0.7,0-1.2-0.3-1.6-0.9c-0.4-0.5-0.6-1.2-0.6-1.9c0-0.7,0.2-1.3,0.5-2c0.3-0.7,0.8-1.2,1.3-1.5c0.3-0.1,0.5-0.3,0.6-0.4
		c0.1,0,0.1,0,0.2,0c0,0,0.2,0,0.4,0.1c0.5,0.2,1,0.6,1.3,1.1c0.3,0.5,0.5,1.1,0.5,1.7C354.2,291.1,354.1,291.6,353.9,292z
		 M352.6,289.2c-0.3,0-0.5-0.1-0.6-0.2c-0.6,0-1,0.3-1.3,0.9c-0.3,0.5-0.4,1-0.4,1.7c0,0.5,0.1,0.9,0.4,1.2c0.2,0.4,0.5,0.5,0.9,0.5
		c0.4,0,0.8-0.3,1.2-0.9c0.4-0.6,0.5-1.1,0.5-1.6C353.2,290,353,289.4,352.6,289.2z"/>
	<path fill="#A3A0A0" d="M361.3,292c-0.1,0.6-0.1,1.3-0.2,2.1c0,0.2-0.1,0.3-0.2,0.3c-0.2,0-0.3-0.1-0.5-0.2
		c-0.1-0.2-0.2-0.3-0.2-0.5c0-0.2,0-0.6,0.1-1l0.3-2.7c-1.5,1.1-2.6,2.2-3.2,3.4c-0.1,0.2-0.2,0.4-0.3,0.6c-0.1,0.2-0.2,0.4-0.3,0.4
		c-0.3,0-0.5-0.2-0.7-0.6c-0.2-0.6-0.3-1.3-0.3-2.2c0-1,0.2-2.3,0.5-3.9c0-0.2,0.1-0.3,0.2-0.3c0.2,0,0.3,0.1,0.5,0.3
		c0.1,0.2,0.2,0.4,0.2,0.6c0,0.2-0.1,0.3-0.1,0.6c-0.3,1.1-0.4,2.3-0.4,3.6c1.3-1.6,2.5-2.9,3.9-3.6c0.2,0,0.4,0.1,0.5,0.2
		c0.1,0.2,0.2,0.3,0.2,0.5C361.5,290,361.4,290.9,361.3,292z"/>
	<path fill="#A3A0A0" d="M374,292.2c-0.5,0.6-1.2,1.2-2,1.6c-0.4,0.2-0.9,0.4-1.4,0.6c-0.5,0.2-0.9,0.3-1.2,0.3
		c-0.4,0-0.6-0.2-0.7-0.5c0-0.2,0.2-0.4,0.4-0.5c-0.1-0.7-0.1-1.4-0.1-2.2c0-2.7,0.3-5.4,0.8-8.1c0.2-0.8,0.4-1.2,0.7-1.2
		c0.4,0,0.5,0.2,0.5,0.7c0,0.2,0,0.5-0.1,0.9c-0.1,0.5-0.2,0.8-0.2,1c-0.1,0.2-0.2,0.3-0.3,0.4c-0.2,1.3-0.4,3.2-0.5,5.7
		c1.2-1.6,2.3-2.3,3.2-2.3c0.5,0,0.9,0.2,1.2,0.5c0.3,0.4,0.4,0.8,0.4,1.3C374.8,290.9,374.6,291.6,374,292.2z M373.1,289.5
		c-0.3,0-0.7,0.2-1.1,0.6c-0.7,0.6-1.3,1.2-1.7,2c-0.1,0.3-0.2,0.5-0.2,0.7c0,0.2,0,0.5,0,0.8c0.8-0.2,1.6-0.6,2.4-1.2
		c0.9-0.7,1.4-1.4,1.4-2.1C373.9,289.7,373.7,289.5,373.1,289.5z"/>
	<path fill="#A3A0A0" d="M380.9,294.5c-1.2,0-2.1-0.6-2.7-1.8c-0.1,0-0.3,0-0.4,0c-0.6,0-1-0.1-1.3-0.3c-0.4-0.2-0.6-0.5-0.6-0.7
		c0-0.4,0.2-0.5,0.5-0.5c0,0,0.2,0.1,0.5,0.3c0.3,0.2,0.5,0.3,0.8,0.3c0.1,0,0.2,0,0.3,0c0-0.3-0.1-0.5-0.1-0.7
		c0-0.8,0.2-1.5,0.6-2.2c0.4-0.8,1-1.2,1.6-1.2c0.4,0,0.8,0.2,1.2,0.6c0.3,0.3,0.4,0.7,0.4,1.1c0,0.6-0.3,1.2-0.8,1.9
		c-0.5,0.6-1.1,1-1.8,1.3c0.3,0.7,0.8,1,1.5,1c0.1,0,0.4,0,0.7-0.1c0.3,0,0.5,0,0.5,0c0.1,0,0.2,0.1,0.3,0.2
		c0.1,0.1,0.1,0.2,0.1,0.4C382.4,294.3,381.9,294.5,380.9,294.5z M380.6,288.8c-0.2-0.1-0.4-0.2-0.5-0.2c-0.3,0-0.6,0.3-0.8,0.7
		c-0.2,0.5-0.3,1-0.3,1.5c0,0.2,0,0.4,0,0.6c0.5-0.2,1-0.5,1.3-0.9c0.4-0.4,0.6-0.8,0.6-1.2C380.8,289.2,380.7,289,380.6,288.8z"/>
	<path fill="#A3A0A0" d="M385.9,283.7l-0.1,0.1c-0.2,0.7-0.3,1.6-0.5,2.7c-0.2,1.2-0.2,2.2-0.2,3c0,2,0.1,3.6,0.2,4.9
		c0,0.2-0.1,0.2-0.2,0.2c-0.2,0-0.4-0.2-0.7-0.5c-0.2-0.3-0.3-0.6-0.3-0.9c0-0.1,0-0.2,0-0.6c0-0.3,0-0.5,0-0.5c0-0.2,0-0.4,0.1-0.6
		c-0.1-0.6-0.1-1.5-0.1-2.5c0-2,0.3-4.2,1-6.6c0.1-0.2,0.1-0.3,0.3-0.3c0.2,0,0.4,0.1,0.6,0.3c0.2,0.2,0.4,0.4,0.4,0.6
		C386.4,283.3,386.2,283.5,385.9,283.7z"/>
	<path fill="#A3A0A0" d="M392.2,292c0,0.1-0.1,0.3-0.2,0.6c-0.2,0.4-0.4,0.8-0.9,1.2c-0.4,0.4-0.9,0.5-1.3,0.5
		c-0.7,0-1.2-0.3-1.6-0.9c-0.4-0.5-0.6-1.2-0.6-1.9c0-0.7,0.2-1.3,0.5-2c0.3-0.7,0.8-1.2,1.3-1.5c0.3-0.1,0.5-0.3,0.6-0.4
		c0.1,0,0.1,0,0.2,0c0,0,0.2,0,0.4,0.1c0.5,0.2,1,0.6,1.3,1.1c0.3,0.5,0.5,1.1,0.5,1.7C392.4,291.1,392.3,291.6,392.2,292z
		 M390.9,289.2c-0.3,0-0.5-0.1-0.6-0.2c-0.6,0-1,0.3-1.3,0.9c-0.3,0.5-0.4,1-0.4,1.7c0,0.5,0.1,0.9,0.4,1.2c0.2,0.4,0.5,0.5,0.9,0.5
		c0.4,0,0.8-0.3,1.2-0.9c0.4-0.6,0.5-1.1,0.5-1.6C391.5,290,391.3,289.4,390.9,289.2z"/>
	<path fill="#A3A0A0" d="M403.9,290c-0.2,1.1-0.5,2-0.9,2.9c-0.6,1.1-1.3,1.7-2.1,1.7c-0.9,0-1.6-1-2.2-3c-0.3,0.6-0.8,1.4-1.6,2.1
		c-0.8,0.8-1.3,1.2-1.7,1.2c-0.2,0-0.4-0.2-0.6-0.5c-0.2-0.3-0.3-0.5-0.4-0.8c-0.4-1.5-0.6-2.8-0.6-3.9c0-0.7,0.1-1.5,0.2-2.1
		c0.1-0.3,0.2-0.5,0.5-0.5c0.4,0,0.6,0.3,0.6,1c0,0.1-0.1,0.4-0.2,0.7c-0.1,0.4-0.2,0.7-0.2,0.9c0,1.8,0.2,3.1,0.7,4
		c0.5-0.3,1-0.7,1.6-1.5c0.5-0.7,0.9-1.5,1.1-2.3c0.2-0.6,0.4-0.9,0.6-0.9c0.2,0,0.4,0.2,0.4,0.7c0.4,2.5,0.9,3.7,1.5,3.7
		c0.3,0,0.7-0.2,1.1-0.7c0.4-0.4,0.6-1.1,0.8-2c0.2-0.8,0.3-1.5,0.3-2.3c0-0.1,0-0.2,0-0.3c0-0.1,0-0.3,0-0.3c0-0.4,0.2-0.6,0.5-0.6
		c0.2,0,0.4,0.2,0.5,0.5c0.1,0.4,0.2,0.7,0.2,1C404.1,289.5,404.1,289.9,403.9,290z"/>
	<path fill="#A3A0A0" d="M416.4,292.2c-0.5,0.6-1.2,1.2-2,1.6c-0.4,0.2-0.9,0.4-1.4,0.6c-0.5,0.2-0.9,0.3-1.2,0.3
		c-0.4,0-0.6-0.2-0.7-0.5c0-0.2,0.2-0.4,0.4-0.5c-0.1-0.7-0.1-1.4-0.1-2.2c0-2.7,0.3-5.4,0.8-8.1c0.2-0.8,0.4-1.2,0.7-1.2
		c0.4,0,0.5,0.2,0.5,0.7c0,0.2,0,0.5-0.1,0.9c-0.1,0.5-0.2,0.8-0.2,1c-0.1,0.2-0.2,0.3-0.3,0.4c-0.2,1.3-0.4,3.2-0.5,5.7
		c1.2-1.6,2.3-2.3,3.2-2.3c0.5,0,0.9,0.2,1.2,0.5c0.3,0.4,0.4,0.8,0.4,1.3C417.2,290.9,416.9,291.6,416.4,292.2z M415.4,289.5
		c-0.3,0-0.7,0.2-1.1,0.6c-0.7,0.6-1.3,1.2-1.7,2c-0.1,0.3-0.2,0.5-0.2,0.7c0,0.2,0,0.5,0,0.8c0.8-0.2,1.6-0.6,2.4-1.2
		c0.9-0.7,1.4-1.4,1.4-2.1C416.2,289.7,416,289.5,415.4,289.5z"/>
	<path fill="#A3A0A0" d="M425,289c-0.2,0.5-0.4,1.6-0.6,3.2c0,0.4-0.1,0.6-0.1,0.7c0,0.1,0,0.3,0,0.5c0,0.3,0.1,0.4,0.1,0.4
		c0,0.4-0.2,0.6-0.6,0.6c-0.1,0-0.3,0-0.4-0.1c-0.1-0.1-0.2-0.2-0.2-0.3c0-0.1,0-0.2,0.1-0.3c0-0.9,0.1-1.8,0.3-2.6
		c-1.8,2.1-3,3.1-3.8,3.1c-0.4,0-0.6-0.1-0.8-0.3c-0.2-0.2-0.3-0.4-0.3-0.8c0-0.3,0.1-1,0.3-2c0.2-1.1,0.3-1.9,0.3-2.3
		c0,0,0-0.1,0-0.2c0-0.1,0-0.1,0-0.2c0-0.1,0-0.2,0.1-0.4c0.1-0.1,0.2-0.2,0.3-0.2c0.3,0,0.4,0.3,0.4,0.9c0,0.4-0.2,1.4-0.5,3.1
		c-0.1,0.4-0.1,0.7-0.1,0.8c0,0.2,0.1,0.3,0.2,0.3c0.6,0,1.4-0.6,2.4-1.7c0.7-0.8,1.4-1.8,2.1-3c0.1-0.2,0.2-0.3,0.4-0.3
		c0.3,0,0.4,0.2,0.4,0.4C425.1,288.7,425,288.8,425,289z"/>
	<path fill="#A3A0A0" d="M431.2,289H431c-0.1,0-0.3-0.1-0.4-0.2c-0.2,0-0.5,0-1,0c-0.5,0-0.8,0-0.9,0c-0.4,1.6-0.6,2.5-0.6,2.5
		c-0.2,1-0.3,1.8-0.3,2.6c0.1,0.1,0.2,0.3,0.2,0.5c0,0.1-0.1,0.2-0.2,0.3c-0.1,0.1-0.2,0.2-0.4,0.2c-0.4,0-0.6-0.4-0.6-1.2
		c0-0.5,0.1-1.3,0.3-2.3l0.5-2.6c-0.5,0-0.8-0.2-0.8-0.6c0-0.3,0.3-0.5,1-0.5c0.2-0.9,0.6-2.3,1.1-4.2c0.1-0.3,0.2-0.4,0.4-0.4
		c0.4,0,0.5,0.2,0.5,0.6c0,0.1,0,0.2-0.1,0.3c-0.1,0.2-0.2,0.6-0.3,1.2c-0.3,1-0.5,1.8-0.6,2.5c0,0,0.3,0,0.7,0c0.4,0,0.6,0,0.8,0
		c0.8,0,1.2,0.2,1.2,0.7C431.5,288.6,431.4,288.8,431.2,289z"/>
	<path fill="#A3A0A0" d="M437.1,289h-0.2c-0.1,0-0.3-0.1-0.4-0.2c-0.2,0-0.5,0-1,0c-0.5,0-0.8,0-0.9,0c-0.4,1.6-0.6,2.5-0.6,2.5
		c-0.2,1-0.3,1.8-0.3,2.6c0.1,0.1,0.2,0.3,0.2,0.5c0,0.1-0.1,0.2-0.2,0.3c-0.1,0.1-0.2,0.2-0.4,0.2c-0.4,0-0.6-0.4-0.6-1.2
		c0-0.5,0.1-1.3,0.3-2.3l0.5-2.6c-0.5,0-0.8-0.2-0.8-0.6c0-0.3,0.3-0.5,1-0.5c0.2-0.9,0.6-2.3,1.1-4.2c0.1-0.3,0.2-0.4,0.4-0.4
		c0.4,0,0.5,0.2,0.5,0.6c0,0.1,0,0.2-0.1,0.3c-0.1,0.2-0.2,0.6-0.3,1.2c-0.3,1-0.5,1.8-0.6,2.5c0,0,0.3,0,0.7,0c0.4,0,0.6,0,0.8,0
		c0.8,0,1.2,0.2,1.2,0.7C437.5,288.6,437.4,288.8,437.1,289z"/>
	<path fill="#A3A0A0" d="M442.9,292c0,0.1-0.1,0.3-0.2,0.6c-0.2,0.4-0.4,0.8-0.9,1.2c-0.4,0.4-0.9,0.5-1.3,0.5
		c-0.7,0-1.2-0.3-1.6-0.9c-0.4-0.5-0.6-1.2-0.6-1.9c0-0.7,0.2-1.3,0.5-2c0.3-0.7,0.8-1.2,1.3-1.5c0.3-0.1,0.5-0.3,0.6-0.4
		c0.1,0,0.1,0,0.2,0c0,0,0.2,0,0.4,0.1c0.5,0.2,1,0.6,1.3,1.1c0.3,0.5,0.5,1.1,0.5,1.7C443.2,291.1,443.1,291.6,442.9,292z
		 M441.6,289.2c-0.3,0-0.5-0.1-0.6-0.2c-0.6,0-1,0.3-1.3,0.9c-0.3,0.5-0.4,1-0.4,1.7c0,0.5,0.1,0.9,0.4,1.2c0.2,0.4,0.5,0.5,0.9,0.5
		c0.4,0,0.8-0.3,1.2-0.9c0.4-0.6,0.5-1.1,0.5-1.6C442.2,290,442,289.4,441.6,289.2z"/>
	<path fill="#A3A0A0" d="M450.3,292c-0.1,0.6-0.1,1.3-0.2,2.1c0,0.2-0.1,0.3-0.2,0.3c-0.2,0-0.3-0.1-0.5-0.2
		c-0.1-0.2-0.2-0.3-0.2-0.5c0-0.2,0-0.6,0.1-1l0.3-2.7c-1.5,1.1-2.6,2.2-3.2,3.4c-0.1,0.2-0.2,0.4-0.3,0.6c-0.1,0.2-0.2,0.4-0.3,0.4
		c-0.3,0-0.5-0.2-0.7-0.6c-0.2-0.6-0.3-1.3-0.3-2.2c0-1,0.2-2.3,0.5-3.9c0-0.2,0.1-0.3,0.2-0.3c0.2,0,0.3,0.1,0.5,0.3
		c0.1,0.2,0.2,0.4,0.2,0.6c0,0.2-0.1,0.3-0.1,0.6c-0.3,1.1-0.4,2.3-0.4,3.6c1.3-1.6,2.5-2.9,3.9-3.6c0.2,0,0.4,0.1,0.5,0.2
		c0.1,0.2,0.2,0.3,0.2,0.5C450.5,290,450.4,290.9,450.3,292z"/>
</g>
<g enable-background="new    ">
	<path fill="#A3A0A0" d="M343.4,311h-0.2c-0.1,0-0.3-0.1-0.4-0.2c-0.2,0-0.5,0-1,0c-0.5,0-0.8,0-0.9,0c-0.4,1.6-0.6,2.5-0.6,2.5
		c-0.2,1-0.3,1.8-0.3,2.6c0.1,0.1,0.2,0.3,0.2,0.5c0,0.1-0.1,0.2-0.2,0.3c-0.1,0.1-0.2,0.2-0.4,0.2c-0.4,0-0.6-0.4-0.6-1.2
		c0-0.5,0.1-1.3,0.3-2.3l0.5-2.6c-0.5,0-0.8-0.2-0.8-0.6c0-0.3,0.3-0.5,1-0.5c0.2-0.9,0.6-2.3,1.1-4.2c0.1-0.3,0.2-0.4,0.4-0.4
		c0.4,0,0.5,0.2,0.5,0.6c0,0.1,0,0.2-0.1,0.3c-0.1,0.2-0.2,0.6-0.3,1.2c-0.3,1-0.5,1.8-0.6,2.5c0,0,0.3,0,0.7,0c0.4,0,0.6,0,0.8,0
		c0.8,0,1.2,0.2,1.2,0.7C343.8,310.6,343.6,310.8,343.4,311z"/>
	<path fill="#A3A0A0" d="M349.2,314c0,0.1-0.1,0.3-0.2,0.6c-0.2,0.4-0.4,0.8-0.9,1.2c-0.4,0.4-0.9,0.5-1.3,0.5
		c-0.7,0-1.2-0.3-1.6-0.9c-0.4-0.5-0.6-1.2-0.6-1.9c0-0.7,0.2-1.3,0.5-2c0.3-0.7,0.8-1.2,1.3-1.5c0.3-0.1,0.5-0.3,0.6-0.4
		c0.1,0,0.1,0,0.2,0c0,0,0.2,0,0.4,0.1c0.5,0.2,1,0.6,1.3,1.1c0.3,0.5,0.5,1.1,0.5,1.7C349.4,313.1,349.4,313.6,349.2,314z
		 M347.9,311.2c-0.3,0-0.5-0.1-0.6-0.2c-0.6,0-1,0.3-1.3,0.9c-0.3,0.5-0.4,1-0.4,1.7c0,0.5,0.1,0.9,0.4,1.2c0.2,0.4,0.5,0.5,0.9,0.5
		c0.4,0,0.8-0.3,1.2-0.9c0.4-0.6,0.5-1.1,0.5-1.6C348.5,312,348.3,311.4,347.9,311.2z"/>
	<path fill="#A3A0A0" d="M361.4,312c-0.1,0.1-0.1,0.7-0.2,1.6c-0.1,1.5-0.4,2.7-1,3.6s-1.4,1.6-2.6,2.1c-0.4,0.2-0.9,0.3-1.3,0.3
		c-0.4,0-0.5-0.2-0.5-0.5c0-0.2,0.1-0.3,0.2-0.5c0.2-0.2,0.3-0.2,0.5-0.2c0,0,0.2,0,0.4,0.1c2-0.5,3.1-2,3.3-4.4
		c-0.6,0.6-1.3,0.9-2,0.9c-0.5,0-0.9-0.2-1.2-0.6c-0.3-0.4-0.4-0.8-0.4-1.4c0-1,0.3-1.9,1-2.8c0.7-0.9,1.6-1.4,2.6-1.4
		c0.9,0,1.3,0.6,1.4,1.8c0.1,0.1,0.1,0.2,0.1,0.3C361.7,311.3,361.6,311.6,361.4,312z M360.4,310.3c-0.1-0.2-0.3-0.3-0.5-0.3
		c-0.6,0-1.1,0.3-1.6,1c-0.5,0.7-0.7,1.3-0.7,2c0,0.3,0.1,0.5,0.2,0.7c0.1,0.2,0.3,0.3,0.5,0.3c1.1,0,1.8-0.9,2.1-2.6
		c0-0.2,0.1-0.3,0.2-0.4C360.6,310.8,360.5,310.5,360.4,310.3z"/>
	<path fill="#A3A0A0" d="M367.8,316.5c-1.2,0-2.1-0.6-2.7-1.8c-0.1,0-0.3,0-0.4,0c-0.6,0-1-0.1-1.3-0.3c-0.4-0.2-0.6-0.5-0.6-0.7
		c0-0.4,0.2-0.5,0.5-0.5c0,0,0.2,0.1,0.5,0.3c0.3,0.2,0.5,0.3,0.8,0.3c0.1,0,0.2,0,0.3,0c0-0.3-0.1-0.5-0.1-0.7
		c0-0.8,0.2-1.5,0.6-2.2c0.4-0.8,1-1.2,1.6-1.2c0.4,0,0.8,0.2,1.2,0.6c0.3,0.3,0.4,0.7,0.4,1.1c0,0.6-0.3,1.2-0.8,1.9
		c-0.5,0.6-1.1,1-1.8,1.3c0.3,0.7,0.8,1,1.5,1c0.1,0,0.4,0,0.7-0.1c0.3,0,0.5,0,0.5,0c0.1,0,0.2,0.1,0.3,0.2
		c0.1,0.1,0.1,0.2,0.1,0.4C369.3,316.3,368.8,316.5,367.8,316.5z M367.4,310.8c-0.2-0.1-0.4-0.2-0.5-0.2c-0.3,0-0.6,0.3-0.8,0.7
		c-0.2,0.5-0.3,1-0.3,1.5c0,0.2,0,0.4,0,0.6c0.5-0.2,1-0.5,1.3-0.9c0.4-0.4,0.6-0.8,0.6-1.2C367.7,311.2,367.6,311,367.4,310.8z"/>
	<path fill="#A3A0A0" d="M375.3,311H375c-0.1,0-0.3-0.1-0.4-0.2c-0.2,0-0.5,0-1,0c-0.5,0-0.8,0-0.9,0c-0.4,1.6-0.6,2.5-0.6,2.5
		c-0.2,1-0.3,1.8-0.3,2.6c0.1,0.1,0.2,0.3,0.2,0.5c0,0.1-0.1,0.2-0.2,0.3c-0.1,0.1-0.2,0.2-0.4,0.2c-0.4,0-0.6-0.4-0.6-1.2
		c0-0.5,0.1-1.3,0.3-2.3l0.5-2.6c-0.5,0-0.8-0.2-0.8-0.6c0-0.3,0.3-0.5,1-0.5c0.2-0.9,0.6-2.3,1.1-4.2c0.1-0.3,0.2-0.4,0.4-0.4
		c0.4,0,0.5,0.2,0.5,0.6c0,0.1,0,0.2-0.1,0.3c-0.1,0.2-0.2,0.6-0.3,1.2c-0.3,1-0.5,1.8-0.6,2.5c0,0,0.3,0,0.7,0c0.4,0,0.6,0,0.8,0
		c0.8,0,1.2,0.2,1.2,0.7C375.6,310.6,375.5,310.8,375.3,311z"/>
	<path fill="#A3A0A0" d="M385.7,310.5c-0.1,0-0.2,0-0.4,0c-0.2,0-0.3,0-0.4,0c-0.5,0-0.8,0.2-0.8,0.7c0,0.1,0.1,0.5,0.3,0.9
		c0.2,0.4,0.3,0.8,0.4,1.2c0.3,1,0.5,1.7,0.5,2.1c0,0.5-0.2,0.9-0.7,1.2c-0.4,0.2-0.9,0.3-1.5,0.3c-1,0-1.5-0.2-1.5-0.5
		c0-0.4,0.1-0.6,0.4-0.6c0.1,0,0.2,0,0.5,0c0.3,0,0.5,0.1,0.6,0.1c0.8,0,1.2-0.2,1.2-0.8c0-0.2-0.2-1-0.7-2.3
		c-0.1-0.3-0.2-0.6-0.4-0.9c-0.1-0.3-0.2-0.6-0.2-0.9c0-0.7,0.4-1.2,1.1-1.5c0.1-0.3,0.4-0.4,0.8-0.4c0.2,0,0.4,0,0.7,0.1
		c0.1,0,0.3,0.2,0.3,0.5c0,0.1,0,0.2,0.1,0.3C386.1,310.4,386,310.5,385.7,310.5z"/>
	<path fill="#A3A0A0" d="M392.2,311H392c-0.1,0-0.3-0.1-0.4-0.2c-0.2,0-0.5,0-1,0c-0.5,0-0.8,0-0.9,0c-0.4,1.6-0.6,2.5-0.6,2.5
		c-0.2,1-0.3,1.8-0.3,2.6c0.1,0.1,0.2,0.3,0.2,0.5c0,0.1-0.1,0.2-0.2,0.3c-0.1,0.1-0.2,0.2-0.4,0.2c-0.4,0-0.6-0.4-0.6-1.2
		c0-0.5,0.1-1.3,0.3-2.3l0.5-2.6c-0.5,0-0.8-0.2-0.8-0.6c0-0.3,0.3-0.5,1-0.5c0.2-0.9,0.6-2.3,1.1-4.2c0.1-0.3,0.2-0.4,0.4-0.4
		c0.4,0,0.5,0.2,0.5,0.6c0,0.1,0,0.2-0.1,0.3c-0.1,0.2-0.2,0.6-0.3,1.2c-0.3,1-0.5,1.8-0.6,2.5c0,0,0.3,0,0.7,0c0.4,0,0.6,0,0.8,0
		c0.8,0,1.2,0.2,1.2,0.7C392.6,310.6,392.4,310.8,392.2,311z"/>
	<path fill="#A3A0A0" d="M398.8,312.5c-0.2,0.7-0.4,1.4-0.4,2.1c0,0.3,0,0.5,0.1,0.8c0.1,0.5,0.2,0.7,0.2,0.8c0,0.3-0.2,0.5-0.5,0.5
		c-0.3,0-0.5-0.3-0.5-0.8c0-0.3-0.1-0.7-0.1-1.3c-0.9,1.1-1.7,1.6-2.5,1.6c-0.4,0-0.8-0.2-1.1-0.6c-0.3-0.4-0.4-0.8-0.4-1.2
		c0-0.7,0.3-1.5,1-2.3c0.1-0.2,0.4-0.4,0.7-0.7c1.1-1,1.9-1.4,2.7-1.4c0.2,0,0.3,0.1,0.5,0.2c0.2,0.1,0.3,0.3,0.3,0.5
		c0,0,0,0.1,0,0.2c0.1,0.3,0.2,0.7,0.2,1.1c0.1,0.2,0.2,0.3,0.2,0.4C398.9,312.3,398.8,312.4,398.8,312.5z M397.3,310.9
		c-0.2,0-0.5,0.2-1,0.5c-0.4,0.3-0.8,0.6-1,0.9c-0.7,0.8-1,1.4-1,1.9c0,0.6,0.2,0.8,0.7,0.8c0.6,0,1.2-0.4,1.8-1.1s0.9-1.5,0.9-2.2
		C397.7,311.2,397.6,310.9,397.3,310.9z"/>
	<path fill="#A3A0A0" d="M405.6,310.8c-0.3,0.1-0.5,0.2-0.7,0.2c0,0-0.1,0-0.3-0.1c-1.4,0.6-2.2,2-2.5,4c-0.1,1.1-0.3,1.6-0.5,1.6
		c-0.2,0-0.3-0.1-0.4-0.3c-0.1-0.2-0.2-0.4-0.2-0.6c0-0.2,0.1-0.4,0.2-0.8c0.1-0.5,0.1-0.9,0.1-1.3c0-0.5-0.1-0.9-0.2-1.4
		c-0.2-0.2-0.3-0.4-0.3-0.6c-0.1-0.4-0.1-0.8-0.1-1c0-0.1,0-0.2,0.1-0.3c0.1-0.1,0.1-0.2,0.2-0.2c0.4,0,0.6,0.3,0.7,0.9
		c0.1,0.6,0.2,1.1,0.3,1.4c0.4-0.7,0.9-1.3,1.5-1.8c0.6-0.5,1.2-0.7,1.9-0.7c0.2,0,0.3,0.1,0.5,0.2c0.1,0.2,0.2,0.3,0.2,0.5
		C406.1,310.5,405.9,310.7,405.6,310.8z"/>
	<path fill="#A3A0A0" d="M411.5,311h-0.2c-0.1,0-0.3-0.1-0.4-0.2c-0.2,0-0.5,0-1,0c-0.5,0-0.8,0-0.9,0c-0.4,1.6-0.6,2.5-0.6,2.5
		c-0.2,1-0.3,1.8-0.3,2.6c0.1,0.1,0.2,0.3,0.2,0.5c0,0.1-0.1,0.2-0.2,0.3c-0.1,0.1-0.2,0.2-0.4,0.2c-0.4,0-0.6-0.4-0.6-1.2
		c0-0.5,0.1-1.3,0.3-2.3l0.5-2.6c-0.5,0-0.8-0.2-0.8-0.6c0-0.3,0.3-0.5,1-0.5c0.2-0.9,0.6-2.3,1.1-4.2c0.1-0.3,0.2-0.4,0.4-0.4
		c0.4,0,0.5,0.2,0.5,0.6c0,0.1,0,0.2-0.1,0.3c-0.1,0.2-0.2,0.6-0.3,1.2c-0.3,1-0.5,1.8-0.6,2.5c0,0,0.3,0,0.7,0c0.4,0,0.6,0,0.8,0
		c0.8,0,1.2,0.2,1.2,0.7C411.9,310.6,411.8,310.8,411.5,311z"/>
	<path fill="#A3A0A0" d="M417.3,316.5c-1.2,0-2.1-0.6-2.7-1.8c-0.1,0-0.3,0-0.4,0c-0.6,0-1-0.1-1.3-0.3c-0.4-0.2-0.6-0.5-0.6-0.7
		c0-0.4,0.2-0.5,0.5-0.5c0,0,0.2,0.1,0.5,0.3c0.3,0.2,0.5,0.3,0.8,0.3c0.1,0,0.2,0,0.3,0c0-0.3-0.1-0.5-0.1-0.7
		c0-0.8,0.2-1.5,0.6-2.2c0.4-0.8,1-1.2,1.6-1.2c0.4,0,0.8,0.2,1.2,0.6c0.3,0.3,0.4,0.7,0.4,1.1c0,0.6-0.3,1.2-0.8,1.9
		c-0.5,0.6-1.1,1-1.8,1.3c0.3,0.7,0.8,1,1.5,1c0.1,0,0.4,0,0.7-0.1c0.3,0,0.5,0,0.5,0c0.1,0,0.2,0.1,0.3,0.2
		c0.1,0.1,0.1,0.2,0.1,0.4C418.8,316.3,418.3,316.5,417.3,316.5z M416.9,310.8c-0.2-0.1-0.4-0.2-0.5-0.2c-0.3,0-0.6,0.3-0.8,0.7
		c-0.2,0.5-0.3,1-0.3,1.5c0,0.2,0,0.4,0,0.6c0.5-0.2,1-0.5,1.3-0.9c0.4-0.4,0.6-0.8,0.6-1.2C417.2,311.2,417.1,311,416.9,310.8z"/>
	<path fill="#A3A0A0" d="M425.4,305.7c-0.1,0.7-0.2,1.2-0.2,1.6c0,0.2,0,0.4,0,0.7c0,0.4-0.1,0.7-0.3,0.9c-0.1,1.8-0.2,3-0.2,3.6
		c0,1.5,0.1,2.8,0.4,4.2c0.1,0.3,0.1,0.6,0.1,0.8c0,0.1,0,0.2-0.1,0.3c-0.1,0.1-0.2,0.2-0.3,0.2c-0.3,0-0.4-0.2-0.5-0.7
		c-0.2-0.9-0.3-1.8-0.3-2.9c-0.3,0.5-0.6,1-1,1.4c-0.5,0.5-1,0.8-1.5,0.8c-0.5,0-0.9-0.2-1.2-0.5c-0.3-0.3-0.4-0.8-0.4-1.3
		c0-0.9,0.4-1.8,1.1-2.8c0.7-1,1.4-1.6,2-1.6c0.3,0,0.7,0.2,1,0.6c0.2-2.9,0.5-5.1,0.8-6.4c0.1-0.3,0.2-0.4,0.4-0.4
		c0.3,0,0.4,0.2,0.4,0.5C425.5,304.7,425.5,305.1,425.4,305.7z M423,311.4c-0.1,0-0.2,0-0.2,0c-0.4,0-0.8,0.4-1.4,1.2
		c-0.6,0.8-0.8,1.5-0.8,2.1c0,0.5,0.2,0.8,0.6,0.8c0.5,0,1.1-0.3,1.6-1c0.5-0.6,0.8-1.3,1-2.1C423.4,312.2,423.2,311.9,423,311.4z"
		/>
</g>
<path id="Path" sketch:type="MSShapeGroup" fill="none" stroke="#DDDDDD" d="M96.4,119.8c2.7-26.4,35.3-38.3,57.1-42"/>
<path id="Path_1_" sketch:type="MSShapeGroup" fill="none" stroke="#DDDDDD" d="M91,112c4,15.1,5.2,8.2,12.8,0"/>
<path id="Path_2_" sketch:type="MSShapeGroup" fill="none" stroke="#979797" d="M436.6,313c9.8,7.6,9.3,17.7,9.3,28.7"/>
<path id="Path_3_" sketch:type="MSShapeGroup" fill="none" stroke="#979797" d="M438.5,332.5c15.5,16.7,3.9,14.3,15.5-3.2"/>
</svg>
