<?xml version="1.0" encoding="utf-8"?>
<!-- Generator: Adobe Illustrator 18.0.0, SVG Export Plug-In . SVG Version: 6.00 Build 0)  -->
<!DOCTYPE svg PUBLIC "-//W3C//DTD SVG 1.1//EN" "http://www.w3.org/Graphics/SVG/1.1/DTD/svg11.dtd">
<svg version="1.1" id="Layer_1" xmlns="http://www.w3.org/2000/svg" xmlns:xlink="http://www.w3.org/1999/xlink" x="0px" y="0px"
	 viewBox="965.8 70.3 84.9 93.7" enable-background="new 965.8 70.3 84.9 93.7" xml:space="preserve">
<g>
	<path fill="#8CC150" d="M973.8,114.9l17.9,17.1c0.2,0.2,0.6,0.2,0.8,0l15.3-13.7l15.4,13.6c0.2,0.2,0.7,0.2,1,0l18.4-17.1
		c0,0,6.1,3.2,7.7,12.3c0.3,1.8,1,6.7-1.2,11.5c-2,4.2-6.8,8.2-8.8,10.2c-6.1,6.1-13.7,13.2-15.7,15c-0.2,0.2-0.6,0.2-1,0
		l-15.3-13.3c-0.2-0.2-0.6-0.2-0.9,0l-14.7,13.2c-0.3,0.3-0.8,0.2-1.1,0l-21-21c-2.6-2.6-4.4-6-4.8-9.6
		C965.3,127.7,966.1,120.2,973.8,114.9z"/>
	<path fill="#81AEDD" d="M992.4,113.5l15.9-15.1l16.3,15.1c0,0,9.5-5.8,6.1-16.6c-0.8-2.5-2.2-4.9-4.1-6.8l-18.4-19.7L989,91
		c-2.9,3.2-4.5,7.4-4,11.7C985.5,106.3,987.3,110.3,992.4,113.5z"/>
</g>
</svg>
