<?xml version="1.0" encoding="utf-8"?>
<!-- Generator: Adobe Illustrator 18.0.0, SVG Export Plug-In . SVG Version: 6.00 Build 0)  -->
<!DOCTYPE svg PUBLIC "-//W3C//DTD SVG 1.1//EN" "http://www.w3.org/Graphics/SVG/1.1/DTD/svg11.dtd">
<svg version="1.1" id="Layer_1" xmlns="http://www.w3.org/2000/svg" xmlns:xlink="http://www.w3.org/1999/xlink" x="0px" y="0px"
	 viewBox="0 0 570.6 197.7" enable-background="new 0 0 570.6 197.7" xml:space="preserve">
<g>
	<path fill="#8CC150" d="M235.5,55.1L258,76.6c0.3,0.3,0.7,0.3,1,0l19.2-17.2l19.4,17.1c0.3,0.3,0.9,0.3,1.2,0l23.1-21.5
		c0,0,7.7,4,9.7,15.5c0.4,2.2,1.3,8.4-1.5,14.4c-2.5,5.3-8.6,10.3-11,12.8c-7.7,7.6-17.2,16.6-19.7,18.8c-0.3,0.3-0.8,0.3-1.2,0
		L279,99.8c-0.3-0.3-0.8-0.3-1.1,0l-18.4,16.6c-0.4,0.4-1,0.3-1.4,0L231.7,90c-3.3-3.3-5.5-7.5-6-12.1
		C224.9,71.1,225.9,61.7,235.5,55.1z"/>
	<path fill="#81AEDD" d="M258.9,53.3l20-19l20.5,19c0,0,11.9-7.3,7.6-20.8c-1-3.2-2.8-6.1-5.1-8.6L278.8-0.9l-24.2,26
		c-3.7,4-5.6,9.3-5,14.7C250.2,44.2,252.5,49.3,258.9,53.3z"/>
</g>
<g>
	<path fill="#707071" d="M172.5,139.1h1.7v8c0,3.3,1.4,4.3,3.2,4.3c1.8,0,3.2-1,3.2-4.3v-8h1.6v7.9c0,4.4-2.1,5.8-4.8,5.8
		s-4.9-1.5-4.9-5.8V139.1z"/>
	<path fill="#707071" d="M185.7,142.6h1.4l0.1,1.4h0.1c0.9-0.9,2-1.7,3.4-1.7c2.1,0,3.1,1.4,3.1,3.9v6.4H192v-6.1
		c0-1.9-0.6-2.7-1.9-2.7c-1,0-1.7,0.5-2.7,1.5v7.3h-1.7V142.6z"/>
	<path fill="#707071" d="M196.7,139.5c0-0.7,0.5-1.1,1.2-1.1c0.7,0,1.2,0.4,1.2,1.1c0,0.6-0.5,1.1-1.2,1.1
		C197.2,140.6,196.7,140.1,196.7,139.5z M197,142.6h1.7v10H197V142.6z"/>
	<path fill="#707071" d="M200.6,142.6h1.8l1.9,5.7c0.3,1,0.6,2,0.9,2.9h0.1c0.3-0.9,0.6-2,0.9-2.9l1.9-5.7h1.7l-3.5,10h-2
		L200.6,142.6z"/>
	<path fill="#707071" d="M215.4,142.4c2.6,0,4,1.8,4,4.7c0,0.4,0,0.7-0.1,0.9h-6.8c0.1,2.2,1.4,3.5,3.3,3.5c0.9,0,1.8-0.3,2.5-0.8
		l0.6,1.1c-0.9,0.6-1.9,1-3.3,1c-2.7,0-4.8-2-4.8-5.2C210.9,144.4,213.1,142.4,215.4,142.4z M217.9,146.9c0-2-0.9-3.2-2.5-3.2
		c-1.4,0-2.7,1.2-2.9,3.2H217.9z"/>
	<path fill="#707071" d="M221.8,142.6h1.4l0.1,1.8h0.1c0.7-1.3,1.7-2.1,2.8-2.1c0.4,0,0.7,0.1,1.1,0.2l-0.3,1.5
		c-0.3-0.1-0.6-0.2-1-0.2c-0.8,0-1.9,0.6-2.5,2.3v6.4h-1.7V142.6z"/>
	<path fill="#707071" d="M228.5,150.4c0.9,0.7,1.8,1.2,2.9,1.2c1.3,0,2-0.7,2-1.6c0-1-1.2-1.5-2.3-1.9c-1.4-0.5-3-1.2-3-2.9
		c0-1.6,1.3-2.8,3.4-2.8c1.3,0,2.4,0.5,3.1,1.1l-0.8,1.1c-0.7-0.5-1.4-0.9-2.3-0.9c-1.3,0-1.8,0.7-1.8,1.4c0,0.9,1.1,1.3,2.2,1.7
		c1.4,0.5,3.1,1.1,3.1,3c0,1.6-1.3,3-3.7,3c-1.4,0-2.8-0.6-3.7-1.4L228.5,150.4z"/>
	<path fill="#707071" d="M237.1,139.5c0-0.7,0.5-1.1,1.2-1.1c0.7,0,1.2,0.4,1.2,1.1c0,0.6-0.5,1.1-1.2,1.1
		C237.6,140.6,237.1,140.1,237.1,139.5z M237.4,142.6h1.7v10h-1.7V142.6z"/>
	<path fill="#707071" d="M242.8,144h-1.5v-1.3l1.6-0.1l0.2-2.8h1.4v2.8h2.7v1.4h-2.7v5.6c0,1.2,0.4,1.9,1.5,1.9
		c0.4,0,0.8-0.1,1.1-0.3l0.3,1.3c-0.6,0.2-1.2,0.4-1.9,0.4c-2.1,0-2.9-1.4-2.9-3.3V144z"/>
	<path fill="#707071" d="M249.6,155.6c1.1,0,1.9-0.9,2.3-2.1l0.2-0.7l-4-10h1.8l2,5.5c0.3,0.9,0.7,1.9,1,2.8h0.1
		c0.3-0.9,0.6-1.9,0.8-2.8l1.8-5.5h1.6l-3.8,10.8c-0.7,2-1.7,3.5-3.8,3.5c-0.5,0-0.8-0.1-1.2-0.2l0.3-1.3
		C249,155.5,249.3,155.6,249.6,155.6z"/>
	<path fill="#707071" d="M267.2,142.4c2.5,0,4.6,1.9,4.6,5.3c0,3.3-2.2,5.2-4.6,5.2c-2.5,0-4.6-1.9-4.6-5.2
		C262.5,144.3,264.7,142.4,267.2,142.4z M267.2,151.5c1.7,0,2.9-1.5,2.9-3.8c0-2.3-1.2-3.9-2.9-3.9c-1.7,0-2.9,1.6-2.9,3.9
		C264.3,150,265.5,151.5,267.2,151.5z"/>
	<path fill="#707071" d="M279,139.4c-0.4-0.2-0.8-0.2-1.1-0.2c-0.9,0-1.4,0.7-1.4,1.9v1.6h2.1v1.4h-2.1v8.6h-1.7V144h-1.4v-1.3
		l1.4-0.1V141c0-2,0.9-3.3,2.9-3.3c0.6,0,1.2,0.1,1.7,0.3L279,139.4z"/>
	<path fill="#707071" d="M283.4,139.1h1.8l1.4,7.4c0.2,1.5,0.5,2.9,0.8,4.4h0.1c0.3-1.5,0.6-2.9,0.9-4.4l1.9-7.4h1.6l1.9,7.4
		c0.3,1.4,0.7,2.9,1,4.4h0.1c0.2-1.5,0.5-2.9,0.8-4.4l1.4-7.4h1.6l-2.8,13.5h-2.1l-2-8.1c-0.2-1.1-0.5-2-0.7-3.1H291
		c-0.2,1.1-0.5,2-0.7,3.1l-2,8.1h-2L283.4,139.1z"/>
	<path fill="#707071" d="M306.2,146.3c0-1.3-0.4-2.5-2.1-2.5c-1.2,0-2.2,0.5-3,1.1l-0.7-1.2c0.9-0.6,2.3-1.3,3.9-1.3
		c2.5,0,3.5,1.6,3.5,4.1v6.1h-1.4l-0.1-1.2h0c-1,0.8-2.1,1.4-3.3,1.4c-1.7,0-2.9-1.1-2.9-2.8C300,147.9,301.9,146.8,306.2,146.3z
		 M303.4,151.5c1,0,1.8-0.5,2.7-1.3v-2.8c-3.4,0.4-4.5,1.2-4.5,2.5C301.7,151.1,302.4,151.5,303.4,151.5z"/>
	<path fill="#707071" d="M310.8,150.4c0.9,0.7,1.8,1.2,2.9,1.2c1.3,0,2-0.7,2-1.6c0-1-1.2-1.5-2.3-1.9c-1.4-0.5-3-1.2-3-2.9
		c0-1.6,1.3-2.8,3.4-2.8c1.3,0,2.4,0.5,3.1,1.1l-0.8,1.1c-0.7-0.5-1.4-0.9-2.3-0.9c-1.3,0-1.8,0.7-1.8,1.4c0,0.9,1.1,1.3,2.2,1.7
		c1.4,0.5,3.1,1.1,3.1,3c0,1.6-1.3,3-3.7,3c-1.4,0-2.8-0.6-3.7-1.4L310.8,150.4z"/>
	<path fill="#707071" d="M319.7,138h1.7v4l-0.1,2.1c0.9-0.9,2-1.6,3.3-1.6c2.1,0,3.1,1.4,3.1,3.9v6.4H326v-6.1
		c0-1.9-0.6-2.7-1.9-2.7c-1,0-1.7,0.5-2.7,1.5v7.3h-1.7V138z"/>
	<path fill="#707071" d="M330.6,139.5c0-0.7,0.5-1.1,1.2-1.1c0.7,0,1.2,0.4,1.2,1.1c0,0.6-0.5,1.1-1.2,1.1
		C331.1,140.6,330.6,140.1,330.6,139.5z M330.9,142.6h1.7v10h-1.7V142.6z"/>
	<path fill="#707071" d="M336,142.6h1.4l0.1,1.4h0.1c0.9-0.9,2-1.7,3.4-1.7c2.1,0,3.1,1.4,3.1,3.9v6.4h-1.7v-6.1
		c0-1.9-0.6-2.7-1.9-2.7c-1,0-1.7,0.5-2.7,1.5v7.3H336V142.6z"/>
	<path fill="#707071" d="M348,152.3L348,152.3c-0.5-0.4-0.9-0.9-0.9-1.7c0-0.8,0.6-1.5,1.1-1.9v-0.1c-0.7-0.5-1.3-1.5-1.3-2.7
		c0-2.2,1.7-3.6,3.8-3.6c0.6,0,1.1,0.1,1.4,0.2h3.5v1.3h-2.1c0.5,0.5,0.8,1.2,0.8,2.1c0,2.1-1.6,3.5-3.7,3.5c-0.5,0-1.1-0.1-1.5-0.4
		c-0.3,0.3-0.6,0.6-0.6,1.2c0,0.6,0.4,1.1,1.8,1.1h1.9c2.3,0,3.5,0.7,3.5,2.4c0,1.9-2,3.5-5.1,3.5c-2.5,0-4.1-1-4.1-2.7
		C346.5,153.7,347.1,152.9,348,152.3z M350.9,156.1c1.9,0,3.2-1,3.2-2c0-0.9-0.7-1.2-2-1.2h-1.7c-0.4,0-0.9,0-1.3-0.2
		c-0.7,0.5-1,1.1-1,1.7C348,155.4,349.1,156.1,350.9,156.1z M352.8,146c0-1.5-0.9-2.3-2.1-2.3c-1.2,0-2.1,0.9-2.1,2.3
		c0,1.5,1,2.4,2.1,2.4C351.8,148.3,352.8,147.4,352.8,146z"/>
	<path fill="#707071" d="M358,144h-1.5v-1.3l1.6-0.1l0.2-2.8h1.4v2.8h2.7v1.4h-2.7v5.6c0,1.2,0.4,1.9,1.5,1.9c0.4,0,0.8-0.1,1.1-0.3
		l0.3,1.3c-0.6,0.2-1.2,0.4-1.9,0.4c-2.1,0-2.9-1.4-2.9-3.3V144z"/>
	<path fill="#707071" d="M368.3,142.4c2.5,0,4.6,1.9,4.6,5.3c0,3.3-2.2,5.2-4.6,5.2c-2.5,0-4.6-1.9-4.6-5.2
		C363.7,144.3,365.9,142.4,368.3,142.4z M368.3,151.5c1.7,0,2.9-1.5,2.9-3.8c0-2.3-1.2-3.9-2.9-3.9c-1.7,0-2.9,1.6-2.9,3.9
		C365.4,150,366.6,151.5,368.3,151.5z"/>
	<path fill="#707071" d="M375.6,142.6h1.4l0.1,1.4h0.1c0.9-0.9,2-1.7,3.4-1.7c2.1,0,3.1,1.4,3.1,3.9v6.4h-1.7v-6.1
		c0-1.9-0.6-2.7-1.9-2.7c-1,0-1.7,0.5-2.7,1.5v7.3h-1.7V142.6z"/>
</g>
<g>
	<path fill="#1F8842" d="M0,165.5h12v3H3.5v5.1h7.2v3H3.5v5.9h8.8v3H0V165.5z"/>
	<path fill="#1F8842" d="M16.1,170.4H19l0.2,2h0.1c1.3-1.3,2.9-2.4,4.9-2.4c3.2,0,4.6,2.2,4.6,6v9.4h-3.5v-9c0-2.5-0.7-3.4-2.4-3.4
		c-1.3,0-2.2,0.6-3.4,1.9v10.5h-3.5V170.4z"/>
	<path fill="#1F8842" d="M31.4,170.4H35l2.4,7.8c0.4,1.5,0.9,3,1.3,4.5h0.1c0.4-1.5,0.9-3.1,1.3-4.5l2.4-7.8h3.4l-5.1,15h-4.1
		L31.4,170.4z"/>
	<path fill="#1F8842" d="M48,165.8c0-1.2,0.9-2,2.2-2c1.3,0,2.2,0.8,2.2,2c0,1.2-0.9,2-2.2,2C48.9,167.8,48,167,48,165.8z
		 M48.4,170.4h3.5v15h-3.5V170.4z"/>
	<path fill="#1F8842" d="M56.4,170.4h2.9l0.2,2.7h0.1c1.1-2,2.7-3,4.2-3c0.8,0,1.3,0.1,1.7,0.3l-0.6,3.1c-0.5-0.2-0.9-0.2-1.6-0.2
		c-1.2,0-2.6,0.8-3.5,3.1v9.2h-3.5V170.4z"/>
	<path fill="#1F8842" d="M73.6,170.1c3.8,0,7.1,2.9,7.1,7.9c0,5-3.4,7.9-7.1,7.9c-3.7,0-7.1-2.9-7.1-7.9
		C66.5,173,69.9,170.1,73.6,170.1z M73.6,182.9c2.2,0,3.5-2,3.5-5c0-3-1.3-5-3.5-5c-2.2,0-3.5,2-3.5,5
		C70.1,181,71.4,182.9,73.6,182.9z"/>
	<path fill="#1F8842" d="M84.2,170.4h2.9l0.2,2h0.1c1.3-1.3,2.9-2.4,4.9-2.4c3.2,0,4.6,2.2,4.6,6v9.4h-3.5v-9c0-2.5-0.7-3.4-2.4-3.4
		c-1.3,0-2.2,0.6-3.4,1.9v10.5h-3.5V170.4z"/>
	<path fill="#1F8842" d="M101.3,170.4h2.9l0.2,2h0.1c1.3-1.3,2.7-2.4,4.6-2.4c2.2,0,3.5,1,4.2,2.7c1.4-1.5,2.9-2.7,4.8-2.7
		c3.2,0,4.6,2.2,4.6,6v9.4h-3.5v-9c0-2.5-0.7-3.4-2.3-3.4c-0.9,0-2,0.6-3.1,1.9v10.5h-3.5v-9c0-2.5-0.7-3.4-2.3-3.4
		c-0.9,0-2,0.6-3.1,1.9v10.5h-3.5V170.4z"/>
	<path fill="#1F8842" d="M133,170.1c4.1,0,6.2,2.9,6.2,7.1c0,0.7-0.1,1.3-0.2,1.6h-9.5c0.3,2.7,2,4.2,4.4,4.2c1.3,0,2.4-0.4,3.5-1.1
		l1.2,2.2c-1.4,0.9-3.2,1.6-5.1,1.6c-4.2,0-7.4-2.9-7.4-7.9C126.1,173.1,129.5,170.1,133,170.1z M136.2,176.6c0-2.4-1-3.8-3.1-3.8
		c-1.8,0-3.3,1.3-3.6,3.8H136.2z"/>
	<path fill="#1F8842" d="M142.6,170.4h2.9l0.2,2h0.1c1.3-1.3,2.9-2.4,4.9-2.4c3.2,0,4.6,2.2,4.6,6v9.4h-3.5v-9
		c0-2.5-0.7-3.4-2.4-3.4c-1.3,0-2.2,0.6-3.4,1.9v10.5h-3.5V170.4z"/>
	<path fill="#1F8842" d="M160.2,173.2h-2.1v-2.6l2.3-0.2l0.4-4.1h2.9v4.1h3.8v2.8h-3.8v7.1c0,1.8,0.7,2.6,2.1,2.6
		c0.5,0,1.1-0.2,1.6-0.3l0.6,2.6c-0.8,0.3-1.9,0.5-3.1,0.5c-3.5,0-4.8-2.2-4.8-5.4V173.2z"/>
	<path fill="#1F8842" d="M178.5,175.9c0-1.6-0.7-2.9-2.7-2.9c-1.5,0-2.9,0.7-4.2,1.5l-1.3-2.4c1.6-1,3.8-2,6.1-2
		c3.8,0,5.6,2.3,5.6,6.5v8.9h-2.9l-0.3-1.6h-0.1c-1.3,1.1-2.9,2-4.6,2c-2.6,0-4.5-1.8-4.5-4.4C169.6,178.2,172.3,176.5,178.5,175.9z
		 M175.2,183.1c1.2,0,2.2-0.6,3.3-1.6v-3.4c-4.1,0.5-5.4,1.6-5.4,3.1C173.1,182.5,173.9,183.1,175.2,183.1z"/>
	<path fill="#1F8842" d="M186.3,163.9h3.5v17.9c0,0.9,0.4,1.2,0.8,1.2c0.2,0,0.3,0,0.5-0.1l0.5,2.6c-0.4,0.2-1,0.3-1.9,0.3
		c-2.5,0-3.4-1.6-3.4-4.2V163.9z"/>
	<path fill="#1F8842" d="M200.9,181.5c1.3,1,2.6,1.7,4.2,1.7c1.6,0,2.4-0.8,2.4-1.8c0-1.3-1.6-1.8-3.2-2.4c-2-0.7-4.2-1.9-4.2-4.4
		c0-2.6,2.1-4.5,5.5-4.5c2.1,0,3.8,0.9,5,1.8l-1.6,2.1c-1-0.8-2.1-1.3-3.3-1.3c-1.5,0-2.2,0.7-2.2,1.6c0,1.2,1.5,1.6,3.1,2.2
		c2,0.8,4.3,1.7,4.3,4.6c0,2.6-2,4.6-5.8,4.6c-2,0-4.2-0.9-5.7-2.1L200.9,181.5z"/>
	<path fill="#1F8842" d="M214.5,173.2h-2.1v-2.6l2.3-0.2l0.4-4.1h2.9v4.1h3.8v2.8H218v7.1c0,1.8,0.7,2.6,2.1,2.6
		c0.5,0,1.1-0.2,1.6-0.3l0.6,2.6c-0.8,0.3-1.9,0.5-3.1,0.5c-3.5,0-4.8-2.2-4.8-5.4V173.2z"/>
	<path fill="#1F8842" d="M230.6,170.1c4.1,0,6.2,2.9,6.2,7.1c0,0.7-0.1,1.3-0.2,1.6h-9.5c0.3,2.7,2,4.2,4.4,4.2
		c1.3,0,2.4-0.4,3.5-1.1l1.2,2.2c-1.4,0.9-3.2,1.6-5.1,1.6c-4.2,0-7.4-2.9-7.4-7.9C223.7,173.1,227.1,170.1,230.6,170.1z
		 M233.8,176.6c0-2.4-1-3.8-3.1-3.8c-1.8,0-3.3,1.3-3.6,3.8H233.8z"/>
	<path fill="#1F8842" d="M238.7,170.4h3.5l1.8,7.8c0.3,1.4,0.5,2.8,0.8,4.3h0.1c0.3-1.5,0.6-2.9,0.9-4.3l2-7.8h3.2l2,7.8
		c0.4,1.4,0.7,2.8,1,4.3h0.1c0.3-1.5,0.5-2.9,0.8-4.3l1.8-7.8h3.3l-3.8,15h-4.2l-1.7-7c-0.3-1.4-0.6-2.8-0.9-4.4h-0.1
		c-0.3,1.6-0.6,3-0.9,4.4l-1.7,7h-4L238.7,170.4z"/>
	<path fill="#1F8842" d="M270.9,175.9c0-1.6-0.7-2.9-2.7-2.9c-1.5,0-2.9,0.7-4.2,1.5l-1.3-2.4c1.6-1,3.8-2,6.1-2
		c3.8,0,5.6,2.3,5.6,6.5v8.9h-2.9l-0.3-1.6h-0.1c-1.3,1.1-2.9,2-4.6,2c-2.6,0-4.5-1.8-4.5-4.4C262.1,178.2,264.8,176.5,270.9,175.9z
		 M267.6,183.1c1.2,0,2.2-0.6,3.3-1.6v-3.4c-4.1,0.5-5.4,1.6-5.4,3.1C265.5,182.5,266.4,183.1,267.6,183.1z"/>
	<path fill="#1F8842" d="M278.7,170.4h2.9l0.2,2.7h0.1c1.1-2,2.7-3,4.2-3c0.8,0,1.3,0.1,1.7,0.3l-0.6,3.1c-0.5-0.2-0.9-0.2-1.6-0.2
		c-1.2,0-2.6,0.8-3.5,3.1v9.2h-3.5V170.4z"/>
	<path fill="#1F8842" d="M295.2,170.1c1.7,0,2.8,0.6,3.9,1.6l-0.1-2.4v-5.4h3.5v21.6h-2.9l-0.2-1.6h-0.1c-1.1,1.1-2.6,2-4.2,2
		c-3.8,0-6.2-2.9-6.2-7.9C288.9,173.1,292,170.1,295.2,170.1z M295.9,182.9c1.2,0,2.1-0.5,3.1-1.7v-7c-1-0.9-2-1.3-3.1-1.3
		c-1.9,0-3.5,1.8-3.5,4.9C292.5,181.2,293.7,182.9,295.9,182.9z"/>
	<path fill="#1F8842" d="M307.2,181.5c1.3,1,2.6,1.7,4.2,1.7c1.6,0,2.4-0.8,2.4-1.8c0-1.3-1.6-1.8-3.2-2.4c-2-0.7-4.2-1.9-4.2-4.4
		c0-2.6,2.1-4.5,5.5-4.5c2.1,0,3.8,0.9,5,1.8l-1.6,2.1c-1-0.8-2.1-1.3-3.3-1.3c-1.5,0-2.2,0.7-2.2,1.6c0,1.2,1.5,1.6,3.1,2.2
		c2,0.8,4.3,1.7,4.3,4.6c0,2.6-2,4.6-5.8,4.6c-2,0-4.2-0.9-5.7-2.1L307.2,181.5z"/>
	<path fill="#1F8842" d="M320.2,163.9h3.5v5.6l-0.1,2.9c1.3-1.2,2.7-2.3,4.8-2.3c3.2,0,4.6,2.2,4.6,6v9.4h-3.5v-9
		c0-2.5-0.7-3.4-2.4-3.4c-1.3,0-2.2,0.6-3.4,1.9v10.5h-3.5V163.9z"/>
	<path fill="#1F8842" d="M336.8,165.8c0-1.2,0.9-2,2.2-2c1.3,0,2.2,0.8,2.2,2c0,1.2-0.9,2-2.2,2C337.8,167.8,336.8,167,336.8,165.8z
		 M337.2,170.4h3.5v15h-3.5V170.4z"/>
	<path fill="#1F8842" d="M348.8,186.7v4.7h-3.5v-20.9h2.9l0.2,1.6h0.1c1.3-1.1,2.9-2,4.5-2c3.7,0,5.9,3,5.9,7.6
		c0,5.1-3.1,8.1-6.4,8.1c-1.3,0-2.6-0.6-3.8-1.6L348.8,186.7z M351.8,182.9c2,0,3.5-1.8,3.5-5.2c0-3-1-4.8-3.2-4.8
		c-1.1,0-2.1,0.5-3.3,1.7v7C349.9,182.6,350.9,182.9,351.8,182.9z"/>
	<path fill="#1F8842" d="M384.6,185.8c-1.5-0.4-3.2-1.1-4.9-2.1c-1.6,1.3-3.6,2.1-6,2.1c-4,0-6.4-2.5-6.4-5.6c0-2.7,1.8-4.4,3.8-5.7
		c-0.8-1.5-1.3-3-1.3-4.4c0-2.7,2-5,5-5c2.7,0,4.4,1.7,4.4,4.2c0,2.6-2.2,4.3-4.3,5.8c1.2,1.6,2.8,3.3,4.6,4.6
		c1.1-1.5,2-3.2,2.5-5.3h3.2c-0.7,2.5-1.9,4.9-3.4,6.9c1.3,0.8,2.5,1.4,3.6,1.6L384.6,185.8z M374.2,183.1c1.1,0,2.2-0.5,3.2-1.2
		c-1.8-1.5-3.5-3.2-4.7-5c-1.1,0.9-1.9,1.9-1.9,3.1C370.7,181.8,372.2,183.1,374.2,183.1z M373.6,173c1.6-1,3-2,3-3.6
		c0-1.1-0.5-1.9-1.6-1.9c-1.3,0-2.1,1-2.1,2.6C372.8,171,373.1,171.9,373.6,173z"/>
	<path fill="#1F8842" d="M394.7,181.5c1.3,1,2.6,1.7,4.2,1.7c1.6,0,2.4-0.8,2.4-1.8c0-1.3-1.6-1.8-3.2-2.4c-2-0.7-4.2-1.9-4.2-4.4
		c0-2.6,2.1-4.5,5.5-4.5c2.1,0,3.8,0.9,5,1.8l-1.6,2.1c-1-0.8-2.1-1.3-3.3-1.3c-1.5,0-2.2,0.7-2.2,1.6c0,1.2,1.5,1.6,3.1,2.2
		c2,0.8,4.3,1.7,4.3,4.6c0,2.6-2,4.6-5.8,4.6c-2,0-4.2-0.9-5.7-2.1L394.7,181.5z"/>
	<path fill="#1F8842" d="M407.5,170.4h3.5v9c0,2.5,0.7,3.4,2.3,3.4c1.3,0,2.2-0.6,3.3-2.1v-10.3h3.5v15h-2.9l-0.3-2.2H417
		c-1.3,1.6-2.8,2.6-4.8,2.6c-3.2,0-4.6-2.2-4.6-6V170.4z"/>
	<path fill="#1F8842" d="M424.8,181.5c1.3,1,2.6,1.7,4.2,1.7c1.6,0,2.4-0.8,2.4-1.8c0-1.3-1.6-1.8-3.2-2.4c-2-0.7-4.2-1.9-4.2-4.4
		c0-2.6,2.1-4.5,5.5-4.5c2.1,0,3.8,0.9,5,1.8l-1.6,2.1c-1-0.8-2.1-1.3-3.3-1.3c-1.5,0-2.2,0.7-2.2,1.6c0,1.2,1.5,1.6,3.1,2.2
		c2,0.8,4.3,1.7,4.3,4.6c0,2.6-2,4.6-5.8,4.6c-2,0-4.2-0.9-5.7-2.1L424.8,181.5z"/>
	<path fill="#1F8842" d="M438.4,173.2h-2.1v-2.6l2.3-0.2l0.4-4.1h2.9v4.1h3.8v2.8h-3.8v7.1c0,1.8,0.7,2.6,2.1,2.6
		c0.5,0,1.1-0.2,1.6-0.3l0.6,2.6c-0.8,0.3-1.9,0.5-3.1,0.5c-3.5,0-4.8-2.2-4.8-5.4V173.2z"/>
	<path fill="#1F8842" d="M456.6,175.9c0-1.6-0.7-2.9-2.7-2.9c-1.5,0-2.9,0.7-4.2,1.5l-1.3-2.4c1.6-1,3.8-2,6.1-2
		c3.8,0,5.6,2.3,5.6,6.5v8.9h-2.9l-0.3-1.6h-0.1c-1.3,1.1-2.9,2-4.6,2c-2.6,0-4.5-1.8-4.5-4.4C447.8,178.2,450.5,176.5,456.6,175.9z
		 M453.3,183.1c1.2,0,2.2-0.6,3.3-1.6v-3.4c-4.1,0.5-5.4,1.6-5.4,3.1C451.2,182.5,452.1,183.1,453.3,183.1z"/>
	<path fill="#1F8842" d="M464,165.8c0-1.2,0.9-2,2.2-2s2.2,0.8,2.2,2c0,1.2-0.9,2-2.2,2S464,167,464,165.8z M464.4,170.4h3.5v15
		h-3.5V170.4z"/>
	<path fill="#1F8842" d="M472.4,170.4h2.9l0.2,2h0.1c1.3-1.3,2.9-2.4,4.9-2.4c3.2,0,4.6,2.2,4.6,6v9.4h-3.5v-9
		c0-2.5-0.7-3.4-2.4-3.4c-1.3,0-2.2,0.6-3.4,1.9v10.5h-3.5V170.4z"/>
	<path fill="#1F8842" d="M497.7,175.9c0-1.6-0.7-2.9-2.7-2.9c-1.5,0-2.9,0.7-4.2,1.5l-1.3-2.4c1.6-1,3.8-2,6.1-2
		c3.8,0,5.6,2.3,5.6,6.5v8.9h-2.9l-0.3-1.6H498c-1.3,1.1-2.9,2-4.6,2c-2.6,0-4.5-1.8-4.5-4.4C488.9,178.2,491.6,176.5,497.7,175.9z
		 M494.4,183.1c1.2,0,2.2-0.6,3.3-1.6v-3.4c-4.1,0.5-5.4,1.6-5.4,3.1C492.3,182.5,493.2,183.1,494.4,183.1z"/>
	<path fill="#1F8842" d="M505.5,163.9h3.5v5.6l-0.1,2.5c1.3-1.1,2.8-1.9,4.3-1.9c3.8,0,5.9,3,5.9,7.6c0,5.2-3.1,8.1-6.4,8.1
		c-1.4,0-2.8-0.7-4.1-1.9h-0.1l-0.3,1.5h-2.8V163.9z M512,182.9c2,0,3.5-1.8,3.5-5.2c0-3-1-4.8-3.2-4.8c-1.1,0-2.1,0.5-3.3,1.7v7
		C510.1,182.6,511.1,182.9,512,182.9z"/>
	<path fill="#1F8842" d="M522.3,165.8c0-1.2,0.9-2,2.2-2c1.3,0,2.2,0.8,2.2,2c0,1.2-0.9,2-2.2,2C523.2,167.8,522.3,167,522.3,165.8z
		 M522.7,170.4h3.5v15h-3.5V170.4z"/>
	<path fill="#1F8842" d="M530.7,163.9h3.5v17.9c0,0.9,0.4,1.2,0.8,1.2c0.2,0,0.3,0,0.5-0.1l0.5,2.6c-0.4,0.2-1,0.3-1.9,0.3
		c-2.5,0-3.4-1.6-3.4-4.2V163.9z"/>
	<path fill="#1F8842" d="M538.6,165.8c0-1.2,0.9-2,2.2-2c1.3,0,2.2,0.8,2.2,2c0,1.2-0.9,2-2.2,2C539.5,167.8,538.6,167,538.6,165.8z
		 M539,170.4h3.5v15H539V170.4z"/>
	<path fill="#1F8842" d="M547.5,173.2h-2.1v-2.6l2.3-0.2l0.4-4.1h2.9v4.1h3.8v2.8h-3.8v7.1c0,1.8,0.7,2.6,2.1,2.6
		c0.5,0,1.1-0.2,1.6-0.3l0.6,2.6c-0.8,0.3-1.9,0.5-3.1,0.5c-3.5,0-4.8-2.2-4.8-5.4V173.2z"/>
	<path fill="#1F8842" d="M558.8,188.8c1.6,0,2.5-1.1,3-2.6l0.3-0.9l-5.9-14.8h3.6l2.6,7.4c0.4,1.3,0.9,2.8,1.3,4.2h0.1
		c0.4-1.4,0.8-2.9,1.1-4.2l2.3-7.4h3.4l-5.4,15.7c-1.3,3.4-2.8,5.5-6.1,5.5c-0.8,0-1.4-0.1-2-0.3l0.6-2.7
		C558,188.7,558.4,188.8,558.8,188.8z"/>
</g>
</svg>
