<?xml version="1.0" encoding="utf-8"?>
<!-- Generator: Adobe Illustrator 18.0.0, SVG Export Plug-In . SVG Version: 6.00 Build 0)  -->
<!DOCTYPE svg PUBLIC "-//W3C//DTD SVG 1.1//EN" "http://www.w3.org/Graphics/SVG/1.1/DTD/svg11.dtd">
<svg version="1.1" id="Layer_1" xmlns:sketch="http://www.bohemiancoding.com/sketch/ns"
	 xmlns="http://www.w3.org/2000/svg" xmlns:xlink="http://www.w3.org/1999/xlink" x="0px" y="0px" viewBox="-98 0 771 194"
	 enable-background="new -98 0 771 194" xml:space="preserve">
<title>results</title>
<description>Created with Sketch.</description>
<g id="Results" transform="translate(1.000000, 30.000000)" sketch:type="MSLayerGroup">
	<g id="noun_59160_cc" transform="translate(458.000000, 0.000000)" sketch:type="MSShapeGroup">
		<g id="Layer_x0020_1">
			<path id="Shape" fill="#DDDDDD" d="M20,39c2-0.3,3-1.2,3-4h-2L20,39L20,39z M67,8c0-4.4-3.7-8-8.6-8C53.7,0,50,3.6,50,8
				s3.7,8,8.4,8C63.3,16,67,12.4,67,8L67,8z M17.9,31v-2.3c0-1.2,0.3-2,0.9-3.2c0.9-1.4,1.5-2.6-1.8-4.3l0.9-1.2
				c4.2,2.3,3.3,4.1,2.1,6.1c-0.3,0.9-0.9,1.7-0.9,2.6V31H17.9L17.9,31z M14.5,31v-2.3c0-1.2,0.5-2,1-3.2c0.5-1.4,1-2.6-1.4-4.3
				l0.5-1.2c3.4,2.3,2.6,4.1,1.9,6.1c-0.5,0.9-0.7,1.7-0.7,2.6V31H14.5L14.5,31z M11.9,32.2h9.6v2V35c0,1.1-0.6,2-1.1,2.8
				c-0.6,0.8-1.1,1.4-2.3,1.7h18.4h6.5V46l7.1-2c0,0,2-0.6,2-2.8V29.1l-4.5,8.5H31.6c-2,0-3.4-1.4-3.4-3.4c0-1.7,1.4-3.4,3.4-3.4
				h11.3l3.1-5.9c1.1-2.8,4-4.8,7.1-4.8h0.6h5.9h0.3H76l7.6,13.9c0.8,1.7,0.3,3.7-1.4,4.5c-1.4,0.8-3.7,0.3-4.5-1.1l-2.5-4.8
				l-2.5,24.6v0.6V76h-4.8V57.6H51.1V76h-4.8V57.6v-2.8l-3.4,0.3V76h-6.5V60.2L26.6,74c-0.8,1.1-2,2-3.4,2c-2.3,0-4.2-2-4.2-4.2
				c0-0.8,0.3-1.7,0.8-2.5l0,0l14.1-19.8c0.6-0.8,1.4-1.4,2.5-1.4v-2H6.8v30H0V39.5h6.8H15c-2-0.6-3.1-2.5-3.1-4.5V32.2L11.9,32.2z
				 M67,28h4l-2.9,25H61c2.6,0,4.6-1.4,5.4-3.3c0.3-0.6,0.6-1.4,0.6-2.2V28.3V28L67,28z"/>
		</g>
	</g>
	<path id="Line" sketch:type="MSShapeGroup" fill="none" stroke="#DDDDDD" stroke-linecap="square" d="M0.5,77.5h571.1"/>
	<g id="noun_26972_cc" transform="translate(236.000000, 6.000000)" sketch:type="MSShapeGroup">
		<g id="Capa_42">
			<g id="Group">
				<g id="Shape_1_">
					<g transform="translate(19.000000, 0.000000)">
						<path fill="#DDDDDD" d="M53.6,15.2c3.8,2.6,9,1.7,11.6-2.2c2.6-3.8,1.7-9-2.2-11.6c-3.8-2.6-9-1.6-11.6,2.2
							C48.8,7.4,49.8,12.6,53.6,15.2L53.6,15.2z"/>
						<path fill="#DDDDDD" d="M64.7,20c-2.7-2-6.3-1.8-8.7,0.2l0,0l-0.1,0.1c0,0-0.1,0.1-0.1,0.1l-7.5,7.4l-8.2-11l-4.2,2.6
							l8.7,15.9c0.5,0.8,1.3,1.4,2.2,1.6c0.1,0,0.2,0,0.4,0.1c1.1,0.1,2.1-0.2,2.9-1l9.4-9.2l-8.7,9.9c-0.9,0.9-2,1.3-3.2,1.3
							c-0.2,0-0.4,0-0.5,0c-0.2,0-0.3,0-0.5-0.1c-1.1-0.2-2.1-0.9-2.7-1.8L42.2,38l-9.7-7.2c-1.6-1.2-3.9-1.2-5.5,0.2L11.2,44.1
							l5.7,6.8l13.1-11l10.1,7.6l-10.1-6.3l-8.6,7.2l3.5-0.4l20.3,2.6c0.5,0.1,1,0.2,1.5,0.2c2.1,0,4.3-1,5.7-2.8l13.6-18
							C68.4,26.8,67.8,22.4,64.7,20L64.7,20z"/>
						<path fill="#DDDDDD" d="M14.4,40.1l-14.7,1.6l1.2,8.8l13.2-1.4L9.8,44L14.4,40.1z"/>
					</g>
					<path fill="#DDDDDD" d="M98.8,17.6c-1.3-0.9-3-0.6-3.9,0.6L71.2,50.9h-61c-1.5,0-2.8,1.3-2.8,2.8c0,0.8,0.3,1.4,0.8,1.9
						l-7.8,11c-0.7,0.9-0.4,2.3,0.5,2.9C1.3,69.9,1.7,70,2.1,70c0.7,0,1.3-0.3,1.7-0.9L9,61.7l66.1-0.2l3.7,6.4
						c0.4,0.7,1.1,1.1,1.8,1.1c0.4,0,0.7-0.1,1-0.3c1-0.6,1.4-1.9,0.8-2.9l-6.8-11.7l23.7-32.7C100.4,20.3,100.1,18.5,98.8,17.6
						L98.8,17.6z M10,60.3l2.7-3.8h59.6l2.1,3.6L10,60.3L10,60.3z"/>
				</g>
				<path id="Shape_2_" fill="#DDDDDD" d="M56.9,24.8l-3.1-5.7l5.3-3.3l4.7,6.3l2-0.8l-5.6-14l-10.3,4.1l5.6,14L56.9,24.8z"/>
			</g>
		</g>
	</g>
	<g id="noun_26970_cc" transform="translate(14.000000, 16.000000)" sketch:type="MSShapeGroup">
		<g id="Capa_40">
			<g id="Group_1_">
				<path id="Shape_3_" fill="#DDDDDD" d="M75.1,13.3c2.8,2.3,7,1.9,9.4-0.9c2.3-2.8,1.9-7-0.9-9.4c-2.8-2.3-7-1.9-9.4,0.9
					C71.8,6.8,72.3,11,75.1,13.3L75.1,13.3z"/>
				<circle id="Oval" fill="#DDDDDD" cx="37.7" cy="18.7" r="2.7"/>
				<circle id="Oval_1_" fill="#DDDDDD" cx="33.1" cy="13.1" r="1.1"/>
				<circle id="Oval_2_" fill="#DDDDDD" cx="19.1" cy="3.1" r="1.1"/>
				<circle id="Oval_3_" fill="#DDDDDD" cx="29.1" cy="8.1" r="2.1"/>
				<circle id="Oval_4_" fill="#DDDDDD" cx="28.7" cy="15.7" r="1.7"/>
				<circle id="Oval_5_" fill="#DDDDDD" cx="33.7" cy="1.7" r="1.7"/>
				<path id="Shape_4_" fill="#DDDDDD" d="M42.7,30.6h7H82l0.9-1l-4.8-6.5l5.7,6.6l-7,7.7l2.7,2.9l10.2-8.4c1.1-1,1.2-2.8,0.2-3.9
					l-8.7-10l0,0c-0.1-0.1-0.2-0.2-0.3-0.3c-1.7-1.5-4-1.8-6-1l-0.1,0L65,20l-14.2-1.4L50,22.8l-2.1-1c-1.4-0.7-3.2-0.4-4.2,0.8
					l-3.6,4.1H5.6c-6.4,0-5.6,3.9-5.6,3.9h5.8H42.7L42.7,30.6z M64.7,25.6c0.1,0,0.2,0,0.4,0c0.1,0,0.2,0,0.3,0l6.8-6.7l-7,7.7h-7.2
					L50.4,23L64.7,25.6L64.7,25.6z"/>
				<path id="Shape_5_" fill="#DDDDDD" d="M94.4,26.7h-4.3l0.5,0.9c0.7,0.9,1,2,0.7,3.1h2.9h5.8C100,30.6,100.8,26.7,94.4,26.7
					L94.4,26.7z"/>
				<path id="Shape_6_" fill="#DDDDDD" d="M90.2,32.4l-10.7,8.8l-3.6-3.9l5.4-5.9c-1.7,0-3.4,0-5.2,0.1c-4.2,0-8.5,0.1-12.9,0.1
					c-4.4,0-8.8,0-13.3,0c-4.4,0-8.9,0-13.3,0c-4.4,0-8.7-0.1-12.9-0.1c-7.1-0.1-13.8-0.2-19.7-0.3c1,2.7,2.9,7.8,4.1,11.1
					c1.4,3.9,4.2,10.3,10.7,12.4l-1.4,5.1h3.3l1.8-4.4c8,0.9,12.6,1.4,27.3,1.4c14.8,0,19.3-0.5,27.3-1.4l1.8,4.4h3.3l-1.4-5.1
					c6.4-2.1,9.2-8.5,10.7-12.4c1.2-3.2,3.1-8.4,4.1-11c-1.6,0-3.2,0.1-4.8,0.1C90.9,31.7,90.6,32.1,90.2,32.4L90.2,32.4z"/>
			</g>
		</g>
	</g>
</g>
<g enable-background="new    ">
	<path fill="#A3A0A0" d="M152.1,145.2c-0.9,0.6-1.8,1.1-2.7,1.4c3.3,1.7,5,3.2,5,4.5c0,0.4-0.2,0.6-0.5,0.6c-0.3,0-0.5-0.2-0.5-0.7
		c-0.5-1.1-2.1-2.3-4.8-3.5c0,1,0.1,1.7,0.1,2.3c0.1,0.7,0.1,1.1,0.1,1.1c0,0.4-0.2,0.6-0.5,0.6c-0.3,0-0.5-0.2-0.5-0.6
		c-0.1-0.8-0.2-2.1-0.2-3.9h-0.1c-0.5,0-0.7-0.2-0.7-0.5c0-0.3,0.3-0.6,0.9-0.6c0-0.4,0.2-1.8,0.4-4.2c-0.5-0.1-0.7-0.3-0.7-0.7
		c0-0.2,0.1-0.5,0.4-0.8c0.6-0.6,1.3-1.2,2-1.6c0.9-0.5,1.6-0.7,2.4-0.7c0.8,0,1.4,0.3,2,0.9c0.5,0.6,0.8,1.4,0.8,2.1
		C155,142.4,154,143.9,152.1,145.2z M153.5,139.6c-0.4-0.3-0.8-0.5-1.2-0.5c-1.1,0-2.2,0.4-3.3,1.3c-0.1,1.3-0.3,3.1-0.5,5.4
		c0.9-0.2,1.8-0.6,2.7-1.2c1.8-1.2,2.8-2.4,2.8-3.7C154,140.4,153.9,140,153.5,139.6z"/>
	<path fill="#A3A0A0" d="M161.8,151.6c-1.4,0-2.4-0.7-3-2c-0.1,0-0.3,0.1-0.5,0.1c-0.6,0-1.1-0.1-1.5-0.3c-0.5-0.3-0.7-0.5-0.7-0.8
		c0-0.4,0.2-0.6,0.5-0.6c0.1,0,0.2,0.1,0.5,0.3c0.3,0.2,0.6,0.3,0.9,0.3c0.1,0,0.2,0,0.3,0c-0.1-0.3-0.1-0.6-0.1-0.8
		c0-0.9,0.2-1.7,0.6-2.5c0.5-0.9,1.1-1.4,1.8-1.4c0.5,0,0.9,0.3,1.4,0.7c0.3,0.4,0.5,0.8,0.5,1.2c0,0.7-0.3,1.4-0.9,2.1
		c-0.5,0.6-1.2,1.1-2,1.5c0.4,0.8,0.9,1.1,1.7,1.1c0.2,0,0.4,0,0.8-0.1c0.3,0,0.5-0.1,0.6-0.1c0.1,0,0.3,0.1,0.4,0.2
		c0.1,0.1,0.2,0.3,0.2,0.4C163.4,151.3,162.9,151.6,161.8,151.6z M161.4,145.2c-0.2-0.2-0.4-0.3-0.6-0.3c-0.4,0-0.7,0.3-0.9,0.8
		s-0.4,1.1-0.4,1.7c0,0.2,0,0.5,0.1,0.7c0.6-0.3,1.1-0.6,1.5-1c0.4-0.4,0.6-0.9,0.6-1.4C161.7,145.6,161.6,145.4,161.4,145.2z"/>
	<path fill="#A3A0A0" d="M167.4,139.4l-0.1,0.1c-0.2,0.8-0.4,1.8-0.5,3c-0.2,1.3-0.3,2.5-0.3,3.4c0,2.2,0.1,4.1,0.3,5.5
		c0,0.2-0.1,0.3-0.3,0.3c-0.3,0-0.5-0.2-0.8-0.6c-0.3-0.4-0.4-0.7-0.4-1c0-0.1,0-0.3,0-0.6c0-0.3,0-0.5,0-0.6c0-0.3,0.1-0.5,0.2-0.7
		c-0.1-0.7-0.1-1.7-0.1-2.8c0-2.3,0.4-4.8,1.2-7.4c0.1-0.2,0.2-0.4,0.3-0.4c0.2,0,0.4,0.1,0.7,0.4c0.3,0.3,0.4,0.5,0.4,0.7
		C168,139,167.8,139.2,167.4,139.4z"/>
	<path fill="#A3A0A0" d="M175.4,147.1c-0.3,0.8-0.4,1.6-0.4,2.4c0,0.3,0,0.6,0.1,0.9c0.1,0.5,0.2,0.8,0.2,0.8c0,0.3-0.2,0.5-0.6,0.5
		c-0.4,0-0.6-0.3-0.6-0.9c0-0.3-0.1-0.8-0.2-1.5c-1,1.2-1.9,1.8-2.9,1.8c-0.5,0-0.9-0.2-1.2-0.7c-0.3-0.4-0.5-0.9-0.5-1.4
		c0-0.8,0.4-1.7,1.1-2.6c0.1-0.2,0.4-0.5,0.8-0.8c1.2-1.1,2.2-1.6,3-1.6c0.2,0,0.4,0.1,0.6,0.2c0.2,0.2,0.3,0.3,0.3,0.5
		c0,0,0,0.1-0.1,0.3c0.1,0.4,0.2,0.8,0.2,1.2c0.1,0.2,0.2,0.3,0.2,0.5C175.4,146.8,175.4,146.9,175.4,147.1z M173.7,145.3
		c-0.2,0-0.6,0.2-1.1,0.6c-0.5,0.3-0.8,0.7-1.1,1c-0.8,0.8-1.1,1.6-1.1,2.2c0,0.6,0.2,0.9,0.7,0.9c0.7,0,1.4-0.4,2-1.3s1-1.7,1-2.5
		C174.2,145.6,174,145.3,173.7,145.3z"/>
	<path fill="#A3A0A0" d="M183.9,145.5c-0.2,0.3-1.1,1-2.5,2.2c0.3,0.5,0.5,1,0.8,1.5c0.3,0.7,0.6,1.2,0.6,1.6
		c-0.1,0.3-0.2,0.5-0.5,0.5c-0.2,0-0.4-0.1-0.5-0.4c0-0.1-0.3-0.6-0.7-1.5c-0.1-0.1-0.3-0.5-0.6-1.1c-0.9,0.8-1.7,1.5-2.3,2.2
		c-0.1,0.1-0.3,0.3-0.4,0.4c-0.1,0.1-0.3,0.2-0.4,0.2c-0.4,0-0.5-0.2-0.5-0.6c0-0.6,1-1.6,3-3.2c-0.2-0.4-0.4-0.7-0.6-0.9
		c-0.1,0-0.2-0.1-0.3-0.2c-0.1-0.1-0.3-0.4-0.6-0.9c-0.3-0.5-0.5-0.8-0.5-0.9c0-0.4,0.2-0.6,0.6-0.6c0.2,0,0.6,0.4,1.2,1.3
		c0.4,0.5,0.7,1.1,1.1,1.6c0.1-0.1,0.8-0.7,2.2-1.9c0.3-0.2,0.5-0.3,0.5-0.3c0.4,0,0.6,0.2,0.6,0.5
		C184.1,145.2,184,145.4,183.9,145.5z"/>
	<path fill="#A3A0A0" d="M187.9,152c-0.3,0-0.4-0.1-0.6-0.4c-0.2-0.1-0.3-0.2-0.3-0.4c0-0.1,0-0.2,0-0.4c0-0.5,0.3-0.8,0.9-0.8
		c0.1,0,0.2,0.1,0.4,0.1c0.3,0.1,0.5,0.5,0.5,1S188.4,152,187.9,152z M189.3,139.7c-0.4,1.6-0.6,3.2-0.7,4.7
		c-0.1,1.5-0.2,2.6-0.2,3.2c0,0.4-0.2,0.6-0.5,0.6c-0.3,0-0.5-0.2-0.5-0.5c0-0.1,0-0.6,0.1-1.6c0.1-1.2,0.1-2.1,0.2-2.7
		c0.1-1.1,0.3-2.2,0.5-3.1c0-0.1-0.1-0.2-0.1-0.3c0,0,0-0.1,0.1-0.3c0-0.2,0.1-0.4,0.3-0.7c0.3-0.3,0.5-0.4,0.7-0.4
		c0.3,0,0.5,0.2,0.5,0.6C189.5,139.2,189.4,139.4,189.3,139.7z"/>
	<path fill="#A3A0A0" d="M208,139c-0.6,2.1-1,4.6-1,7.4c0,0.8,0.1,1.9,0.3,3.3c0,0.1,0,0.3,0.1,0.5c0,0.4-0.2,0.5-0.5,0.5
		c-0.1,0-0.2-0.1-0.4-0.2c-0.1,0-0.3-0.1-0.4-0.3c-2.3-2.7-4.2-5.3-5.7-7.8c-0.5,2.8-0.7,5.3-0.8,7.5h0.2c0,0.1,0.1,0.2,0.1,0.3
		c0,0.5-0.1,1.3-0.3,2.3c-0.1,0.3-0.3,0.5-0.5,0.5c-0.1,0-0.3-0.1-0.4-0.2c-0.1-0.1-0.1-0.3-0.1-0.4v-1.6c0-3,0.4-6.4,1.2-10.1
		c-0.1-0.1-0.1-0.2-0.1-0.2c0-0.1,0.1-0.3,0.3-0.4c0.1-0.2,0.3-0.3,0.4-0.3c0.4,0,0.6,0.2,0.6,0.6c0,0.1,0,0.2-0.1,0.4
		c0,0.2,0.3,0.8,0.7,1.6c0.8,1.5,2.4,3.7,4.7,6.5c-0.1-0.7-0.2-1.7-0.2-2.9c0-1,0.1-2.3,0.3-3.9c0.2-1.7,0.5-2.9,0.8-3.7
		c0.1-0.3,0.3-0.4,0.5-0.4c0.1,0,0.2,0.1,0.3,0.2c0.1,0.1,0.1,0.3,0.1,0.4C208.1,138.5,208.1,138.7,208,139z"/>
	<path fill="#A3A0A0" d="M214.7,148.7c-0.1,0.1-0.1,0.4-0.2,0.6c-0.2,0.5-0.5,0.9-1,1.3c-0.5,0.4-1,0.6-1.4,0.6
		c-0.8,0-1.4-0.3-1.8-1c-0.5-0.6-0.7-1.3-0.7-2.1c0-0.7,0.2-1.5,0.5-2.2c0.4-0.8,0.9-1.3,1.5-1.6c0.3-0.2,0.6-0.3,0.7-0.5
		c0.1,0,0.2,0,0.3,0c0,0,0.2,0,0.4,0.1c0.6,0.2,1.1,0.6,1.5,1.2c0.4,0.6,0.6,1.2,0.6,1.9C215,147.7,214.9,148.3,214.7,148.7z
		 M213.2,145.5c-0.3,0-0.5-0.1-0.7-0.2c-0.6,0-1.1,0.4-1.5,1c-0.3,0.5-0.5,1.2-0.5,1.9c0,0.6,0.1,1,0.4,1.4c0.3,0.4,0.6,0.6,1,0.6
		c0.5,0,0.9-0.3,1.3-1c0.4-0.6,0.6-1.2,0.6-1.8C214,146.4,213.7,145.9,213.2,145.5z"/>
	<path fill="#A3A0A0" d="M228.7,145.2c-0.3,0.1-0.6,0.2-0.7,0.2c0,0-0.1,0-0.4-0.1c-1.5,0.7-2.5,2.2-2.8,4.5
		c-0.2,1.2-0.4,1.8-0.6,1.8c-0.2,0-0.4-0.1-0.5-0.3s-0.2-0.4-0.2-0.7c0-0.2,0.1-0.5,0.2-0.9c0.1-0.5,0.1-1,0.1-1.5
		c0-0.5-0.1-1-0.2-1.6c-0.2-0.2-0.3-0.5-0.4-0.7c-0.1-0.5-0.1-0.9-0.1-1.2c0-0.1,0-0.2,0.1-0.4c0.1-0.1,0.1-0.2,0.2-0.2
		c0.4,0,0.7,0.3,0.8,1c0.1,0.7,0.3,1.2,0.3,1.5c0.4-0.8,1-1.5,1.7-2.1c0.7-0.5,1.4-0.8,2.1-0.8c0.2,0,0.4,0.1,0.5,0.3
		c0.1,0.2,0.2,0.4,0.2,0.6C229.3,144.8,229.1,145,228.7,145.2z"/>
	<path fill="#A3A0A0" d="M235.2,151.6c-1.4,0-2.4-0.7-3-2c-0.1,0-0.3,0.1-0.5,0.1c-0.6,0-1.1-0.1-1.5-0.3c-0.5-0.3-0.7-0.5-0.7-0.8
		c0-0.4,0.2-0.6,0.5-0.6c0.1,0,0.2,0.1,0.5,0.3c0.3,0.2,0.6,0.3,0.9,0.3c0.1,0,0.2,0,0.3,0c-0.1-0.3-0.1-0.6-0.1-0.8
		c0-0.9,0.2-1.7,0.6-2.5c0.5-0.9,1.1-1.4,1.8-1.4c0.5,0,0.9,0.3,1.4,0.7c0.3,0.4,0.5,0.8,0.5,1.2c0,0.7-0.3,1.4-0.9,2.1
		c-0.5,0.6-1.2,1.1-2,1.5c0.4,0.8,0.9,1.1,1.7,1.1c0.2,0,0.4,0,0.8-0.1c0.3,0,0.5-0.1,0.6-0.1c0.1,0,0.3,0.1,0.4,0.2
		c0.1,0.1,0.2,0.3,0.2,0.4C236.8,151.3,236.3,151.6,235.2,151.6z M234.8,145.2c-0.2-0.2-0.4-0.3-0.6-0.3c-0.4,0-0.7,0.3-0.9,0.8
		s-0.4,1.1-0.4,1.7c0,0.2,0,0.5,0.1,0.7c0.6-0.3,1.1-0.6,1.5-1c0.4-0.4,0.6-0.9,0.6-1.4C235.1,145.6,235,145.4,234.8,145.2z"/>
	<path fill="#A3A0A0" d="M242.4,144.8c-0.1,0-0.3,0-0.5,0c-0.2,0-0.4,0-0.5,0c-0.6,0-0.9,0.3-0.9,0.8c0,0.2,0.1,0.5,0.3,1.1
		c0.2,0.4,0.3,0.9,0.5,1.3c0.4,1.1,0.6,1.9,0.6,2.3c0,0.6-0.3,1-0.8,1.3c-0.4,0.2-1,0.4-1.7,0.4c-1.1,0-1.7-0.2-1.7-0.6
		c0-0.5,0.1-0.7,0.5-0.7c0.1,0,0.3,0,0.6,0.1c0.3,0.1,0.5,0.1,0.7,0.1c0.9,0,1.3-0.3,1.3-0.8c0-0.3-0.3-1.1-0.8-2.6
		c-0.1-0.3-0.3-0.7-0.4-1c-0.1-0.3-0.2-0.7-0.2-1c0-0.8,0.4-1.3,1.2-1.6c0.1-0.3,0.4-0.4,0.9-0.4c0.2,0,0.5,0.1,0.8,0.1
		c0.2,0.1,0.3,0.2,0.4,0.6c0,0.1,0.1,0.2,0.1,0.4C242.9,144.7,242.8,144.8,242.4,144.8z"/>
	<path fill="#A3A0A0" d="M249.2,147.7c-0.6,0.5-1.6,1-3,1.5c0,0.5,0.1,0.9,0.1,1.3c0,1.4-0.1,2.6-0.3,3.8c-0.1,0.6-0.3,0.8-0.6,0.8
		c-0.4,0-0.6-0.2-0.6-0.6c0-0.1,0.1-0.3,0.2-0.8c0.1-0.5,0.2-1.2,0.2-2.2v-1c0-0.2,0-0.5,0-0.9c-0.5,0-0.8-0.2-0.8-0.6
		c0-0.3,0.2-0.5,0.7-0.7c0-0.1,0-0.2,0-0.4s0-0.3,0-0.4c0-1.3,0.2-2.5,0.7-3.7c0.6-1.5,1.4-2.3,2.4-2.3c0.8,0,1.3,0.3,1.7,0.9
		c0.4,0.5,0.5,1.2,0.5,2.1C250.5,145.9,250.1,146.9,249.2,147.7z M249.1,143.3c-0.2-0.3-0.5-0.5-0.9-0.5c-0.3,0-0.7,0.2-1,0.7
		c-0.7,1-1,2.5-1.1,4.6c1.1-0.4,1.9-0.8,2.3-1.2c0.6-0.6,0.9-1.4,0.9-2.5C249.5,144,249.4,143.6,249.1,143.3z"/>
	<path fill="#A3A0A0" d="M257.5,148.7c-0.1,0.1-0.1,0.4-0.2,0.6c-0.2,0.5-0.5,0.9-1,1.3c-0.5,0.4-1,0.6-1.4,0.6
		c-0.8,0-1.4-0.3-1.8-1c-0.5-0.6-0.7-1.3-0.7-2.1c0-0.7,0.2-1.5,0.5-2.2c0.4-0.8,0.9-1.3,1.5-1.6c0.3-0.2,0.6-0.3,0.7-0.5
		c0.1,0,0.2,0,0.3,0c0,0,0.2,0,0.4,0.1c0.6,0.2,1.1,0.6,1.5,1.2c0.4,0.6,0.6,1.2,0.6,1.9C257.8,147.7,257.7,148.3,257.5,148.7z
		 M256,145.5c-0.3,0-0.5-0.1-0.7-0.2c-0.6,0-1.1,0.4-1.5,1c-0.3,0.5-0.5,1.2-0.5,1.9c0,0.6,0.1,1,0.4,1.4c0.3,0.4,0.6,0.6,1,0.6
		c0.5,0,0.9-0.3,1.3-1c0.4-0.6,0.6-1.2,0.6-1.8C256.7,146.4,256.5,145.9,256,145.5z"/>
	<path fill="#A3A0A0" d="M265.8,148.7c-0.1,0.6-0.1,1.4-0.3,2.4c0,0.2-0.1,0.3-0.3,0.3c-0.2,0-0.4-0.1-0.5-0.3
		c-0.1-0.2-0.2-0.4-0.2-0.6c0-0.3,0.1-0.6,0.1-1.2l0.3-3c-1.7,1.2-2.9,2.5-3.5,3.8c-0.1,0.3-0.2,0.5-0.3,0.7
		c-0.1,0.3-0.2,0.4-0.3,0.4c-0.4,0-0.6-0.2-0.7-0.6c-0.2-0.6-0.3-1.5-0.3-2.5c0-1.1,0.2-2.6,0.6-4.4c0-0.2,0.1-0.3,0.3-0.3
		c0.2,0,0.4,0.1,0.6,0.3c0.1,0.2,0.2,0.4,0.2,0.6c0,0.2-0.1,0.4-0.1,0.6c-0.3,1.2-0.4,2.6-0.4,4.1c1.4-1.9,2.9-3.2,4.3-4.1
		c0.2,0,0.4,0.1,0.6,0.3c0.2,0.2,0.3,0.4,0.3,0.5C266,146.5,265.9,147.5,265.8,148.7z"/>
	<path fill="#A3A0A0" d="M272.1,144.8c-0.1,0-0.3,0-0.5,0c-0.2,0-0.4,0-0.5,0c-0.6,0-0.9,0.3-0.9,0.8c0,0.2,0.1,0.5,0.3,1.1
		c0.2,0.4,0.3,0.9,0.5,1.3c0.4,1.1,0.6,1.9,0.6,2.3c0,0.6-0.3,1-0.8,1.3c-0.4,0.2-1,0.4-1.7,0.4c-1.1,0-1.7-0.2-1.7-0.6
		c0-0.5,0.1-0.7,0.5-0.7c0.1,0,0.3,0,0.6,0.1c0.3,0.1,0.5,0.1,0.7,0.1c0.9,0,1.3-0.3,1.3-0.8c0-0.3-0.3-1.1-0.8-2.6
		c-0.1-0.3-0.3-0.7-0.4-1c-0.1-0.3-0.2-0.7-0.2-1c0-0.8,0.4-1.3,1.2-1.6c0.1-0.3,0.4-0.4,0.9-0.4c0.2,0,0.5,0.1,0.8,0.1
		c0.2,0.1,0.3,0.2,0.4,0.6c0,0.1,0.1,0.2,0.1,0.4C272.6,144.7,272.4,144.8,272.1,144.8z"/>
	<path fill="#A3A0A0" d="M279.2,151.6c-1.4,0-2.4-0.7-3-2c-0.1,0-0.3,0.1-0.5,0.1c-0.6,0-1.1-0.1-1.5-0.3c-0.5-0.3-0.7-0.5-0.7-0.8
		c0-0.4,0.2-0.6,0.5-0.6c0.1,0,0.2,0.1,0.5,0.3c0.3,0.2,0.6,0.3,0.9,0.3c0.1,0,0.2,0,0.3,0c-0.1-0.3-0.1-0.6-0.1-0.8
		c0-0.9,0.2-1.7,0.6-2.5c0.5-0.9,1.1-1.4,1.8-1.4c0.5,0,0.9,0.3,1.4,0.7c0.3,0.4,0.5,0.8,0.5,1.2c0,0.7-0.3,1.4-0.9,2.1
		c-0.5,0.6-1.2,1.1-2,1.5c0.4,0.8,0.9,1.1,1.7,1.1c0.2,0,0.4,0,0.8-0.1c0.3,0,0.5-0.1,0.6-0.1c0.1,0,0.3,0.1,0.4,0.2
		c0.1,0.1,0.2,0.3,0.2,0.4C280.8,151.3,280.3,151.6,279.2,151.6z M278.8,145.2c-0.2-0.2-0.4-0.3-0.6-0.3c-0.4,0-0.7,0.3-0.9,0.8
		s-0.4,1.1-0.4,1.7c0,0.2,0,0.5,0.1,0.7c0.6-0.3,1.1-0.6,1.5-1c0.4-0.4,0.6-0.9,0.6-1.4C279.1,145.6,279,145.4,278.8,145.2z"/>
	<path fill="#A3A0A0" d="M286.5,144.8c-0.1,0-0.3,0-0.5,0c-0.2,0-0.4,0-0.5,0c-0.6,0-0.9,0.3-0.9,0.8c0,0.2,0.1,0.5,0.3,1.1
		c0.2,0.4,0.3,0.9,0.5,1.3c0.4,1.1,0.6,1.9,0.6,2.3c0,0.6-0.3,1-0.8,1.3c-0.4,0.2-1,0.4-1.7,0.4c-1.1,0-1.7-0.2-1.7-0.6
		c0-0.5,0.1-0.7,0.5-0.7c0.1,0,0.3,0,0.6,0.1c0.3,0.1,0.5,0.1,0.7,0.1c0.9,0,1.3-0.3,1.3-0.8c0-0.3-0.3-1.1-0.8-2.6
		c-0.1-0.3-0.3-0.7-0.4-1c-0.1-0.3-0.2-0.7-0.2-1c0-0.8,0.4-1.3,1.2-1.6c0.1-0.3,0.4-0.4,0.9-0.4c0.2,0,0.5,0.1,0.8,0.1
		c0.2,0.1,0.3,0.2,0.4,0.6c0,0.1,0.1,0.2,0.1,0.4C286.9,144.7,286.8,144.8,286.5,144.8z"/>
	<path fill="#A3A0A0" d="M302,138.7c-1.3,0.1-2.2,0.7-2.9,1.8c-0.9,1.4-1.5,3.3-1.7,5.7c0.7-0.1,1.7-0.4,3.1-0.7
		c0.4-0.1,0.7-0.1,1.1-0.1c0.4,0,0.6,0.2,0.6,0.6c0,0.2-0.1,0.4-0.3,0.5c-0.2,0.1-0.4,0.2-0.6,0.2c-0.1,0-0.2,0-0.3-0.1
		c-0.7,0.1-2,0.4-3.7,0.8c-0.4,3.5-0.9,5.9-1.5,7.1c-0.3,0.4-0.5,0.7-0.6,0.7s-0.3-0.1-0.5-0.3c-0.1-0.2-0.2-0.3-0.2-0.5
		c0-0.2,0-0.3,0.1-0.4c0.1-0.1,0.2-0.2,0.3-0.3c0.5-0.5,1-2.5,1.4-6.1c-0.7,0.2-1.1,0.2-1.3,0.2c-0.1,0-0.3-0.1-0.4-0.2
		c-0.1-0.1-0.1-0.3-0.1-0.4c0-0.4,0.2-0.6,0.5-0.6c0.2,0,0.4,0,0.8-0.1c0.1,0,0.3-0.1,0.6-0.2c0.4-3.7,1.5-6.3,3.1-7.7
		c0.2-0.2,0.6-0.4,1.2-0.7c0.5-0.3,0.9-0.4,1.2-0.4c0.5,0,0.7,0.1,0.7,0.4C302.4,138.3,302.3,138.6,302,138.7z"/>
	<path fill="#A3A0A0" d="M308.1,148.7c-0.1,0.1-0.1,0.4-0.2,0.6c-0.2,0.5-0.5,0.9-1,1.3s-1,0.6-1.4,0.6c-0.8,0-1.4-0.3-1.8-1
		c-0.4-0.6-0.7-1.3-0.7-2.1c0-0.7,0.2-1.5,0.5-2.2c0.4-0.8,0.9-1.3,1.5-1.6c0.3-0.2,0.6-0.3,0.7-0.5c0.1,0,0.2,0,0.3,0
		c0,0,0.2,0,0.4,0.1c0.6,0.2,1.1,0.6,1.5,1.2c0.4,0.6,0.6,1.2,0.6,1.9C308.3,147.7,308.2,148.3,308.1,148.7z M306.6,145.5
		c-0.3,0-0.5-0.1-0.7-0.2c-0.6,0-1.1,0.4-1.5,1c-0.3,0.5-0.4,1.2-0.4,1.9c0,0.6,0.1,1,0.4,1.4c0.3,0.4,0.6,0.6,1,0.6
		c0.5,0,0.9-0.3,1.3-1c0.4-0.6,0.6-1.2,0.6-1.8C307.3,146.4,307,145.9,306.6,145.5z"/>
	<path fill="#A3A0A0" d="M315.9,145.2c-0.3,0.1-0.6,0.2-0.7,0.2c0,0-0.1,0-0.4-0.1c-1.5,0.7-2.5,2.2-2.8,4.5
		c-0.2,1.2-0.4,1.8-0.6,1.8c-0.2,0-0.4-0.1-0.5-0.3s-0.2-0.4-0.2-0.7c0-0.2,0.1-0.5,0.2-0.9c0.1-0.5,0.1-1,0.1-1.5
		c0-0.5-0.1-1-0.2-1.6c-0.2-0.2-0.3-0.5-0.4-0.7c-0.1-0.5-0.1-0.9-0.1-1.2c0-0.1,0-0.2,0.1-0.4c0.1-0.1,0.1-0.2,0.2-0.2
		c0.4,0,0.7,0.3,0.8,1c0.1,0.7,0.3,1.2,0.3,1.5c0.4-0.8,1-1.5,1.7-2.1c0.7-0.5,1.4-0.8,2.1-0.8c0.2,0,0.4,0.1,0.5,0.3
		c0.1,0.2,0.2,0.4,0.2,0.6C316.5,144.8,316.3,145,315.9,145.2z"/>
	<path fill="#A3A0A0" d="M328.8,145.3h-0.3c-0.2,0-0.3-0.1-0.4-0.3c-0.2,0-0.5,0-1.1,0c-0.6,0-1,0-1.1,0c-0.4,1.8-0.6,2.8-0.6,2.9
		c-0.2,1.1-0.3,2.1-0.3,2.9c0.2,0.1,0.3,0.3,0.3,0.5c0,0.1-0.1,0.3-0.2,0.4c-0.1,0.1-0.3,0.2-0.4,0.2c-0.5,0-0.7-0.5-0.7-1.3
		c0-0.6,0.1-1.4,0.3-2.6l0.6-2.9c-0.6,0-0.9-0.2-0.9-0.6c0-0.4,0.4-0.6,1.1-0.6c0.2-1.1,0.6-2.6,1.2-4.7c0.1-0.3,0.3-0.5,0.5-0.5
		c0.4,0,0.6,0.2,0.6,0.6c0,0.1,0,0.2-0.1,0.4c-0.1,0.3-0.2,0.7-0.4,1.3c-0.3,1.1-0.5,2.1-0.7,2.8c0.1,0,0.3,0,0.7,0
		c0.4,0,0.7,0,0.8,0c0.9,0,1.3,0.3,1.3,0.8C329.2,144.9,329,145.1,328.8,145.3z"/>
	<path fill="#A3A0A0" d="M336.2,151.7c-0.6,0-0.9-0.6-1-1.9l-0.1-3.2c-1.7,1.2-2.8,2.3-3.4,3.4c-0.1,0.3-0.3,0.6-0.4,0.8
		c-0.2,0.4-0.3,0.7-0.4,0.7c-0.2,0-0.4-0.1-0.6-0.3s-0.2-0.4-0.2-0.6c0,0,0-0.1,0-0.3c0-0.2,0-0.3,0-0.3s0-0.2,0-0.5
		c0-0.2,0-0.4,0-0.5c0-1.2,0.1-2.7,0.4-4.4c0-0.1,0.2-1.5,0.7-4.1l0.3-2c0.1-0.4,0.1-0.6,0.2-0.7c0.1-0.1,0.1-0.2,0.3-0.2
		c0.2,0,0.4,0.1,0.5,0.3c0.1,0.2,0.2,0.4,0.2,0.6c0,0.1-0.1,0.5-0.3,1.4c-0.7,3.6-1.2,6.5-1.4,8.6c0.6-0.7,1.3-1.4,2.3-2.2
		c1.1-0.9,1.8-1.3,2.1-1.3c0.2,0,0.4,0.1,0.6,0.3c0.1,0.2,0.2,0.4,0.2,0.7c0,0.1,0,0.4-0.1,0.8c0,0.4,0,0.7,0,0.9
		c0,0.6,0,1.4,0.1,2.5c0,0.3,0.1,0.7,0.1,1.2C336.5,151.6,336.4,151.7,336.2,151.7z"/>
	<path fill="#A3A0A0" d="M340.3,146.3c-0.4,1.7-0.6,3-0.6,3.9c0.2,0.3,0.4,0.5,0.4,0.8c0,0.3-0.1,0.4-0.3,0.4
		c-0.3,0-0.5-0.2-0.8-0.7c-0.2-0.4-0.3-0.8-0.3-1.4c0-0.5,0.2-1.9,0.7-4.4c0-0.2-0.1-0.4-0.1-0.4c0-0.2,0.1-0.3,0.3-0.4
		c0.7,0,1,0.4,1,0.9C340.6,145.4,340.5,145.8,340.3,146.3z M341,139.4c-0.7-0.1-1-0.5-1-1.1c0-0.1,0-0.2,0-0.3
		c0-0.4,0.3-0.7,0.8-0.8c0.6,0.1,0.9,0.5,0.9,1.2C341.6,139,341.4,139.3,341,139.4z"/>
	<path fill="#A3A0A0" d="M347.4,144.8c-0.1,0-0.3,0-0.5,0c-0.2,0-0.4,0-0.5,0c-0.6,0-0.9,0.3-0.9,0.8c0,0.2,0.1,0.5,0.3,1.1
		c0.2,0.4,0.3,0.9,0.5,1.3c0.4,1.1,0.6,1.9,0.6,2.3c0,0.6-0.3,1-0.8,1.3c-0.4,0.2-1,0.4-1.7,0.4c-1.1,0-1.7-0.2-1.7-0.6
		c0-0.5,0.1-0.7,0.5-0.7c0.1,0,0.3,0,0.6,0.1c0.3,0.1,0.5,0.1,0.7,0.1c0.9,0,1.3-0.3,1.3-0.8c0-0.3-0.3-1.1-0.8-2.6
		c-0.1-0.3-0.3-0.7-0.4-1c-0.1-0.3-0.2-0.7-0.2-1c0-0.8,0.4-1.3,1.2-1.6c0.1-0.3,0.4-0.4,0.9-0.4c0.2,0,0.5,0.1,0.8,0.1
		c0.2,0.1,0.3,0.2,0.4,0.6c0,0.1,0.1,0.2,0.1,0.4C347.8,144.7,347.7,144.8,347.4,144.8z"/>
	<path fill="#A3A0A0" d="M362.9,138.7c-1.3,0.1-2.2,0.7-2.9,1.8c-0.9,1.4-1.5,3.3-1.7,5.7c0.7-0.1,1.7-0.4,3.1-0.7
		c0.4-0.1,0.7-0.1,1.1-0.1c0.4,0,0.6,0.2,0.6,0.6c0,0.2-0.1,0.4-0.3,0.5c-0.2,0.1-0.4,0.2-0.6,0.2c-0.1,0-0.2,0-0.3-0.1
		c-0.7,0.1-2,0.4-3.7,0.8c-0.4,3.5-0.9,5.9-1.5,7.1c-0.3,0.4-0.5,0.7-0.6,0.7c-0.2,0-0.3-0.1-0.5-0.3c-0.1-0.2-0.2-0.3-0.2-0.5
		c0-0.2,0-0.3,0.1-0.4c0.1-0.1,0.2-0.2,0.3-0.3c0.5-0.5,1-2.5,1.4-6.1c-0.7,0.2-1.1,0.2-1.3,0.2c-0.1,0-0.3-0.1-0.4-0.2
		s-0.1-0.3-0.1-0.4c0-0.4,0.2-0.6,0.5-0.6c0.2,0,0.4,0,0.8-0.1c0.1,0,0.3-0.1,0.6-0.2c0.4-3.7,1.5-6.3,3.1-7.7
		c0.2-0.2,0.6-0.4,1.2-0.7c0.5-0.3,0.9-0.4,1.2-0.4c0.5,0,0.7,0.1,0.7,0.4C363.3,138.3,363.2,138.6,362.9,138.7z"/>
	<path fill="#A3A0A0" d="M369,148.7c-0.1,0.1-0.1,0.4-0.2,0.6c-0.2,0.5-0.5,0.9-1,1.3c-0.5,0.4-1,0.6-1.4,0.6c-0.8,0-1.4-0.3-1.8-1
		c-0.5-0.6-0.7-1.3-0.7-2.1c0-0.7,0.2-1.5,0.5-2.2c0.4-0.8,0.9-1.3,1.5-1.6c0.3-0.2,0.6-0.3,0.7-0.5c0.1,0,0.2,0,0.3,0
		c0,0,0.2,0,0.4,0.1c0.6,0.2,1.1,0.6,1.5,1.2c0.4,0.6,0.6,1.2,0.6,1.9C369.3,147.7,369.2,148.3,369,148.7z M367.5,145.5
		c-0.3,0-0.5-0.1-0.7-0.2c-0.6,0-1.1,0.4-1.5,1c-0.3,0.5-0.5,1.2-0.5,1.9c0,0.6,0.1,1,0.4,1.4c0.3,0.4,0.6,0.6,1,0.6
		c0.5,0,0.9-0.3,1.3-1c0.4-0.6,0.6-1.2,0.6-1.8C368.2,146.4,368,145.9,367.5,145.5z"/>
	<path fill="#A3A0A0" d="M376.8,145.2c-0.3,0.1-0.6,0.2-0.7,0.2c0,0-0.1,0-0.4-0.1c-1.5,0.7-2.5,2.2-2.8,4.5
		c-0.2,1.2-0.4,1.8-0.6,1.8c-0.2,0-0.4-0.1-0.5-0.3c-0.1-0.2-0.2-0.4-0.2-0.7c0-0.2,0.1-0.5,0.2-0.9c0.1-0.5,0.1-1,0.1-1.5
		c0-0.5-0.1-1-0.2-1.6c-0.2-0.2-0.3-0.5-0.4-0.7c-0.1-0.5-0.1-0.9-0.1-1.2c0-0.1,0-0.2,0.1-0.4c0.1-0.1,0.1-0.2,0.2-0.2
		c0.4,0,0.7,0.3,0.8,1c0.1,0.7,0.3,1.2,0.3,1.5c0.4-0.8,1-1.5,1.7-2.1c0.7-0.5,1.4-0.8,2.1-0.8c0.2,0,0.4,0.1,0.5,0.3
		c0.1,0.2,0.2,0.4,0.2,0.6C377.4,144.8,377.2,145,376.8,145.2z"/>
	<path fill="#A3A0A0" d="M389.4,151.1c-0.6,0-1.1-1.4-1.4-4.2c-0.9,1-1.8,2-2.6,3.3c-0.3,0.5-0.6,0.8-0.9,0.8
		c-0.3,0-0.5-0.3-0.8-0.8c-0.4-0.9-0.6-2.1-0.6-3.7c-0.7,0.5-1.4,1.1-2,1.9c-0.8,0.9-1.3,1.8-1.5,2.5c-0.1,0.6-0.4,1-0.6,1
		c-0.5,0-0.7-0.4-0.7-1.3c0-0.6,0.1-1.5,0.4-2.7c0.3-1.4,0.5-2.4,0.5-2.9c0-0.3-0.1-0.7-0.3-1.2c0-0.2,0.2-0.4,0.4-0.6
		c0.2-0.1,0.3-0.2,0.5-0.2c0.4,0,0.6,0.5,0.6,1.6c0,0.5-0.1,1.1-0.3,1.9c-0.1,0.6-0.3,1.2-0.4,1.9c2.3-2.4,3.7-3.6,4.2-3.6
		c0.3,0,0.4,0.4,0.4,1.2c0,1.6,0.1,2.7,0.4,3.5c1.9-2.6,3.2-3.9,3.9-3.9c0.3,0,0.5,0.4,0.5,1.3c0,0.5,0.1,1.1,0.2,1.7
		c0.1,0.8,0.3,1.3,0.6,1.6c0.1,0.2,0.2,0.3,0.2,0.4C390.1,150.9,389.9,151.1,389.4,151.1z"/>
	<path fill="#A3A0A0" d="M402,153.7c-1.1,0.9-2.5,1.4-4.2,1.4c-1,0-1.5-0.3-1.5-0.8c0-0.3,0.2-0.5,0.5-0.5c0.5,0.1,0.8,0.1,1,0.1
		c2.8,0,4.5-1.3,5-3.9c0.1-0.6,0.2-1.5,0.2-2.6c-0.3,0.7-0.7,1.3-1.2,1.8c-0.6,0.6-1.2,0.9-1.7,0.9c-0.5,0-0.9-0.2-1.2-0.5
		c-0.3-0.3-0.4-0.8-0.4-1.3c0-0.4,0-1,0.1-1.8c0.1-0.8,0.1-1.4,0.1-1.8c0-0.1,0-0.3-0.1-0.5c-0.1-0.2-0.1-0.4-0.1-0.4
		c0-0.3,0.2-0.5,0.6-0.5c0.2,0,0.4,0.2,0.5,0.5c0.1,0.3,0.2,0.7,0.2,1.1c0,0.4-0.1,1-0.2,1.9c-0.1,0.8-0.2,1.4-0.2,1.8
		c0,0.1,0.1,0.3,0.2,0.4c0.1,0.1,0.3,0.2,0.4,0.2c0.4,0,0.9-0.3,1.4-0.9c0.5-0.6,0.9-1.4,1.3-2.3c0.2-0.5,0.4-0.7,0.7-0.7
		c0.4,0,0.6,0.5,0.6,1.6v1.5C403.9,150.7,403.3,152.6,402,153.7z"/>
	<path fill="#A3A0A0" d="M410.9,151.6c-1.4,0-2.4-0.7-3-2c-0.1,0-0.3,0.1-0.5,0.1c-0.6,0-1.1-0.1-1.5-0.3c-0.5-0.3-0.7-0.5-0.7-0.8
		c0-0.4,0.2-0.6,0.5-0.6c0.1,0,0.2,0.1,0.5,0.3c0.3,0.2,0.6,0.3,0.9,0.3c0.1,0,0.2,0,0.3,0c-0.1-0.3-0.1-0.6-0.1-0.8
		c0-0.9,0.2-1.7,0.6-2.5c0.5-0.9,1.1-1.4,1.8-1.4c0.5,0,0.9,0.3,1.4,0.7c0.3,0.4,0.5,0.8,0.5,1.2c0,0.7-0.3,1.4-0.9,2.1
		c-0.5,0.6-1.2,1.1-2,1.5c0.4,0.8,0.9,1.1,1.7,1.1c0.2,0,0.4,0,0.8-0.1c0.3,0,0.5-0.1,0.6-0.1c0.1,0,0.3,0.1,0.4,0.2
		c0.1,0.1,0.2,0.3,0.2,0.4C412.6,151.3,412,151.6,410.9,151.6z M410.5,145.2c-0.2-0.2-0.4-0.3-0.6-0.3c-0.4,0-0.7,0.3-0.9,0.8
		s-0.4,1.1-0.4,1.7c0,0.2,0,0.5,0.1,0.7c0.6-0.3,1.1-0.6,1.5-1c0.4-0.4,0.6-0.9,0.6-1.4C410.8,145.6,410.7,145.4,410.5,145.2z"/>
	<path fill="#A3A0A0" d="M419.3,145.3h-0.3c-0.2,0-0.3-0.1-0.4-0.3c-0.2,0-0.5,0-1.1,0c-0.6,0-1,0-1.1,0c-0.4,1.8-0.6,2.8-0.6,2.9
		c-0.2,1.1-0.3,2.1-0.3,2.9c0.2,0.1,0.3,0.3,0.3,0.5c0,0.1-0.1,0.3-0.2,0.4c-0.1,0.1-0.3,0.2-0.4,0.2c-0.5,0-0.7-0.5-0.7-1.3
		c0-0.6,0.1-1.4,0.3-2.6l0.6-2.9c-0.6,0-0.9-0.2-0.9-0.6c0-0.4,0.4-0.6,1.1-0.6c0.2-1.1,0.6-2.6,1.2-4.7c0.1-0.3,0.3-0.5,0.5-0.5
		c0.4,0,0.6,0.2,0.6,0.6c0,0.1,0,0.2-0.1,0.4c-0.1,0.3-0.2,0.7-0.4,1.3c-0.3,1.1-0.5,2.1-0.7,2.8c0.1,0,0.3,0,0.7,0
		c0.4,0,0.7,0,0.8,0c0.9,0,1.3,0.3,1.3,0.8C419.7,144.9,419.6,145.1,419.3,145.3z"/>
	<path fill="#A3A0A0" d="M423,152c-0.3,0-0.5-0.1-0.6-0.4c-0.2-0.1-0.3-0.2-0.3-0.4c0-0.1,0-0.2,0-0.4c0-0.5,0.3-0.8,0.9-0.8
		c0.1,0,0.2,0.1,0.4,0.1c0.3,0.1,0.4,0.5,0.4,1S423.4,152,423,152z M424.4,139.7c-0.4,1.6-0.6,3.2-0.7,4.7c-0.1,1.5-0.2,2.6-0.2,3.2
		c0,0.4-0.2,0.6-0.5,0.6c-0.3,0-0.5-0.2-0.5-0.5c0-0.1,0-0.6,0.1-1.6c0.1-1.2,0.1-2.1,0.2-2.7c0.1-1.1,0.3-2.2,0.4-3.1
		c0-0.1-0.1-0.2-0.1-0.3c0,0,0-0.1,0.1-0.3c0-0.2,0.1-0.4,0.3-0.7c0.3-0.3,0.5-0.4,0.7-0.4c0.3,0,0.5,0.2,0.5,0.6
		C424.5,139.2,424.5,139.4,424.4,139.7z"/>
</g>
</svg>
