<?xml version="1.0" encoding="utf-8"?>
<!-- Generator: Adobe Illustrator 18.0.0, SVG Export Plug-In . SVG Version: 6.00 Build 0)  -->
<!DOCTYPE svg PUBLIC "-//W3C//DTD SVG 1.1//EN" "http://www.w3.org/Graphics/SVG/1.1/DTD/svg11.dtd">
<svg version="1.1" id="Layer_1" xmlns="http://www.w3.org/2000/svg" xmlns:xlink="http://www.w3.org/1999/xlink" x="0px" y="0px"
	 viewBox="0 0 417 184" enable-background="new 0 0 417 184" xml:space="preserve">
<g>
	<path fill="#DDDDDD" d="M117.9,64.2c-1.1-9.9-9.6-17.6-19.8-17.6c-1,0-2.1,0.1-3.1,0.3V29.7c0-2.5-2.1-4.6-4.6-4.6H59.8
		c-2.5,0-4.6,2.1-4.6,4.6V62c0,2.5,2.1,4.6,4.6,4.6h18.4c0,5.7,2.4,10.7,6.1,14.4v17.8h24.5v-6.9c4.8,0,8.8-3.7,9.2-8.4h0v-4.6h3.1
		c0.8,0,1.5-0.7,1.5-1.5C122.7,76.9,117.9,64.2,117.9,64.2z M92,62c0,0.8-0.7,1.5-1.5,1.5h-1.5c-0.8,0-1.5,0.7-1.5,1.5
		c0,2.8,1.7,5.4,3.4,7.3c-8.3-1.5-9.5-7.3-9.6-7.6c-0.1-0.7-0.8-1.3-1.5-1.3H59.8c-0.8,0-1.5-0.7-1.5-1.5V29.7
		c0-0.8,0.7-1.5,1.5-1.5h30.7c0.8,0,1.5,0.7,1.5,1.5V62z M111.2,69.6c-1.3,0-2.3-1-2.3-2.3c0-1.3,1-2.3,2.3-2.3c1.3,0,2.3,1,2.3,2.3
		C113.5,68.6,112.4,69.6,111.2,69.6z"/>
	<rect x="75.1" y="32.8" fill="#DDDDDD" width="13.8" height="3.1"/>
	<rect x="75.1" y="43.5" fill="#DDDDDD" width="13.8" height="3.1"/>
	<rect x="75.1" y="54.3" fill="#DDDDDD" width="13.8" height="3.1"/>
	<path fill="#DDDDDD" d="M65.9,38.9c-0.2,0-0.5-0.1-0.7-0.2l-3.1-1.5c-0.8-0.4-1.1-1.3-0.7-2.1c0.4-0.8,1.3-1.1,2.1-0.7l1.9,1
		l3.8-5.1c0.5-0.7,1.5-0.8,2.1-0.3c0.7,0.5,0.8,1.5,0.3,2.1l-4.6,6.1C66.8,38.7,66.4,38.9,65.9,38.9z"/>
	<path fill="#DDDDDD" d="M65.9,49.7c-0.2,0-0.5-0.1-0.7-0.2L62.2,48c-0.8-0.4-1.1-1.3-0.7-2.1c0.4-0.8,1.3-1.1,2.1-0.7l1.9,1
		l3.8-5.1c0.5-0.7,1.5-0.8,2.1-0.3c0.7,0.5,0.8,1.5,0.3,2.1l-4.6,6.1C66.8,49.5,66.4,49.7,65.9,49.7z"/>
	<path fill="#DDDDDD" d="M68.9,56.6l1.2-1.2c0.6-0.6,0.6-1.6,0-2.2c-0.6-0.6-1.6-0.6-2.2,0l-1.2,1.2l-1.2-1.2
		c-0.6-0.6-1.6-0.6-2.2,0c-0.6,0.6-0.6,1.6,0,2.2l1.2,1.2l-1.2,1.2c-0.6,0.6-0.6,1.6,0,2.2c0.3,0.3,0.7,0.4,1.1,0.4
		c0.4,0,0.8-0.1,1.1-0.4l1.2-1.2l1.2,1.2c0.3,0.3,0.7,0.4,1.1,0.4c0.4,0,0.8-0.1,1.1-0.4c0.6-0.6,0.6-1.6,0-2.2L68.9,56.6z"/>
</g>
<g>
	<path fill="#DDDDDD" d="M30.9,111.8h1.7l4.7,8.2l1.4,2.7h0.1c-0.1-1.3-0.2-2.8-0.2-4.2v-6.8h1.6v13.1h-1.7l-4.8-8.3l-1.4-2.7h-0.1
		c0.1,1.3,0.2,2.7,0.2,4.1v6.9h-1.6V111.8z"/>
	<path fill="#DDDDDD" d="M47.5,115c2.4,0,4.5,1.9,4.5,5.1c0,3.2-2.1,5.1-4.5,5.1c-2.4,0-4.5-1.9-4.5-5.1C43,116.8,45.1,115,47.5,115
		z M47.5,123.8c1.7,0,2.8-1.5,2.8-3.7c0-2.2-1.1-3.8-2.8-3.8c-1.7,0-2.8,1.5-2.8,3.8C44.7,122.3,45.8,123.8,47.5,123.8z"/>
	<path fill="#DDDDDD" d="M58.3,122.7c0.8,0.7,1.7,1.2,2.9,1.2c1.3,0,1.9-0.7,1.9-1.5c0-1-1.2-1.4-2.2-1.8c-1.4-0.5-2.9-1.2-2.9-2.8
		c0-1.6,1.2-2.8,3.3-2.8c1.2,0,2.3,0.5,3,1.1l-0.8,1c-0.7-0.5-1.4-0.9-2.2-0.9c-1.2,0-1.8,0.7-1.8,1.4c0,0.9,1.1,1.3,2.2,1.7
		c1.4,0.5,3,1.1,3,2.9c0,1.6-1.3,2.9-3.6,2.9c-1.4,0-2.7-0.6-3.6-1.3L58.3,122.7z"/>
	<path fill="#DDDDDD" d="M66.8,115.2h1.7v5.9c0,1.8,0.5,2.6,1.8,2.6c1,0,1.7-0.5,2.6-1.6v-6.9h1.6v9.7h-1.4l-0.1-1.5H73
		c-0.9,1.1-1.9,1.8-3.2,1.8c-2.1,0-3-1.3-3-3.8V115.2z"/>
	<path fill="#DDDDDD" d="M77.8,110.7h1.6v3.9l0,1.8c0.9-0.8,2-1.4,3-1.4c2.5,0,3.9,1.9,3.9,4.9c0,3.3-2,5.3-4.2,5.3
		c-0.9,0-1.9-0.4-2.8-1.2h-0.1l-0.1,1h-1.3V110.7z M81.8,123.8c1.6,0,2.8-1.5,2.8-3.9c0-2.1-0.7-3.6-2.6-3.6c-0.8,0-1.7,0.5-2.6,1.3
		v5.1C80.3,123.5,81.2,123.8,81.8,123.8z"/>
	<path fill="#DDDDDD" d="M88.9,115.2h1.4l0.1,1.4h0.1c0.8-0.9,1.9-1.6,3-1.6c1.5,0,2.3,0.7,2.7,1.9c1-1.1,2-1.9,3.2-1.9
		c2,0,3,1.3,3,3.8v6.2h-1.6V119c0-1.8-0.6-2.6-1.8-2.6c-0.8,0-1.5,0.5-2.4,1.5v7h-1.6V119c0-1.8-0.6-2.6-1.8-2.6
		c-0.7,0-1.5,0.5-2.4,1.5v7h-1.6V115.2z"/>
	<path fill="#DDDDDD" d="M105.2,112.1c0-0.6,0.5-1.1,1.1-1.1s1.1,0.4,1.1,1.1c0,0.6-0.5,1.1-1.1,1.1S105.2,112.8,105.2,112.1z
		 M105.5,115.2h1.6v9.7h-1.6V115.2z"/>
	<path fill="#DDDDDD" d="M110.2,122.7c0.8,0.7,1.7,1.2,2.9,1.2c1.3,0,1.9-0.7,1.9-1.5c0-1-1.2-1.4-2.2-1.8c-1.4-0.5-2.9-1.2-2.9-2.8
		c0-1.6,1.2-2.8,3.3-2.8c1.2,0,2.3,0.5,3,1.1l-0.8,1c-0.7-0.5-1.4-0.9-2.2-0.9c-1.2,0-1.8,0.7-1.8,1.4c0,0.9,1.1,1.3,2.2,1.7
		c1.4,0.5,3,1.1,3,2.9c0,1.6-1.3,2.9-3.6,2.9c-1.4,0-2.7-0.6-3.6-1.3L110.2,122.7z"/>
	<path fill="#DDDDDD" d="M118.5,122.7c0.8,0.7,1.7,1.2,2.9,1.2c1.3,0,1.9-0.7,1.9-1.5c0-1-1.2-1.4-2.2-1.8c-1.4-0.5-2.9-1.2-2.9-2.8
		c0-1.6,1.2-2.8,3.3-2.8c1.2,0,2.3,0.5,3,1.1l-0.8,1c-0.7-0.5-1.4-0.9-2.2-0.9c-1.2,0-1.8,0.7-1.8,1.4c0,0.9,1.1,1.3,2.2,1.7
		c1.4,0.5,3,1.1,3,2.9c0,1.6-1.3,2.9-3.6,2.9c-1.4,0-2.7-0.6-3.6-1.3L118.5,122.7z"/>
	<path fill="#DDDDDD" d="M126.9,112.1c0-0.6,0.5-1.1,1.1-1.1s1.1,0.4,1.1,1.1c0,0.6-0.5,1.1-1.1,1.1S126.9,112.8,126.9,112.1z
		 M127.2,115.2h1.6v9.7h-1.6V115.2z"/>
	<path fill="#DDDDDD" d="M135.9,115c2.4,0,4.5,1.9,4.5,5.1c0,3.2-2.1,5.1-4.5,5.1c-2.4,0-4.5-1.9-4.5-5.1
		C131.4,116.8,133.5,115,135.9,115z M135.9,123.8c1.7,0,2.8-1.5,2.8-3.7c0-2.2-1.1-3.8-2.8-3.8c-1.7,0-2.8,1.5-2.8,3.8
		C133.1,122.3,134.2,123.8,135.9,123.8z"/>
	<path fill="#DDDDDD" d="M142.9,115.2h1.4l0.1,1.4h0.1c0.9-0.9,1.9-1.6,3.3-1.6c2,0,3,1.3,3,3.8v6.2h-1.6V119c0-1.8-0.6-2.6-1.8-2.6
		c-1,0-1.7,0.5-2.7,1.5v7h-1.6V115.2z"/>
	<path fill="#DDDDDD" d="M153.6,122.7c0.8,0.7,1.7,1.2,2.9,1.2c1.3,0,1.9-0.7,1.9-1.5c0-1-1.2-1.4-2.2-1.8c-1.4-0.5-2.9-1.2-2.9-2.8
		c0-1.6,1.2-2.8,3.3-2.8c1.2,0,2.3,0.5,3,1.1l-0.8,1c-0.7-0.5-1.4-0.9-2.2-0.9c-1.2,0-1.8,0.7-1.8,1.4c0,0.9,1.1,1.3,2.2,1.7
		c1.4,0.5,3,1.1,3,2.9c0,1.6-1.3,2.9-3.6,2.9c-1.4,0-2.7-0.6-3.6-1.3L153.6,122.7z"/>
</g>
<g>
	<path fill="#DDDDDD" d="M260.1,121c-0.4,0.1-0.9,0.2-1.5,0.2c0,0.1,0.1,0.2,0.1,0.4c0,1.6,0.2,2.9,0.6,3.8c0.2,0.4,0.2,0.7,0.2,0.7
		c0,0.4-0.2,0.6-0.5,0.6c-0.2-0.1-0.5-0.2-0.6-0.4c-0.1-0.2-0.3-0.6-0.4-1.2c-0.9,1.1-1.9,1.6-2.9,1.6c-1.2,0-2.1-0.4-2.9-1.2
		c-0.8-0.9-1.2-2-1.2-3.4c0-2.2,0.8-4.3,2.3-6.2c1.6-2,3.4-3.1,5.5-3.1c0.5,0,0.7,0.2,0.7,0.5c0,0.4-0.2,0.6-0.7,0.6
		c-1.4,0-2.7,0.6-3.9,1.8c-0.9,0.9-1.5,1.8-2,2.8c-0.6,1.2-0.8,2.3-0.8,3.4c0,1.1,0.2,1.9,0.7,2.6c0.5,0.8,1.3,1.2,2.3,1.2
		c0.8,0,1.4-0.3,1.9-0.9c0.4-0.4,0.6-1.1,0.6-2c0-0.1,0-0.2,0-0.5c0-0.3,0-0.4,0-0.5c0-0.2,0.1-0.3,0.2-0.5c-0.5,0-0.8-0.1-1.2-0.2
		c-0.3-0.1-0.4-0.3-0.4-0.5c0-0.4,0.2-0.6,0.5-0.6c0.1,0,0.2,0,0.4,0.1c0.2,0.1,0.6,0.1,1,0.1c0.5,0,1.3-0.1,2.4-0.3
		c0.3,0,0.5,0.2,0.5,0.5C260.9,120.7,260.6,120.9,260.1,121z M267.2,126.7c-1.4,0-2.3-0.6-2.9-1.9c-0.1,0-0.3,0.1-0.5,0.1
		c-0.6,0-1.1-0.1-1.5-0.3c-0.4-0.2-0.6-0.5-0.6-0.8c0-0.4,0.2-0.6,0.5-0.6c0.1,0,0.2,0.1,0.5,0.3c0.3,0.2,0.6,0.3,0.9,0.3
		c0.1,0,0.2,0,0.3,0c-0.1-0.3-0.1-0.5-0.1-0.8c0-0.8,0.2-1.7,0.6-2.5c0.5-0.9,1.1-1.3,1.8-1.3c0.4,0,0.9,0.2,1.3,0.7
		c0.3,0.4,0.5,0.8,0.5,1.2c0,0.7-0.3,1.4-0.9,2c-0.5,0.6-1.2,1.1-1.9,1.4c0.4,0.7,0.9,1.1,1.7,1.1c0.2,0,0.4,0,0.7-0.1
		c0.3,0,0.5-0.1,0.6-0.1c0.1,0,0.2,0.1,0.4,0.2c0.1,0.1,0.2,0.3,0.2,0.4C268.8,126.5,268.2,126.7,267.2,126.7z M266.8,120.5
		c-0.2-0.2-0.4-0.2-0.6-0.2c-0.4,0-0.6,0.3-0.9,0.8c-0.2,0.5-0.4,1.1-0.4,1.6c0,0.2,0,0.5,0.1,0.7c0.6-0.2,1.1-0.6,1.5-1
		c0.4-0.4,0.6-0.8,0.6-1.3C267.1,120.9,267,120.7,266.8,120.5z M275.3,120.7h-0.2c-0.2,0-0.3-0.1-0.4-0.2c-0.2,0-0.5,0-1.1,0
		c-0.6,0-0.9,0-1,0c-0.4,1.8-0.6,2.7-0.6,2.8c-0.2,1.1-0.3,2-0.3,2.8c0.2,0.1,0.2,0.3,0.2,0.5c0,0.1-0.1,0.3-0.2,0.4
		c-0.1,0.1-0.3,0.2-0.4,0.2c-0.5,0-0.7-0.4-0.7-1.3c0-0.5,0.1-1.4,0.3-2.5l0.6-2.8c-0.6,0-0.8-0.2-0.8-0.6c0-0.4,0.4-0.6,1.1-0.6
		c0.2-1,0.6-2.6,1.2-4.6c0.1-0.3,0.2-0.5,0.5-0.5c0.4,0,0.6,0.2,0.6,0.6c0,0.1,0,0.2-0.1,0.4c-0.1,0.2-0.2,0.7-0.4,1.3
		c-0.3,1.1-0.5,2-0.7,2.7c0.1,0,0.3,0,0.7,0c0.4,0,0.7,0,0.8,0c0.9,0,1.3,0.3,1.3,0.8C275.7,120.2,275.6,120.4,275.3,120.7z
		 M286.9,125.7c-0.6,0.5-1.3,0.8-1.9,0.8c-0.7,0-1.3-0.2-1.7-0.7c-0.5-0.5-0.7-1.1-0.7-1.8c0-0.9,0.2-1.8,0.7-2.6
		c0.4-0.8,1-1.4,1.7-1.9c0.4-0.2,0.8-0.4,1.3-0.4c0.6,0,0.9,0.3,0.9,0.8c-0.2,0.5-0.4,0.7-0.8,0.7c-0.4,0-0.7-0.1-0.9-0.2
		c-1.2,0.9-1.8,2-1.8,3.3c0,0.5,0.1,0.8,0.3,1.1c0.2,0.3,0.5,0.4,0.9,0.4c0.5,0,0.9-0.1,1.2-0.4c0.1-0.1,0.3-0.3,0.6-0.6
		c0.2-0.2,0.4-0.4,0.5-0.4c0.1,0,0.2,0.1,0.4,0.2c0.1,0.1,0.2,0.3,0.2,0.4C287.6,125,287.4,125.3,286.9,125.7z M294.3,126.7
		c-1.4,0-2.3-0.6-2.9-1.9c-0.1,0-0.3,0.1-0.5,0.1c-0.6,0-1.1-0.1-1.5-0.3c-0.4-0.2-0.6-0.5-0.6-0.8c0-0.4,0.2-0.6,0.5-0.6
		c0.1,0,0.2,0.1,0.5,0.3c0.3,0.2,0.6,0.3,0.9,0.3c0.1,0,0.2,0,0.3,0c-0.1-0.3-0.1-0.5-0.1-0.8c0-0.8,0.2-1.7,0.6-2.5
		c0.5-0.9,1.1-1.3,1.8-1.3c0.4,0,0.9,0.2,1.3,0.7c0.3,0.4,0.5,0.8,0.5,1.2c0,0.7-0.3,1.4-0.9,2c-0.5,0.6-1.2,1.1-1.9,1.4
		c0.4,0.7,0.9,1.1,1.7,1.1c0.2,0,0.4,0,0.7-0.1c0.3,0,0.5-0.1,0.6-0.1c0.1,0,0.2,0.1,0.4,0.2c0.1,0.1,0.2,0.3,0.2,0.4
		C295.9,126.5,295.3,126.7,294.3,126.7z M293.9,120.5c-0.2-0.2-0.4-0.2-0.6-0.2c-0.4,0-0.6,0.3-0.9,0.8c-0.2,0.5-0.4,1.1-0.4,1.6
		c0,0.2,0,0.5,0.1,0.7c0.6-0.2,1.1-0.6,1.5-1c0.4-0.4,0.6-0.8,0.6-1.3C294.1,120.9,294,120.7,293.9,120.5z M302.8,120.5
		c-0.3,0.1-0.5,0.2-0.7,0.2c0,0-0.1,0-0.4-0.1c-1.5,0.7-2.4,2.2-2.7,4.4c-0.2,1.2-0.4,1.8-0.6,1.8c-0.2,0-0.4-0.1-0.5-0.3
		c-0.1-0.2-0.2-0.4-0.2-0.6c0-0.2,0.1-0.5,0.2-0.9c0.1-0.5,0.1-1,0.1-1.5c0-0.5-0.1-1-0.2-1.5c-0.2-0.2-0.3-0.5-0.4-0.7
		c-0.1-0.5-0.1-0.9-0.1-1.1c0-0.1,0-0.2,0.1-0.4c0.1-0.1,0.1-0.2,0.2-0.2c0.4,0,0.6,0.3,0.8,1c0.1,0.7,0.2,1.2,0.3,1.5
		c0.4-0.8,1-1.5,1.7-2c0.7-0.5,1.3-0.8,2-0.8c0.2,0,0.4,0.1,0.5,0.3c0.1,0.2,0.2,0.4,0.2,0.6C303.3,120.2,303.1,120.4,302.8,120.5z
		 M309.3,120.7H309c-0.2,0-0.3-0.1-0.4-0.2c-0.2,0-0.5,0-1.1,0c-0.6,0-0.9,0-1,0c-0.4,1.8-0.6,2.7-0.6,2.8c-0.2,1.1-0.3,2-0.3,2.8
		c0.2,0.1,0.2,0.3,0.2,0.5c0,0.1-0.1,0.3-0.2,0.4c-0.1,0.1-0.3,0.2-0.4,0.2c-0.5,0-0.7-0.4-0.7-1.3c0-0.5,0.1-1.4,0.3-2.5l0.6-2.8
		c-0.6,0-0.8-0.2-0.8-0.6c0-0.4,0.4-0.6,1.1-0.6c0.2-1,0.6-2.6,1.2-4.6c0.1-0.3,0.2-0.5,0.5-0.5c0.4,0,0.6,0.2,0.6,0.6
		c0,0.1,0,0.2-0.1,0.4c-0.1,0.2-0.2,0.7-0.4,1.3c-0.3,1.1-0.5,2-0.7,2.7c0.1,0,0.3,0,0.7,0c0.4,0,0.7,0,0.8,0c0.9,0,1.3,0.3,1.3,0.8
		C309.7,120.2,309.5,120.4,309.3,120.7z M312.5,121.6c-0.4,1.6-0.6,2.9-0.6,3.8c0.2,0.2,0.4,0.5,0.4,0.8c0,0.2-0.1,0.4-0.3,0.4
		c-0.3,0-0.5-0.2-0.8-0.7c-0.2-0.4-0.3-0.8-0.3-1.3c0-0.5,0.2-1.9,0.7-4.3c0-0.2-0.1-0.4-0.1-0.4c0-0.2,0.1-0.3,0.3-0.4
		c0.6,0,1,0.4,1,0.9C312.7,120.8,312.6,121.2,312.5,121.6z M313.2,114.9c-0.7-0.1-1-0.5-1-1.1c0-0.1,0-0.2,0-0.3
		c0-0.4,0.3-0.6,0.7-0.8c0.6,0.1,0.9,0.5,0.9,1.2C313.8,114.5,313.6,114.8,313.2,114.9z M322.4,114.2c-1.2,0.1-2.2,0.7-2.8,1.7
		c-0.9,1.4-1.4,3.2-1.7,5.5c0.6-0.1,1.7-0.4,3-0.7c0.4-0.1,0.7-0.1,1.1-0.1c0.4,0,0.6,0.2,0.6,0.6c0,0.2-0.1,0.4-0.3,0.5
		c-0.2,0.1-0.4,0.2-0.6,0.2c-0.1,0-0.2,0-0.3-0.1c-0.7,0.1-1.9,0.4-3.6,0.8c-0.4,3.4-0.9,5.7-1.5,6.9c-0.2,0.4-0.5,0.6-0.6,0.6
		s-0.3-0.1-0.5-0.2c-0.1-0.2-0.2-0.3-0.2-0.5c0-0.2,0-0.3,0.1-0.4c0.1-0.1,0.2-0.2,0.3-0.3c0.5-0.5,1-2.5,1.4-6
		c-0.6,0.2-1.1,0.2-1.2,0.2c-0.1,0-0.3-0.1-0.4-0.2c-0.1-0.1-0.1-0.2-0.1-0.4c0-0.4,0.2-0.6,0.5-0.6c0.2,0,0.4,0,0.8-0.1
		c0.1,0,0.3-0.1,0.6-0.2c0.4-3.6,1.4-6.2,3-7.5c0.2-0.2,0.6-0.4,1.1-0.7c0.5-0.2,0.9-0.4,1.1-0.4c0.4,0,0.7,0.1,0.7,0.4
		C322.8,113.9,322.7,114.1,322.4,114.2z M325.3,121.6c-0.4,1.6-0.6,2.9-0.6,3.8c0.2,0.2,0.4,0.5,0.4,0.8c0,0.2-0.1,0.4-0.3,0.4
		c-0.3,0-0.5-0.2-0.8-0.7c-0.2-0.4-0.3-0.8-0.3-1.3c0-0.5,0.2-1.9,0.7-4.3c0-0.2-0.1-0.4-0.1-0.4c0-0.2,0.1-0.3,0.3-0.4
		c0.6,0,1,0.4,1,0.9C325.5,120.8,325.4,121.2,325.3,121.6z M325.9,114.9c-0.7-0.1-1-0.5-1-1.1c0-0.1,0-0.2,0-0.3
		c0-0.4,0.3-0.6,0.7-0.8c0.6,0.1,0.9,0.5,0.9,1.2C326.5,114.5,326.3,114.8,325.9,114.9z M333,126.7c-1.4,0-2.3-0.6-2.9-1.9
		c-0.1,0-0.3,0.1-0.5,0.1c-0.6,0-1.1-0.1-1.5-0.3c-0.4-0.2-0.6-0.5-0.6-0.8c0-0.4,0.2-0.6,0.5-0.6c0.1,0,0.2,0.1,0.5,0.3
		c0.3,0.2,0.6,0.3,0.9,0.3c0.1,0,0.2,0,0.3,0c-0.1-0.3-0.1-0.5-0.1-0.8c0-0.8,0.2-1.7,0.6-2.5c0.5-0.9,1.1-1.3,1.8-1.3
		c0.4,0,0.9,0.2,1.3,0.7c0.3,0.4,0.5,0.8,0.5,1.2c0,0.7-0.3,1.4-0.9,2c-0.5,0.6-1.2,1.1-1.9,1.4c0.4,0.7,0.9,1.1,1.7,1.1
		c0.2,0,0.4,0,0.7-0.1c0.3,0,0.5-0.1,0.6-0.1c0.1,0,0.2,0.1,0.4,0.2c0.1,0.1,0.2,0.3,0.2,0.4C334.6,126.5,334,126.7,333,126.7z
		 M332.6,120.5c-0.2-0.2-0.4-0.2-0.6-0.2c-0.4,0-0.6,0.3-0.9,0.8c-0.2,0.5-0.4,1.1-0.4,1.6c0,0.2,0,0.5,0.1,0.7
		c0.6-0.2,1.1-0.6,1.5-1c0.4-0.4,0.6-0.8,0.6-1.3C332.9,120.9,332.8,120.7,332.6,120.5z M341.8,115c-0.1,0.8-0.2,1.3-0.2,1.7
		c0,0.2,0,0.4,0,0.7c0,0.4-0.1,0.7-0.3,1c-0.2,2-0.2,3.3-0.2,3.9c0,1.6,0.1,3.1,0.4,4.6c0.1,0.4,0.1,0.6,0.1,0.9
		c0,0.1-0.1,0.2-0.2,0.3c-0.1,0.1-0.2,0.2-0.4,0.2c-0.3,0-0.5-0.3-0.5-0.8c-0.2-1-0.3-2-0.4-3.1c-0.3,0.6-0.7,1.1-1.1,1.5
		c-0.6,0.5-1.1,0.8-1.6,0.8c-0.6,0-1-0.2-1.3-0.5c-0.3-0.4-0.5-0.8-0.5-1.4c0-0.9,0.4-2,1.2-3.1c0.8-1.1,1.5-1.7,2.2-1.7
		c0.4,0,0.7,0.2,1.1,0.6c0.2-3.2,0.5-5.6,0.9-7c0.1-0.3,0.2-0.4,0.5-0.4c0.3,0,0.5,0.2,0.5,0.5C342,113.8,341.9,114.2,341.8,115z
		 M339.2,121.2c-0.1,0-0.2,0-0.2,0c-0.4,0-0.9,0.4-1.5,1.3c-0.6,0.9-0.9,1.7-0.9,2.3c0,0.6,0.2,0.9,0.7,0.9c0.6,0,1.2-0.4,1.7-1.1
		c0.5-0.6,0.9-1.4,1.1-2.3C339.6,122,339.4,121.7,339.2,121.2z M345.1,127.4c-0.7,1.2-1.3,2.1-1.8,2.7c-0.1,0.1-0.3,0.2-0.4,0.2
		c-0.3,0-0.5-0.2-0.5-0.5c0-0.2,0.1-0.4,0.2-0.5c0.5-0.6,1.1-1.5,1.6-2.5c0.1-1.2,0.4-1.8,1-1.8c0.4,0,0.5,0.2,0.5,0.6
		C345.8,125.9,345.6,126.5,345.1,127.4z M358.5,125.7c-0.6,0.5-1.3,0.8-1.9,0.8c-0.7,0-1.3-0.2-1.7-0.7c-0.5-0.5-0.7-1.1-0.7-1.8
		c0-0.9,0.2-1.8,0.7-2.6c0.4-0.8,1-1.4,1.7-1.9c0.4-0.2,0.8-0.4,1.3-0.4c0.6,0,0.9,0.3,0.9,0.8c-0.2,0.5-0.4,0.7-0.8,0.7
		c-0.4,0-0.7-0.1-0.9-0.2c-1.2,0.9-1.8,2-1.8,3.3c0,0.5,0.1,0.8,0.3,1.1c0.2,0.3,0.5,0.4,0.9,0.4c0.5,0,0.9-0.1,1.2-0.4
		c0.1-0.1,0.3-0.3,0.6-0.6c0.2-0.2,0.4-0.4,0.5-0.4c0.1,0,0.2,0.1,0.4,0.2c0.1,0.1,0.2,0.3,0.2,0.4C359.3,125,359,125.3,358.5,125.7
		z M363.5,114.9l-0.1,0.1c-0.2,0.8-0.4,1.7-0.5,2.9c-0.2,1.3-0.2,2.4-0.2,3.3c0,2.2,0.1,3.9,0.2,5.3c0,0.2-0.1,0.3-0.3,0.3
		c-0.2,0-0.5-0.2-0.7-0.6c-0.2-0.4-0.4-0.7-0.4-0.9c0-0.1,0-0.3,0-0.6c0-0.3,0-0.5,0-0.6c0-0.3,0.1-0.5,0.2-0.6
		c-0.1-0.7-0.1-1.6-0.1-2.8c0-2.2,0.4-4.6,1.1-7.2c0.1-0.2,0.2-0.4,0.3-0.4c0.2,0,0.4,0.1,0.7,0.4c0.3,0.2,0.4,0.5,0.4,0.7
		C364,114.5,363.8,114.7,363.5,114.9z M367.2,121.6c-0.4,1.6-0.6,2.9-0.6,3.8c0.2,0.2,0.4,0.5,0.4,0.8c0,0.2-0.1,0.4-0.3,0.4
		c-0.3,0-0.5-0.2-0.8-0.7c-0.2-0.4-0.3-0.8-0.3-1.3c0-0.5,0.2-1.9,0.7-4.3c0-0.2-0.1-0.4-0.1-0.4c0-0.2,0.1-0.3,0.3-0.4
		c0.6,0,1,0.4,1,0.9C367.5,120.8,367.4,121.2,367.2,121.6z M367.9,114.9c-0.7-0.1-1-0.5-1-1.1c0-0.1,0-0.2,0-0.3
		c0-0.4,0.3-0.6,0.7-0.8c0.6,0.1,0.9,0.5,0.9,1.2C368.5,114.5,368.3,114.8,367.9,114.9z M374.2,125.7c-0.6,0.5-1.3,0.8-1.9,0.8
		c-0.7,0-1.3-0.2-1.7-0.7c-0.5-0.5-0.7-1.1-0.7-1.8c0-0.9,0.2-1.8,0.7-2.6c0.4-0.8,1-1.4,1.7-1.9c0.4-0.2,0.8-0.4,1.3-0.4
		c0.6,0,0.9,0.3,0.9,0.8c-0.2,0.5-0.4,0.7-0.8,0.7c-0.4,0-0.7-0.1-0.9-0.2c-1.2,0.9-1.8,2-1.8,3.3c0,0.5,0.1,0.8,0.3,1.1
		c0.2,0.3,0.5,0.4,0.9,0.4c0.5,0,0.9-0.1,1.2-0.4c0.1-0.1,0.3-0.3,0.6-0.6c0.2-0.2,0.4-0.4,0.5-0.4c0.1,0,0.2,0.1,0.4,0.2
		c0.1,0.1,0.2,0.3,0.2,0.4C375,125,374.7,125.3,374.2,125.7z M381.8,120c-0.8,0.4-1.9,0.8-3.4,1.2c0.7,0.8,1.8,1.9,3.2,3.3
		c0.2,0.2,0.6,0.6,1.1,1.1c0.1,0.1,0.1,0.2,0.1,0.3c0,0.4-0.2,0.6-0.6,0.6c-0.2,0-0.5-0.2-0.9-0.7c-1-1-2.2-2.2-3.4-3.6
		c0,0.2,0,0.8,0,1.8c0,0.9,0,1.4,0,1.5c0,0.5-0.2,0.7-0.5,0.7c-0.2,0-0.4-0.2-0.5-0.5c-0.1-0.3-0.2-0.6-0.2-0.9c0-0.2,0-0.3,0.1-0.4
		c0,0,0-0.1,0-0.2c0-0.1,0-0.2,0-0.2c0,0,0-0.1,0-0.2c0-0.1,0-0.2,0-0.3c0-1.2,0.1-2.8,0.3-4.7c0.2-1.9,0.4-3.6,0.7-5
		c0.1-0.4,0.2-0.6,0.5-0.6c0.4,0,0.5,0.2,0.5,0.5c0,0-0.1,0.3-0.2,0.9c-0.3,1.8-0.5,3.7-0.8,5.6c2-0.5,3.5-1.1,4.5-1.8
		c0.2-0.2,0.3-0.2,0.4-0.2c0.4,0,0.6,0.2,0.6,0.5C383.4,119,382.9,119.5,381.8,120z M395.8,124c-0.1,0.1-0.1,0.4-0.2,0.6
		c-0.2,0.5-0.5,0.9-1,1.3c-0.5,0.4-0.9,0.6-1.4,0.6c-0.7,0-1.3-0.3-1.8-1c-0.4-0.6-0.6-1.3-0.6-2c0-0.7,0.2-1.4,0.5-2.1
		c0.4-0.8,0.8-1.3,1.4-1.6c0.3-0.2,0.5-0.3,0.7-0.5c0.1,0,0.2,0,0.2,0c0,0,0.2,0,0.4,0.1c0.6,0.2,1.1,0.6,1.5,1.2
		c0.4,0.6,0.6,1.2,0.6,1.8C396,123,395.9,123.6,395.8,124z M394.3,120.9c-0.3,0-0.5-0.1-0.7-0.2c-0.6,0-1.1,0.4-1.4,0.9
		c-0.3,0.5-0.4,1.1-0.4,1.8c0,0.5,0.1,1,0.4,1.3c0.3,0.4,0.6,0.6,1,0.6c0.5,0,0.9-0.3,1.3-1c0.4-0.6,0.6-1.2,0.6-1.8
		C395,121.8,394.8,121.2,394.3,120.9z M403.8,124c-0.1,0.6-0.1,1.4-0.2,2.3c0,0.2-0.1,0.3-0.2,0.3c-0.2,0-0.4-0.1-0.5-0.2
		c-0.1-0.2-0.2-0.4-0.2-0.5c0-0.2,0.1-0.6,0.1-1.1l0.3-3c-1.7,1.2-2.8,2.4-3.4,3.7c-0.1,0.2-0.2,0.5-0.3,0.7
		c-0.1,0.2-0.2,0.4-0.3,0.4c-0.4,0-0.6-0.2-0.7-0.6c-0.2-0.6-0.3-1.4-0.3-2.5c0-1.1,0.2-2.5,0.6-4.3c0-0.2,0.1-0.3,0.2-0.3
		c0.2,0,0.4,0.1,0.5,0.3c0.1,0.2,0.2,0.4,0.2,0.6c0,0.2-0.1,0.4-0.1,0.6c-0.3,1.2-0.4,2.5-0.4,3.9c1.4-1.8,2.8-3.1,4.2-4
		c0.2,0,0.4,0.1,0.5,0.2c0.2,0.2,0.2,0.4,0.2,0.5C404,121.8,403.9,122.8,403.8,124z"/>
	<path fill="#DDDDDD" d="M249,145h-0.2c-0.2,0-0.3-0.1-0.4-0.2c-0.2,0-0.5,0-1.1,0c-0.6,0-0.9,0-1,0c-0.4,1.8-0.6,2.7-0.6,2.8
		c-0.2,1.1-0.3,2-0.3,2.8c0.2,0.1,0.2,0.3,0.2,0.5c0,0.1-0.1,0.3-0.2,0.4c-0.1,0.1-0.3,0.2-0.4,0.2c-0.5,0-0.7-0.4-0.7-1.3
		c0-0.5,0.1-1.4,0.3-2.5l0.6-2.8c-0.6,0-0.8-0.2-0.8-0.6c0-0.4,0.4-0.6,1.1-0.6c0.2-1,0.6-2.6,1.2-4.6c0.1-0.3,0.2-0.5,0.5-0.5
		c0.4,0,0.6,0.2,0.6,0.6c0,0.1,0,0.2-0.1,0.4c-0.1,0.2-0.2,0.7-0.4,1.3c-0.3,1.1-0.5,2-0.7,2.7c0.1,0,0.3,0,0.7,0c0.4,0,0.7,0,0.8,0
		c0.9,0,1.3,0.3,1.3,0.8C249.4,144.5,249.3,144.8,249,145z M256.2,151.1c-0.6,0-0.9-0.6-0.9-1.9l-0.1-3.1c-1.7,1.1-2.8,2.2-3.3,3.3
		c-0.1,0.3-0.3,0.5-0.4,0.8c-0.2,0.4-0.3,0.6-0.4,0.6c-0.2,0-0.4-0.1-0.5-0.3c-0.2-0.2-0.2-0.4-0.2-0.5c0,0,0-0.1,0-0.3
		c0-0.2,0-0.3,0-0.3c0,0,0-0.2,0-0.4c0-0.2,0-0.4,0-0.4c0-1.2,0.1-2.6,0.4-4.3c0-0.1,0.2-1.4,0.7-4l0.3-2c0.1-0.4,0.1-0.6,0.2-0.7
		c0.1-0.1,0.1-0.2,0.3-0.2c0.2,0,0.4,0.1,0.5,0.3c0.1,0.2,0.2,0.4,0.2,0.6c0,0.1-0.1,0.5-0.2,1.4c-0.7,3.5-1.1,6.3-1.3,8.4
		c0.6-0.7,1.3-1.4,2.2-2.2c1-0.8,1.7-1.3,2.1-1.3c0.2,0,0.4,0.1,0.5,0.3c0.1,0.2,0.2,0.4,0.2,0.7c0,0.1,0,0.4-0.1,0.7
		c0,0.4,0,0.7,0,0.9c0,0.5,0,1.3,0.1,2.4c0,0.3,0.1,0.6,0.1,1.1C256.5,151,256.4,151.1,256.2,151.1z M263.3,151
		c-1.4,0-2.3-0.6-2.9-1.9c-0.1,0-0.3,0.1-0.5,0.1c-0.6,0-1.1-0.1-1.5-0.3c-0.4-0.2-0.6-0.5-0.6-0.8c0-0.4,0.2-0.6,0.5-0.6
		c0.1,0,0.2,0.1,0.5,0.3c0.3,0.2,0.6,0.3,0.9,0.3c0.1,0,0.2,0,0.3,0c-0.1-0.3-0.1-0.5-0.1-0.8c0-0.8,0.2-1.7,0.6-2.5
		c0.5-0.9,1.1-1.3,1.8-1.3c0.4,0,0.9,0.2,1.3,0.7c0.3,0.4,0.5,0.8,0.5,1.2c0,0.7-0.3,1.4-0.9,2c-0.5,0.6-1.2,1.1-1.9,1.4
		c0.4,0.7,0.9,1.1,1.7,1.1c0.2,0,0.4,0,0.7-0.1c0.3,0,0.5-0.1,0.6-0.1c0.1,0,0.2,0.1,0.4,0.2c0.1,0.1,0.2,0.3,0.2,0.4
		C264.9,150.8,264.4,151,263.3,151z M262.9,144.8c-0.2-0.2-0.4-0.2-0.6-0.2c-0.4,0-0.6,0.3-0.9,0.8c-0.2,0.5-0.4,1.1-0.4,1.6
		c0,0.2,0,0.5,0.1,0.7c0.6-0.2,1.1-0.6,1.5-1c0.4-0.4,0.6-0.8,0.6-1.3C263.2,145.2,263.1,145,262.9,144.8z M278.2,148.6
		c-0.6,0.7-1.3,1.3-2.1,1.8c-0.5,0.3-1,0.5-1.6,0.7c-0.6,0.2-1,0.3-1.3,0.3c-0.4,0-0.7-0.2-0.8-0.6c0-0.2,0.2-0.4,0.5-0.6
		c-0.1-0.8-0.1-1.6-0.1-2.4c0-3,0.3-6,0.9-8.9c0.2-0.9,0.4-1.3,0.8-1.3c0.4,0,0.6,0.3,0.6,0.8c0,0.2-0.1,0.6-0.1,1
		c-0.1,0.5-0.2,0.9-0.2,1.1c-0.1,0.2-0.2,0.4-0.4,0.4c-0.2,1.5-0.4,3.5-0.5,6.2c1.4-1.7,2.5-2.6,3.5-2.6c0.6,0,1,0.2,1.3,0.6
		s0.5,0.9,0.5,1.5C279,147.1,278.7,147.8,278.2,148.6z M277.2,145.5c-0.3,0-0.7,0.2-1.2,0.6c-0.8,0.6-1.4,1.4-1.9,2.2
		c-0.1,0.3-0.2,0.5-0.2,0.8c0,0.2,0,0.5,0,0.9c0.9-0.2,1.8-0.7,2.7-1.3c1-0.8,1.5-1.5,1.5-2.3C278,145.8,277.7,145.5,277.2,145.5z
		 M287.6,145c-0.2,0.5-0.4,1.7-0.6,3.4c-0.1,0.4-0.1,0.6-0.1,0.8c0,0.1,0,0.3,0.1,0.5c0,0.3,0.1,0.4,0.1,0.5c0,0.5-0.2,0.7-0.6,0.7
		c-0.1,0-0.3-0.1-0.4-0.1c-0.1-0.1-0.2-0.2-0.2-0.4c0-0.1,0-0.2,0.1-0.4c0-1,0.1-1.9,0.3-2.8c-1.9,2.3-3.3,3.4-4.2,3.4
		c-0.4,0-0.7-0.1-0.9-0.3c-0.2-0.2-0.4-0.5-0.4-0.8c0-0.3,0.1-1.1,0.4-2.2c0.2-1.2,0.4-2,0.4-2.5c0,0,0-0.1,0-0.2c0-0.1,0-0.1,0-0.2
		c0-0.1,0.1-0.3,0.2-0.4c0.1-0.1,0.2-0.2,0.4-0.2c0.3,0,0.4,0.3,0.4,0.9c0,0.4-0.2,1.5-0.5,3.4c-0.1,0.5-0.1,0.8-0.1,0.9
		c0,0.2,0.1,0.4,0.3,0.4c0.7,0,1.6-0.6,2.6-1.9c0.8-0.9,1.5-2,2.3-3.3c0.1-0.2,0.2-0.3,0.4-0.3c0.3,0,0.5,0.2,0.5,0.5
		C287.7,144.7,287.6,144.8,287.6,145z M294.4,145h-0.2c-0.2,0-0.3-0.1-0.4-0.2c-0.2,0-0.5,0-1.1,0c-0.6,0-0.9,0-1,0
		c-0.4,1.8-0.6,2.7-0.6,2.8c-0.2,1.1-0.3,2-0.3,2.8c0.2,0.1,0.2,0.3,0.2,0.5c0,0.1-0.1,0.3-0.2,0.4c-0.1,0.1-0.3,0.2-0.4,0.2
		c-0.5,0-0.7-0.4-0.7-1.3c0-0.5,0.1-1.4,0.3-2.5l0.6-2.8c-0.6,0-0.8-0.2-0.8-0.6c0-0.4,0.4-0.6,1.1-0.6c0.2-1,0.6-2.6,1.2-4.6
		c0.1-0.3,0.2-0.5,0.5-0.5c0.4,0,0.6,0.2,0.6,0.6c0,0.1,0,0.2-0.1,0.4c-0.1,0.2-0.2,0.7-0.4,1.3c-0.3,1.1-0.5,2-0.7,2.7
		c0.1,0,0.3,0,0.7,0c0.4,0,0.7,0,0.8,0c0.9,0,1.3,0.3,1.3,0.8C294.8,144.5,294.6,144.8,294.4,145z M300.9,145h-0.2
		c-0.2,0-0.3-0.1-0.4-0.2c-0.2,0-0.5,0-1.1,0c-0.6,0-0.9,0-1,0c-0.4,1.8-0.6,2.7-0.6,2.8c-0.2,1.1-0.3,2-0.3,2.8
		c0.2,0.1,0.2,0.3,0.2,0.5c0,0.1-0.1,0.3-0.2,0.4c-0.1,0.1-0.3,0.2-0.4,0.2c-0.5,0-0.7-0.4-0.7-1.3c0-0.5,0.1-1.4,0.3-2.5l0.6-2.8
		c-0.6,0-0.8-0.2-0.8-0.6c0-0.4,0.4-0.6,1.1-0.6c0.2-1,0.6-2.6,1.2-4.6c0.1-0.3,0.2-0.5,0.5-0.5c0.4,0,0.6,0.2,0.6,0.6
		c0,0.1,0,0.2-0.1,0.4c-0.1,0.2-0.2,0.7-0.4,1.3c-0.3,1.1-0.5,2-0.7,2.7c0.1,0,0.3,0,0.7,0c0.4,0,0.7,0,0.8,0c0.9,0,1.3,0.3,1.3,0.8
		C301.3,144.5,301.1,144.8,300.9,145z M307.2,148.3c-0.1,0.1-0.1,0.4-0.2,0.6c-0.2,0.5-0.5,0.9-1,1.3c-0.5,0.4-0.9,0.6-1.4,0.6
		c-0.7,0-1.3-0.3-1.8-1c-0.4-0.6-0.6-1.3-0.6-2c0-0.7,0.2-1.4,0.5-2.1c0.4-0.8,0.8-1.3,1.4-1.6c0.3-0.2,0.5-0.3,0.7-0.5
		c0.1,0,0.2,0,0.2,0c0,0,0.2,0,0.4,0.1c0.6,0.2,1.1,0.6,1.5,1.2c0.4,0.6,0.6,1.2,0.6,1.8C307.5,147.3,307.4,147.9,307.2,148.3z
		 M305.8,145.2c-0.3,0-0.5-0.1-0.7-0.2c-0.6,0-1.1,0.4-1.4,0.9c-0.3,0.5-0.4,1.1-0.4,1.8c0,0.5,0.1,1,0.4,1.3c0.3,0.4,0.6,0.6,1,0.6
		c0.5,0,0.9-0.3,1.3-1c0.4-0.6,0.6-1.2,0.6-1.8C306.5,146.1,306.2,145.5,305.8,145.2z M315.3,148.3c-0.1,0.6-0.1,1.4-0.2,2.3
		c0,0.2-0.1,0.3-0.2,0.3c-0.2,0-0.4-0.1-0.5-0.2c-0.1-0.2-0.2-0.4-0.2-0.5c0-0.2,0.1-0.6,0.1-1.1l0.3-3c-1.7,1.2-2.8,2.4-3.4,3.7
		c-0.1,0.2-0.2,0.5-0.3,0.7c-0.1,0.2-0.2,0.4-0.3,0.4c-0.4,0-0.6-0.2-0.7-0.6c-0.2-0.6-0.3-1.4-0.3-2.5c0-1.1,0.2-2.5,0.6-4.3
		c0-0.2,0.1-0.3,0.2-0.3c0.2,0,0.4,0.1,0.5,0.3c0.1,0.2,0.2,0.4,0.2,0.6c0,0.2-0.1,0.4-0.1,0.6c-0.3,1.2-0.4,2.5-0.4,3.9
		c1.4-1.8,2.8-3.1,4.2-4c0.2,0,0.4,0.1,0.5,0.2c0.2,0.2,0.2,0.4,0.2,0.5C315.5,146.1,315.4,147.1,315.3,148.3z M328.5,145h-0.2
		c-0.2,0-0.3-0.1-0.4-0.2c-0.2,0-0.5,0-1.1,0c-0.6,0-0.9,0-1,0c-0.4,1.8-0.6,2.7-0.6,2.8c-0.2,1.1-0.3,2-0.3,2.8
		c0.2,0.1,0.2,0.3,0.2,0.5c0,0.1-0.1,0.3-0.2,0.4c-0.1,0.1-0.3,0.2-0.4,0.2c-0.5,0-0.7-0.4-0.7-1.3c0-0.5,0.1-1.4,0.3-2.5l0.6-2.8
		c-0.6,0-0.8-0.2-0.8-0.6c0-0.4,0.4-0.6,1.1-0.6c0.2-1,0.6-2.6,1.2-4.6c0.1-0.3,0.2-0.5,0.5-0.5c0.4,0,0.6,0.2,0.6,0.6
		c0,0.1,0,0.2-0.1,0.4c-0.1,0.2-0.2,0.7-0.4,1.3c-0.3,1.1-0.5,2-0.7,2.7c0.1,0,0.3,0,0.7,0c0.4,0,0.7,0,0.8,0c0.9,0,1.3,0.3,1.3,0.8
		C328.9,144.5,328.7,144.8,328.5,145z M334.8,148.3c-0.1,0.1-0.1,0.4-0.2,0.6c-0.2,0.5-0.5,0.9-1,1.3s-0.9,0.6-1.4,0.6
		c-0.7,0-1.3-0.3-1.8-1c-0.4-0.6-0.6-1.3-0.6-2c0-0.7,0.2-1.4,0.5-2.1c0.4-0.8,0.8-1.3,1.4-1.6c0.3-0.2,0.5-0.3,0.7-0.5
		c0.1,0,0.2,0,0.2,0c0,0,0.2,0,0.4,0.1c0.6,0.2,1.1,0.6,1.5,1.2c0.4,0.6,0.6,1.2,0.6,1.8C335.1,147.3,335,147.9,334.8,148.3z
		 M333.4,145.2c-0.3,0-0.5-0.1-0.7-0.2c-0.6,0-1.1,0.4-1.4,0.9c-0.3,0.5-0.4,1.1-0.4,1.8c0,0.5,0.1,1,0.4,1.3c0.3,0.4,0.6,0.6,1,0.6
		c0.5,0,0.9-0.3,1.3-1c0.4-0.6,0.6-1.2,0.6-1.8C334.1,146.1,333.8,145.5,333.4,145.2z M348.1,146.1c-0.1,0.1-0.2,0.8-0.2,1.8
		c-0.1,1.7-0.4,3-1.1,4c-0.6,1-1.6,1.8-2.8,2.3c-0.5,0.2-1,0.3-1.4,0.3c-0.4,0-0.6-0.2-0.6-0.6c0-0.2,0.1-0.4,0.3-0.5
		c0.2-0.2,0.4-0.2,0.5-0.2c0,0,0.2,0,0.4,0.1c2.2-0.6,3.4-2.2,3.6-4.8c-0.7,0.7-1.4,1-2.2,1c-0.5,0-1-0.2-1.3-0.6
		c-0.3-0.4-0.5-0.9-0.5-1.5c0-1.1,0.4-2.1,1.1-3c0.8-1,1.7-1.5,2.8-1.5c1,0,1.5,0.6,1.5,1.9c0.1,0.1,0.2,0.2,0.2,0.4
		C348.5,145.3,348.4,145.7,348.1,146.1z M347,144.3c-0.2-0.2-0.3-0.3-0.5-0.3c-0.6,0-1.2,0.4-1.7,1.1c-0.5,0.7-0.8,1.5-0.8,2.2
		c0,0.3,0.1,0.6,0.2,0.8c0.1,0.2,0.4,0.3,0.6,0.3c1.2,0,2-0.9,2.3-2.8c0-0.2,0.1-0.4,0.2-0.5C347.3,144.8,347.2,144.5,347,144.3z
		 M355.2,151c-1.4,0-2.3-0.6-2.9-1.9c-0.1,0-0.3,0.1-0.5,0.1c-0.6,0-1.1-0.1-1.5-0.3c-0.4-0.2-0.6-0.5-0.6-0.8
		c0-0.4,0.2-0.6,0.5-0.6c0.1,0,0.2,0.1,0.5,0.3c0.3,0.2,0.6,0.3,0.9,0.3c0.1,0,0.2,0,0.3,0c-0.1-0.3-0.1-0.5-0.1-0.8
		c0-0.8,0.2-1.7,0.6-2.5c0.5-0.9,1.1-1.3,1.8-1.3c0.4,0,0.9,0.2,1.3,0.7c0.3,0.4,0.5,0.8,0.5,1.2c0,0.7-0.3,1.4-0.9,2
		c-0.5,0.6-1.2,1.1-1.9,1.4c0.4,0.7,0.9,1.1,1.7,1.1c0.2,0,0.4,0,0.7-0.1c0.3,0,0.5-0.1,0.6-0.1c0.1,0,0.2,0.1,0.4,0.2
		c0.1,0.1,0.2,0.3,0.2,0.4C356.8,150.8,356.2,151,355.2,151z M354.8,144.8c-0.2-0.2-0.4-0.2-0.6-0.2c-0.4,0-0.6,0.3-0.9,0.8
		c-0.2,0.5-0.4,1.1-0.4,1.6c0,0.2,0,0.5,0.1,0.7c0.6-0.2,1.1-0.6,1.5-1c0.4-0.4,0.6-0.8,0.6-1.3C355,145.2,354.9,145,354.8,144.8z
		 M363.3,145h-0.2c-0.2,0-0.3-0.1-0.4-0.2c-0.2,0-0.5,0-1.1,0c-0.6,0-0.9,0-1,0c-0.4,1.8-0.6,2.7-0.6,2.8c-0.2,1.1-0.3,2-0.3,2.8
		c0.2,0.1,0.2,0.3,0.2,0.5c0,0.1-0.1,0.3-0.2,0.4c-0.1,0.1-0.3,0.2-0.4,0.2c-0.5,0-0.7-0.4-0.7-1.3c0-0.5,0.1-1.4,0.3-2.5l0.6-2.8
		c-0.6,0-0.8-0.2-0.8-0.6c0-0.4,0.4-0.6,1.1-0.6c0.2-1,0.6-2.6,1.2-4.6c0.1-0.3,0.2-0.5,0.5-0.5c0.4,0,0.6,0.2,0.6,0.6
		c0,0.1,0,0.2-0.1,0.4c-0.1,0.2-0.2,0.7-0.4,1.3c-0.3,1.1-0.5,2-0.7,2.7c0.1,0,0.3,0,0.7,0c0.4,0,0.7,0,0.8,0c0.9,0,1.3,0.3,1.3,0.8
		C363.7,144.5,363.6,144.8,363.3,145z M374.7,144.5c-0.1,0-0.3,0-0.5,0c-0.2,0-0.4,0-0.5,0c-0.6,0-0.9,0.3-0.9,0.8
		c0,0.2,0.1,0.5,0.3,1c0.2,0.4,0.3,0.8,0.5,1.3c0.4,1.1,0.6,1.8,0.6,2.3c0,0.6-0.2,1-0.7,1.3c-0.4,0.2-1,0.4-1.6,0.4
		c-1.1,0-1.6-0.2-1.6-0.6c0-0.4,0.1-0.7,0.4-0.7c0.1,0,0.2,0,0.6,0.1c0.3,0.1,0.5,0.1,0.7,0.1c0.8,0,1.3-0.3,1.3-0.8
		c0-0.2-0.3-1.1-0.8-2.5c-0.1-0.3-0.2-0.6-0.4-1c-0.1-0.3-0.2-0.6-0.2-1c0-0.8,0.4-1.3,1.2-1.6c0.1-0.3,0.4-0.4,0.9-0.4
		c0.2,0,0.5,0.1,0.8,0.1c0.2,0.1,0.3,0.2,0.4,0.5c0,0.1,0.1,0.2,0.1,0.4C375.2,144.4,375,144.5,374.7,144.5z M381.9,145h-0.2
		c-0.2,0-0.3-0.1-0.4-0.2c-0.2,0-0.5,0-1.1,0c-0.6,0-0.9,0-1,0c-0.4,1.8-0.6,2.7-0.6,2.8c-0.2,1.1-0.3,2-0.3,2.8
		c0.2,0.1,0.2,0.3,0.2,0.5c0,0.1-0.1,0.3-0.2,0.4c-0.1,0.1-0.3,0.2-0.4,0.2c-0.5,0-0.7-0.4-0.7-1.3c0-0.5,0.1-1.4,0.3-2.5l0.6-2.8
		c-0.6,0-0.8-0.2-0.8-0.6c0-0.4,0.4-0.6,1.1-0.6c0.2-1,0.6-2.6,1.2-4.6c0.1-0.3,0.2-0.5,0.5-0.5c0.4,0,0.6,0.2,0.6,0.6
		c0,0.1,0,0.2-0.1,0.4c-0.1,0.2-0.2,0.7-0.4,1.3c-0.3,1.1-0.5,2-0.7,2.7c0.1,0,0.3,0,0.7,0c0.4,0,0.7,0,0.8,0c0.9,0,1.3,0.3,1.3,0.8
		C382.3,144.5,382.1,144.8,381.9,145z M389.1,146.7c-0.3,0.7-0.4,1.5-0.4,2.3c0,0.3,0,0.6,0.1,0.9c0.1,0.5,0.2,0.8,0.2,0.8
		c0,0.3-0.2,0.5-0.6,0.5c-0.4,0-0.5-0.3-0.6-0.9c0-0.3-0.1-0.8-0.2-1.4c-1,1.2-1.9,1.7-2.8,1.7c-0.5,0-0.9-0.2-1.2-0.7
		c-0.3-0.4-0.5-0.8-0.5-1.3c0-0.8,0.4-1.6,1.1-2.6c0.1-0.2,0.4-0.5,0.8-0.8c1.2-1.1,2.1-1.6,2.9-1.6c0.2,0,0.4,0.1,0.6,0.2
		c0.2,0.2,0.3,0.3,0.3,0.5c0,0,0,0.1-0.1,0.2c0.1,0.4,0.2,0.8,0.2,1.2c0.1,0.2,0.2,0.3,0.2,0.5C389.1,146.5,389.1,146.6,389.1,146.7
		z M387.5,145c-0.2,0-0.6,0.2-1.1,0.6c-0.5,0.3-0.8,0.7-1.1,1c-0.7,0.8-1.1,1.5-1.1,2.1c0,0.6,0.2,0.9,0.7,0.9c0.7,0,1.3-0.4,2-1.2
		c0.7-0.8,1-1.6,1-2.4C387.9,145.3,387.8,145,387.5,145z M396.2,145h-0.2c-0.2,0-0.3-0.1-0.4-0.2c-0.2,0-0.5,0-1.1,0
		c-0.6,0-0.9,0-1,0c-0.4,1.8-0.6,2.7-0.6,2.8c-0.2,1.1-0.3,2-0.3,2.8c0.2,0.1,0.2,0.3,0.2,0.5c0,0.1-0.1,0.3-0.2,0.4
		c-0.1,0.1-0.3,0.2-0.4,0.2c-0.5,0-0.7-0.4-0.7-1.3c0-0.5,0.1-1.4,0.3-2.5l0.6-2.8c-0.6,0-0.8-0.2-0.8-0.6c0-0.4,0.4-0.6,1.1-0.6
		c0.2-1,0.6-2.6,1.2-4.6c0.1-0.3,0.2-0.5,0.5-0.5c0.4,0,0.6,0.2,0.6,0.6c0,0.1,0,0.2-0.1,0.4c-0.1,0.2-0.2,0.7-0.4,1.3
		c-0.3,1.1-0.5,2-0.7,2.7c0.1,0,0.3,0,0.7,0c0.4,0,0.7,0,0.8,0c0.9,0,1.3,0.3,1.3,0.8C396.6,144.5,396.4,144.8,396.2,145z
		 M402.5,151c-1.4,0-2.3-0.6-2.9-1.9c-0.1,0-0.3,0.1-0.5,0.1c-0.6,0-1.1-0.1-1.5-0.3c-0.4-0.2-0.6-0.5-0.6-0.8
		c0-0.4,0.2-0.6,0.5-0.6c0.1,0,0.2,0.1,0.5,0.3c0.3,0.2,0.6,0.3,0.9,0.3c0.1,0,0.2,0,0.3,0c-0.1-0.3-0.1-0.5-0.1-0.8
		c0-0.8,0.2-1.7,0.6-2.5c0.5-0.9,1.1-1.3,1.8-1.3c0.4,0,0.9,0.2,1.3,0.7c0.3,0.4,0.5,0.8,0.5,1.2c0,0.7-0.3,1.4-0.9,2
		c-0.5,0.6-1.2,1.1-1.9,1.4c0.4,0.7,0.9,1.1,1.7,1.1c0.2,0,0.4,0,0.7-0.1c0.3,0,0.5-0.1,0.6-0.1c0.1,0,0.2,0.1,0.4,0.2
		c0.1,0.1,0.2,0.3,0.2,0.4C404.1,150.8,403.5,151,402.5,151z M402.1,144.8c-0.2-0.2-0.4-0.2-0.6-0.2c-0.4,0-0.6,0.3-0.9,0.8
		c-0.2,0.5-0.4,1.1-0.4,1.6c0,0.2,0,0.5,0.1,0.7c0.6-0.2,1.1-0.6,1.5-1c0.4-0.4,0.6-0.8,0.6-1.3C402.3,145.2,402.2,145,402.1,144.8z
		 M411.3,139.3c-0.1,0.8-0.2,1.3-0.2,1.7c0,0.2,0,0.4,0,0.7c0,0.4-0.1,0.7-0.3,1c-0.2,2-0.2,3.3-0.2,3.9c0,1.6,0.1,3.1,0.4,4.6
		c0.1,0.4,0.1,0.6,0.1,0.9c0,0.1-0.1,0.2-0.2,0.3c-0.1,0.1-0.2,0.2-0.4,0.2c-0.3,0-0.5-0.3-0.5-0.8c-0.2-1-0.3-2-0.4-3.1
		c-0.3,0.6-0.7,1.1-1.1,1.5c-0.6,0.5-1.1,0.8-1.6,0.8c-0.6,0-1-0.2-1.3-0.5c-0.3-0.4-0.5-0.8-0.5-1.4c0-0.9,0.4-2,1.2-3.1
		c0.8-1.1,1.5-1.7,2.2-1.7c0.4,0,0.7,0.2,1.1,0.6c0.2-3.2,0.5-5.6,0.9-7c0.1-0.3,0.2-0.4,0.5-0.4c0.3,0,0.5,0.2,0.5,0.5
		C411.5,138.1,411.4,138.5,411.3,139.3z M408.7,145.5c-0.1,0-0.2,0-0.2,0c-0.4,0-0.9,0.4-1.5,1.3c-0.6,0.9-0.9,1.7-0.9,2.3
		c0,0.6,0.2,0.9,0.7,0.9c0.6,0,1.2-0.4,1.7-1.1c0.5-0.6,0.9-1.4,1.1-2.3C409.1,146.3,408.9,146,408.7,145.5z"/>
</g>
<g>
	<g>
		<path fill="#DDDDDD" d="M292.4,104.6c23.2-42.3,63.9-73.9,110.8-85.4c1.7-0.4,1.4-1.5-0.3-1.1c-47.9,11.8-89.7,43.7-113.4,87
			C289.3,105.6,292,105.3,292.4,104.6L292.4,104.6z"/>
	</g>
</g>
<g>
	<g>
		<path fill="#DDDDDD" d="M384.2,15.4c4.5-0.2,8.9-0.3,13.4-0.2c2.4,0,4.9,0.2,7.3,0.3c2.4,0.1,5.5-0.4,3.1,2.6
			c-5.1,6.4-10.7,12.5-16.5,18.3c-0.7,0.7,2.1,0.4,2.7-0.1c6.7-6.7,12.9-13.7,18.7-21.1c0.3-0.4,0-0.6-0.4-0.6c-9-0.8-18-1-27-0.6
			C384.5,14.1,382.3,15.5,384.2,15.4L384.2,15.4z"/>
	</g>
</g>
</svg>
