<?xml version="1.0" encoding="utf-8"?>
<!-- Generator: Adobe Illustrator 18.0.0, SVG Export Plug-In . SVG Version: 6.00 Build 0)  -->
<!DOCTYPE svg PUBLIC "-//W3C//DTD SVG 1.1//EN" "http://www.w3.org/Graphics/SVG/1.1/DTD/svg11.dtd">
<svg version="1.1" id="Layer_1" xmlns="http://www.w3.org/2000/svg" xmlns:xlink="http://www.w3.org/1999/xlink" x="0px" y="0px"
	 viewBox="0 0 32 32" enable-background="new 0 0 32 32" xml:space="preserve">
<g>
	<path fill="#43435B" d="M0.4,3.9v1.3v21.7v1.3h1.2h28.7h1.2v-1.3V5.1V3.9h-1.2H1.7C1.7,3.9,0.4,3.9,0.4,3.9z M1.9,5.7h28.1v20.6
		H1.9V5.7z"/>
	<path id="rect3760" inkscape:connector-curvature="0" fill="#43435B" d="M4,7.4c-0.1,0-0.2,0.1-0.2,0.2v0v16.8v0
		c0,0.1,0.1,0.2,0.2,0.2h0h24.1h0c0.1,0,0.2-0.1,0.2-0.2v0V7.6v0c0-0.1-0.1-0.2-0.2-0.2h0H4L4,7.4z M4.4,7.8h23.3
		c0.1,0,0.2,0.1,0.2,0.2v16c0,0.1-0.1,0.2-0.2,0.2H4.4c-0.1,0-0.2-0.1-0.2-0.2V8C4.2,7.9,4.3,7.8,4.4,7.8z"/>
	<g id="g3835" transform="matrix(0.03023187,0,0,0.03023187,55.958323,36.734958)">
		<path id="path3825" inkscape:connector-curvature="0" fill="#43435B" d="M-1592.8-858c3.2-5.7,6.5-11.2,10-16.7
			c3.3,5.7,6.5,11.4,10.1,16.9c4.7-4.6,9.8-8.7,14.6-13.1c1.3,6.4,2.8,12.8,4.3,19.3c5.9-2.6,11.9-5.1,17.9-7.6
			c-0.3,6.5-1.1,13-1.6,19.5c6.4-0.7,12.9-1.3,19.3-1.8c-2.5,6.1-5.1,12.1-7.7,18.1c6.4,1.3,12.7,2.8,19,4.2c-4,5.1-8.6,9.8-12.5,15
			c5.5,3.3,11,6.5,16.6,9.8c-5.5,3.6-11.2,6.8-16.8,10.2c4.3,4.8,8.5,9.7,12.8,14.6c-6.3,1.7-12.7,3-19,4.4c2.5,6.1,5.3,12,7.6,18.1
			c-6.4-0.7-12.9-1.2-19.3-1.9c0.4,6.5,1,13,1.5,19.6c-6-2.6-11.9-5.2-17.9-7.6c-0.7,3-1.8,6.2-0.6,9.2
			c10.4,31.3,20.9,62.6,31.5,93.8c-8.5-4.9-16.7-10.3-25.1-15.2c-4.4,8.4-8.5,16.9-13.1,25.1c-0.6-1.9-1.1-3.8-1.5-5.7
			c-6.4-28.3-13.3-56.5-19.7-84.7c-0.4,0-0.8,0-1.2,0c-5.1,22.2-10.4,44.3-15.5,66.5c-1.9,7.8-3.4,15.8-5.7,23.5
			c-4.6-8.2-8.6-16.7-13.1-25c-8.5,5-16.6,10.3-25.1,15.2c10.7-31.1,20.7-62.4,31.4-93.4c1-3,0.2-6.2-0.5-9.1c-6.1,2.3-12,5-18,7.6
			c0.4-6.5,1.2-13,1.6-19.6c-6.4,0.7-12.8,1.2-19.3,1.9c2.5-6.1,5.2-12.1,7.6-18.1c-6.3-1.4-12.6-2.8-18.9-4.3
			c4.1-5,8.5-9.9,12.8-14.8c-5.7-3.2-11.3-6.5-16.9-10.1c5.7-3.3,11.1-6.7,16.8-9.8c-4.2-5.1-8.8-9.8-12.8-15
			c6.3-1.4,12.6-2.8,18.9-4.2c-2.5-6-5.1-12.1-7.6-18.1c6.5,0.3,12.9,1.1,19.3,1.8c-0.3-6.5-1.1-13-1.5-19.5
			c6,2.4,11.9,5.2,17.9,7.4c1.4-6.4,3-12.7,4.2-19.1C-1602.8-866.6-1598-862-1592.8-858 M-1585.2-847.3
			c-15.5,0.5-30.6,8.6-39.4,21.3c-10,13.5-12.1,32.2-6.4,47.9c3.9,11.3,12.3,20.9,22.7,26.9c14.5,8.4,33.2,8.7,48.3,1.4
			c8.3-3.9,15.2-10.4,20.3-18c11.4-17.3,10.9-41.6-1.3-58.3C-1550.8-840.1-1568.2-848.4-1585.2-847.3z"/>
		<path id="path3827" inkscape:connector-curvature="0" fill="#43435B" d="M-1586.2-843.6c18.4-1.6,37.1,9,45.5,25.5
			c4.2,7.7,5.7,16.5,5.2,25.2c-0.8,21.2-17.9,40.4-38.8,43.8c-18.5,3.6-38.6-4.9-48.6-20.9c-10.9-16.2-10-39.2,1.9-54.7
			C-1612.9-835.7-1599.8-842.7-1586.2-843.6z"/>
	</g>
	<path id="path3860" inkscape:connector-curvature="0" fill="#43435B" d="M5.7,20.5v0.4h5.6v-0.4H5.7z"/>
	<path id="path3862" inkscape:connector-curvature="0" fill="#43435B" d="M5.7,22.3v0.4h5.6v-0.4H5.7z"/>
	<path fill="#43435B" d="M22.8,18.2h-6.2c-0.2,0-0.4,0.2-0.4,0.4c0,0.2,0.2,0.4,0.4,0.4h3.5v1.2c0,0.9,0.7,1.6,1.6,1.6
		s1.6-0.7,1.6-1.6v-1.6C23.2,18.3,23,18.2,22.8,18.2z M22.4,20.1c0,0.4-0.3,0.8-0.8,0.8c-0.4,0-0.8-0.3-0.8-0.8v-1.2h1.6V20.1z"/>
	<path fill="#43435B" d="M16.6,14.9c0.1,0,0.2,0,0.3-0.1c0.2-0.2,0.2-0.4,0-0.5l-0.5-0.5l0.5-0.5c0.2-0.2,0.2-0.4,0-0.5
		c-0.2-0.2-0.4-0.2-0.5,0l-0.5,0.5l-0.5-0.5c-0.2-0.2-0.4-0.2-0.5,0s-0.2,0.4,0,0.5l0.5,0.5l-0.5,0.5c-0.2,0.2-0.2,0.4,0,0.5
		c0.1,0.1,0.2,0.1,0.3,0.1s0.2,0,0.3-0.1l0.5-0.5l0.5,0.5C16.4,14.8,16.5,14.9,16.6,14.9z"/>
	<path fill="#43435B" d="M24.6,12.6c-0.2-0.2-0.4-0.2-0.5,0l-0.5,0.5l-0.5-0.5c-0.2-0.2-0.4-0.2-0.5,0c-0.2,0.2-0.2,0.4,0,0.5
		l0.5,0.5l-0.5,0.5c-0.2,0.2-0.2,0.4,0,0.5c0.1,0.1,0.2,0.1,0.3,0.1c0.1,0,0.2,0,0.3-0.1l0.5-0.5l0.5,0.5c0.1,0.1,0.2,0.1,0.3,0.1
		c0.1,0,0.2,0,0.3-0.1c0.2-0.2,0.2-0.4,0-0.5l-0.5-0.5l0.5-0.5C24.8,13,24.8,12.8,24.6,12.6z"/>
</g>
</svg>
