<?xml version="1.0" encoding="utf-8"?>
<!-- Generator: Adobe Illustrator 18.0.0, SVG Export Plug-In . SVG Version: 6.00 Build 0)  -->
<!DOCTYPE svg PUBLIC "-//W3C//DTD SVG 1.1//EN" "http://www.w3.org/Graphics/SVG/1.1/DTD/svg11.dtd">
<svg version="1.1" id="Layer_1" xmlns="http://www.w3.org/2000/svg" xmlns:xlink="http://www.w3.org/1999/xlink" x="0px" y="0px"
	 viewBox="0 0 32 32" enable-background="new 0 0 32 32" xml:space="preserve">
<g>
	<path d="M3.2,17.8L2,21.7H0.3L4.5,9.3h1.9l4.2,12.4H8.9l-1.3-3.9H3.2z M7.3,16.6L6.1,13c-0.3-0.8-0.5-1.5-0.6-2.3h0
		C5.2,11.5,5,12.2,4.8,13l-1.2,3.6H7.3z"/>
	<path d="M12.5,9.5c0.7-0.1,1.8-0.3,2.9-0.3c1.6,0,2.6,0.3,3.4,0.9c0.6,0.5,1,1.2,1,2.2c0,1.2-0.8,2.2-2.1,2.7v0
		c1.2,0.3,2.5,1.3,2.5,3.1c0,1.1-0.4,1.9-1,2.5c-0.9,0.8-2.3,1.2-4.3,1.2c-1.1,0-1.9-0.1-2.5-0.1V9.5z M14.1,14.6h1.4
		c1.7,0,2.7-0.9,2.7-2.1c0-1.4-1.1-2-2.7-2c-0.7,0-1.2,0.1-1.4,0.1V14.6z M14.1,20.5c0.3,0.1,0.8,0.1,1.3,0.1c1.7,0,3.2-0.6,3.2-2.4
		c0-1.7-1.4-2.4-3.2-2.4h-1.3V20.5z"/>
	<path d="M31,21.3c-0.6,0.3-1.8,0.6-3.3,0.6c-3.5,0-6.1-2.2-6.1-6.3c0-3.9,2.6-6.5,6.5-6.5c1.5,0,2.5,0.3,2.9,0.6L30.7,11
		c-0.6-0.3-1.5-0.5-2.5-0.5c-2.9,0-4.8,1.9-4.8,5.1c0,3,1.7,5,4.8,5c1,0,2-0.2,2.6-0.5L31,21.3z"/>
</g>
</svg>
